M48
; DRILL file {KiCad 5.1.5+dfsg1-2~bpo10+1} date Mon 27 Apr 2020 11:17:56 PM CEST
; FORMAT={-:-/ absolute / inch / decimal}
; #@! TF.CreationDate,2020-04-27T23:17:56+02:00
; #@! TF.GenerationSoftware,Kicad,Pcbnew,5.1.5+dfsg1-2~bpo10+1
FMAT,2
INCH
T1C0.0080
T2C0.0300
T3C0.0315
T4C0.0394
T5C0.1000
T6C0.1083
%
G90
G05
T1
X3.98Y-3.12
X4.37Y-2.97
T2
X3.49Y-4.1
X3.49Y-4.2
X3.49Y-4.3
X3.49Y-4.4
X4.51Y-4.1
X4.51Y-4.2
X4.51Y-4.3
X4.51Y-4.4
X3.78Y-3.34
X3.88Y-3.34
X3.98Y-3.34
X4.08Y-3.34
X4.18Y-3.34
X4.28Y-3.34
X4.38Y-3.34
X4.48Y-3.34
X4.58Y-3.34
X4.68Y-3.34
T3
X3.77Y-3.57
X4.17Y-3.57
X4.88Y-3.85
X5.28Y-3.85
X4.93Y-3.41
X4.93Y-3.51
X4.93Y-3.61
X4.93Y-3.71
X5.23Y-3.41
X5.23Y-3.51
X5.23Y-3.61
X5.23Y-3.71
X3.77Y-3.73
X4.17Y-3.73
T4
X5.48Y-3.53
X5.48Y-3.63
X3.36Y-3.44
X3.36Y-3.54
X3.36Y-3.64
X3.36Y-3.74
X3.46Y-3.44
X3.46Y-3.54
X3.46Y-3.64
X3.46Y-3.74
X3.42Y-2.97
X3.42Y-3.07
X5.31Y-4.48
X3.422Y-2.4823
X3.422Y-2.5823
X3.522Y-2.4823
X3.522Y-2.5823
X3.622Y-2.4823
X3.622Y-2.5823
X3.722Y-2.4823
X3.722Y-2.5823
X3.822Y-2.4823
X3.822Y-2.5823
X3.922Y-2.4823
X3.922Y-2.5823
X4.022Y-2.4823
X4.022Y-2.5823
X4.122Y-2.4823
X4.122Y-2.5823
X4.222Y-2.4823
X4.222Y-2.5823
X4.322Y-2.4823
X4.322Y-2.5823
X4.422Y-2.4823
X4.422Y-2.5823
X4.522Y-2.4823
X4.522Y-2.5823
X4.622Y-2.4823
X4.622Y-2.5823
X4.722Y-2.4823
X4.722Y-2.5823
X4.822Y-2.4823
X4.822Y-2.5823
X4.922Y-2.4823
X4.922Y-2.5823
X5.022Y-2.4823
X5.022Y-2.5823
X5.122Y-2.4823
X5.122Y-2.5823
X5.222Y-2.4823
X5.222Y-2.5823
X5.322Y-2.4823
X5.322Y-2.5823
X3.19Y-4.14
X5.47Y-2.83
X5.47Y-2.93
X5.47Y-3.03
X5.47Y-3.13
X5.48Y-3.95
X5.48Y-4.05
X5.48Y-4.15
T5
X3.78Y-2.84
X4.68Y-2.84
T6
X3.2299Y-4.4614
X5.5134Y-2.5327
X5.513Y-4.461
X3.2299Y-2.5319
T0
M30
