G04 #@! TF.GenerationSoftware,KiCad,Pcbnew,5.1.5+dfsg1-2~bpo10+1*
G04 #@! TF.CreationDate,2020-04-27T23:17:52+02:00*
G04 #@! TF.ProjectId,pressure-rev1,70726573-7375-4726-952d-726576312e6b,rev?*
G04 #@! TF.SameCoordinates,Original*
G04 #@! TF.FileFunction,Legend,Top*
G04 #@! TF.FilePolarity,Positive*
%FSLAX46Y46*%
G04 Gerber Fmt 4.6, Leading zero omitted, Abs format (unit mm)*
G04 Created by KiCad (PCBNEW 5.1.5+dfsg1-2~bpo10+1) date 2020-04-27 23:17:52*
%MOMM*%
%LPD*%
G04 APERTURE LIST*
%ADD10C,0.300000*%
%ADD11C,0.200000*%
%ADD12C,0.250000*%
%ADD13C,0.120000*%
%ADD14C,0.150000*%
G04 APERTURE END LIST*
D10*
X135727714Y-108708000D02*
X136442000Y-108708000D01*
X135584857Y-109136571D02*
X136084857Y-107636571D01*
X136584857Y-109136571D01*
X137084857Y-108136571D02*
X137084857Y-109136571D01*
X137084857Y-108279428D02*
X137156285Y-108208000D01*
X137299142Y-108136571D01*
X137513428Y-108136571D01*
X137656285Y-108208000D01*
X137727714Y-108350857D01*
X137727714Y-109136571D01*
X139084857Y-109136571D02*
X139084857Y-108350857D01*
X139013428Y-108208000D01*
X138870571Y-108136571D01*
X138584857Y-108136571D01*
X138442000Y-108208000D01*
X139084857Y-109065142D02*
X138942000Y-109136571D01*
X138584857Y-109136571D01*
X138442000Y-109065142D01*
X138370571Y-108922285D01*
X138370571Y-108779428D01*
X138442000Y-108636571D01*
X138584857Y-108565142D01*
X138942000Y-108565142D01*
X139084857Y-108493714D01*
X140013428Y-109136571D02*
X139870571Y-109065142D01*
X139799142Y-108922285D01*
X139799142Y-107636571D01*
X140799142Y-109136571D02*
X140656285Y-109065142D01*
X140584857Y-108993714D01*
X140513428Y-108850857D01*
X140513428Y-108422285D01*
X140584857Y-108279428D01*
X140656285Y-108208000D01*
X140799142Y-108136571D01*
X141013428Y-108136571D01*
X141156285Y-108208000D01*
X141227714Y-108279428D01*
X141299142Y-108422285D01*
X141299142Y-108850857D01*
X141227714Y-108993714D01*
X141156285Y-109065142D01*
X141013428Y-109136571D01*
X140799142Y-109136571D01*
X142584857Y-108136571D02*
X142584857Y-109350857D01*
X142513428Y-109493714D01*
X142442000Y-109565142D01*
X142299142Y-109636571D01*
X142084857Y-109636571D01*
X141942000Y-109565142D01*
X142584857Y-109065142D02*
X142442000Y-109136571D01*
X142156285Y-109136571D01*
X142013428Y-109065142D01*
X141942000Y-108993714D01*
X141870571Y-108850857D01*
X141870571Y-108422285D01*
X141942000Y-108279428D01*
X142013428Y-108208000D01*
X142156285Y-108136571D01*
X142442000Y-108136571D01*
X142584857Y-108208000D01*
D11*
X134072476Y-103036666D02*
X134548666Y-103036666D01*
X133977238Y-103322380D02*
X134310571Y-102322380D01*
X134643904Y-103322380D01*
X134739142Y-103417619D02*
X135501047Y-103417619D01*
X135739142Y-103322380D02*
X135739142Y-102655714D01*
X135739142Y-102322380D02*
X135691523Y-102370000D01*
X135739142Y-102417619D01*
X135786761Y-102370000D01*
X135739142Y-102322380D01*
X135739142Y-102417619D01*
X136215333Y-102655714D02*
X136215333Y-103322380D01*
X136215333Y-102750952D02*
X136262952Y-102703333D01*
X136358190Y-102655714D01*
X136501047Y-102655714D01*
X136596285Y-102703333D01*
X136643904Y-102798571D01*
X136643904Y-103322380D01*
X135699523Y-99782380D02*
X135223333Y-99782380D01*
X135175714Y-100258571D01*
X135223333Y-100210952D01*
X135318571Y-100163333D01*
X135556666Y-100163333D01*
X135651904Y-100210952D01*
X135699523Y-100258571D01*
X135747142Y-100353809D01*
X135747142Y-100591904D01*
X135699523Y-100687142D01*
X135651904Y-100734761D01*
X135556666Y-100782380D01*
X135318571Y-100782380D01*
X135223333Y-100734761D01*
X135175714Y-100687142D01*
X136032857Y-99782380D02*
X136366190Y-100782380D01*
X136699523Y-99782380D01*
X134620095Y-104910000D02*
X134524857Y-104862380D01*
X134382000Y-104862380D01*
X134239142Y-104910000D01*
X134143904Y-105005238D01*
X134096285Y-105100476D01*
X134048666Y-105290952D01*
X134048666Y-105433809D01*
X134096285Y-105624285D01*
X134143904Y-105719523D01*
X134239142Y-105814761D01*
X134382000Y-105862380D01*
X134477238Y-105862380D01*
X134620095Y-105814761D01*
X134667714Y-105767142D01*
X134667714Y-105433809D01*
X134477238Y-105433809D01*
X135096285Y-105862380D02*
X135096285Y-104862380D01*
X135667714Y-105862380D01*
X135667714Y-104862380D01*
X136143904Y-105862380D02*
X136143904Y-104862380D01*
X136382000Y-104862380D01*
X136524857Y-104910000D01*
X136620095Y-105005238D01*
X136667714Y-105100476D01*
X136715333Y-105290952D01*
X136715333Y-105433809D01*
X136667714Y-105624285D01*
X136620095Y-105719523D01*
X136524857Y-105814761D01*
X136382000Y-105862380D01*
X136143904Y-105862380D01*
D10*
X109935142Y-90100571D02*
X110792285Y-90100571D01*
X110363714Y-91600571D02*
X110363714Y-90100571D01*
X111292285Y-91600571D02*
X111292285Y-90600571D01*
X111292285Y-90100571D02*
X111220857Y-90172000D01*
X111292285Y-90243428D01*
X111363714Y-90172000D01*
X111292285Y-90100571D01*
X111292285Y-90243428D01*
X112649428Y-90600571D02*
X112649428Y-91814857D01*
X112578000Y-91957714D01*
X112506571Y-92029142D01*
X112363714Y-92100571D01*
X112149428Y-92100571D01*
X112006571Y-92029142D01*
X112649428Y-91529142D02*
X112506571Y-91600571D01*
X112220857Y-91600571D01*
X112078000Y-91529142D01*
X112006571Y-91457714D01*
X111935142Y-91314857D01*
X111935142Y-90886285D01*
X112006571Y-90743428D01*
X112078000Y-90672000D01*
X112220857Y-90600571D01*
X112506571Y-90600571D01*
X112649428Y-90672000D01*
X113935142Y-91529142D02*
X113792285Y-91600571D01*
X113506571Y-91600571D01*
X113363714Y-91529142D01*
X113292285Y-91386285D01*
X113292285Y-90814857D01*
X113363714Y-90672000D01*
X113506571Y-90600571D01*
X113792285Y-90600571D01*
X113935142Y-90672000D01*
X114006571Y-90814857D01*
X114006571Y-90957714D01*
X113292285Y-91100571D01*
X114649428Y-91600571D02*
X114649428Y-90600571D01*
X114649428Y-90886285D02*
X114720857Y-90743428D01*
X114792285Y-90672000D01*
X114935142Y-90600571D01*
X115078000Y-90600571D01*
X116506571Y-90100571D02*
X117006571Y-91600571D01*
X117506571Y-90100571D01*
X118578000Y-91529142D02*
X118435142Y-91600571D01*
X118149428Y-91600571D01*
X118006571Y-91529142D01*
X117935142Y-91386285D01*
X117935142Y-90814857D01*
X118006571Y-90672000D01*
X118149428Y-90600571D01*
X118435142Y-90600571D01*
X118578000Y-90672000D01*
X118649428Y-90814857D01*
X118649428Y-90957714D01*
X117935142Y-91100571D01*
X119292285Y-90600571D02*
X119292285Y-91600571D01*
X119292285Y-90743428D02*
X119363714Y-90672000D01*
X119506571Y-90600571D01*
X119720857Y-90600571D01*
X119863714Y-90672000D01*
X119935142Y-90814857D01*
X119935142Y-91600571D01*
X120435142Y-90600571D02*
X121006571Y-90600571D01*
X120649428Y-90100571D02*
X120649428Y-91386285D01*
X120720857Y-91529142D01*
X120863714Y-91600571D01*
X121006571Y-91600571D01*
X121435142Y-91529142D02*
X121578000Y-91600571D01*
X121863714Y-91600571D01*
X122006571Y-91529142D01*
X122078000Y-91386285D01*
X122078000Y-91314857D01*
X122006571Y-91172000D01*
X121863714Y-91100571D01*
X121649428Y-91100571D01*
X121506571Y-91029142D01*
X121435142Y-90886285D01*
X121435142Y-90814857D01*
X121506571Y-90672000D01*
X121649428Y-90600571D01*
X121863714Y-90600571D01*
X122006571Y-90672000D01*
X108185142Y-94079142D02*
X108399428Y-94150571D01*
X108756571Y-94150571D01*
X108899428Y-94079142D01*
X108970857Y-94007714D01*
X109042285Y-93864857D01*
X109042285Y-93722000D01*
X108970857Y-93579142D01*
X108899428Y-93507714D01*
X108756571Y-93436285D01*
X108470857Y-93364857D01*
X108328000Y-93293428D01*
X108256571Y-93222000D01*
X108185142Y-93079142D01*
X108185142Y-92936285D01*
X108256571Y-92793428D01*
X108328000Y-92722000D01*
X108470857Y-92650571D01*
X108828000Y-92650571D01*
X109042285Y-92722000D01*
X110256571Y-94079142D02*
X110113714Y-94150571D01*
X109828000Y-94150571D01*
X109685142Y-94079142D01*
X109613714Y-93936285D01*
X109613714Y-93364857D01*
X109685142Y-93222000D01*
X109828000Y-93150571D01*
X110113714Y-93150571D01*
X110256571Y-93222000D01*
X110328000Y-93364857D01*
X110328000Y-93507714D01*
X109613714Y-93650571D01*
X110970857Y-93150571D02*
X110970857Y-94150571D01*
X110970857Y-93293428D02*
X111042285Y-93222000D01*
X111185142Y-93150571D01*
X111399428Y-93150571D01*
X111542285Y-93222000D01*
X111613714Y-93364857D01*
X111613714Y-94150571D01*
X112256571Y-94079142D02*
X112399428Y-94150571D01*
X112685142Y-94150571D01*
X112828000Y-94079142D01*
X112899428Y-93936285D01*
X112899428Y-93864857D01*
X112828000Y-93722000D01*
X112685142Y-93650571D01*
X112470857Y-93650571D01*
X112328000Y-93579142D01*
X112256571Y-93436285D01*
X112256571Y-93364857D01*
X112328000Y-93222000D01*
X112470857Y-93150571D01*
X112685142Y-93150571D01*
X112828000Y-93222000D01*
X113756571Y-94150571D02*
X113613714Y-94079142D01*
X113542285Y-94007714D01*
X113470857Y-93864857D01*
X113470857Y-93436285D01*
X113542285Y-93293428D01*
X113613714Y-93222000D01*
X113756571Y-93150571D01*
X113970857Y-93150571D01*
X114113714Y-93222000D01*
X114185142Y-93293428D01*
X114256571Y-93436285D01*
X114256571Y-93864857D01*
X114185142Y-94007714D01*
X114113714Y-94079142D01*
X113970857Y-94150571D01*
X113756571Y-94150571D01*
X114899428Y-94150571D02*
X114899428Y-93150571D01*
X114899428Y-93436285D02*
X114970857Y-93293428D01*
X115042285Y-93222000D01*
X115185142Y-93150571D01*
X115328000Y-93150571D01*
X117470857Y-93364857D02*
X117685142Y-93436285D01*
X117756571Y-93507714D01*
X117828000Y-93650571D01*
X117828000Y-93864857D01*
X117756571Y-94007714D01*
X117685142Y-94079142D01*
X117542285Y-94150571D01*
X116970857Y-94150571D01*
X116970857Y-92650571D01*
X117470857Y-92650571D01*
X117613714Y-92722000D01*
X117685142Y-92793428D01*
X117756571Y-92936285D01*
X117756571Y-93079142D01*
X117685142Y-93222000D01*
X117613714Y-93293428D01*
X117470857Y-93364857D01*
X116970857Y-93364857D01*
X118685142Y-94150571D02*
X118542285Y-94079142D01*
X118470857Y-94007714D01*
X118399428Y-93864857D01*
X118399428Y-93436285D01*
X118470857Y-93293428D01*
X118542285Y-93222000D01*
X118685142Y-93150571D01*
X118899428Y-93150571D01*
X119042285Y-93222000D01*
X119113714Y-93293428D01*
X119185142Y-93436285D01*
X119185142Y-93864857D01*
X119113714Y-94007714D01*
X119042285Y-94079142D01*
X118899428Y-94150571D01*
X118685142Y-94150571D01*
X120470857Y-94150571D02*
X120470857Y-93364857D01*
X120399428Y-93222000D01*
X120256571Y-93150571D01*
X119970857Y-93150571D01*
X119828000Y-93222000D01*
X120470857Y-94079142D02*
X120328000Y-94150571D01*
X119970857Y-94150571D01*
X119828000Y-94079142D01*
X119756571Y-93936285D01*
X119756571Y-93793428D01*
X119828000Y-93650571D01*
X119970857Y-93579142D01*
X120328000Y-93579142D01*
X120470857Y-93507714D01*
X121185142Y-94150571D02*
X121185142Y-93150571D01*
X121185142Y-93436285D02*
X121256571Y-93293428D01*
X121328000Y-93222000D01*
X121470857Y-93150571D01*
X121613714Y-93150571D01*
X122756571Y-94150571D02*
X122756571Y-92650571D01*
X122756571Y-94079142D02*
X122613714Y-94150571D01*
X122328000Y-94150571D01*
X122185142Y-94079142D01*
X122113714Y-94007714D01*
X122042285Y-93864857D01*
X122042285Y-93436285D01*
X122113714Y-93293428D01*
X122185142Y-93222000D01*
X122328000Y-93150571D01*
X122613714Y-93150571D01*
X122756571Y-93222000D01*
X113685142Y-96700571D02*
X113185142Y-95986285D01*
X112828000Y-96700571D02*
X112828000Y-95200571D01*
X113399428Y-95200571D01*
X113542285Y-95272000D01*
X113613714Y-95343428D01*
X113685142Y-95486285D01*
X113685142Y-95700571D01*
X113613714Y-95843428D01*
X113542285Y-95914857D01*
X113399428Y-95986285D01*
X112828000Y-95986285D01*
X114899428Y-96629142D02*
X114756571Y-96700571D01*
X114470857Y-96700571D01*
X114328000Y-96629142D01*
X114256571Y-96486285D01*
X114256571Y-95914857D01*
X114328000Y-95772000D01*
X114470857Y-95700571D01*
X114756571Y-95700571D01*
X114899428Y-95772000D01*
X114970857Y-95914857D01*
X114970857Y-96057714D01*
X114256571Y-96200571D01*
X115470857Y-95700571D02*
X115828000Y-96700571D01*
X116185142Y-95700571D01*
X116756571Y-96557714D02*
X116828000Y-96629142D01*
X116756571Y-96700571D01*
X116685142Y-96629142D01*
X116756571Y-96557714D01*
X116756571Y-96700571D01*
X119399428Y-96700571D02*
X118542285Y-96700571D01*
X118970857Y-96700571D02*
X118970857Y-95200571D01*
X118828000Y-95414857D01*
X118685142Y-95557714D01*
X118542285Y-95629142D01*
X139350857Y-94936571D02*
X139636571Y-94936571D01*
X139779428Y-95008000D01*
X139922285Y-95150857D01*
X139993714Y-95436571D01*
X139993714Y-95936571D01*
X139922285Y-96222285D01*
X139779428Y-96365142D01*
X139636571Y-96436571D01*
X139350857Y-96436571D01*
X139208000Y-96365142D01*
X139065142Y-96222285D01*
X138993714Y-95936571D01*
X138993714Y-95436571D01*
X139065142Y-95150857D01*
X139208000Y-95008000D01*
X139350857Y-94936571D01*
X140565142Y-95079428D02*
X140636571Y-95008000D01*
X140779428Y-94936571D01*
X141136571Y-94936571D01*
X141279428Y-95008000D01*
X141350857Y-95079428D01*
X141422285Y-95222285D01*
X141422285Y-95365142D01*
X141350857Y-95579428D01*
X140493714Y-96436571D01*
X141422285Y-96436571D01*
D11*
X98167608Y-94818073D02*
X97460501Y-94110966D01*
X97830890Y-93875264D02*
X97830890Y-93807920D01*
X97864562Y-93706905D01*
X98032921Y-93538546D01*
X98133936Y-93504874D01*
X98201279Y-93504874D01*
X98302295Y-93538546D01*
X98369638Y-93605890D01*
X98436982Y-93740577D01*
X98436982Y-94548699D01*
X98874714Y-94110966D01*
X99514478Y-93336516D02*
X99514478Y-93403859D01*
X99447134Y-93538546D01*
X99379791Y-93605890D01*
X99245104Y-93673233D01*
X99110417Y-93673233D01*
X99009401Y-93639561D01*
X98841043Y-93538546D01*
X98740027Y-93437531D01*
X98639012Y-93269172D01*
X98605340Y-93168157D01*
X98605340Y-93033470D01*
X98672684Y-92898783D01*
X98740027Y-92831439D01*
X98874714Y-92764096D01*
X98942058Y-92764096D01*
X100423615Y-92562065D02*
X99716508Y-91854959D01*
X99985882Y-91585584D01*
X100086897Y-91551913D01*
X100154241Y-91551913D01*
X100255256Y-91585584D01*
X100356271Y-91686600D01*
X100389943Y-91787615D01*
X100389943Y-91854959D01*
X100356271Y-91955974D01*
X100086897Y-92225348D01*
X100962363Y-91080508D02*
X101433768Y-91551913D01*
X100659317Y-91383554D02*
X101029707Y-91753943D01*
X101130722Y-91787615D01*
X101231737Y-91753943D01*
X101332752Y-91652928D01*
X101366424Y-91551913D01*
X101366424Y-91484569D01*
X101871500Y-91114180D02*
X101770485Y-91147852D01*
X101669470Y-91114180D01*
X101063378Y-90508088D01*
X102241890Y-90743791D02*
X102140874Y-90777462D01*
X102039859Y-90743791D01*
X101433768Y-90137699D01*
X102342905Y-89699966D02*
X102814309Y-90171371D01*
X102039859Y-90003012D02*
X102410248Y-90373401D01*
X102511264Y-90407073D01*
X102612279Y-90373401D01*
X102713294Y-90272386D01*
X102746966Y-90171371D01*
X102746966Y-90104027D01*
X102679622Y-89363249D02*
X103386729Y-90070356D01*
X102713294Y-89396921D02*
X102746966Y-89295905D01*
X102881653Y-89161218D01*
X102982668Y-89127547D01*
X103050012Y-89127547D01*
X103151027Y-89161218D01*
X103353057Y-89363249D01*
X103386729Y-89464264D01*
X103386729Y-89531608D01*
X103353057Y-89632623D01*
X103218370Y-89767310D01*
X103117355Y-89800982D01*
X100026289Y-95902304D02*
X99958945Y-95902304D01*
X99790587Y-95868632D01*
X99689571Y-95834960D01*
X99554884Y-95767616D01*
X99352854Y-95632929D01*
X99218167Y-95498242D01*
X99083480Y-95296212D01*
X99016136Y-95161525D01*
X98982465Y-95060510D01*
X98948793Y-94892151D01*
X98948793Y-94824807D01*
X100127304Y-95262540D02*
X100026289Y-95296212D01*
X99958945Y-95296212D01*
X99857930Y-95262540D01*
X99655900Y-95060510D01*
X99622228Y-94959494D01*
X99622228Y-94892151D01*
X99655900Y-94791136D01*
X99756915Y-94690120D01*
X99857930Y-94656449D01*
X99925274Y-94656449D01*
X100026289Y-94690120D01*
X100228319Y-94892151D01*
X100261991Y-94993166D01*
X100261991Y-95060510D01*
X100228319Y-95161525D01*
X100127304Y-95262540D01*
X100194648Y-94252388D02*
X100901754Y-94959494D01*
X100228319Y-94286059D02*
X100261991Y-94185044D01*
X100396678Y-94050357D01*
X100497693Y-94016685D01*
X100565037Y-94016685D01*
X100666052Y-94050357D01*
X100868083Y-94252388D01*
X100901754Y-94353403D01*
X100901754Y-94420746D01*
X100868083Y-94521762D01*
X100733396Y-94656449D01*
X100632380Y-94690120D01*
X100733396Y-93713640D02*
X101002770Y-93444266D01*
X100598709Y-93376922D02*
X101204800Y-93983014D01*
X101305815Y-94016685D01*
X101406831Y-93983014D01*
X101474174Y-93915670D01*
X101709876Y-93679968D02*
X101238472Y-93208563D01*
X101002770Y-92972861D02*
X101002770Y-93040205D01*
X101070113Y-93040205D01*
X101070113Y-92972861D01*
X101002770Y-92972861D01*
X101070113Y-93040205D01*
X102147609Y-93242235D02*
X102046594Y-93275907D01*
X101979250Y-93275907D01*
X101878235Y-93242235D01*
X101676205Y-93040205D01*
X101642533Y-92939189D01*
X101642533Y-92871846D01*
X101676205Y-92770831D01*
X101777220Y-92669815D01*
X101878235Y-92636144D01*
X101945579Y-92636144D01*
X102046594Y-92669815D01*
X102248624Y-92871846D01*
X102282296Y-92972861D01*
X102282296Y-93040205D01*
X102248624Y-93141220D01*
X102147609Y-93242235D01*
X102214953Y-92232083D02*
X102686357Y-92703487D01*
X102282296Y-92299426D02*
X102282296Y-92232083D01*
X102315968Y-92131067D01*
X102416983Y-92030052D01*
X102517998Y-91996380D01*
X102619014Y-92030052D01*
X102989403Y-92400441D01*
X103629166Y-91760678D02*
X103258777Y-91390289D01*
X103157762Y-91356617D01*
X103056746Y-91390289D01*
X102922059Y-91524976D01*
X102888388Y-91625991D01*
X103595494Y-91727006D02*
X103561823Y-91828022D01*
X103393464Y-91996380D01*
X103292449Y-92030052D01*
X103191433Y-91996380D01*
X103124090Y-91929037D01*
X103090418Y-91828022D01*
X103124090Y-91727006D01*
X103292449Y-91558648D01*
X103326120Y-91457632D01*
X104066899Y-91322945D02*
X103965884Y-91356617D01*
X103864868Y-91322945D01*
X103258777Y-90716854D01*
X104538304Y-91390289D02*
X104538304Y-91322945D01*
X104504632Y-91154587D01*
X104470960Y-91053571D01*
X104403616Y-90918884D01*
X104268929Y-90716854D01*
X104134242Y-90582167D01*
X103932212Y-90447480D01*
X103797525Y-90380136D01*
X103696510Y-90346465D01*
X103528151Y-90312793D01*
X103460807Y-90312793D01*
X83732666Y-78231809D02*
X83732666Y-77755619D01*
X84018380Y-78327047D02*
X83018380Y-77993714D01*
X84018380Y-77660380D01*
X84018380Y-76850857D02*
X84018380Y-77327047D01*
X83018380Y-77327047D01*
X84018380Y-75946095D02*
X83542190Y-76279428D01*
X84018380Y-76517523D02*
X83018380Y-76517523D01*
X83018380Y-76136571D01*
X83066000Y-76041333D01*
X83113619Y-75993714D01*
X83208857Y-75946095D01*
X83351714Y-75946095D01*
X83446952Y-75993714D01*
X83494571Y-76041333D01*
X83542190Y-76136571D01*
X83542190Y-76517523D01*
X83018380Y-75660380D02*
X83018380Y-75088952D01*
X84018380Y-75374666D02*
X83018380Y-75374666D01*
D12*
X91019333Y-85344761D02*
X91019333Y-85820952D01*
X90733619Y-85249523D02*
X91733619Y-85582857D01*
X90733619Y-85916190D01*
X90733619Y-86249523D02*
X91733619Y-86249523D01*
X91733619Y-86487619D01*
X91686000Y-86630476D01*
X91590761Y-86725714D01*
X91495523Y-86773333D01*
X91305047Y-86820952D01*
X91162190Y-86820952D01*
X90971714Y-86773333D01*
X90876476Y-86725714D01*
X90781238Y-86630476D01*
X90733619Y-86487619D01*
X90733619Y-86249523D01*
X90828857Y-87820952D02*
X90781238Y-87773333D01*
X90733619Y-87630476D01*
X90733619Y-87535238D01*
X90781238Y-87392380D01*
X90876476Y-87297142D01*
X90971714Y-87249523D01*
X91162190Y-87201904D01*
X91305047Y-87201904D01*
X91495523Y-87249523D01*
X91590761Y-87297142D01*
X91686000Y-87392380D01*
X91733619Y-87535238D01*
X91733619Y-87630476D01*
X91686000Y-87773333D01*
X91638380Y-87820952D01*
X90733619Y-89011428D02*
X91733619Y-89011428D01*
X91638380Y-89440000D02*
X91686000Y-89487619D01*
X91733619Y-89582857D01*
X91733619Y-89820952D01*
X91686000Y-89916190D01*
X91638380Y-89963809D01*
X91543142Y-90011428D01*
X91447904Y-90011428D01*
X91305047Y-89963809D01*
X90733619Y-89392380D01*
X90733619Y-90011428D01*
X90828857Y-91011428D02*
X90781238Y-90963809D01*
X90733619Y-90820952D01*
X90733619Y-90725714D01*
X90781238Y-90582857D01*
X90876476Y-90487619D01*
X90971714Y-90440000D01*
X91162190Y-90392380D01*
X91305047Y-90392380D01*
X91495523Y-90440000D01*
X91590761Y-90487619D01*
X91686000Y-90582857D01*
X91733619Y-90725714D01*
X91733619Y-90820952D01*
X91686000Y-90963809D01*
X91638380Y-91011428D01*
X91019333Y-92154285D02*
X91019333Y-92630476D01*
X90733619Y-92059047D02*
X91733619Y-92392380D01*
X90733619Y-92725714D01*
X90733619Y-93487619D02*
X91733619Y-93487619D01*
X90781238Y-93487619D02*
X90733619Y-93392380D01*
X90733619Y-93201904D01*
X90781238Y-93106666D01*
X90828857Y-93059047D01*
X90924095Y-93011428D01*
X91209809Y-93011428D01*
X91305047Y-93059047D01*
X91352666Y-93106666D01*
X91400285Y-93201904D01*
X91400285Y-93392380D01*
X91352666Y-93487619D01*
X90733619Y-94392380D02*
X91733619Y-94392380D01*
X90781238Y-94392380D02*
X90733619Y-94297142D01*
X90733619Y-94106666D01*
X90781238Y-94011428D01*
X90828857Y-93963809D01*
X90924095Y-93916190D01*
X91209809Y-93916190D01*
X91305047Y-93963809D01*
X91352666Y-94011428D01*
X91400285Y-94106666D01*
X91400285Y-94297142D01*
X91352666Y-94392380D01*
X90733619Y-94868571D02*
X91400285Y-94868571D01*
X91209809Y-94868571D02*
X91305047Y-94916190D01*
X91352666Y-94963809D01*
X91400285Y-95059047D01*
X91400285Y-95154285D01*
X90781238Y-95868571D02*
X90733619Y-95773333D01*
X90733619Y-95582857D01*
X90781238Y-95487619D01*
X90876476Y-95440000D01*
X91257428Y-95440000D01*
X91352666Y-95487619D01*
X91400285Y-95582857D01*
X91400285Y-95773333D01*
X91352666Y-95868571D01*
X91257428Y-95916190D01*
X91162190Y-95916190D01*
X91066952Y-95440000D01*
X90781238Y-96297142D02*
X90733619Y-96392380D01*
X90733619Y-96582857D01*
X90781238Y-96678095D01*
X90876476Y-96725714D01*
X90924095Y-96725714D01*
X91019333Y-96678095D01*
X91066952Y-96582857D01*
X91066952Y-96440000D01*
X91114571Y-96344761D01*
X91209809Y-96297142D01*
X91257428Y-96297142D01*
X91352666Y-96344761D01*
X91400285Y-96440000D01*
X91400285Y-96582857D01*
X91352666Y-96678095D01*
X90781238Y-97106666D02*
X90733619Y-97201904D01*
X90733619Y-97392380D01*
X90781238Y-97487619D01*
X90876476Y-97535238D01*
X90924095Y-97535238D01*
X91019333Y-97487619D01*
X91066952Y-97392380D01*
X91066952Y-97249523D01*
X91114571Y-97154285D01*
X91209809Y-97106666D01*
X91257428Y-97106666D01*
X91352666Y-97154285D01*
X91400285Y-97249523D01*
X91400285Y-97392380D01*
X91352666Y-97487619D01*
D11*
X80176857Y-91908380D02*
X80272095Y-91908380D01*
X80367333Y-91956000D01*
X80414952Y-92003619D01*
X80462571Y-92098857D01*
X80510190Y-92289333D01*
X80510190Y-92527428D01*
X80462571Y-92717904D01*
X80414952Y-92813142D01*
X80367333Y-92860761D01*
X80272095Y-92908380D01*
X80176857Y-92908380D01*
X80081619Y-92860761D01*
X80034000Y-92813142D01*
X79986380Y-92717904D01*
X79938761Y-92527428D01*
X79938761Y-92289333D01*
X79986380Y-92098857D01*
X80034000Y-92003619D01*
X80081619Y-91956000D01*
X80176857Y-91908380D01*
X80843523Y-92908380D02*
X81367333Y-92241714D01*
X80843523Y-92241714D02*
X81367333Y-92908380D01*
X82176857Y-92241714D02*
X82176857Y-92908380D01*
X81938761Y-91860761D02*
X81700666Y-92575047D01*
X82319714Y-92575047D01*
X82653047Y-92622666D02*
X83129238Y-92622666D01*
X82557809Y-92908380D02*
X82891142Y-91908380D01*
X83224476Y-92908380D01*
X80105428Y-94448380D02*
X80200666Y-94448380D01*
X80295904Y-94496000D01*
X80343523Y-94543619D01*
X80391142Y-94638857D01*
X80438761Y-94829333D01*
X80438761Y-95067428D01*
X80391142Y-95257904D01*
X80343523Y-95353142D01*
X80295904Y-95400761D01*
X80200666Y-95448380D01*
X80105428Y-95448380D01*
X80010190Y-95400761D01*
X79962571Y-95353142D01*
X79914952Y-95257904D01*
X79867333Y-95067428D01*
X79867333Y-94829333D01*
X79914952Y-94638857D01*
X79962571Y-94543619D01*
X80010190Y-94496000D01*
X80105428Y-94448380D01*
X80772095Y-95448380D02*
X81295904Y-94781714D01*
X80772095Y-94781714D02*
X81295904Y-95448380D01*
X82105428Y-94781714D02*
X82105428Y-95448380D01*
X81867333Y-94400761D02*
X81629238Y-95115047D01*
X82248285Y-95115047D01*
X82962571Y-94924571D02*
X83105428Y-94972190D01*
X83153047Y-95019809D01*
X83200666Y-95115047D01*
X83200666Y-95257904D01*
X83153047Y-95353142D01*
X83105428Y-95400761D01*
X83010190Y-95448380D01*
X82629238Y-95448380D01*
X82629238Y-94448380D01*
X82962571Y-94448380D01*
X83057809Y-94496000D01*
X83105428Y-94543619D01*
X83153047Y-94638857D01*
X83153047Y-94734095D01*
X83105428Y-94829333D01*
X83057809Y-94876952D01*
X82962571Y-94924571D01*
X82629238Y-94924571D01*
X80129238Y-89368380D02*
X80224476Y-89368380D01*
X80319714Y-89416000D01*
X80367333Y-89463619D01*
X80414952Y-89558857D01*
X80462571Y-89749333D01*
X80462571Y-89987428D01*
X80414952Y-90177904D01*
X80367333Y-90273142D01*
X80319714Y-90320761D01*
X80224476Y-90368380D01*
X80129238Y-90368380D01*
X80034000Y-90320761D01*
X79986380Y-90273142D01*
X79938761Y-90177904D01*
X79891142Y-89987428D01*
X79891142Y-89749333D01*
X79938761Y-89558857D01*
X79986380Y-89463619D01*
X80034000Y-89416000D01*
X80129238Y-89368380D01*
X80795904Y-90368380D02*
X81319714Y-89701714D01*
X80795904Y-89701714D02*
X81319714Y-90368380D01*
X82129238Y-89701714D02*
X82129238Y-90368380D01*
X81891142Y-89320761D02*
X81653047Y-90035047D01*
X82272095Y-90035047D01*
X82700666Y-90368380D02*
X82891142Y-90368380D01*
X82986380Y-90320761D01*
X83034000Y-90273142D01*
X83129238Y-90130285D01*
X83176857Y-89939809D01*
X83176857Y-89558857D01*
X83129238Y-89463619D01*
X83081619Y-89416000D01*
X82986380Y-89368380D01*
X82795904Y-89368380D01*
X82700666Y-89416000D01*
X82653047Y-89463619D01*
X82605428Y-89558857D01*
X82605428Y-89796952D01*
X82653047Y-89892190D01*
X82700666Y-89939809D01*
X82795904Y-89987428D01*
X82986380Y-89987428D01*
X83081619Y-89939809D01*
X83129238Y-89892190D01*
X83176857Y-89796952D01*
X80129238Y-86828380D02*
X80224476Y-86828380D01*
X80319714Y-86876000D01*
X80367333Y-86923619D01*
X80414952Y-87018857D01*
X80462571Y-87209333D01*
X80462571Y-87447428D01*
X80414952Y-87637904D01*
X80367333Y-87733142D01*
X80319714Y-87780761D01*
X80224476Y-87828380D01*
X80129238Y-87828380D01*
X80034000Y-87780761D01*
X79986380Y-87733142D01*
X79938761Y-87637904D01*
X79891142Y-87447428D01*
X79891142Y-87209333D01*
X79938761Y-87018857D01*
X79986380Y-86923619D01*
X80034000Y-86876000D01*
X80129238Y-86828380D01*
X80795904Y-87828380D02*
X81319714Y-87161714D01*
X80795904Y-87161714D02*
X81319714Y-87828380D01*
X82129238Y-87161714D02*
X82129238Y-87828380D01*
X81891142Y-86780761D02*
X81653047Y-87495047D01*
X82272095Y-87495047D01*
X82795904Y-87256952D02*
X82700666Y-87209333D01*
X82653047Y-87161714D01*
X82605428Y-87066476D01*
X82605428Y-87018857D01*
X82653047Y-86923619D01*
X82700666Y-86876000D01*
X82795904Y-86828380D01*
X82986380Y-86828380D01*
X83081619Y-86876000D01*
X83129238Y-86923619D01*
X83176857Y-87018857D01*
X83176857Y-87066476D01*
X83129238Y-87161714D01*
X83081619Y-87209333D01*
X82986380Y-87256952D01*
X82795904Y-87256952D01*
X82700666Y-87304571D01*
X82653047Y-87352190D01*
X82605428Y-87447428D01*
X82605428Y-87637904D01*
X82653047Y-87733142D01*
X82700666Y-87780761D01*
X82795904Y-87828380D01*
X82986380Y-87828380D01*
X83081619Y-87780761D01*
X83129238Y-87733142D01*
X83176857Y-87637904D01*
X83176857Y-87447428D01*
X83129238Y-87352190D01*
X83081619Y-87304571D01*
X82986380Y-87256952D01*
X134620095Y-79002000D02*
X134524857Y-78954380D01*
X134382000Y-78954380D01*
X134239142Y-79002000D01*
X134143904Y-79097238D01*
X134096285Y-79192476D01*
X134048666Y-79382952D01*
X134048666Y-79525809D01*
X134096285Y-79716285D01*
X134143904Y-79811523D01*
X134239142Y-79906761D01*
X134382000Y-79954380D01*
X134477238Y-79954380D01*
X134620095Y-79906761D01*
X134667714Y-79859142D01*
X134667714Y-79525809D01*
X134477238Y-79525809D01*
X135096285Y-79954380D02*
X135096285Y-78954380D01*
X135667714Y-79954380D01*
X135667714Y-78954380D01*
X136143904Y-79954380D02*
X136143904Y-78954380D01*
X136382000Y-78954380D01*
X136524857Y-79002000D01*
X136620095Y-79097238D01*
X136667714Y-79192476D01*
X136715333Y-79382952D01*
X136715333Y-79525809D01*
X136667714Y-79716285D01*
X136620095Y-79811523D01*
X136524857Y-79906761D01*
X136382000Y-79954380D01*
X136143904Y-79954380D01*
X134191523Y-77366761D02*
X134334380Y-77414380D01*
X134572476Y-77414380D01*
X134667714Y-77366761D01*
X134715333Y-77319142D01*
X134762952Y-77223904D01*
X134762952Y-77128666D01*
X134715333Y-77033428D01*
X134667714Y-76985809D01*
X134572476Y-76938190D01*
X134382000Y-76890571D01*
X134286761Y-76842952D01*
X134239142Y-76795333D01*
X134191523Y-76700095D01*
X134191523Y-76604857D01*
X134239142Y-76509619D01*
X134286761Y-76462000D01*
X134382000Y-76414380D01*
X134620095Y-76414380D01*
X134762952Y-76462000D01*
X135762952Y-77319142D02*
X135715333Y-77366761D01*
X135572476Y-77414380D01*
X135477238Y-77414380D01*
X135334380Y-77366761D01*
X135239142Y-77271523D01*
X135191523Y-77176285D01*
X135143904Y-76985809D01*
X135143904Y-76842952D01*
X135191523Y-76652476D01*
X135239142Y-76557238D01*
X135334380Y-76462000D01*
X135477238Y-76414380D01*
X135572476Y-76414380D01*
X135715333Y-76462000D01*
X135762952Y-76509619D01*
X136667714Y-77414380D02*
X136191523Y-77414380D01*
X136191523Y-76414380D01*
X134167714Y-74826761D02*
X134310571Y-74874380D01*
X134548666Y-74874380D01*
X134643904Y-74826761D01*
X134691523Y-74779142D01*
X134739142Y-74683904D01*
X134739142Y-74588666D01*
X134691523Y-74493428D01*
X134643904Y-74445809D01*
X134548666Y-74398190D01*
X134358190Y-74350571D01*
X134262952Y-74302952D01*
X134215333Y-74255333D01*
X134167714Y-74160095D01*
X134167714Y-74064857D01*
X134215333Y-73969619D01*
X134262952Y-73922000D01*
X134358190Y-73874380D01*
X134596285Y-73874380D01*
X134739142Y-73922000D01*
X135167714Y-74874380D02*
X135167714Y-73874380D01*
X135405809Y-73874380D01*
X135548666Y-73922000D01*
X135643904Y-74017238D01*
X135691523Y-74112476D01*
X135739142Y-74302952D01*
X135739142Y-74445809D01*
X135691523Y-74636285D01*
X135643904Y-74731523D01*
X135548666Y-74826761D01*
X135405809Y-74874380D01*
X135167714Y-74874380D01*
X136120095Y-74588666D02*
X136596285Y-74588666D01*
X136024857Y-74874380D02*
X136358190Y-73874380D01*
X136691523Y-74874380D01*
X135191523Y-71334380D02*
X134715333Y-71334380D01*
X134667714Y-71810571D01*
X134715333Y-71762952D01*
X134810571Y-71715333D01*
X135048666Y-71715333D01*
X135143904Y-71762952D01*
X135191523Y-71810571D01*
X135239142Y-71905809D01*
X135239142Y-72143904D01*
X135191523Y-72239142D01*
X135143904Y-72286761D01*
X135048666Y-72334380D01*
X134810571Y-72334380D01*
X134715333Y-72286761D01*
X134667714Y-72239142D01*
X135524857Y-71334380D02*
X135858190Y-72334380D01*
X136191523Y-71334380D01*
D10*
X134442000Y-81723571D02*
X135299142Y-81723571D01*
X134870571Y-83223571D02*
X134870571Y-81723571D01*
X136013428Y-83223571D02*
X135870571Y-83152142D01*
X135799142Y-83080714D01*
X135727714Y-82937857D01*
X135727714Y-82509285D01*
X135799142Y-82366428D01*
X135870571Y-82295000D01*
X136013428Y-82223571D01*
X136227714Y-82223571D01*
X136370571Y-82295000D01*
X136442000Y-82366428D01*
X136513428Y-82509285D01*
X136513428Y-82937857D01*
X136442000Y-83080714D01*
X136370571Y-83152142D01*
X136227714Y-83223571D01*
X136013428Y-83223571D01*
X138799142Y-82437857D02*
X138299142Y-82437857D01*
X138299142Y-83223571D02*
X138299142Y-81723571D01*
X139013428Y-81723571D01*
X139799142Y-83223571D02*
X139656285Y-83152142D01*
X139584857Y-83009285D01*
X139584857Y-81723571D01*
X140584857Y-83223571D02*
X140442000Y-83152142D01*
X140370571Y-83080714D01*
X140299142Y-82937857D01*
X140299142Y-82509285D01*
X140370571Y-82366428D01*
X140442000Y-82295000D01*
X140584857Y-82223571D01*
X140799142Y-82223571D01*
X140942000Y-82295000D01*
X141013428Y-82366428D01*
X141084857Y-82509285D01*
X141084857Y-82937857D01*
X141013428Y-83080714D01*
X140942000Y-83152142D01*
X140799142Y-83223571D01*
X140584857Y-83223571D01*
X141584857Y-82223571D02*
X141870571Y-83223571D01*
X142156285Y-82509285D01*
X142442000Y-83223571D01*
X142727714Y-82223571D01*
X136513428Y-85773571D02*
X136513428Y-84273571D01*
X137013428Y-85345000D01*
X137513428Y-84273571D01*
X137513428Y-85773571D01*
X138799142Y-85702142D02*
X138656285Y-85773571D01*
X138370571Y-85773571D01*
X138227714Y-85702142D01*
X138156285Y-85559285D01*
X138156285Y-84987857D01*
X138227714Y-84845000D01*
X138370571Y-84773571D01*
X138656285Y-84773571D01*
X138799142Y-84845000D01*
X138870571Y-84987857D01*
X138870571Y-85130714D01*
X138156285Y-85273571D01*
X139299142Y-84773571D02*
X139870571Y-84773571D01*
X139513428Y-84273571D02*
X139513428Y-85559285D01*
X139584857Y-85702142D01*
X139727714Y-85773571D01*
X139870571Y-85773571D01*
X140942000Y-85702142D02*
X140799142Y-85773571D01*
X140513428Y-85773571D01*
X140370571Y-85702142D01*
X140299142Y-85559285D01*
X140299142Y-84987857D01*
X140370571Y-84845000D01*
X140513428Y-84773571D01*
X140799142Y-84773571D01*
X140942000Y-84845000D01*
X141013428Y-84987857D01*
X141013428Y-85130714D01*
X140299142Y-85273571D01*
X141656285Y-85773571D02*
X141656285Y-84773571D01*
X141656285Y-85059285D02*
X141727714Y-84916428D01*
X141799142Y-84845000D01*
X141942000Y-84773571D01*
X142084857Y-84773571D01*
D13*
X93472000Y-84836000D02*
X93472000Y-70231000D01*
X93472000Y-70231000D02*
X121412000Y-70231000D01*
X121412000Y-70231000D02*
X121412000Y-86741000D01*
X121412000Y-86741000D02*
X93472000Y-86741000D01*
X93472000Y-86741000D02*
X93472000Y-84836000D01*
X85538000Y-74108000D02*
X85538000Y-79308000D01*
X85598000Y-74108000D02*
X85538000Y-74108000D01*
X88198000Y-79308000D02*
X85538000Y-79308000D01*
X85598000Y-74108000D02*
X85598000Y-76708000D01*
X85598000Y-76708000D02*
X88198000Y-76708000D01*
X88198000Y-76708000D02*
X88198000Y-79308000D01*
X86868000Y-74108000D02*
X88198000Y-74108000D01*
X88198000Y-74108000D02*
X88198000Y-75438000D01*
X84014000Y-96326000D02*
X89214000Y-96326000D01*
X84014000Y-88646000D02*
X84014000Y-96326000D01*
X89214000Y-86046000D02*
X89214000Y-96326000D01*
X84014000Y-88646000D02*
X86614000Y-88646000D01*
X86614000Y-88646000D02*
X86614000Y-86046000D01*
X86614000Y-86046000D02*
X89214000Y-86046000D01*
X84014000Y-87376000D02*
X84014000Y-86046000D01*
X84014000Y-86046000D02*
X85344000Y-86046000D01*
X140632000Y-88332000D02*
X140632000Y-93532000D01*
X140632000Y-93532000D02*
X143292000Y-93532000D01*
X143292000Y-93532000D02*
X143292000Y-88332000D01*
X143292000Y-88332000D02*
X140632000Y-88332000D01*
X143292000Y-89282000D02*
X149292000Y-89282000D01*
X149292000Y-89282000D02*
X149292000Y-90042000D01*
X149292000Y-90042000D02*
X143292000Y-90042000D01*
X143292000Y-89342000D02*
X149292000Y-89342000D01*
X143292000Y-89462000D02*
X149292000Y-89462000D01*
X143292000Y-89582000D02*
X149292000Y-89582000D01*
X143292000Y-89702000D02*
X149292000Y-89702000D01*
X143292000Y-89822000D02*
X149292000Y-89822000D01*
X143292000Y-89942000D02*
X149292000Y-89942000D01*
X140302000Y-89282000D02*
X140632000Y-89282000D01*
X140302000Y-90042000D02*
X140632000Y-90042000D01*
X140632000Y-90932000D02*
X143292000Y-90932000D01*
X143292000Y-91822000D02*
X149292000Y-91822000D01*
X149292000Y-91822000D02*
X149292000Y-92582000D01*
X149292000Y-92582000D02*
X143292000Y-92582000D01*
X140234929Y-91822000D02*
X140632000Y-91822000D01*
X140234929Y-92582000D02*
X140632000Y-92582000D01*
X137922000Y-89662000D02*
X137922000Y-88392000D01*
X137922000Y-88392000D02*
X139192000Y-88392000D01*
X90551000Y-101600000D02*
X90551000Y-114300000D01*
X106299000Y-114300000D02*
X106299000Y-101600000D01*
X106299000Y-101600000D02*
X90551000Y-101600000D01*
X92075000Y-102108000D02*
X92075000Y-113792000D01*
X92075000Y-113792000D02*
X104775000Y-113792000D01*
X104775000Y-113792000D02*
X104775000Y-102108000D01*
X104775000Y-102108000D02*
X92075000Y-102108000D01*
X103505000Y-113792000D02*
X103505000Y-115316000D01*
X103505000Y-115316000D02*
X101473000Y-115316000D01*
X101473000Y-115316000D02*
X101473000Y-113792000D01*
X96393000Y-114300000D02*
X96393000Y-115316000D01*
X96393000Y-115316000D02*
X94361000Y-115316000D01*
X94361000Y-115316000D02*
X94361000Y-114300000D01*
X106299000Y-114300000D02*
X103505000Y-114300000D01*
X101473000Y-114300000D02*
X90551000Y-114300000D01*
X127381000Y-114300000D02*
X116459000Y-114300000D01*
X132207000Y-114300000D02*
X129413000Y-114300000D01*
X120269000Y-115316000D02*
X120269000Y-114300000D01*
X122301000Y-115316000D02*
X120269000Y-115316000D01*
X122301000Y-114300000D02*
X122301000Y-115316000D01*
X127381000Y-115316000D02*
X127381000Y-113792000D01*
X129413000Y-115316000D02*
X127381000Y-115316000D01*
X129413000Y-113792000D02*
X129413000Y-115316000D01*
X130683000Y-102108000D02*
X117983000Y-102108000D01*
X130683000Y-113792000D02*
X130683000Y-102108000D01*
X117983000Y-113792000D02*
X130683000Y-113792000D01*
X117983000Y-102108000D02*
X117983000Y-113792000D01*
X132207000Y-101600000D02*
X116459000Y-101600000D01*
X132207000Y-114300000D02*
X132207000Y-101600000D01*
X116459000Y-101600000D02*
X116459000Y-114300000D01*
X79826000Y-103956000D02*
X82226000Y-103956000D01*
X82226000Y-103956000D02*
X82226000Y-106356000D01*
X82226000Y-106356000D02*
X79826000Y-106356000D01*
X79826000Y-106356000D02*
X79826000Y-103956000D01*
X133674000Y-114992000D02*
X133674000Y-112592000D01*
X136074000Y-114992000D02*
X133674000Y-114992000D01*
X136074000Y-112592000D02*
X136074000Y-114992000D01*
X133674000Y-112592000D02*
X136074000Y-112592000D01*
X140378000Y-70552000D02*
X140378000Y-80832000D01*
X140378000Y-80832000D02*
X143038000Y-80832000D01*
X143038000Y-80832000D02*
X143038000Y-70552000D01*
X143038000Y-70552000D02*
X140378000Y-70552000D01*
X143038000Y-71502000D02*
X149038000Y-71502000D01*
X149038000Y-71502000D02*
X149038000Y-72262000D01*
X149038000Y-72262000D02*
X143038000Y-72262000D01*
X143038000Y-71562000D02*
X149038000Y-71562000D01*
X143038000Y-71682000D02*
X149038000Y-71682000D01*
X143038000Y-71802000D02*
X149038000Y-71802000D01*
X143038000Y-71922000D02*
X149038000Y-71922000D01*
X143038000Y-72042000D02*
X149038000Y-72042000D01*
X143038000Y-72162000D02*
X149038000Y-72162000D01*
X140048000Y-71502000D02*
X140378000Y-71502000D01*
X140048000Y-72262000D02*
X140378000Y-72262000D01*
X140378000Y-73152000D02*
X143038000Y-73152000D01*
X143038000Y-74042000D02*
X149038000Y-74042000D01*
X149038000Y-74042000D02*
X149038000Y-74802000D01*
X149038000Y-74802000D02*
X143038000Y-74802000D01*
X139980929Y-74042000D02*
X140378000Y-74042000D01*
X139980929Y-74802000D02*
X140378000Y-74802000D01*
X140378000Y-75692000D02*
X143038000Y-75692000D01*
X143038000Y-76582000D02*
X149038000Y-76582000D01*
X149038000Y-76582000D02*
X149038000Y-77342000D01*
X149038000Y-77342000D02*
X143038000Y-77342000D01*
X139980929Y-76582000D02*
X140378000Y-76582000D01*
X139980929Y-77342000D02*
X140378000Y-77342000D01*
X140378000Y-78232000D02*
X143038000Y-78232000D01*
X143038000Y-79122000D02*
X149038000Y-79122000D01*
X149038000Y-79122000D02*
X149038000Y-79882000D01*
X149038000Y-79882000D02*
X143038000Y-79882000D01*
X139980929Y-79122000D02*
X140378000Y-79122000D01*
X139980929Y-79882000D02*
X140378000Y-79882000D01*
X137668000Y-71882000D02*
X137668000Y-70612000D01*
X137668000Y-70612000D02*
X138938000Y-70612000D01*
X97568000Y-89308000D02*
X97568000Y-92048000D01*
X97568000Y-92048000D02*
X104108000Y-92048000D01*
X104108000Y-92048000D02*
X104108000Y-89308000D01*
X104108000Y-89308000D02*
X97568000Y-89308000D01*
X96798000Y-90678000D02*
X97568000Y-90678000D01*
X104878000Y-90678000D02*
X104108000Y-90678000D01*
X104878000Y-94742000D02*
X104108000Y-94742000D01*
X96798000Y-94742000D02*
X97568000Y-94742000D01*
X104108000Y-93372000D02*
X97568000Y-93372000D01*
X104108000Y-96112000D02*
X104108000Y-93372000D01*
X97568000Y-96112000D02*
X104108000Y-96112000D01*
X97568000Y-93372000D02*
X97568000Y-96112000D01*
X132302000Y-99160000D02*
X132302000Y-96420000D01*
X132302000Y-96420000D02*
X125762000Y-96420000D01*
X125762000Y-96420000D02*
X125762000Y-99160000D01*
X125762000Y-99160000D02*
X132302000Y-99160000D01*
X133072000Y-97790000D02*
X132302000Y-97790000D01*
X124992000Y-97790000D02*
X125762000Y-97790000D01*
X128032000Y-95564000D02*
G75*
G02X130032000Y-95564000I1000000J0D01*
G01*
X130032000Y-95564000D02*
X131682000Y-95564000D01*
X131682000Y-95564000D02*
X131682000Y-85284000D01*
X131682000Y-85284000D02*
X126382000Y-85284000D01*
X126382000Y-85284000D02*
X126382000Y-95564000D01*
X126382000Y-95564000D02*
X128032000Y-95564000D01*
X140632000Y-99000000D02*
X140632000Y-106740000D01*
X140632000Y-106740000D02*
X143292000Y-106740000D01*
X143292000Y-106740000D02*
X143292000Y-99000000D01*
X143292000Y-99000000D02*
X140632000Y-99000000D01*
X143292000Y-99950000D02*
X149292000Y-99950000D01*
X149292000Y-99950000D02*
X149292000Y-100710000D01*
X149292000Y-100710000D02*
X143292000Y-100710000D01*
X143292000Y-100010000D02*
X149292000Y-100010000D01*
X143292000Y-100130000D02*
X149292000Y-100130000D01*
X143292000Y-100250000D02*
X149292000Y-100250000D01*
X143292000Y-100370000D02*
X149292000Y-100370000D01*
X143292000Y-100490000D02*
X149292000Y-100490000D01*
X143292000Y-100610000D02*
X149292000Y-100610000D01*
X140302000Y-99950000D02*
X140632000Y-99950000D01*
X140302000Y-100710000D02*
X140632000Y-100710000D01*
X140632000Y-101600000D02*
X143292000Y-101600000D01*
X143292000Y-102490000D02*
X149292000Y-102490000D01*
X149292000Y-102490000D02*
X149292000Y-103250000D01*
X149292000Y-103250000D02*
X143292000Y-103250000D01*
X140234929Y-102490000D02*
X140632000Y-102490000D01*
X140234929Y-103250000D02*
X140632000Y-103250000D01*
X140632000Y-104140000D02*
X143292000Y-104140000D01*
X143292000Y-105030000D02*
X149292000Y-105030000D01*
X149292000Y-105030000D02*
X149292000Y-105790000D01*
X149292000Y-105790000D02*
X143292000Y-105790000D01*
X140234929Y-105030000D02*
X140632000Y-105030000D01*
X140234929Y-105790000D02*
X140632000Y-105790000D01*
X137922000Y-100330000D02*
X137922000Y-99060000D01*
X137922000Y-99060000D02*
X139192000Y-99060000D01*
D14*
X122007380Y-78866904D02*
X122816904Y-78866904D01*
X122912142Y-78819285D01*
X122959761Y-78771666D01*
X123007380Y-78676428D01*
X123007380Y-78485952D01*
X122959761Y-78390714D01*
X122912142Y-78343095D01*
X122816904Y-78295476D01*
X122007380Y-78295476D01*
X122102619Y-77866904D02*
X122055000Y-77819285D01*
X122007380Y-77724047D01*
X122007380Y-77485952D01*
X122055000Y-77390714D01*
X122102619Y-77343095D01*
X122197857Y-77295476D01*
X122293095Y-77295476D01*
X122435952Y-77343095D01*
X123007380Y-77914523D01*
X123007380Y-77295476D01*
X81338095Y-64852380D02*
X81338095Y-63852380D01*
X81338095Y-64328571D02*
X81909523Y-64328571D01*
X81909523Y-64852380D02*
X81909523Y-63852380D01*
X82909523Y-64852380D02*
X82338095Y-64852380D01*
X82623809Y-64852380D02*
X82623809Y-63852380D01*
X82528571Y-63995238D01*
X82433333Y-64090476D01*
X82338095Y-64138095D01*
X139338095Y-64872380D02*
X139338095Y-63872380D01*
X139338095Y-64348571D02*
X139909523Y-64348571D01*
X139909523Y-64872380D02*
X139909523Y-63872380D01*
X140338095Y-63967619D02*
X140385714Y-63920000D01*
X140480952Y-63872380D01*
X140719047Y-63872380D01*
X140814285Y-63920000D01*
X140861904Y-63967619D01*
X140909523Y-64062857D01*
X140909523Y-64158095D01*
X140861904Y-64300952D01*
X140290476Y-64872380D01*
X140909523Y-64872380D01*
X81338095Y-113862380D02*
X81338095Y-112862380D01*
X81338095Y-113338571D02*
X81909523Y-113338571D01*
X81909523Y-113862380D02*
X81909523Y-112862380D01*
X82290476Y-112862380D02*
X82909523Y-112862380D01*
X82576190Y-113243333D01*
X82719047Y-113243333D01*
X82814285Y-113290952D01*
X82861904Y-113338571D01*
X82909523Y-113433809D01*
X82909523Y-113671904D01*
X82861904Y-113767142D01*
X82814285Y-113814761D01*
X82719047Y-113862380D01*
X82433333Y-113862380D01*
X82338095Y-113814761D01*
X82290476Y-113767142D01*
X139328095Y-113852380D02*
X139328095Y-112852380D01*
X139328095Y-113328571D02*
X139899523Y-113328571D01*
X139899523Y-113852380D02*
X139899523Y-112852380D01*
X140804285Y-113185714D02*
X140804285Y-113852380D01*
X140566190Y-112804761D02*
X140328095Y-113519047D01*
X140947142Y-113519047D01*
X88650380Y-77041333D02*
X89364666Y-77041333D01*
X89507523Y-77088952D01*
X89602761Y-77184190D01*
X89650380Y-77327047D01*
X89650380Y-77422285D01*
X89650380Y-76041333D02*
X89650380Y-76612761D01*
X89650380Y-76327047D02*
X88650380Y-76327047D01*
X88793238Y-76422285D01*
X88888476Y-76517523D01*
X88936095Y-76612761D01*
X86280666Y-84498380D02*
X86280666Y-85212666D01*
X86233047Y-85355523D01*
X86137809Y-85450761D01*
X85994952Y-85498380D01*
X85899714Y-85498380D01*
X86709238Y-84593619D02*
X86756857Y-84546000D01*
X86852095Y-84498380D01*
X87090190Y-84498380D01*
X87185428Y-84546000D01*
X87233047Y-84593619D01*
X87280666Y-84688857D01*
X87280666Y-84784095D01*
X87233047Y-84926952D01*
X86661619Y-85498380D01*
X87280666Y-85498380D01*
X143243666Y-86844380D02*
X143243666Y-87558666D01*
X143196047Y-87701523D01*
X143100809Y-87796761D01*
X142957952Y-87844380D01*
X142862714Y-87844380D01*
X144148428Y-87177714D02*
X144148428Y-87844380D01*
X143910333Y-86796761D02*
X143672238Y-87511047D01*
X144291285Y-87511047D01*
X106767380Y-109092904D02*
X107576904Y-109092904D01*
X107672142Y-109045285D01*
X107719761Y-108997666D01*
X107767380Y-108902428D01*
X107767380Y-108711952D01*
X107719761Y-108616714D01*
X107672142Y-108569095D01*
X107576904Y-108521476D01*
X106767380Y-108521476D01*
X107767380Y-107521476D02*
X107767380Y-108092904D01*
X107767380Y-107807190D02*
X106767380Y-107807190D01*
X106910238Y-107902428D01*
X107005476Y-107997666D01*
X107053095Y-108092904D01*
X95543666Y-115046095D02*
X95543666Y-114569904D01*
X95829380Y-115141333D02*
X94829380Y-114808000D01*
X95829380Y-114474666D01*
X102417571Y-114736571D02*
X102465190Y-114593714D01*
X102512809Y-114546095D01*
X102608047Y-114498476D01*
X102750904Y-114498476D01*
X102846142Y-114546095D01*
X102893761Y-114593714D01*
X102941380Y-114688952D01*
X102941380Y-115069904D01*
X101941380Y-115069904D01*
X101941380Y-114736571D01*
X101989000Y-114641333D01*
X102036619Y-114593714D01*
X102131857Y-114546095D01*
X102227095Y-114546095D01*
X102322333Y-114593714D01*
X102369952Y-114641333D01*
X102417571Y-114736571D01*
X102417571Y-115069904D01*
X132675380Y-109092904D02*
X133484904Y-109092904D01*
X133580142Y-109045285D01*
X133627761Y-108997666D01*
X133675380Y-108902428D01*
X133675380Y-108711952D01*
X133627761Y-108616714D01*
X133580142Y-108569095D01*
X133484904Y-108521476D01*
X132675380Y-108521476D01*
X132675380Y-108140523D02*
X132675380Y-107521476D01*
X133056333Y-107854809D01*
X133056333Y-107711952D01*
X133103952Y-107616714D01*
X133151571Y-107569095D01*
X133246809Y-107521476D01*
X133484904Y-107521476D01*
X133580142Y-107569095D01*
X133627761Y-107616714D01*
X133675380Y-107711952D01*
X133675380Y-107997666D01*
X133627761Y-108092904D01*
X133580142Y-108140523D01*
X128325571Y-114736571D02*
X128373190Y-114593714D01*
X128420809Y-114546095D01*
X128516047Y-114498476D01*
X128658904Y-114498476D01*
X128754142Y-114546095D01*
X128801761Y-114593714D01*
X128849380Y-114688952D01*
X128849380Y-115069904D01*
X127849380Y-115069904D01*
X127849380Y-114736571D01*
X127897000Y-114641333D01*
X127944619Y-114593714D01*
X128039857Y-114546095D01*
X128135095Y-114546095D01*
X128230333Y-114593714D01*
X128277952Y-114641333D01*
X128325571Y-114736571D01*
X128325571Y-115069904D01*
X121451666Y-115046095D02*
X121451666Y-114569904D01*
X121737380Y-115141333D02*
X120737380Y-114808000D01*
X121737380Y-114474666D01*
X79764095Y-102610380D02*
X80335523Y-102610380D01*
X80049809Y-103610380D02*
X80049809Y-102610380D01*
X80668857Y-103610380D02*
X80668857Y-102610380D01*
X81049809Y-102610380D01*
X81145047Y-102658000D01*
X81192666Y-102705619D01*
X81240285Y-102800857D01*
X81240285Y-102943714D01*
X81192666Y-103038952D01*
X81145047Y-103086571D01*
X81049809Y-103134190D01*
X80668857Y-103134190D01*
X82192666Y-103610380D02*
X81621238Y-103610380D01*
X81906952Y-103610380D02*
X81906952Y-102610380D01*
X81811714Y-102753238D01*
X81716476Y-102848476D01*
X81621238Y-102896095D01*
X133612095Y-111246380D02*
X134183523Y-111246380D01*
X133897809Y-112246380D02*
X133897809Y-111246380D01*
X134516857Y-112246380D02*
X134516857Y-111246380D01*
X134897809Y-111246380D01*
X134993047Y-111294000D01*
X135040666Y-111341619D01*
X135088285Y-111436857D01*
X135088285Y-111579714D01*
X135040666Y-111674952D01*
X134993047Y-111722571D01*
X134897809Y-111770190D01*
X134516857Y-111770190D01*
X135469238Y-111341619D02*
X135516857Y-111294000D01*
X135612095Y-111246380D01*
X135850190Y-111246380D01*
X135945428Y-111294000D01*
X135993047Y-111341619D01*
X136040666Y-111436857D01*
X136040666Y-111532095D01*
X135993047Y-111674952D01*
X135421619Y-112246380D01*
X136040666Y-112246380D01*
X142989666Y-69064380D02*
X142989666Y-69778666D01*
X142942047Y-69921523D01*
X142846809Y-70016761D01*
X142703952Y-70064380D01*
X142608714Y-70064380D01*
X143942047Y-69064380D02*
X143465857Y-69064380D01*
X143418238Y-69540571D01*
X143465857Y-69492952D01*
X143561095Y-69445333D01*
X143799190Y-69445333D01*
X143894428Y-69492952D01*
X143942047Y-69540571D01*
X143989666Y-69635809D01*
X143989666Y-69873904D01*
X143942047Y-69969142D01*
X143894428Y-70016761D01*
X143799190Y-70064380D01*
X143561095Y-70064380D01*
X143465857Y-70016761D01*
X143418238Y-69969142D01*
X100671333Y-88760380D02*
X100338000Y-88284190D01*
X100099904Y-88760380D02*
X100099904Y-87760380D01*
X100480857Y-87760380D01*
X100576095Y-87808000D01*
X100623714Y-87855619D01*
X100671333Y-87950857D01*
X100671333Y-88093714D01*
X100623714Y-88188952D01*
X100576095Y-88236571D01*
X100480857Y-88284190D01*
X100099904Y-88284190D01*
X101623714Y-88760380D02*
X101052285Y-88760380D01*
X101338000Y-88760380D02*
X101338000Y-87760380D01*
X101242761Y-87903238D01*
X101147523Y-87998476D01*
X101052285Y-88046095D01*
X100671333Y-97734380D02*
X100338000Y-97258190D01*
X100099904Y-97734380D02*
X100099904Y-96734380D01*
X100480857Y-96734380D01*
X100576095Y-96782000D01*
X100623714Y-96829619D01*
X100671333Y-96924857D01*
X100671333Y-97067714D01*
X100623714Y-97162952D01*
X100576095Y-97210571D01*
X100480857Y-97258190D01*
X100099904Y-97258190D01*
X101052285Y-96829619D02*
X101099904Y-96782000D01*
X101195142Y-96734380D01*
X101433238Y-96734380D01*
X101528476Y-96782000D01*
X101576095Y-96829619D01*
X101623714Y-96924857D01*
X101623714Y-97020095D01*
X101576095Y-97162952D01*
X101004666Y-97734380D01*
X101623714Y-97734380D01*
X128865333Y-100612380D02*
X128532000Y-100136190D01*
X128293904Y-100612380D02*
X128293904Y-99612380D01*
X128674857Y-99612380D01*
X128770095Y-99660000D01*
X128817714Y-99707619D01*
X128865333Y-99802857D01*
X128865333Y-99945714D01*
X128817714Y-100040952D01*
X128770095Y-100088571D01*
X128674857Y-100136190D01*
X128293904Y-100136190D01*
X129198666Y-99612380D02*
X129817714Y-99612380D01*
X129484380Y-99993333D01*
X129627238Y-99993333D01*
X129722476Y-100040952D01*
X129770095Y-100088571D01*
X129817714Y-100183809D01*
X129817714Y-100421904D01*
X129770095Y-100517142D01*
X129722476Y-100564761D01*
X129627238Y-100612380D01*
X129341523Y-100612380D01*
X129246285Y-100564761D01*
X129198666Y-100517142D01*
X124206095Y-83526380D02*
X124206095Y-84335904D01*
X124253714Y-84431142D01*
X124301333Y-84478761D01*
X124396571Y-84526380D01*
X124587047Y-84526380D01*
X124682285Y-84478761D01*
X124729904Y-84431142D01*
X124777523Y-84335904D01*
X124777523Y-83526380D01*
X125682285Y-83859714D02*
X125682285Y-84526380D01*
X125444190Y-83478761D02*
X125206095Y-84193047D01*
X125825142Y-84193047D01*
X143243666Y-97512380D02*
X143243666Y-98226666D01*
X143196047Y-98369523D01*
X143100809Y-98464761D01*
X142957952Y-98512380D01*
X142862714Y-98512380D01*
X144148428Y-97512380D02*
X143957952Y-97512380D01*
X143862714Y-97560000D01*
X143815095Y-97607619D01*
X143719857Y-97750476D01*
X143672238Y-97940952D01*
X143672238Y-98321904D01*
X143719857Y-98417142D01*
X143767476Y-98464761D01*
X143862714Y-98512380D01*
X144053190Y-98512380D01*
X144148428Y-98464761D01*
X144196047Y-98417142D01*
X144243666Y-98321904D01*
X144243666Y-98083809D01*
X144196047Y-97988571D01*
X144148428Y-97940952D01*
X144053190Y-97893333D01*
X143862714Y-97893333D01*
X143767476Y-97940952D01*
X143719857Y-97988571D01*
X143672238Y-98083809D01*
M02*
