<?xml version="1.0" encoding="UTF-8" standalone="no"?>
<!DOCTYPE svg PUBLIC "-//W3C//DTD SVG 1.1//EN" "http://www.w3.org/Graphics/SVG/1.1/DTD/svg11.dtd">
<svg xmlns="http://www.w3.org/2000/svg" xmlns:xlink="http://www.w3.org/1999/xlink" version="1.1" width="1026pt" height="476.87998pt" viewBox="0 0 1026 476.87998">
<g enable-background="new">
<clipPath id="cp0">
<path transform="matrix(.24,0,0,.24,0,0)" d="M 0 0 L 4275 0 L 4275 1986.2123 L 0 1986.2123 Z " fill-rule="evenodd"/>
</clipPath>
<g clip-path="url(#cp0)">
<path transform="matrix(.71899089,0,0,.71899089,0,0)" d="M 0 0 L 1427 0 L 1427 663 L 0 663 Z " fill="#ffffff"/>
</g>
<clipPath id="cp1">
<path transform="matrix(.24,0,0,.24,0,0)" d="M 0 0 L 4275 0 L 4275 1986.2123 L 0 1986.2123 Z " fill-rule="evenodd"/>
</clipPath>
<g clip-path="url(#cp1)">
<path transform="matrix(.000000000000000044025495,-.71899089,.71899089,.000000000000000044025495,195.24198,658.4015)" d="M 387.84 51.96 L 798.45 51.96 C 799.92617 51.960004 801.3987 52.032346 802.8676 52.177026 C 804.3366 52.32171 805.795 52.538038 807.2427 52.826009 C 808.6904 53.113985 810.12057 53.472215 811.5331 53.9007 C 812.9456 54.32919 814.3338 54.82587 815.6975 55.390745 C 817.0613 55.95562 818.39407 56.58597 819.6958 57.2818 C 820.9976 57.977628 822.2622 58.73558 823.4895 59.555654 C 824.71688 60.375734 825.90109 61.253988 827.0422 62.19041 C 828.18319 63.12684 829.2755 64.116939 830.3193 65.16069 C 831.3631 66.20445 832.3532 67.29685 833.2896 68.43789 C 834.2261 69.578929 835.10427 70.76311 835.92428 71.99043 C 836.7444 73.217769 837.5023 74.48234 838.1981 75.784137 C 838.8939 77.08594 839.5243 78.41871 840.0892 79.78244 C 840.65408 81.14618 841.15078 82.53432 841.5792 83.94686 C 842.00778 85.3594 842.366 86.789539 842.65396 88.23727 C 842.94198 89.685009 843.1583 91.14337 843.303 92.612369 C 843.4477 94.08136 843.5201 95.5539 843.52 97.03 L 843.52 547.15 C 843.5201 548.62619 843.4477 550.0987 843.303 551.5676 C 843.1583 553.0366 842.94198 554.495 842.65396 555.9427 C 842.366 557.3904 842.00778 558.82058 841.5792 560.2331 C 841.15078 561.6456 840.65408 563.0338 840.0892 564.3975 C 839.5243 565.7613 838.8939 567.09408 838.1981 568.3958 C 837.5023 569.69766 836.7444 570.96218 835.92428 572.18948 C 835.10427 573.4168 834.2261 574.601 833.2896 575.74209 C 832.3532 576.88308 831.3631 577.97549 830.3193 579.0192 C 829.2755 580.063 828.18319 581.0531 827.0421 581.9895 C 825.90109 582.92599 824.71688 583.8042 823.4895 584.62429 C 822.2622 585.4444 820.9976 586.20236 819.6958 586.8982 C 818.394 587.594 817.0612 588.2243 815.69747 588.7892 C 814.33377 589.3541 812.9456 589.8508 811.5331 590.2793 C 810.12057 590.7078 808.6904 591.06607 807.2426 591.35397 C 805.7949 591.64199 804.33657 591.8583 802.8676 592.003 C 801.3987 592.1477 799.92617 592.22006 798.45 592.22006 L 387.84 592.22006 C 386.3639 592.22006 384.89137 592.1477 383.42237 592.003 C 381.95338 591.85836 380.495 591.642 379.04725 591.354 C 377.59953 591.06607 376.1694 590.7078 374.75688 590.2793 C 373.3443 589.8508 371.95616 589.3541 370.5924 588.78927 C 369.22868 588.22439 367.8959 587.59408 366.59413 586.8982 C 365.29234 586.20236 364.02775 585.4444 362.8004 584.62429 C 361.5731 583.8042 360.38893 582.92599 359.2479 581.9895 C 358.10685 581.0531 357.01445 580.06307 355.97068 579.0193 C 354.92695 577.9755 353.93684 576.8832 353.0004 575.7421 C 352.06398 574.6011 351.1857 573.4169 350.36564 572.1895 C 349.54557 570.9622 348.78764 569.69766 348.0918 568.3958 C 347.39598 567.09408 346.76564 565.7613 346.2007 564.3975 C 345.63587 563.0338 345.13917 561.6456 344.71067 560.2331 C 344.28218 558.82058 343.92393 557.3904 343.63597 555.9427 C 343.348 554.495 343.13169 553.0366 342.98704 551.5676 C 342.84236 550.0987 342.77 548.62619 342.77 547.15 L 342.77 97.03 C 342.77 95.5539 342.84236 94.08136 342.98704 92.612369 C 343.13169 91.14338 343.348 89.68501 343.63597 88.237277 C 343.92393 86.78954 344.28218 85.359409 344.71067 83.94686 C 345.13917 82.53432 345.63587 81.14618 346.2007 79.78244 C 346.76564 78.41871 347.39598 77.08594 348.0918 75.784137 C 348.78764 74.48234 349.54557 73.217769 350.36564 71.99043 C 351.1857 70.76311 352.06398 69.578929 353.0004 68.43789 C 353.93684 67.29685 354.92695 66.20445 355.97068 65.16069 C 357.01445 64.116939 358.10685 63.12684 359.24787 62.19041 C 360.3889 61.253988 361.57307 60.375734 362.80039 59.555654 C 364.0277 58.73558 365.2923 57.97763 366.59413 57.281805 C 367.8959 56.585977 369.22868 55.95562 370.5924 55.390745 C 371.95616 54.82587 373.3443 54.32919 374.75688 53.9007 C 376.1694 53.472215 377.59953 53.113985 379.04725 52.826009 C 380.495 52.538038 381.95338 52.32171 383.42237 52.177026 C 384.89137 52.032346 386.3639 51.960004 387.84 51.96 Z " fill="#f5f5f5"/>
<path transform="matrix(.000000000000000044025495,-.71899089,.71899089,.000000000000000044025495,195.24198,658.4015)" stroke-width="1" stroke-linecap="butt" stroke-miterlimit="4" stroke-linejoin="miter" fill="none" stroke="#666666" d="M 387.84 51.96 L 798.45 51.96 C 799.92617 51.960004 801.3987 52.032346 802.8676 52.177026 C 804.3366 52.32171 805.795 52.538038 807.2427 52.826009 C 808.6904 53.113985 810.12057 53.472215 811.5331 53.9007 C 812.9456 54.32919 814.3338 54.82587 815.6975 55.390745 C 817.0613 55.95562 818.39407 56.58597 819.6958 57.2818 C 820.9976 57.977628 822.2622 58.73558 823.4895 59.555654 C 824.71688 60.375734 825.90109 61.253988 827.0422 62.19041 C 828.18319 63.12684 829.2755 64.116939 830.3193 65.16069 C 831.3631 66.20445 832.3532 67.29685 833.2896 68.43789 C 834.2261 69.578929 835.10427 70.76311 835.92428 71.99043 C 836.7444 73.217769 837.5023 74.48234 838.1981 75.784137 C 838.8939 77.08594 839.5243 78.41871 840.0892 79.78244 C 840.65408 81.14618 841.15078 82.53432 841.5792 83.94686 C 842.00778 85.3594 842.366 86.789539 842.65396 88.23727 C 842.94198 89.685009 843.1583 91.14337 843.303 92.612369 C 843.4477 94.08136 843.5201 95.5539 843.52 97.03 L 843.52 547.15 C 843.5201 548.62619 843.4477 550.0987 843.303 551.5676 C 843.1583 553.0366 842.94198 554.495 842.65396 555.9427 C 842.366 557.3904 842.00778 558.82058 841.5792 560.2331 C 841.15078 561.6456 840.65408 563.0338 840.0892 564.3975 C 839.5243 565.7613 838.8939 567.09408 838.1981 568.3958 C 837.5023 569.69766 836.7444 570.96218 835.92428 572.18948 C 835.10427 573.4168 834.2261 574.601 833.2896 575.74209 C 832.3532 576.88308 831.3631 577.97549 830.3193 579.0192 C 829.2755 580.063 828.18319 581.0531 827.0421 581.9895 C 825.90109 582.92599 824.71688 583.8042 823.4895 584.62429 C 822.2622 585.4444 820.9976 586.20236 819.6958 586.8982 C 818.394 587.594 817.0612 588.2243 815.69747 588.7892 C 814.33377 589.3541 812.9456 589.8508 811.5331 590.2793 C 810.12057 590.7078 808.6904 591.06607 807.2426 591.35397 C 805.7949 591.64199 804.33657 591.8583 802.8676 592.003 C 801.3987 592.1477 799.92617 592.22006 798.45 592.22006 L 387.84 592.22006 C 386.3639 592.22006 384.89137 592.1477 383.42237 592.003 C 381.95338 591.85836 380.495 591.642 379.04725 591.354 C 377.59953 591.06607 376.1694 590.7078 374.75688 590.2793 C 373.3443 589.8508 371.95616 589.3541 370.5924 588.78927 C 369.22868 588.22439 367.8959 587.59408 366.59413 586.8982 C 365.29234 586.20236 364.02775 585.4444 362.8004 584.62429 C 361.5731 583.8042 360.38893 582.92599 359.2479 581.9895 C 358.10685 581.0531 357.01445 580.06307 355.97068 579.0193 C 354.92695 577.9755 353.93684 576.8832 353.0004 575.7421 C 352.06398 574.6011 351.1857 573.4169 350.36564 572.1895 C 349.54557 570.9622 348.78764 569.69766 348.0918 568.3958 C 347.39598 567.09408 346.76564 565.7613 346.2007 564.3975 C 345.63587 563.0338 345.13917 561.6456 344.71067 560.2331 C 344.28218 558.82058 343.92393 557.3904 343.63597 555.9427 C 343.348 554.495 343.13169 553.0366 342.98704 551.5676 C 342.84236 550.0987 342.77 548.62619 342.77 547.15 L 342.77 97.03 C 342.77 95.5539 342.84236 94.08136 342.98704 92.612369 C 343.13169 91.14338 343.348 89.68501 343.63597 88.237277 C 343.92393 86.78954 344.28218 85.359409 344.71067 83.94686 C 345.13917 82.53432 345.63587 81.14618 346.2007 79.78244 C 346.76564 78.41871 347.39598 77.08594 348.0918 75.784137 C 348.78764 74.48234 349.54557 73.217769 350.36564 71.99043 C 351.1857 70.76311 352.06398 69.578929 353.0004 68.43789 C 353.93684 67.29685 354.92695 66.20445 355.97068 65.16069 C 357.01445 64.116939 358.10685 63.12684 359.24787 62.19041 C 360.3889 61.253988 361.57307 60.375734 362.80039 59.555654 C 364.0277 58.73558 365.2923 57.97763 366.59413 57.281805 C 367.8959 56.585977 369.22868 55.95562 370.5924 55.390745 C 371.95616 54.82587 373.3443 54.32919 374.75688 53.9007 C 376.1694 53.472215 377.59953 53.113985 379.04725 52.826009 C 380.495 52.538038 381.95338 52.32171 383.42237 52.177026 C 384.89137 52.032346 386.3639 51.960004 387.84 51.96 Z "/>
<path transform="matrix(.71899089,0,0,.71899089,0,0)" stroke-width="4" stroke-linecap="butt" stroke-miterlimit="10" stroke-linejoin="miter" fill="none" stroke="#000000" d="M 335 193 L 349 193 "/>
<path transform="matrix(.71899089,0,0,.71899089,0,0)" d="M 45 146.5 L 225 146.5 L 225 239.5 L 45 239.5 Z " fill="#cccccc"/>
<path transform="matrix(.71899089,0,0,.71899089,0,0)" stroke-width="2" stroke-linecap="butt" stroke-miterlimit="4" stroke-linejoin="miter" fill="none" stroke="#000000" d="M 45 146.5 L 225 146.5 L 225 239.5 L 45 239.5 Z "/>
<path transform="matrix(.71899089,0,0,.71899089,0,0)" stroke-width="2" stroke-linecap="butt" stroke-miterlimit="10" stroke-linejoin="miter" fill="none" stroke="#000000" d="M 63 146.5 L 63 239.5 M 207 146.5 L 207 239.5 "/>
<text xml:space="preserve" transform="matrix(.71899089 0 0 .71899089 0 0)" font-size="18" font-family="Helvetica" font-weight="bold"><tspan y="174" x="96.984378 109.98038 120.97838 130.98638 141.98438 146.98838 152.98238 162.99037 167.99437">Hospital </tspan></text>
<text xml:space="preserve" transform="matrix(.71899089 0 0 .71899089 0 0)" font-size="18" font-family="Helvetica" font-weight="bold"><tspan y="195" x="81.96875 95.97275 105.98075 115.988758 120.99275 133.98876 138.99275 149.00075 159.99875 170.99675 181.00475">Gas Blender</tspan></text>
<text xml:space="preserve" transform="matrix(.71899089 0 0 .71899089 0 0)" font-size="14" font-family="Helvetica"><tspan y="212" x="80.90625 91.79825 99.58225 103.47425 111.258258 119.04226 122.93426 126.826259 136.16426 140.05626 143.94826 151.73226 159.51625 163.40825 171.19225 178.19225 181.30025">Output P: 50 psig</tspan></text>
<text xml:space="preserve" transform="matrix(.71899089 0 0 .71899089 0 0)" font-size="14" font-family="Helvetica"><tspan y="228" x="64.953128 75.84512 83.62913 87.521129 95.30513 103.089138 106.98113 110.87313 119.42713 122.53513 133.42714 141.21114 145.10314 148.99514 156.77913 164.56313 169.22513 177.00913 184.79312 192.57712">Output FiO2: 20-100%</tspan></text>
<path transform="matrix(.000000000000000044025495,-.71899089,.71899089,.000000000000000044025495,196.2845,473.81498)" d="M 445.5 163 L 485.5 163 L 485.5 223 L 445.5 223 Z " fill="#ffffff"/>
<path transform="matrix(.71899089,0,0,.71899089,0,0)" d="M 435.5 173 L 465.5 193 L 435.5 213 L 435.5 173 Z " fill="#f8cecc"/>
<path transform="matrix(.71899089,0,0,.71899089,0,0)" stroke-width="2" stroke-linecap="butt" stroke-miterlimit="10" stroke-linejoin="miter" fill="none" stroke="#b85450" d="M 435.5 173 L 465.5 193 L 435.5 213 L 435.5 173 Z "/>
<path transform="matrix(-.71899089,-.00000000000000008805099,.00000000000000008805099,-.71899089,690.9502,277.53047)" d="M 465.5 173 L 495.5 193 L 465.5 213 L 465.5 173 Z " fill="#f8cecc"/>
<path transform="matrix(-.71899089,-.00000000000000008805099,.00000000000000008805099,-.71899089,690.9502,277.53047)" stroke-width="2" stroke-linecap="butt" stroke-miterlimit="10" stroke-linejoin="miter" fill="none" stroke="#b85450" d="M 465.5 173 L 495.5 193 L 465.5 213 L 465.5 173 Z "/>
<path transform="matrix(.71899089,0,0,.71899089,0,0)" d="M 538.25 149.99918 L 538.25167 153.99918 L 534.25167 154.00083 L 534.25 150.00083 L 538.25 149.99918 Z M 538.2533 157.99918 L 538.25497 161.99918 L 534.25497 162.00083 L 534.2533 158.00083 L 538.2533 157.99918 Z M 538.25668 165.99918 L 538.2583 169.99918 L 534.2583 170.00083 L 534.25668 166.00083 L 538.25668 165.99918 Z M 538.25997 173.99918 L 538.2616 177.99918 L 534.2616 178.00083 L 534.25997 174.00083 L 538.25997 173.99918 Z M 538.26327 181.99918 L 538.2649 185.99918 L 534.2649 186.00083 L 534.26327 182.00083 L 538.26327 181.99918 Z M 538.26657 189.99915 L 538.26828 193.99915 L 534.26828 194.00086 L 534.26657 190.00086 L 538.26657 189.99915 Z M 538.2699 197.99918 L 538.27157 201.99918 L 534.27157 202.00083 L 534.2699 198.00083 L 538.2699 197.99918 Z M 538.2732 205.99918 L 538.27487 209.99918 L 534.27487 210.00083 L 534.2732 206.00083 L 538.2732 205.99918 Z M 538.2765 213.99916 L 538.27816 217.99918 L 534.27816 218.00083 L 534.2765 214.00081 L 538.2765 213.99916 Z M 538.27987 221.99918 L 538.2815 225.99918 L 534.2815 226.00083 L 534.27987 222.00083 L 538.27987 221.99918 Z M 538.28317 229.99918 L 538.2848 233.99918 L 534.2848 234.00083 L 534.28317 230.00083 L 538.28317 229.99918 Z M 538.28646 237.99918 L 538.2881 241.99916 L 534.2881 242.00081 L 534.28646 238.00083 L 538.28646 237.99918 Z M 538.28976 245.99913 L 538.29147 249.99913 L 534.29147 250.00084 L 534.28976 246.00084 L 538.28976 245.99913 Z M 538.2931 253.99916 L 538.29476 257.99919 L 534.29476 258.00083 L 534.2931 254.00081 L 538.2931 253.99916 Z M 538.2964 261.99919 L 538.29806 265.99919 L 534.29806 266.00083 L 534.2964 262.00083 L 538.2964 261.99919 Z M 538.2997 269.9991 L 538.30087 272.7 L 533 272.7 L 533 268.7 L 536.3 268.7 L 536.3 270.7 L 534.3 270.7009 L 534.2997 270.0009 L 538.2997 269.9991 Z M 529 272.7 L 525 272.7 L 525 268.7 L 529 268.7 L 529 272.7 Z M 521 272.7 L 517 272.7 L 517 268.7 L 521 268.7 L 521 272.7 Z M 513 272.7 L 512.5 272.7 L 512.5 270.7 L 514.5 270.7 L 514.5 274.19999 L 510.5 274.19999 L 510.5 268.7 L 513 268.7 L 513 272.7 Z M 514.5 278.19999 L 514.5 282.19999 L 510.5 282.19999 L 510.5 278.19999 L 514.5 278.19999 Z M 514.5 286.19999 L 514.5 290.19999 L 510.5 290.19999 L 510.5 286.19999 L 514.5 286.19999 Z M 514.5 294.19999 L 514.5 298.19999 L 510.5 298.19999 L 510.5 294.19999 L 514.5 294.19999 Z M 514.5 302.19999 L 514.5 306.19999 L 510.5 306.19999 L 510.5 302.19999 L 514.5 302.19999 Z M 514.5 310.19999 L 514.5 314.19999 L 510.5 314.19999 L 510.5 310.19999 L 514.5 310.19999 Z M 514.5 318.19999 L 514.5 322.19999 L 510.5 322.19999 L 510.5 318.19999 L 514.5 318.19999 Z M 514.5 326.19999 L 514.5 330.19999 L 510.5 330.19999 L 510.5 326.19999 L 514.5 326.19999 Z M 514.5 334.19999 L 514.5 338.19999 L 510.5 338.19999 L 510.5 334.19999 L 514.5 334.19999 Z M 514.5 342.19999 L 514.5 346.19999 L 510.5 346.19999 L 510.5 342.19999 L 514.5 342.19999 Z M 514.5 350.19999 L 514.5 354.19999 L 510.5 354.19999 L 510.5 350.19999 L 514.5 350.19999 Z M 514.5 358.19999 L 514.5 362.19999 L 510.5 362.19999 L 510.5 358.19999 L 514.5 358.19999 Z M 514.5 366.19999 L 514.5 370.19999 L 510.5 370.19999 L 510.5 366.19999 L 514.5 366.19999 Z M 514.5 374.19999 L 514.5 378.19999 L 510.5 378.19999 L 510.5 374.19999 L 514.5 374.19999 Z M 514.5 382.19999 L 514.5 386.19999 L 510.5 386.19999 L 510.5 382.19999 L 514.5 382.19999 Z M 514.5 390.19999 L 514.5 391.34 L 510.5 391.34 L 510.5 390.19999 L 514.5 390.19999 Z " fill="#9933ff"/>
<path transform="matrix(-.71899089,-.00000000000000008805099,.00000000000000008805099,-.71899089,771.1177,191.25156)" d="M 535 116 L 537.5 116 L 557.5 132 L 557.5 150 L 515 150 L 515 132 L 535 116 Z " fill="#e1d5e7"/>
<path transform="matrix(-.71899089,-.00000000000000008805099,.00000000000000008805099,-.71899089,771.1177,191.25156)" stroke-width="2" stroke-linecap="butt" stroke-miterlimit="10" stroke-linejoin="miter" fill="none" stroke="#9673a6" d="M 535 116 L 537.5 116 L 557.5 132 L 557.5 150 L 515 150 L 515 132 L 535 116 Z "/>
<path transform="matrix(.71899089,0,0,.71899089,0,0)" stroke-width="4" stroke-linecap="butt" stroke-miterlimit="10" stroke-linejoin="miter" fill="none" stroke="#000000" d="M 409 193 L 435.5 193 "/>
<path transform="matrix(.71899089,0,0,.71899089,0,0)" stroke-width="4" stroke-linecap="butt" stroke-miterlimit="10" stroke-linejoin="miter" fill="none" stroke="#000000" d="M 495.5 193 L 536.3 193 L 536.25 150 "/>
<text fill="#cc0000" xml:space="preserve" transform="matrix(.71899089 0 0 .71899089 0 0)" font-size="18" font-family="Helvetica" font-weight="bold"><tspan y="150" x="442 454.006 461.00804 472.006 483.004">Prop.</tspan></text>
<text fill="#cc0000" xml:space="preserve" transform="matrix(.71899089 0 0 .71899089 0 0)" font-size="18" font-family="Helvetica" font-weight="bold"><tspan y="171" x="441.96876 452.99024 462.99824 468.00224 478.01023">Valve</tspan></text>
<text fill="#0000cc" xml:space="preserve" transform="matrix(.71899089 0 0 .71899089 0 0)" font-size="18" font-family="Helvetica" font-weight="bold"><tspan y="120" x="339.48439 351.4904 358.4924 368.5004 378.5084 388.5164 399.51438 406.5164">Pressure</tspan></text>
<text fill="#0000cc" xml:space="preserve" transform="matrix(.71899089 0 0 .71899089 0 0)" font-size="18" font-family="Helvetica" font-weight="bold"><tspan y="141" x="336 348.996 359.004 370.00199 380.99998 386.00398 396.01197 402.00596 413.00395">Regulator</tspan></text>
<text fill="#330066" xml:space="preserve" transform="matrix(.71899089 0 0 .71899089 0 0)" font-size="18" font-family="Helvetica" font-weight="bold"><tspan y="90" x="502.98439 516.9884 526.9964 537.0044 548.0024 558.0104">Oxygen</tspan></text>
<text fill="#330066" xml:space="preserve" transform="matrix(.71899089 0 0 .71899089 0 0)" font-size="18" font-family="Helvetica" font-weight="bold"><tspan y="111" x="505.48439 517.49038 527.49838 538.49636 548.50436 559.5023">Sensor</tspan></text>
<path transform="matrix(.71899089,0,0,.71899089,0,0)" stroke-width="4" stroke-linecap="butt" stroke-miterlimit="10" stroke-linejoin="miter" fill="none" stroke="#000000" d="M 614 79 L 614 193 L 535 193 "/>
<path transform="matrix(.71899089,0,0,.71899089,.35949544,.35949544)" d="M 595 104 L 635 104 L 635 164 L 595 164 Z " fill="#ffffff"/>
<path transform="matrix(.000000000000000044025495,.71899089,-.71899089,.000000000000000044025495,527.7393,-356.61946)" d="M 600 99 L 630 119 L 600 139 L 600 99 Z " fill="#d1d1d1"/>
<path transform="matrix(.000000000000000044025495,.71899089,-.71899089,.000000000000000044025495,527.7393,-356.61946)" stroke-width="2" stroke-linecap="butt" stroke-miterlimit="10" stroke-linejoin="miter" fill="none" stroke="#000000" d="M 600 99 L 630 119 L 600 139 L 600 99 Z "/>
<path transform="matrix(.000000000000000044025495,-.71899089,.71899089,.000000000000000044025495,335.0497,549.309)" d="M 600 129 L 630 149 L 600 169 L 600 129 Z " fill="#d1d1d1"/>
<path transform="matrix(.000000000000000044025495,-.71899089,.71899089,.000000000000000044025495,335.0497,549.309)" stroke-width="2" stroke-linecap="butt" stroke-miterlimit="10" stroke-linejoin="miter" fill="none" stroke="#000000" d="M 600 129 L 630 149 L 600 169 L 600 129 Z "/>
<text xml:space="preserve" transform="matrix(.71899089 0 0 .71899089 0 0)" font-size="18" font-family="Helvetica" font-weight="bold"><tspan y="130" x="630.4844 643.48037 653.48837 658.4924 663.4964 673.5044">Relief</tspan></text>
<text xml:space="preserve" transform="matrix(.71899089 0 0 .71899089 0 0)" font-size="18" font-family="Helvetica" font-weight="bold"><tspan y="151" x="631.96878 642.99026 652.9982 658.00228 668.01028">Valve</tspan></text>
<path transform="matrix(.71899089,0,0,.71899089,0,0)" stroke-width="4" stroke-linecap="butt" stroke-miterlimit="10" stroke-linejoin="miter" fill="none" stroke="#000000" d="M 716 135.94 L 716 139 L 715 139 L 715 193 L 495.5 193 "/>
<path transform="matrix(.71899089,0,0,.71899089,0,0)" stroke-width="4" stroke-linecap="butt" stroke-miterlimit="10" stroke-linejoin="miter" fill="none" stroke="#000000" d="M 825 193.5 L 495 193.5 "/>
<path transform="matrix(.71899089,0,0,.71899089,0,0)" stroke-width="10" stroke-linecap="butt" stroke-miterlimit="10" stroke-linejoin="miter" fill="none" stroke="#000000" d="M 955 193.5 L 1060 193.5 L 1060 250 L 1165 250 "/>
<path transform="matrix(.71899089,0,0,.71899089,0,0)" d="M 915 153.5 L 955 193.5 L 915 233.5 L 875 193.5 L 915 153.5 Z " fill="#d5e8d4"/>
<path transform="matrix(.71899089,0,0,.71899089,0,0)" stroke-width="2" stroke-linecap="butt" stroke-miterlimit="10" stroke-linejoin="miter" fill="none" stroke="#82b366" d="M 915 153.5 L 955 193.5 L 915 233.5 L 875 193.5 L 915 153.5 Z "/>
<path transform="matrix(.71899089,0,0,.71899089,0,0)" stroke-width="4" stroke-linecap="butt" stroke-miterlimit="10" stroke-linejoin="miter" fill="none" stroke="#000000" d="M 875 310 L 785.01 310 "/>
<path transform="matrix(.71899089,0,0,.71899089,0,0)" stroke-width="10" stroke-linecap="butt" stroke-miterlimit="10" stroke-linejoin="miter" fill="none" stroke="#000000" d="M 950 310 L 1060 310 L 1060 250 L 1160 250 "/>
<path transform="matrix(.71899089,0,0,.71899089,0,0)" d="M 915 270 L 955 310 L 915 350 L 875 310 L 915 270 Z " fill="#d5e8d4"/>
<path transform="matrix(.71899089,0,0,.71899089,0,0)" stroke-width="2" stroke-linecap="butt" stroke-miterlimit="10" stroke-linejoin="miter" fill="none" stroke="#82b366" d="M 915 270 L 955 310 L 915 350 L 875 310 L 915 270 Z "/>
<path transform="matrix(.000000000000000044025495,-.71899089,.71899089,.000000000000000044025495,406.58934,1259.3124)" d="M 1138 563 L 1178 563 L 1178 623 L 1138 623 Z " fill="#ffffff"/>
<text fill="#cc0000" xml:space="preserve" transform="matrix(.71899089 0 0 .71899089 0 0)" font-size="18" font-family="Helvetica" font-weight="bold"><tspan y="403" x="735.4844 747.49038 757.49838 768.49636 773.50039 780.5024 790.5104 796.5044 807.5024 814.5044">Expiratory</tspan></text>
<text fill="#cc0000" xml:space="preserve" transform="matrix(.71899089 0 0 .71899089 0 0)" font-size="18" font-family="Helvetica" font-weight="bold"><tspan y="424" x="742.0156 754.0216 765.0196 770.0236 780.0316 791.0296 802.0276 807.0316">Solenoid</tspan></text>
<path transform="matrix(.000000000000000044025495,-.71899089,.71899089,.000000000000000044025495,134.0918,411.62226)" d="M 359 163 L 399 163 L 399 223 L 359 223 Z " fill="#ffffff"/>
<path transform="matrix(.71899089,0,0,.71899089,0,0)" d="M 349 173 L 379 193 L 349 213 L 349 173 Z " fill="#dae8fc"/>
<path transform="matrix(.71899089,0,0,.71899089,0,0)" stroke-width="2" stroke-linecap="butt" stroke-miterlimit="10" stroke-linejoin="miter" fill="none" stroke="#6c8ebf" d="M 349 173 L 379 193 L 349 213 L 349 173 Z "/>
<path transform="matrix(-.71899089,-.00000000000000008805099,.00000000000000008805099,-.71899089,566.5648,277.53047)" d="M 379 173 L 409 193 L 379 213 L 379 173 Z " fill="#dae8fc"/>
<path transform="matrix(-.71899089,-.00000000000000008805099,.00000000000000008805099,-.71899089,566.5648,277.53047)" stroke-width="2" stroke-linecap="butt" stroke-miterlimit="10" stroke-linejoin="miter" fill="none" stroke="#6c8ebf" d="M 379 173 L 409 193 L 379 213 L 379 173 Z "/>
<path transform="matrix(.71899089,0,0,.71899089,0,0)" stroke-width="4" stroke-linecap="butt" stroke-miterlimit="10" stroke-linejoin="miter" fill="none" stroke="#0000cc" d="M 379.25 169.25 L 379 193 "/>
<path transform="matrix(.71899089,0,0,.71899089,0,0)" stroke-width="4" stroke-linecap="butt" stroke-miterlimit="10" stroke-linejoin="miter" fill="none" stroke="#0000cc" d="M 379 193 L 393.11 169.68 "/>
<path transform="matrix(.000000000000000044025495,-.71899089,.71899089,.000000000000000044025495,159.07672,386.27784)" d="M 368 143 C 383 143 390.5 148 390.5 158 C 390.5 168 383 173 368 173 L 368 143 Z " fill="#dae8fc"/>
<path transform="matrix(.000000000000000044025495,-.71899089,.71899089,.000000000000000044025495,159.07672,386.27784)" stroke-width="2" stroke-linecap="butt" stroke-miterlimit="10" stroke-linejoin="miter" fill="none" stroke="#6c8ebf" d="M 368 143 C 383 143 390.5 148 390.5 158 C 390.5 168 383 173 368 173 L 368 143 Z "/>
<text xml:space="preserve" transform="matrix(.71899089 0 0 .71899089 0 0)" font-size="18" font-family="Helvetica" font-weight="bold"><tspan y="109" x="779.5156 792.5116 803.5096 809.5036 814.5076">Anti-</tspan></text>
<text xml:space="preserve" transform="matrix(.71899089 0 0 .71899089 0 0)" font-size="18" font-family="Helvetica" font-weight="bold"><tspan y="130" x="751.5 761.508 772.506 778.5 784.494 795.492 805.5 815.508 821.502 826.50607 837.504">suffocation</tspan></text>
<text xml:space="preserve" transform="matrix(.71899089 0 0 .71899089 0 0)" font-size="18" font-family="Helvetica" font-weight="bold"><tspan y="151" x="772.9844 785.98037 796.97836 806.9863 816.9943">Check</tspan></text>
<text xml:space="preserve" transform="matrix(.71899089 0 0 .71899089 0 0)" font-size="18" font-family="Helvetica" font-weight="bold"><tspan y="172" x="776.96878 787.99026 797.9982 803.00228 813.01028">Valve</tspan></text>
<path transform="matrix(.71899089,0,0,.71899089,0,0)" stroke-width="4" stroke-linecap="butt" stroke-miterlimit="10" stroke-linejoin="miter" fill="none" stroke="#000000" d="M 716 104 L 716 80 L 717 80 L 717 59 "/>
<path transform="matrix(.71899089,0,0,.71899089,0,0)" d="M 624 69 C 623.99996 69.65661 623.9359 70.30691 623.8078 70.9509 C 623.6797 71.59489 623.49 72.2202 623.2388 72.82682 C 622.9875 73.43345 622.67947 74.009738 622.3146 74.55568 C 621.9498 75.10164 621.53536 75.606769 621.07107 76.07106 C 620.60678 76.535358 620.1016 76.9499 619.55569 77.31469 C 619.0097 77.67948 618.4334 77.98751 617.8268 78.238788 C 617.22018 78.49006 616.59487 78.67975 615.95089 78.807849 C 615.3069 78.93594 614.6566 78.99999 614 79 C 613.3434 78.99999 612.69308 78.93594 612.0491 78.807849 C 611.4051 78.67975 610.7797 78.49006 610.1731 78.238788 C 609.56649 77.98751 608.9902 77.67948 608.4442 77.31469 C 607.89828 76.9499 607.3931 76.535358 606.9289 76.07106 C 606.4646 75.606769 606.05007 75.10165 605.68527 74.555698 C 605.32046 74.00974 605.0124 73.43345 604.7611 72.82682 C 604.5098 72.2202 604.3202 71.59489 604.19216 70.9509 C 604.064 70.30691 604 69.65661 604 69 C 604 68.34339 604.064 67.693088 604.19216 67.049098 C 604.3202 66.4051 604.5098 65.779788 604.7611 65.17316 C 605.0124 64.56653 605.32046 63.99024 605.68527 63.444288 C 606.05007 62.89834 606.4646 62.39322 606.9289 61.92893 C 607.3931 61.464635 607.89828 61.05009 608.4442 60.6853 C 608.9902 60.320505 609.56649 60.01247 610.1731 59.7612 C 610.7797 59.50993 611.4051 59.320245 612.0491 59.192148 C 612.69308 59.06405 613.3434 59 614 59 C 614.6566 59 615.3069 59.06405 615.95089 59.192148 C 616.59487 59.320245 617.22018 59.50993 617.8268 59.7612 C 618.4334 60.01247 619.0097 60.320505 619.55569 60.685297 C 620.1016 61.05009 620.60678 61.464635 621.07107 61.92893 C 621.53536 62.39322 621.9498 62.89834 622.3146 63.44429 C 622.67947 63.99024 622.9875 64.56653 623.2388 65.17316 C 623.49 65.779788 623.6797 66.4051 623.8078 67.049098 C 623.9359 67.693088 623.99996 68.34339 624 69 Z " fill="#cccccc"/>
<path transform="matrix(.71899089,0,0,.71899089,0,0)" stroke-width="2" stroke-linecap="butt" stroke-miterlimit="4" stroke-linejoin="miter" fill="none" stroke="#000000" d="M 624 69 C 623.99996 69.65661 623.9359 70.30691 623.8078 70.9509 C 623.6797 71.59489 623.49 72.2202 623.2388 72.82682 C 622.9875 73.43345 622.67947 74.009738 622.3146 74.55568 C 621.9498 75.10164 621.53536 75.606769 621.07107 76.07106 C 620.60678 76.535358 620.1016 76.9499 619.55569 77.31469 C 619.0097 77.67948 618.4334 77.98751 617.8268 78.238788 C 617.22018 78.49006 616.59487 78.67975 615.95089 78.807849 C 615.3069 78.93594 614.6566 78.99999 614 79 C 613.3434 78.99999 612.69308 78.93594 612.0491 78.807849 C 611.4051 78.67975 610.7797 78.49006 610.1731 78.238788 C 609.56649 77.98751 608.9902 77.67948 608.4442 77.31469 C 607.89828 76.9499 607.3931 76.535358 606.9289 76.07106 C 606.4646 75.606769 606.05007 75.10165 605.68527 74.555698 C 605.32046 74.00974 605.0124 73.43345 604.7611 72.82682 C 604.5098 72.2202 604.3202 71.59489 604.19216 70.9509 C 604.064 70.30691 604 69.65661 604 69 C 604 68.34339 604.064 67.693088 604.19216 67.049098 C 604.3202 66.4051 604.5098 65.779788 604.7611 65.17316 C 605.0124 64.56653 605.32046 63.99024 605.68527 63.444288 C 606.05007 62.89834 606.4646 62.39322 606.9289 61.92893 C 607.3931 61.464635 607.89828 61.05009 608.4442 60.6853 C 608.9902 60.320505 609.56649 60.01247 610.1731 59.7612 C 610.7797 59.50993 611.4051 59.320245 612.0491 59.192148 C 612.69308 59.06405 613.3434 59 614 59 C 614.6566 59 615.3069 59.06405 615.95089 59.192148 C 616.59487 59.320245 617.22018 59.50993 617.8268 59.7612 C 618.4334 60.01247 619.0097 60.320505 619.55569 60.685297 C 620.1016 61.05009 620.60678 61.464635 621.07107 61.92893 C 621.53536 62.39322 621.9498 62.89834 622.3146 63.44429 C 622.67947 63.99024 622.9875 64.56653 623.2388 65.17316 C 623.49 65.779788 623.6797 66.4051 623.8078 67.049098 C 623.9359 67.693088 623.99996 68.34339 624 69 Z "/>
<path transform="matrix(.71899089,0,0,.71899089,0,0)" d="M 726 69 C 725.99996 69.65661 725.9359 70.30691 725.8078 70.9509 C 725.6797 71.59489 725.49008 72.2202 725.2388 72.82682 C 724.9875 73.43345 724.67947 74.009738 724.31466 74.55568 C 723.9498 75.10164 723.5353 75.606769 723.071 76.07106 C 722.6067 76.535358 722.1016 76.9499 721.55569 77.31469 C 721.0097 77.67948 720.4334 77.98751 719.8268 78.238788 C 719.22018 78.49006 718.5948 78.67975 717.9508 78.807849 C 717.3068 78.93594 716.65658 78.99999 716 79 C 715.3433 78.99999 714.693 78.93594 714.049 78.807849 C 713.405 78.67975 712.7797 78.49006 712.1731 78.238788 C 711.56649 77.98751 710.99026 77.67948 710.4443 77.31469 C 709.8983 76.9499 709.3932 76.535358 708.9289 76.07106 C 708.46456 75.606769 708.05 75.10165 707.6852 74.555698 C 707.3204 74.00974 707.0123 73.43345 706.7611 72.82682 C 706.5099 72.2202 706.3202 71.59489 706.1921 70.9509 C 706.06399 70.30691 705.99996 69.65661 706 69 C 705.99996 68.34339 706.06399 67.693088 706.1921 67.049098 C 706.3202 66.4051 706.5099 65.779788 706.7611 65.17316 C 707.0123 64.56653 707.3204 63.99024 707.6852 63.444288 C 708.05 62.89834 708.46456 62.39322 708.9289 61.92893 C 709.3932 61.464635 709.8983 61.05009 710.4443 60.6853 C 710.99026 60.320505 711.56649 60.01247 712.1731 59.7612 C 712.7797 59.50993 713.405 59.320245 714.0491 59.192148 C 714.69308 59.06405 715.3433 59 716 59 C 716.65658 59 717.3068 59.06405 717.9508 59.192148 C 718.5948 59.320245 719.22018 59.50993 719.8268 59.7612 C 720.4334 60.01247 721.00967 60.320505 721.5556 60.685297 C 722.10159 61.05009 722.6067 61.464635 723.071 61.92893 C 723.5353 62.39322 723.9498 62.89834 724.31466 63.44429 C 724.67947 63.99024 724.9874 64.56653 725.2387 65.17316 C 725.49 65.779788 725.6797 66.4051 725.8078 67.049098 C 725.9359 67.693088 725.99996 68.34339 726 69 Z " fill="#cccccc"/>
<path transform="matrix(.71899089,0,0,.71899089,0,0)" stroke-width="2" stroke-linecap="butt" stroke-miterlimit="4" stroke-linejoin="miter" fill="none" stroke="#000000" d="M 726 69 C 725.99996 69.65661 725.9359 70.30691 725.8078 70.9509 C 725.6797 71.59489 725.49008 72.2202 725.2388 72.82682 C 724.9875 73.43345 724.67947 74.009738 724.31466 74.55568 C 723.9498 75.10164 723.5353 75.606769 723.071 76.07106 C 722.6067 76.535358 722.1016 76.9499 721.55569 77.31469 C 721.0097 77.67948 720.4334 77.98751 719.8268 78.238788 C 719.22018 78.49006 718.5948 78.67975 717.9508 78.807849 C 717.3068 78.93594 716.65658 78.99999 716 79 C 715.3433 78.99999 714.693 78.93594 714.049 78.807849 C 713.405 78.67975 712.7797 78.49006 712.1731 78.238788 C 711.56649 77.98751 710.99026 77.67948 710.4443 77.31469 C 709.8983 76.9499 709.3932 76.535358 708.9289 76.07106 C 708.46456 75.606769 708.05 75.10165 707.6852 74.555698 C 707.3204 74.00974 707.0123 73.43345 706.7611 72.82682 C 706.5099 72.2202 706.3202 71.59489 706.1921 70.9509 C 706.06399 70.30691 705.99996 69.65661 706 69 C 705.99996 68.34339 706.06399 67.693088 706.1921 67.049098 C 706.3202 66.4051 706.5099 65.779788 706.7611 65.17316 C 707.0123 64.56653 707.3204 63.99024 707.6852 63.444288 C 708.05 62.89834 708.46456 62.39322 708.9289 61.92893 C 709.3932 61.464635 709.8983 61.05009 710.4443 60.6853 C 710.99026 60.320505 711.56649 60.01247 712.1731 59.7612 C 712.7797 59.50993 713.405 59.320245 714.0491 59.192148 C 714.69308 59.06405 715.3433 59 716 59 C 716.65658 59 717.3068 59.06405 717.9508 59.192148 C 718.5948 59.320245 719.22018 59.50993 719.8268 59.7612 C 720.4334 60.01247 721.00967 60.320505 721.5556 60.685297 C 722.10159 61.05009 722.6067 61.464635 723.071 61.92893 C 723.5353 62.39322 723.9498 62.89834 724.31466 63.44429 C 724.67947 63.99024 724.9874 64.56653 725.2387 65.17316 C 725.49 65.779788 725.6797 66.4051 725.8078 67.049098 C 725.9359 67.693088 725.99996 68.34339 726 69 Z "/>
<text xml:space="preserve" transform="matrix(.71899089 0 0 .71899089 0 0)" font-size="18" font-family="Helvetica" font-weight="bold"><tspan y="56" x="629 641.996 657.998 668.996 674 684.008 695.006">Ambient</tspan></text>
<text xml:space="preserve" transform="matrix(.71899089 0 0 .71899089 0 0)" font-size="18" font-family="Helvetica" font-weight="bold"><tspan y="607" x="661 673.006 683.014 694.01199 699.016 706.018 716.026 722.02 727.02407 738.02206">Expiration</tspan></text>
<text xml:space="preserve" transform="matrix(.71899089 0 0 .71899089 0 0)" font-size="18" font-family="Helvetica" font-weight="bold"><tspan y="628" x="679 693.004 704.002 709.99606 715.00009 725.00808">Outlet</tspan></text>
<text fill="#006600" xml:space="preserve" transform="matrix(.71899089 0 0 .71899089 0 0)" font-size="18" font-family="Helvetica" font-weight="bold"><tspan y="254" x="920.125 933.121 943.12899 953.13699 959.131 969.139 976.141 981.145 991.153 996.15707 1001.1611 1012.8584 1017.8624 1024.8644 1034.8724">Bacterial/Viral</tspan></text>
<text fill="#006600" xml:space="preserve" transform="matrix(.71899089 0 0 .71899089 0 0)" font-size="18" font-family="Helvetica" font-weight="bold"><tspan y="275" x="953 963.998 969.002 974.00607 980.00009 990.00808 997.0101">Filters</tspan></text>
<path transform="matrix(.71899089,0,0,.71899089,0,0)" stroke-width="10" stroke-linecap="butt" stroke-miterlimit="10" stroke-linejoin="miter" fill="none" stroke="#000000" d="M 1295 250 L 1245 250 "/>
<path transform="matrix(.71899089,0,0,.71899089,0,0)" d="M 1185 215 L 1225 215 L 1245 250 L 1225 285 L 1185 285 L 1165 250 L 1185 215 Z " fill="#d5e8d4"/>
<path transform="matrix(.71899089,0,0,.71899089,0,0)" stroke-width="2" stroke-linecap="butt" stroke-miterlimit="10" stroke-linejoin="miter" fill="none" stroke="#82b366" d="M 1185 215 L 1225 215 L 1245 250 L 1225 285 L 1185 285 L 1165 250 L 1185 215 Z "/>
<text fill="#006633" xml:space="preserve" transform="matrix(.71899089 0 0 .71899089 0 0)" font-size="18" font-family="Helvetica" font-weight="bold"><tspan y="201" x="1177 1189.996 1204.99 1216.996 1222">HME/F</tspan></text>
<path transform="matrix(.71899089,0,0,.71899089,0,0)" d="M 344.94 290 L 665 290 L 665 520 L 344.94 520 Z " fill="#ffe6cc"/>
<path transform="matrix(.71899089,0,0,.71899089,0,0)" stroke-width="2" stroke-linecap="butt" stroke-miterlimit="4" stroke-linejoin="miter" fill="none" stroke="#d79b00" d="M 344.94 290 L 665 290 L 665 520 L 344.94 520 Z "/>
<path transform="matrix(.71899089,0,0,.71899089,0,0)" stroke-width="2" stroke-linecap="butt" stroke-miterlimit="10" stroke-linejoin="miter" fill="none" stroke="#d79b00" d="M 344.94 290 L 344.94 520 M 665 290 L 665 520 "/>
<path transform="matrix(.71899089,0,0,.71899089,0,0)" d="M 465.5 195 L 464 195 L 464 193 L 466 193 L 466 195.5 L 462 195.5 L 462 191 L 465.5 191 L 465.5 195 Z M 466 199.5 L 466 203.5 L 462 203.5 L 462 199.5 L 466 199.5 Z M 466 207.5 L 466 211.5 L 462 211.5 L 462 207.5 L 466 207.5 Z M 466 215.5 L 466 219.5 L 462 219.5 L 462 215.5 L 466 215.5 Z M 466 223.5 L 466 227.5 L 462 227.5 L 462 223.5 L 466 223.5 Z M 466 231.5 L 466 235.5 L 462 235.5 L 462 231.5 L 466 231.5 Z M 466 239.5 L 466 243.5 L 462 243.5 L 462 239.5 L 466 239.5 Z M 466 247.5 L 466 251.5 L 462 251.5 L 462 247.5 L 466 247.5 Z M 466 255.5 L 466 259.5 L 462 259.5 L 462 255.5 L 466 255.5 Z M 466 263.5 L 466 267.5 L 462 267.5 L 462 263.5 L 466 263.5 Z M 466 271.5 L 466 275.5 L 462 275.5 L 462 271.5 L 466 271.5 Z M 466 279.5 L 466 280 L 464 280 L 464 278 L 467.5 278 L 467.5 282 L 462 282 L 462 279.5 L 466 279.5 Z M 471.5 278 L 475.5 278 L 475.5 282 L 471.5 282 L 471.5 278 Z M 479.5 278 L 483.5 278 L 483.5 282 L 479.5 282 L 479.5 278 Z M 487.5 278 L 491.5 278 L 491.5 282 L 487.5 282 L 487.5 278 Z M 495.5 278 L 499.5 278 L 499.5 282 L 495.5 282 L 495.5 278 Z M 505 280.5 L 505 284.5 L 501 284.5 L 501 280.5 L 505 280.5 Z M 505 288.5 L 505 290 L 503 290 L 503 288 L 504.97 288 L 504.97 292 L 501 292 L 501 288.5 L 505 288.5 Z " fill="#ff0000"/>
<text fill="#330066" xml:space="preserve" transform="matrix(.71899089 0 0 .71899089 0 0)" font-size="16" font-family="Helvetica" font-weight="bold"><tspan y="378" x="397.92189 407.69789 412.14588 421.92189 434.36988 438.81788 449.48988 458.38587 468.16188 477.05787 486.83387">Flow Sensor</tspan></text>
<text fill="#330066" xml:space="preserve" transform="matrix(.71899089 0 0 .71899089 0 0)" font-size="16" font-family="Helvetica" font-weight="bold"><tspan y="400" x="361.90626 367.23426 378.78627 383.23426 388.56227 393.89027 402.78627 409.01026 417.90626 427.68226 433.01026 437.45826 446.35426 450.80226 455.25025 465.92225 472.14625 481.04225 489.93824 498.83424 508.61024 514.8342 523.7302">(Differential Pressure)</tspan></text>
<path transform="matrix(.71899089,0,0,.71899089,0,0)" d="M 392.5 490.07 C 392.49998 491.0549 392.4039 492.03034 392.21174 492.9963 C 392.0196 493.9623 391.73509 494.90028 391.35816 495.8102 C 390.98127 496.72016 390.51924 497.5846 389.97203 498.40354 C 389.42485 499.22248 388.80305 499.98017 388.1066 500.6766 C 387.41017 501.37303 386.65248 501.9948 385.83357 502.54203 C 385.01463 503.08918 384.15019 503.55125 383.24024 503.9282 C 382.33027 504.30509 381.39228 504.5896 380.4263 504.78175 C 379.46034 504.9739 378.4849 505.06999 377.5 505.07 C 376.51509 505.06999 375.5396 504.9739 374.5736 504.78175 C 373.6076 504.58958 372.66963 504.30506 371.75968 503.92817 C 370.84974 503.55125 369.9853 503.08918 369.16636 502.542 C 368.34745 501.9948 367.58979 501.37303 366.89335 500.6766 C 366.1969 499.98017 365.5751 499.22245 365.0279 498.4035 C 364.4807 497.58457 364.01869 496.72013 363.64176 495.81019 C 363.26484 494.90025 362.98033 493.9623 362.7882 492.99635 C 362.59608 492.03038 362.5 491.0549 362.5 490.07 C 362.5 489.08506 362.59608 488.1096 362.7882 487.14363 C 362.98033 486.1776 363.26484 485.23966 363.64176 484.3297 C 364.01869 483.41978 364.4807 482.55534 365.0279 481.73643 C 365.5751 480.91749 366.1969 480.1598 366.89335 479.46339 C 367.58979 478.76695 368.34745 478.14515 369.16636 477.59794 C 369.9853 477.05076 370.84974 476.5887 371.75968 476.2118 C 372.66963 475.83488 373.6076 475.55036 374.5736 475.35826 C 375.5396 475.16609 376.51509 475.07 377.5 475.07 C 378.4849 475.07 379.46034 475.16609 380.4263 475.35823 C 381.39228 475.55036 382.33027 475.83488 383.2402 476.2118 C 384.15016 476.5887 385.0146 477.05076 385.83354 477.5979 C 386.65248 478.1451 387.41017 478.76695 388.1066 479.46339 C 388.80305 480.1598 389.42485 480.91746 389.97203 481.7364 C 390.51924 482.55534 390.98127 483.41978 391.35816 484.3297 C 391.73509 485.23966 392.0196 486.1776 392.21174 487.1436 C 392.4039 488.1096 392.49998 489.08506 392.5 490.07 Z " fill="#e1d5e7"/>
<path transform="matrix(.71899089,0,0,.71899089,0,0)" stroke-width="2" stroke-linecap="butt" stroke-miterlimit="4" stroke-linejoin="miter" fill="none" stroke="#9673a6" d="M 392.5 490.07 C 392.49998 491.0549 392.4039 492.03034 392.21174 492.9963 C 392.0196 493.9623 391.73509 494.90028 391.35816 495.8102 C 390.98127 496.72016 390.51924 497.5846 389.97203 498.40354 C 389.42485 499.22248 388.80305 499.98017 388.1066 500.6766 C 387.41017 501.37303 386.65248 501.9948 385.83357 502.54203 C 385.01463 503.08918 384.15019 503.55125 383.24024 503.9282 C 382.33027 504.30509 381.39228 504.5896 380.4263 504.78175 C 379.46034 504.9739 378.4849 505.06999 377.5 505.07 C 376.51509 505.06999 375.5396 504.9739 374.5736 504.78175 C 373.6076 504.58958 372.66963 504.30506 371.75968 503.92817 C 370.84974 503.55125 369.9853 503.08918 369.16636 502.542 C 368.34745 501.9948 367.58979 501.37303 366.89335 500.6766 C 366.1969 499.98017 365.5751 499.22245 365.0279 498.4035 C 364.4807 497.58457 364.01869 496.72013 363.64176 495.81019 C 363.26484 494.90025 362.98033 493.9623 362.7882 492.99635 C 362.59608 492.03038 362.5 491.0549 362.5 490.07 C 362.5 489.08506 362.59608 488.1096 362.7882 487.14363 C 362.98033 486.1776 363.26484 485.23966 363.64176 484.3297 C 364.01869 483.41978 364.4807 482.55534 365.0279 481.73643 C 365.5751 480.91749 366.1969 480.1598 366.89335 479.46339 C 367.58979 478.76695 368.34745 478.14515 369.16636 477.59794 C 369.9853 477.05076 370.84974 476.5887 371.75968 476.2118 C 372.66963 475.83488 373.6076 475.55036 374.5736 475.35826 C 375.5396 475.16609 376.51509 475.07 377.5 475.07 C 378.4849 475.07 379.46034 475.16609 380.4263 475.35823 C 381.39228 475.55036 382.33027 475.83488 383.2402 476.2118 C 384.15016 476.5887 385.0146 477.05076 385.83354 477.5979 C 386.65248 478.1451 387.41017 478.76695 388.1066 479.46339 C 388.80305 480.1598 389.42485 480.91746 389.97203 481.7364 C 390.51924 482.55534 390.98127 483.41978 391.35816 484.3297 C 391.73509 485.23966 392.0196 486.1776 392.21174 487.1436 C 392.4039 488.1096 392.49998 489.08506 392.5 490.07 Z "/>
<path transform="matrix(.71899089,0,0,.71899089,0,0)" d="M 1207 285 L 1207 289 L 1203 289 L 1203 285 L 1207 285 Z M 1207 293 L 1207 297 L 1203 297 L 1203 293 L 1207 293 Z M 1207 301 L 1207 305 L 1203 305 L 1203 301 L 1207 301 Z M 1207 309 L 1207 313 L 1203 313 L 1203 309 L 1207 309 Z M 1207 317 L 1207 321 L 1203 321 L 1203 317 L 1207 317 Z M 1207 325 L 1207 329 L 1203 329 L 1203 325 L 1207 325 Z M 1207 333 L 1207 337 L 1203 337 L 1203 333 L 1207 333 Z M 1207 341 L 1207 345 L 1203 345 L 1203 341 L 1207 341 Z M 1207 349 L 1207 353 L 1203 353 L 1203 349 L 1207 349 Z M 1207 357 L 1207 361 L 1203 361 L 1203 357 L 1207 357 Z M 1207 365 L 1207 369 L 1203 369 L 1203 365 L 1207 365 Z M 1207 373 L 1207 377 L 1203 377 L 1203 373 L 1207 373 Z M 1207 381 L 1207 385 L 1203 385 L 1203 381 L 1207 381 Z M 1207 389 L 1207 393 L 1203 393 L 1203 389 L 1207 389 Z M 1207 397 L 1207 401 L 1203 401 L 1203 397 L 1207 397 Z M 1207 405 L 1207 409 L 1203 409 L 1203 405 L 1207 405 Z M 1207 413 L 1207 417 L 1203 417 L 1203 413 L 1207 413 Z M 1207 421 L 1207 425 L 1203 425 L 1203 421 L 1207 421 Z M 1207 429 L 1207 433 L 1203 433 L 1203 429 L 1207 429 Z M 1207 437 L 1207 441 L 1203 441 L 1203 437 L 1207 437 Z M 1207 445 L 1207 449 L 1203 449 L 1203 445 L 1207 445 Z M 1207 453 L 1207 457 L 1203 457 L 1203 453 L 1207 453 Z M 1207 461 L 1207 465 L 1203 465 L 1203 461 L 1207 461 Z M 1207 469 L 1207 473 L 1203 473 L 1203 469 L 1207 469 Z M 1207 477 L 1207 481 L 1203 481 L 1203 477 L 1207 477 Z M 1207 485 L 1207 489 L 1203 489 L 1203 485 L 1207 485 Z M 1207 493 L 1207 497 L 1203 497 L 1203 493 L 1207 493 Z M 1207 501 L 1207 505 L 1203 505 L 1203 501 L 1207 501 Z M 1207 509 L 1207 513 L 1203 513 L 1203 509 L 1207 509 Z M 1207 517 L 1207 521 L 1203 521 L 1203 517 L 1207 517 Z M 1207 525 L 1207 529 L 1203 529 L 1203 525 L 1207 525 Z M 1207 533 L 1207 537 L 1203 537 L 1203 533 L 1207 533 Z M 1207 541 L 1207 545 L 1203 545 L 1203 541 L 1207 541 Z M 1207 549 L 1207 553 L 1203 553 L 1203 549 L 1207 549 Z M 1207 557 L 1207 561 L 1203 561 L 1203 557 L 1207 557 Z M 1207 565 L 1207 569 L 1203 569 L 1203 565 L 1207 565 Z M 1207 573 L 1207 577 L 1203 577 L 1203 573 L 1207 573 Z M 1207 581 L 1207 585 L 1203 585 L 1203 581 L 1207 581 Z M 1207 589 L 1207 593 L 1203 593 L 1203 589 L 1207 589 Z M 1207 597 L 1207 601 L 1203 601 L 1203 597 L 1207 597 Z M 1207 605 L 1207 609 L 1203 609 L 1203 605 L 1207 605 Z M 1207 613 L 1207 617 L 1203 617 L 1203 613 L 1207 613 Z M 1207 621 L 1207 625 L 1203 625 L 1203 621 L 1207 621 Z M 1207 629 L 1207 633 L 1203 633 L 1203 629 L 1207 629 Z M 1207 637 L 1207 641 L 1203 641 L 1203 637 L 1207 637 Z M 1207 645 L 1207 649 L 1203 649 L 1203 645 L 1207 645 Z M 1202 652 L 1198 652 L 1198 648 L 1202 648 L 1202 652 Z M 1194 652 L 1190 652 L 1190 648 L 1194 648 L 1194 652 Z M 1186 652 L 1182 652 L 1182 648 L 1186 648 L 1186 652 Z M 1178 652 L 1174 652 L 1174 648 L 1178 648 L 1178 652 Z M 1170 652 L 1166 652 L 1166 648 L 1170 648 L 1170 652 Z M 1162 652 L 1158 652 L 1158 648 L 1162 648 L 1162 652 Z M 1154 652 L 1150 652 L 1150 648 L 1154 648 L 1154 652 Z M 1146 652 L 1142 652 L 1142 648 L 1146 648 L 1146 652 Z M 1138 652 L 1134 652 L 1134 648 L 1138 648 L 1138 652 Z M 1130 652 L 1126 652 L 1126 648 L 1130 648 L 1130 652 Z M 1122 652 L 1118 652 L 1118 648 L 1122 648 L 1122 652 Z M 1114 652 L 1110 652 L 1110 648 L 1114 648 L 1114 652 Z M 1106 652 L 1102 652 L 1102 648 L 1106 648 L 1106 652 Z M 1098 652 L 1094 652 L 1094 648 L 1098 648 L 1098 652 Z M 1090 652 L 1086 652 L 1086 648 L 1090 648 L 1090 652 Z M 1082 652 L 1078 652 L 1078 648 L 1082 648 L 1082 652 Z M 1074 652 L 1070 652 L 1070 648 L 1074 648 L 1074 652 Z M 1066 652 L 1062 652 L 1062 648 L 1066 648 L 1066 652 Z M 1058 652 L 1054 652 L 1054 648 L 1058 648 L 1058 652 Z M 1050 652 L 1046 652 L 1046 648 L 1050 648 L 1050 652 Z M 1042 652 L 1038 652 L 1038 648 L 1042 648 L 1042 652 Z M 1034 652 L 1030 652 L 1030 648 L 1034 648 L 1034 652 Z M 1026 652 L 1022 652 L 1022 648 L 1026 648 L 1026 652 Z M 1018 652 L 1014 652 L 1014 648 L 1018 648 L 1018 652 Z M 1010 652 L 1006 652 L 1006 648 L 1010 648 L 1010 652 Z M 1002 652 L 998 652 L 998 648 L 1002 648 L 1002 652 Z M 994 652 L 990 652 L 990 648 L 994 648 L 994 652 Z M 986 652 L 982 652 L 982 648 L 986 648 L 986 652 Z M 978 652 L 974 652 L 974 648 L 978 648 L 978 652 Z M 970 652 L 966 652 L 966 648 L 970 648 L 970 652 Z M 962 652 L 958 652 L 958 648 L 962 648 L 962 652 Z M 954 652 L 950 652 L 950 648 L 954 648 L 954 652 Z M 946 652 L 942 652 L 942 648 L 946 648 L 946 652 Z M 938 652 L 934 652 L 934 648 L 938 648 L 938 652 Z M 930 652 L 926 652 L 926 648 L 930 648 L 930 652 Z M 922 652 L 918 652 L 918 648 L 922 648 L 922 652 Z M 914 652 L 910 652 L 910 648 L 914 648 L 914 652 Z M 906 652 L 902 652 L 902 648 L 906 648 L 906 652 Z M 898 652 L 894 652 L 894 648 L 898 648 L 898 652 Z M 890 652 L 886 652 L 886 648 L 890 648 L 890 652 Z M 882 652 L 878 652 L 878 648 L 882 648 L 882 652 Z M 874 652 L 870 652 L 870 648 L 874 648 L 874 652 Z M 866 652 L 862 652 L 862 648 L 866 648 L 866 652 Z M 858 652 L 854 652 L 854 648 L 858 648 L 858 652 Z M 850 652 L 846 652 L 846 648 L 850 648 L 850 652 Z M 842 652 L 838 652 L 838 648 L 842 648 L 842 652 Z M 834 652 L 830 652 L 830 648 L 834 648 L 834 652 Z M 826 652 L 822 652 L 822 648 L 826 648 L 826 652 Z M 818 652 L 814 652 L 814 648 L 818 648 L 818 652 Z M 810 652 L 806 652 L 806 648 L 810 648 L 810 652 Z M 802 652 L 798 652 L 798 648 L 802 648 L 802 652 Z M 794 652 L 790 652 L 790 648 L 794 648 L 794 652 Z M 786 652 L 782 652 L 782 648 L 786 648 L 786 652 Z M 778 652 L 774 652 L 774 648 L 778 648 L 778 652 Z M 770 652 L 766 652 L 766 648 L 770 648 L 770 652 Z M 762 652 L 758 652 L 758 648 L 762 648 L 762 652 Z M 754 652 L 750 652 L 750 648 L 754 648 L 754 652 Z M 746 652 L 742 652 L 742 648 L 746 648 L 746 652 Z M 738 652 L 734 652 L 734 648 L 738 648 L 738 652 Z M 730 652 L 726 652 L 726 648 L 730 648 L 730 652 Z M 722 652 L 718 652 L 718 648 L 722 648 L 722 652 Z M 714 652 L 710 652 L 710 648 L 714 648 L 714 652 Z M 706 652 L 702 652 L 702 648 L 706 648 L 706 652 Z M 698 652 L 694 652 L 694 648 L 698 648 L 698 652 Z M 690 652 L 686 652 L 686 648 L 690 648 L 690 652 Z M 682 652 L 678 652 L 678 648 L 682 648 L 682 652 Z M 674 652 L 670 652 L 670 648 L 674 648 L 674 652 Z M 666 652 L 662 652 L 662 648 L 666 648 L 666 652 Z M 658 652 L 654 652 L 654 648 L 658 648 L 658 652 Z M 650 652 L 646 652 L 646 648 L 650 648 L 650 652 Z M 642 652 L 638 652 L 638 648 L 642 648 L 642 652 Z M 634 652 L 630 652 L 630 648 L 634 648 L 634 652 Z M 626 652 L 622 652 L 622 648 L 626 648 L 626 652 Z M 618 652 L 614 652 L 614 648 L 618 648 L 618 652 Z M 610 652 L 606 652 L 606 648 L 610 648 L 610 652 Z M 602 652 L 598 652 L 598 648 L 602 648 L 602 652 Z M 594 652 L 590 652 L 590 648 L 594 648 L 594 652 Z M 586 652 L 582 652 L 582 648 L 586 648 L 586 652 Z M 578 652 L 574 652 L 574 648 L 578 648 L 578 652 Z M 570 652 L 566 652 L 566 648 L 570 648 L 570 652 Z M 562 652 L 558 652 L 558 648 L 562 648 L 562 652 Z M 554 652 L 550 652 L 550 648 L 554 648 L 554 652 Z M 546 652 L 542 652 L 542 648 L 546 648 L 546 652 Z M 538 652 L 534 652 L 534 648 L 538 648 L 538 652 Z M 530 652 L 526 652 L 526 648 L 530 648 L 530 652 Z M 522 652 L 518 652 L 518 648 L 522 648 L 522 652 Z M 514 652 L 510 652 L 510 648 L 514 648 L 514 652 Z M 506 652 L 502 652 L 502 648 L 506 648 L 506 652 Z M 498 652 L 494 652 L 494 648 L 498 648 L 498 652 Z M 490 652 L 486 652 L 486 648 L 490 648 L 490 652 Z M 482 652 L 478 652 L 478 648 L 482 648 L 482 652 Z M 474 652 L 470 652 L 470 648 L 474 648 L 474 652 Z M 466 652 L 462 652 L 462 648 L 466 648 L 466 652 Z M 458 652 L 454 652 L 454 648 L 458 648 L 458 652 Z M 450 652 L 446 652 L 446 648 L 450 648 L 450 652 Z M 442 652 L 438 652 L 438 648 L 442 648 L 442 652 Z M 434 652 L 430 652 L 430 648 L 434 648 L 434 652 Z M 426 652 L 422 652 L 422 648 L 426 648 L 426 652 Z M 418 652 L 414 652 L 414 648 L 418 648 L 418 652 Z M 410 652 L 406 652 L 406 648 L 410 648 L 410 652 Z M 402 652 L 398 652 L 398 648 L 402 648 L 402 652 Z M 394 652 L 390 652 L 390 648 L 394 648 L 394 652 Z M 386 652 L 382 652 L 382 648 L 386 648 L 386 652 Z M 378 652 L 375.5 652 L 375.5 646.5 L 379.5 646.5 L 379.5 650 L 377.5 650 L 377.5 648 L 378 648 L 378 652 Z M 375.5 642.5 L 375.5 638.5 L 379.5 638.5 L 379.5 642.5 L 375.5 642.5 Z M 375.5 634.5 L 375.5 630.5 L 379.5 630.5 L 379.5 634.5 L 375.5 634.5 Z M 375.5 626.5 L 375.5 622.5 L 379.5 622.5 L 379.5 626.5 L 375.5 626.5 Z M 375.5 618.5 L 375.5 614.5 L 379.5 614.5 L 379.5 618.5 L 375.5 618.5 Z M 375.5 610.5 L 375.5 606.5 L 379.5 606.5 L 379.5 610.5 L 375.5 610.5 Z M 375.5 602.5 L 375.5 598.5 L 379.5 598.5 L 379.5 602.5 L 375.5 602.5 Z M 375.5 594.5 L 375.5 590.5 L 379.5 590.5 L 379.5 594.5 L 375.5 594.5 Z M 375.5 586.5 L 375.5 582.5 L 379.5 582.5 L 379.5 586.5 L 375.5 586.5 Z M 375.5 578.5 L 375.5 574.5 L 379.5 574.5 L 379.5 578.5 L 375.5 578.5 Z M 375.5 570.49996 L 375.5 566.5 L 379.5 566.5 L 379.5 570.49996 L 375.5 570.49996 Z M 375.5 562.49996 L 375.5 558.49996 L 379.5 558.49996 L 379.5 562.49996 L 375.5 562.49996 Z M 375.5 554.49996 L 375.5 550.49996 L 379.5 550.49996 L 379.5 554.49996 L 375.5 554.49996 Z M 375.5 546.49996 L 375.5 542.49996 L 379.5 542.49996 L 379.5 546.49996 L 375.5 546.49996 Z M 375.5 538.49996 L 375.5 534.49996 L 379.5 534.49996 L 379.5 538.49996 L 375.5 538.49996 Z M 375.5 530.49996 L 375.5 526.49996 L 379.5 526.49996 L 379.5 530.49996 L 375.5 530.49996 Z M 375.5 522.49996 L 375.5 518.49996 L 379.5 518.49996 L 379.5 522.49996 L 375.5 522.49996 Z M 375.5 514.49996 L 375.5 510.49995 L 379.5 510.49995 L 379.5 514.49996 L 375.5 514.49996 Z M 375.5 506.49995 L 375.5 505.07 L 379.5 505.07 L 379.5 506.49995 L 375.5 506.49995 Z " fill="#9933ff"/>
<text fill="#330066" xml:space="preserve" transform="matrix(.71899089 0 0 .71899089 0 0)" font-size="16" font-family="Helvetica" font-weight="bold"><tspan y="486" x="396.40626 407.07826 413.30226 422.19825 431.09425 439.99024 449.76625 455.99024 464.88624 469.33424 480.00624 488.90223 498.67823 507.57423 517.3502">Pressure Sensor</tspan></text>
<text fill="#330066" xml:space="preserve" transform="matrix(.71899089 0 0 .71899089 0 0)" font-size="16" font-family="Helvetica" font-weight="bold"><tspan y="505" x="428.4375">(</tspan></text>
<text fill="#330066" xml:space="preserve" transform="matrix(.71899089 0 0 .71899089 0 0)" font-size="16" font-family="Helvetica" font-weight="bold"><tspan y="505" x="433.76564 445.31764 449.76564 455.98963 468.43763 477.33363 486.2296">Airway)</tspan></text>
<text xml:space="preserve" transform="matrix(.71899089 0 0 .71899089 0 0)" font-size="24" font-family="Helvetica" font-weight="bold"><tspan y="319" x="351.65626 371.64826 378.32026 391.66426 401.00025 415.66426 429.00825 443.67225 458.33625 466.32826 475.66426 490.32826 497.00025 503.67225 517.01626">Microcontroller</tspan></text>
<text fill="#9933ff" xml:space="preserve" transform="matrix(.71899089 0 0 .71899089 0 0)" font-size="24" font-family="Helvetica" font-weight="bold"><tspan y="347" x="359.04689 367.03889 373.71089 388.37489 403.03889 417.70289">(Input</tspan></text>
<text xml:space="preserve" transform="matrix(.71899089 0 0 .71899089 0 0)" font-size="24" font-family="Helvetica" font-weight="bold"><tspan y="347" x="425.67189">/</tspan></text>
<text fill="#ff0000" xml:space="preserve" transform="matrix(.71899089 0 0 .71899089 0 0)" font-size="24" font-family="Helvetica" font-weight="bold"><tspan y="347" x="432.32814 451.00013 465.66413 473.65614 488.32014 502.98414 510.97615">Output)</tspan></text>
<text xml:space="preserve" transform="matrix(.71899089 0 0 .71899089 0 0)" font-size="18" font-family="Helvetica" font-weight="bold"><tspan y="183" x="271.48439 276.48838 287.48637 292.49037 302.49836">Inlet</tspan></text>
<path transform="matrix(.71899089,0,0,.71899089,0,0)" d="M 335 193 C 334.99998 193.6566 334.9359 194.30689 334.80784 194.95087 C 334.67973 195.59485 334.49003 196.22016 334.23878 196.8268 C 333.9875 197.43341 333.67945 198.0097 333.31468 198.55567 C 332.94987 199.10163 332.5353 199.60675 332.071 200.07105 C 331.60673 200.53536 331.1016 200.94989 330.55564 201.31468 C 330.0097 201.67948 329.43345 201.9875 328.82679 202.23877 C 328.22016 202.49004 327.59486 202.67974 326.95088 202.80783 C 326.30686 202.93593 325.6566 202.99999 325 203 C 324.34339 202.99999 323.69309 202.93593 323.04908 202.80783 C 322.4051 202.67974 321.7798 202.49004 321.17317 202.23877 C 320.56654 201.9875 319.99024 201.67948 319.44429 201.31468 C 318.89836 200.94989 318.39323 200.53536 317.92893 200.07105 C 317.4646 199.60675 317.05006 199.10163 316.68528 198.55567 C 316.32048 198.0097 316.01243 197.43341 315.76118 196.8268 C 315.50993 196.22016 315.32026 195.59485 315.19218 194.95087 C 315.06407 194.30689 315 193.6566 315 193 C 315 192.34339 315.06407 191.69307 315.19218 191.04907 C 315.32026 190.40508 315.50993 189.77976 315.76118 189.17313 C 316.01243 188.56652 316.32048 187.99022 316.68528 187.44428 C 317.05006 186.89833 317.4646 186.3932 317.92893 185.92893 C 318.39323 185.46462 318.89833 185.05008 319.44425 184.68529 C 319.99024 184.3205 320.56654 184.01245 321.17317 183.76119 C 321.7798 183.50992 322.4051 183.32025 323.04908 183.19216 C 323.69309 183.06406 324.34339 183 325 183 C 325.6566 183 326.30686 183.06404 326.95088 183.19214 C 327.59486 183.32024 328.22016 183.50992 328.82679 183.76119 C 329.43345 184.01245 330.0097 184.3205 330.55564 184.68529 C 331.1016 185.05008 331.60673 185.46462 332.071 185.92893 C 332.5353 186.3932 332.94987 186.89833 333.31468 187.44428 C 333.67945 187.99022 333.9875 188.56652 334.23878 189.17313 C 334.49003 189.77976 334.67973 190.40508 334.80784 191.04907 C 334.9359 191.69307 334.99998 192.34339 335 193 Z " fill="#cccccc"/>
<path transform="matrix(.71899089,0,0,.71899089,0,0)" stroke-width="2" stroke-linecap="butt" stroke-miterlimit="4" stroke-linejoin="miter" fill="none" stroke="#000000" d="M 335 193 C 334.99998 193.6566 334.9359 194.30689 334.80784 194.95087 C 334.67973 195.59485 334.49003 196.22016 334.23878 196.8268 C 333.9875 197.43341 333.67945 198.0097 333.31468 198.55567 C 332.94987 199.10163 332.5353 199.60675 332.071 200.07105 C 331.60673 200.53536 331.1016 200.94989 330.55564 201.31468 C 330.0097 201.67948 329.43345 201.9875 328.82679 202.23877 C 328.22016 202.49004 327.59486 202.67974 326.95088 202.80783 C 326.30686 202.93593 325.6566 202.99999 325 203 C 324.34339 202.99999 323.69309 202.93593 323.04908 202.80783 C 322.4051 202.67974 321.7798 202.49004 321.17317 202.23877 C 320.56654 201.9875 319.99024 201.67948 319.44429 201.31468 C 318.89836 200.94989 318.39323 200.53536 317.92893 200.07105 C 317.4646 199.60675 317.05006 199.10163 316.68528 198.55567 C 316.32048 198.0097 316.01243 197.43341 315.76118 196.8268 C 315.50993 196.22016 315.32026 195.59485 315.19218 194.95087 C 315.06407 194.30689 315 193.6566 315 193 C 315 192.34339 315.06407 191.69307 315.19218 191.04907 C 315.32026 190.40508 315.50993 189.77976 315.76118 189.17313 C 316.01243 188.56652 316.32048 187.99022 316.68528 187.44428 C 317.05006 186.89833 317.4646 186.3932 317.92893 185.92893 C 318.39323 185.46462 318.89833 185.05008 319.44425 184.68529 C 319.99024 184.3205 320.56654 184.01245 321.17317 183.76119 C 321.7798 183.50992 322.4051 183.32025 323.04908 183.19216 C 323.69309 183.06406 324.34339 183 325 183 C 325.6566 183 326.30686 183.06404 326.95088 183.19214 C 327.59486 183.32024 328.22016 183.50992 328.82679 183.76119 C 329.43345 184.01245 330.0097 184.3205 330.55564 184.68529 C 331.1016 185.05008 331.60673 185.46462 332.071 185.92893 C 332.5353 186.3932 332.94987 186.89833 333.31468 187.44428 C 333.67945 187.99022 333.9875 188.56652 334.23878 189.17313 C 334.49003 189.77976 334.67973 190.40508 334.80784 191.04907 C 334.9359 191.69307 334.99998 192.34339 335 193 Z "/>
<path transform="matrix(.71899089,0,0,.71899089,0,0)" stroke-width="4" stroke-linecap="butt" stroke-miterlimit="10" stroke-linejoin="miter" fill="none" stroke="#000000" d="M 225 193 L 315 193 "/>
<text xml:space="preserve" transform="matrix(.71899089 0 0 .71899089 0 0)" font-size="18" font-family="Helvetica" font-weight="bold"><tspan y="171" x="954.9844 959.9884 970.9864 980.9944 991.9924 996.9964 1003.9984 1014.0064 1020.0004 1030.9984 1038.0004 1048.0084 1053.0125 1064.0105 1069.0145 1085.0165">Inspiratory Limb</tspan></text>
<text xml:space="preserve" transform="matrix(.71899089 0 0 .71899089 0 0)" font-size="18" font-family="Helvetica" font-weight="bold"><tspan y="347" x="956.9844 968.99038 978.99838 989.99636 995.00039 1002.0024 1012.0104 1018.0044 1029.0025 1036.0044 1046.0125 1051.0165 1062.0145 1067.0186 1083.0205">Expiratory Limb</tspan></text>
<path transform="matrix(.71899089,0,0,.71899089,0,0)" d="M 15.5 451.34 L 305.5 451.34 L 305.5 651.33999 L 15.5 651.33999 Z " fill="#ffffff"/>
<path transform="matrix(.71899089,0,0,.71899089,0,0)" stroke-width="2" stroke-linecap="butt" stroke-miterlimit="4" stroke-linejoin="miter" fill="none" stroke="#000000" d="M 15.5 451.34 L 305.5 451.34 L 305.5 651.33999 L 15.5 651.33999 Z "/>
<text fill="#9933ff" xml:space="preserve" transform="matrix(.71899089 0 0 .71899089 0 0)" font-size="24" font-family="Helvetica"><tspan y="480" x="21.953125 37.96113 51.30513 64.64913 76.64913 89.99313 97.98513 109.98513 116.657138 123.32913 136.67313 150.01712 163.36112">Sensors/Input</tspan></text>
<text fill="#cc0000" xml:space="preserve" transform="matrix(.71899089 0 0 .71899089 0 0)" font-size="24" font-family="Helvetica"><tspan y="520" x="21.953125 37.96113 49.96113 56.63313 69.97713 83.32113 89.99313 103.337139 111.32913 123.32913 130.00113 148.67313 162.01712 168.68912 182.03311 195.3771">Actuators/Output</tspan></text>
<text fill="#0000cc" xml:space="preserve" transform="matrix(.71899089 0 0 .71899089 0 0)" font-size="24" font-family="Helvetica"><tspan y="560" x="20.25 40.242 53.586004 66.93001 80.27401 93.61801 98.946018 104.27402 116.27402 122.946018 138.95401 152.298 158.97 165.642 182.97 196.314 216.306 229.65 242.99399 256.33799 269.68199 283.02598 289.69798">Manually Set Components</tspan></text>
<text fill="#006600" xml:space="preserve" transform="matrix(.71899089 0 0 .71899089 0 0)" font-size="24" font-family="Helvetica"><tspan y="599" x="19.953125 37.281129 49.281129 62.62513 70.61713 78.60912 95.937129 109.28113 122.62513 127.95313 141.29714 153.29714 166.64115 179.98514 193.32913 198.65714 212.00113 218.67313 233.33713 238.66513 243.99314 250.66513 264.00914 272.00114">User-Replaceable Filters</tspan></text>
<text xml:space="preserve" transform="matrix(.71899089 0 0 .71899089 0 0)" font-size="30" font-family="Helvetica" font-weight="bold"><tspan y="442" x="13.671875 32.001878 48.681879 67.01188 83.69188 102.02188">Legend</tspan></text>
<text fill="#4d4d4d" xml:space="preserve" transform="matrix(.71899089 0 0 .71899089 0 0)" font-size="24" font-family="Helvetica"><tspan y="640" x="18.28125 34.289255 47.633256 59.633256 71.633258 76.96126 88.96126 102.30526 108.977268 123.641269 128.96927 142.31327 159.64127 166.31327 183.64127 196.98526 210.32926 217.00125 224.99326 238.33725">Passive Flow Control</tspan></text>
<text xml:space="preserve" transform="matrix(.71899089 0 0 .71899089 0 0)" font-size="48" font-family="Helvetica" font-weight="bold"><tspan y="46" x="321.625 353.641 385.65699 417.67298">PVP1</tspan></text>
<text xml:space="preserve" transform="matrix(.71899089 0 0 .71899089 0 0)" font-size="26" font-family="Helvetica" font-weight="bold"><tspan y="259" x="1302.1563 1319.4983 1333.9544 1342.6123 1349.8403 1364.2964 1380.1824">Patient</tspan></text>
<path transform="matrix(.71899089,0,0,.71899089,.35949544,.35949544)" d="M 1116.5 103 L 1116.5 106 L 1113.5 106 L 1113.5 103 M 1116.5 112 L 1116.5 115 L 1113.5 115 L 1113.5 112 M 1116.5 121 L 1116.5 124 L 1113.5 124 L 1113.5 121 M 1116.5 130 L 1116.5 133 L 1113.5 133 L 1113.5 130 M 1116.5 139 L 1116.5 142 L 1113.5 142 L 1113.5 139 M 1116.5 148 L 1116.5 151 L 1113.5 151 L 1113.5 148 M 1116.5 157 L 1116.5 160 L 1113.5 160 L 1113.5 157 M 1116.5 166 L 1116.5 169 L 1113.5 169 L 1113.5 166 M 1116.5 175 L 1116.5 178 L 1113.5 178 L 1113.5 175 M 1116.5 184 L 1116.5 187 L 1113.5 187 L 1113.5 184 M 1116.5 193 L 1116.5 196 L 1113.5 196 L 1113.5 193 M 1116.5 202 L 1116.5 205 L 1113.5 205 L 1113.5 202 M 1116.5 211 L 1116.5 214 L 1113.5 214 L 1113.5 211 M 1116.5 220 L 1116.5 223 L 1113.5 223 L 1113.5 220 M 1116.5 229 L 1116.5 229.65 L 1113.5 229.65 L 1113.5 229 "/>
<path transform="matrix(.71899089,0,0,.71899089,.35949544,.35949544)" d="M 1115 236.65 L 1111.5 229.65 L 1118.5 229.65 L 1115 236.65 Z "/>
<path transform="matrix(.71899089,0,0,.71899089,.35949544,.35949544)" stroke-width="3" stroke-linecap="butt" stroke-miterlimit="10" stroke-linejoin="miter" fill="none" stroke="#000000" d="M 1115 236.65 L 1111.5 229.65 L 1118.5 229.65 L 1115 236.65 Z "/>
<text xml:space="preserve" transform="matrix(.71899089 0 0 .71899089 0 0)" font-size="22" font-family="Helvetica" font-weight="bold"><tspan y="101" x="965.75 980.424 987.75 999.982 1013.424 1026.866 1039.098 1047.656 1061.098 1067.214 1083.098 1095.3301 1107.5621 1121.0042 1127.1201 1135.6781 1147.9102 1155.2362 1168.6782 1177.2362 1189.4683 1195.5842 1211.4683 1217.5842 1226.1422 1238.3743 1251.8163 1257.9323">Standard Respiratory Circuit</tspan></text>
<text xml:space="preserve" transform="matrix(.71899089 0 0 .71899089 0 0)" font-size="18" font-family="Helvetica" font-weight="bold"><tspan y="302" x="1229 1234.994 1239.998 1250.9961 1256.9901 1266.9982 1277.9962 1284.9982 1295.0062 1301.0003 1311.0083 1322.0064 1327.0104 1332.0144 1343.0125 1353.0205 1360.0225 1366.0165 1371.0205 1382.0186 1392.0266">(Integrated luer-lock</tspan></text>
<text xml:space="preserve" transform="matrix(.71899089 0 0 .71899089 0 0)" font-size="18" font-family="Helvetica" font-weight="bold"><tspan y="323" x="1212.4844 1223.4824 1230.4844 1240.4924 1250.5005 1260.5086 1271.5066 1278.5086 1288.5166 1293.5206 1303.5287 1313.5368 1329.5387 1340.5368 1345.5408 1350.5448 1361.5429 1372.5409 1377.5449 1388.543 1399.541 1406.543 1412.537">pressure sampling port)</tspan></text>
<path transform="matrix(.71899089,0,0,.71899089,0,0)" d="M 715.5 574.36 C 715.5 575.01657 715.436 575.6669 715.30789 576.31088 C 715.17977 576.95486 714.99 577.58016 714.7387 578.18679 C 714.4874 578.7934 714.1794 579.3696 713.81466 579.9156 C 713.4498 580.46157 713.03536 580.9667 712.57107 581.431 C 712.10678 581.8953 711.60159 582.3098 711.0556 582.6746 C 710.50967 583.03939 709.9334 583.3474 709.3268 583.5987 C 708.72018 583.85 708.09487 584.03976 707.4508 584.16787 C 706.8068 584.29598 706.15658 584.36 705.5 584.36 C 704.8434 584.36 704.19308 584.2959 703.5491 584.1678 C 702.9051 584.0397 702.2797 583.85 701.6731 583.5987 C 701.06649 583.3474 700.4902 583.03939 699.9443 582.6746 C 699.3983 582.3098 698.8932 581.8953 698.4289 581.431 C 697.9646 580.9667 697.55 580.46157 697.1852 579.9156 C 696.8204 579.3696 696.5124 578.7934 696.2611 578.18679 C 696.0098 577.58016 695.8202 576.95486 695.6921 576.31088 C 695.56399 575.6669 695.49996 575.01657 695.5 574.36 C 695.49996 573.70339 695.56399 573.05307 695.6921 572.40908 C 695.8202 571.7651 696.0098 571.1397 696.2611 570.5331 C 696.5124 569.92648 696.82046 569.35018 697.18527 568.80429 C 697.55007 568.2583 697.9646 567.7532 698.4289 567.2889 C 698.8932 566.8245 699.39828 566.41 699.9442 566.04519 C 700.4902 565.68038 701.06649 565.3724 701.6731 565.12118 C 702.2797 564.86996 702.905 564.68026 703.549 564.5521 C 704.19308 564.424 704.8434 564.36 705.5 564.36 C 706.15658 564.36 706.80679 564.424 707.45077 564.5521 C 708.09487 564.68026 708.72018 564.86996 709.3268 565.12118 C 709.9334 565.3724 710.5097 565.68038 711.05569 566.04519 C 711.6016 566.41 712.10678 566.8245 712.57107 567.2889 C 713.03536 567.7532 713.4498 568.25827 713.81466 568.8042 C 714.1794 569.35018 714.4874 569.92648 714.7387 570.5331 C 714.99 571.1397 715.1797 571.7651 715.3078 572.40908 C 715.4359 573.05307 715.5 573.70339 715.5 574.36 Z " fill="#cccccc"/>
<path transform="matrix(.71899089,0,0,.71899089,0,0)" stroke-width="2" stroke-linecap="butt" stroke-miterlimit="4" stroke-linejoin="miter" fill="none" stroke="#000000" d="M 715.5 574.36 C 715.5 575.01657 715.436 575.6669 715.30789 576.31088 C 715.17977 576.95486 714.99 577.58016 714.7387 578.18679 C 714.4874 578.7934 714.1794 579.3696 713.81466 579.9156 C 713.4498 580.46157 713.03536 580.9667 712.57107 581.431 C 712.10678 581.8953 711.60159 582.3098 711.0556 582.6746 C 710.50967 583.03939 709.9334 583.3474 709.3268 583.5987 C 708.72018 583.85 708.09487 584.03976 707.4508 584.16787 C 706.8068 584.29598 706.15658 584.36 705.5 584.36 C 704.8434 584.36 704.19308 584.2959 703.5491 584.1678 C 702.9051 584.0397 702.2797 583.85 701.6731 583.5987 C 701.06649 583.3474 700.4902 583.03939 699.9443 582.6746 C 699.3983 582.3098 698.8932 581.8953 698.4289 581.431 C 697.9646 580.9667 697.55 580.46157 697.1852 579.9156 C 696.8204 579.3696 696.5124 578.7934 696.2611 578.18679 C 696.0098 577.58016 695.8202 576.95486 695.6921 576.31088 C 695.56399 575.6669 695.49996 575.01657 695.5 574.36 C 695.49996 573.70339 695.56399 573.05307 695.6921 572.40908 C 695.8202 571.7651 696.0098 571.1397 696.2611 570.5331 C 696.5124 569.92648 696.82046 569.35018 697.18527 568.80429 C 697.55007 568.2583 697.9646 567.7532 698.4289 567.2889 C 698.8932 566.8245 699.39828 566.41 699.9442 566.04519 C 700.4902 565.68038 701.06649 565.3724 701.6731 565.12118 C 702.2797 564.86996 702.905 564.68026 703.549 564.5521 C 704.19308 564.424 704.8434 564.36 705.5 564.36 C 706.15658 564.36 706.80679 564.424 707.45077 564.5521 C 708.09487 564.68026 708.72018 564.86996 709.3268 565.12118 C 709.9334 565.3724 710.5097 565.68038 711.05569 566.04519 C 711.6016 566.41 712.10678 566.8245 712.57107 567.2889 C 713.03536 567.7532 713.4498 568.25827 713.81466 568.8042 C 714.1794 569.35018 714.4874 569.92648 714.7387 570.5331 C 714.99 571.1397 715.1797 571.7651 715.3078 572.40908 C 715.4359 573.05307 715.5 573.70339 715.5 574.36 Z "/>
<path transform="matrix(.71899089,0,0,.71899089,0,0)" stroke-width="4" stroke-linecap="butt" stroke-miterlimit="10" stroke-linejoin="miter" fill="none" stroke="#000000" d="M 705.5 548.76 L 705.5 564.36 "/>
<text fill="#0000cc" xml:space="preserve" transform="matrix(.71899089 0 0 .71899089 0 0)" font-size="18" font-family="Helvetica" font-weight="bold"><tspan y="487" x="760 774.994 785.002 796 806.998 817.006">Manual</tspan></text>
<text fill="#0000cc" xml:space="preserve" transform="matrix(.71899089 0 0 .71899089 0 0)" font-size="18" font-family="Helvetica" font-weight="bold"><tspan y="508" x="741.4531 753.4591 765.4651 777.47109 789.47708 794.4811 805.499 815.507 820.51107 830.51907">PEEP Valve</tspan></text>
<path transform="matrix(.71899089,0,0,.71899089,.35949544,.35949544)" stroke-width="3" stroke-linecap="butt" stroke-miterlimit="10" stroke-linejoin="miter" fill="none" stroke="#000000" d="M 735.01 310 L 705 310 L 705.01 410 "/>
<text fill="#330066" xml:space="preserve" transform="matrix(.71899089 0 0 .71899089 0 0)" font-size="18" font-family="Helvetica" font-weight="bold"><tspan y="220" x="732.4844 744.49038 755.48837 760.4924 767.4944 778.4924 794.4944 804.5024 810.4964 820.5044">Spirometer</tspan></text>
<path transform="matrix(.000000000000000044025495,.71899089,-.71899089,.000000000000000044025495,886.9615,-126.815608)" d="M 690 508.48 L 720 528.62 L 690 548.76 L 690 508.48 Z " fill="#dae8fc"/>
<path transform="matrix(.000000000000000044025495,.71899089,-.71899089,.000000000000000044025495,886.9615,-126.815608)" stroke-width="2" stroke-linecap="butt" stroke-miterlimit="10" stroke-linejoin="miter" fill="none" stroke="#0000cc" d="M 690 508.48 L 720 528.62 L 690 548.76 L 690 508.48 Z "/>
<path transform="matrix(.71899089,0,0,.71899089,0,0)" d="M 685.5 538.69 L 725.5 538.69 L 725.5 548.76 L 685.5 548.76 Z " fill="#dae8fc"/>
<path transform="matrix(.71899089,0,0,.71899089,0,0)" stroke-width="2" stroke-linecap="butt" stroke-miterlimit="4" stroke-linejoin="miter" fill="none" stroke="#0000cc" d="M 685.5 538.69 L 725.5 538.69 L 725.5 548.76 L 685.5 548.76 Z "/>
<path transform="matrix(.71899089,0,0,.71899089,.35949544,.35949544)" d="M 695.5 100.7 L 736 100.7 L 736 135.94 L 695.5 135.94 Z " fill="#ffffff"/>
<path transform="matrix(.000000000000000044025495,.71899089,-.71899089,.000000000000000044025495,597.7043,-431.17164)" d="M 700.5 95.67 L 730.5 115.81 L 700.5 135.94 L 700.5 95.67 Z " fill="#d1d1d1"/>
<path transform="matrix(.000000000000000044025495,.71899089,-.71899089,.000000000000000044025495,597.7043,-431.17164)" stroke-width="2" stroke-linecap="butt" stroke-miterlimit="10" stroke-linejoin="miter" fill="none" stroke="#000000" d="M 700.5 95.67 L 730.5 115.81 L 700.5 135.94 L 700.5 95.67 Z "/>
<path transform="matrix(.71899089,0,0,.71899089,0,0)" d="M 696 125.88 L 736 125.88 L 736 135.95 L 696 135.95 Z " fill="#d1d1d1"/>
<path transform="matrix(.71899089,0,0,.71899089,0,0)" stroke-width="2" stroke-linecap="butt" stroke-miterlimit="4" stroke-linejoin="miter" fill="none" stroke="#000000" d="M 696 125.88 L 736 125.88 L 736 135.95 L 696 135.95 Z "/>
<path transform="matrix(.71899089,0,0,.71899089,.35949544,.35949544)" stroke-width="3" stroke-linecap="butt" stroke-miterlimit="10" stroke-linejoin="miter" fill="none" stroke="#0000cc" d="M 735.01 528.52 L 715.1 528.5 L 715.07 528.62 "/>
<path transform="matrix(.71899089,0,0,.71899089,0,0)" d="M 735.01 513.52 C 747.3433 513.52 753.51 518.52 753.51 528.52 C 753.51 538.52 747.3433 543.52 735.01 543.52 L 735.01 513.52 Z " fill="#dae8fc"/>
<path transform="matrix(.71899089,0,0,.71899089,0,0)" stroke-width="2" stroke-linecap="butt" stroke-miterlimit="10" stroke-linejoin="miter" fill="none" stroke="#0000cc" d="M 735.01 513.52 C 747.3433 513.52 753.51 518.52 753.51 528.52 C 753.51 538.52 747.3433 543.52 735.01 543.52 L 735.01 513.52 Z "/>
<path transform="matrix(.000000000000000044025495,.71899089,-.71899089,.000000000000000044025495,812.46688,-201.32463)" d="M 690.01 405 L 720.01 425 L 690.01 445 L 690.01 405 Z " fill="#f8cecc"/>
<path transform="matrix(.000000000000000044025495,.71899089,-.71899089,.000000000000000044025495,812.46688,-201.32463)" stroke-width="2" stroke-linecap="butt" stroke-miterlimit="10" stroke-linejoin="miter" fill="none" stroke="#b85450" d="M 690.01 405 L 720.01 425 L 690.01 445 L 690.01 405 Z "/>
<path transform="matrix(.000000000000000044025495,-.71899089,.71899089,.000000000000000044025495,179.75492,834.0366)" d="M 690.01 435 L 720.01 455 L 690.01 475 L 690.01 435 Z " fill="#f8cecc"/>
<path transform="matrix(.000000000000000044025495,-.71899089,.71899089,.000000000000000044025495,179.75492,834.0366)" stroke-width="2" stroke-linecap="butt" stroke-miterlimit="10" stroke-linejoin="miter" fill="none" stroke="#b85450" d="M 690.01 435 L 720.01 455 L 690.01 475 L 690.01 435 Z "/>
<path transform="matrix(.71899089,0,0,.71899089,.35949544,.35949544)" stroke-width="3" stroke-linecap="butt" stroke-miterlimit="10" stroke-linejoin="miter" fill="none" stroke="#000000" d="M 705.01 470 L 705 513.62 "/>
<path transform="matrix(.71899089,0,0,.71899089,0,0)" d="M 705.01 442 L 701.01 442 L 701.01 438 L 705.01 438 L 705.01 442 Z M 697.01 442 L 693.01 442 L 693.01 438 L 697.01 438 L 697.01 442 Z M 689.01 442 L 685.01 442 L 685.01 438 L 689.01 438 L 689.01 442 Z M 681.01 442 L 677.01 442 L 677.01 438 L 681.01 438 L 681.01 442 Z M 673.01 442 L 669.01 442 L 669.01 438 L 673.01 438 L 673.01 442 Z M 668.91848 441.86988 L 668.91989 442.00996 L 664.9201 442.05006 L 664.9187 441.90998 L 668.91848 441.86988 Z " fill="#ff0000"/>
<path transform="matrix(.71899089,0,0,.71899089,0,0)" d="M 639.92007 423.3384 L 637 423.22157 L 637 418.30079 L 641 418.30079 L 641 421.3 L 639 421.3 L 639.07998 419.30158 L 640.07998 419.34159 L 639.92007 423.3384 Z M 637 414.30079 L 637 410.30079 L 641 410.30079 L 641 414.30079 L 637 414.30079 Z M 637 406.30079 L 637 402.30079 L 641 402.30079 L 641 406.30079 L 637 406.30079 Z M 637 398.30079 L 637 394.30079 L 641 394.30079 L 641 398.30079 L 637 398.30079 Z M 637 390.30079 L 637 386.30079 L 641 386.30079 L 641 390.30079 L 637 390.30079 Z M 637 382.30079 L 637 378.30079 L 641 378.30079 L 641 382.30079 L 637 382.30079 Z M 637 374.30079 L 637 370.30079 L 641 370.30079 L 641 374.30079 L 637 374.30079 Z M 637 366.30079 L 637 362.30079 L 641 362.30079 L 641 366.30079 L 637 366.30079 Z M 637 358.30079 L 637 354.30079 L 641 354.30079 L 641 358.30079 L 637 358.30079 Z M 637 350.30079 L 637 346.30079 L 641 346.30079 L 641 350.30079 L 637 350.30079 Z M 637 342.30079 L 637 338.30079 L 641 338.30079 L 641 342.30079 L 637 342.30079 Z M 637 334.30079 L 637 330.30079 L 641 330.30079 L 641 334.30079 L 637 334.30079 Z M 637 326.30079 L 637 322.30079 L 641 322.30079 L 641 326.30079 L 637 326.30079 Z M 637 318.30079 L 637 314.30079 L 641 314.30079 L 641 318.30079 L 637 318.30079 Z M 637 310.30079 L 637 306.30079 L 641 306.30079 L 641 310.30079 L 637 310.30079 Z M 637 302.30079 L 637 298.30079 L 641 298.30079 L 641 302.30079 L 637 302.30079 Z M 637 294.30079 L 637 290.30079 L 641 290.30079 L 641 294.30079 L 637 294.30079 Z M 637 286.30079 L 637 282.30079 L 641 282.30079 L 641 286.30079 L 637 286.30079 Z M 637 278.30079 L 637 274.30079 L 641 274.30079 L 641 278.30079 L 637 278.30079 Z M 637 270.30079 L 637 266.30079 L 641 266.30079 L 641 270.30079 L 637 270.30079 Z M 637 262.30079 L 637 258.30079 L 641 258.30079 L 641 262.30079 L 637 262.30079 Z M 637 254.30078 L 637 250.30078 L 641 250.30078 L 641 254.30078 L 637 254.30078 Z M 642.6992 248 L 646.6992 248 L 646.6992 252 L 642.6992 252 L 642.6992 248 Z M 650.6992 248 L 654.6992 248 L 654.6992 252 L 650.6992 252 L 650.6992 248 Z M 658.6992 248 L 662.6992 248 L 662.6992 252 L 658.6992 252 L 658.6992 248 Z M 666.6992 248 L 670.6992 248 L 670.6992 252 L 666.6992 252 L 666.6992 248 Z M 674.6992 248 L 678.6992 248 L 678.6992 252 L 674.6992 252 L 674.6992 248 Z M 682.6992 248 L 686.6992 248 L 686.6992 252 L 682.6992 252 L 682.6992 248 Z M 690.6992 248 L 694.6992 248 L 694.6992 252 L 690.6992 252 L 690.6992 248 Z M 698.6992 248 L 702.6992 248 L 702.6992 252 L 698.6992 252 L 698.6992 248 Z M 706.6992 248 L 710.6992 248 L 710.6992 252 L 706.6992 252 L 706.6992 248 Z M 714.6992 248 L 718.6992 248 L 718.6992 252 L 714.6992 252 L 714.6992 248 Z M 722.6992 248 L 726.6992 248 L 726.6992 252 L 722.6992 252 L 722.6992 248 Z M 730.6992 248 L 734.6992 248 L 734.6992 252 L 730.6992 252 L 730.6992 248 Z M 738.6992 248 L 742.6992 248 L 742.6992 252 L 738.6992 252 L 738.6992 248 Z M 746.6992 248 L 750.6992 248 L 750.6992 252 L 746.6992 252 L 746.6992 248 Z M 754.6992 248 L 758.6992 248 L 758.6992 252 L 754.6992 252 L 754.6992 248 Z M 762.6992 248 L 767 248 L 767 251.69922 L 763 251.69922 L 763 250 L 765 250 L 765 252 L 762.6992 252 L 762.6992 248 Z M 767 255.69922 L 767 259.69923 L 763 259.69923 L 763 255.69922 L 767 255.69922 Z M 767 263.69923 L 767 267.69923 L 763 267.69923 L 763 263.69923 L 767 263.69923 Z M 767 271.69923 L 767 275.69923 L 763 275.69923 L 763 271.69923 L 767 271.69923 Z M 767 279.69923 L 767 283.69923 L 763 283.69923 L 763 279.69923 L 767 279.69923 Z M 766.2032 284.5024 L 770.014 284.51 L 770.00607 288.51 L 766.19528 288.5024 L 766.2032 284.5024 Z " fill="#9933ff"/>
<path transform="matrix(.71899089,0,0,.71899089,0,0)" d="M 655 436.34 C 654.99996 437.3249 654.9039 438.30036 654.71176 439.26634 C 654.5196 440.2323 654.23507 441.17027 653.8581 442.0802 C 653.4812 442.9901 653.0191 443.85456 652.47189 444.6735 C 651.9247 445.49244 651.3029 446.25013 650.60659 446.94657 C 649.9101 447.643 649.15237 448.2648 648.33346 448.81199 C 647.5145 449.35917 646.6501 449.82124 645.7402 450.19816 C 644.83029 450.57505 643.89236 450.85957 642.92636 451.05174 C 641.9603 451.2439 640.9849 451.33998 640 451.34 C 639.0151 451.33998 638.0397 451.2439 637.07369 451.05174 C 636.10769 450.85957 635.1697 450.57505 634.2597 450.19816 C 633.34976 449.82124 632.4853 449.35917 631.6663 448.81199 C 630.8474 448.2648 630.0898 447.643 629.3934 446.94657 C 628.6969 446.25013 628.07516 445.49244 627.52798 444.6735 C 626.9808 443.85456 626.5187 442.9901 626.1418 442.0802 C 625.7649 441.17027 625.48037 440.2323 625.28829 439.2663 C 625.09609 438.30033 625 437.3249 625 436.34 C 625 435.35508 625.09609 434.3796 625.28829 433.4136 C 625.48037 432.4476 625.7649 431.50965 626.1418 430.5997 C 626.5187 429.68977 626.9807 428.82533 627.5279 428.00639 C 628.0751 427.18745 628.6969 426.42979 629.3934 425.73338 C 630.0898 425.03694 630.8475 424.4151 631.66647 423.8679 C 632.48538 423.3207 633.34976 422.85868 634.2597 422.48176 C 635.1697 422.10487 636.10769 421.82035 637.07369 421.6282 C 638.0397 421.43608 639.0151 421.34 640 421.34 C 640.9849 421.34 641.9603 421.43608 642.92636 421.6282 C 643.89236 421.82035 644.83029 422.10487 645.7402 422.48179 C 646.6501 422.8587 647.5145 423.32075 648.3335 423.86793 C 649.1524 424.41514 649.9101 425.03694 650.60659 425.73338 C 651.3029 426.42979 651.92477 427.18745 652.4719 428.00639 C 653.0191 428.82533 653.4812 429.68977 653.8581 430.5997 C 654.23507 431.50965 654.5196 432.4476 654.71176 433.41358 C 654.9039 434.3796 654.99996 435.35508 655 436.34 Z " fill="#e1d5e7"/>
<path transform="matrix(.71899089,0,0,.71899089,0,0)" stroke-width="2" stroke-linecap="butt" stroke-miterlimit="4" stroke-linejoin="miter" fill="none" stroke="#9673a6" d="M 655 436.34 C 654.99996 437.3249 654.9039 438.30036 654.71176 439.26634 C 654.5196 440.2323 654.23507 441.17027 653.8581 442.0802 C 653.4812 442.9901 653.0191 443.85456 652.47189 444.6735 C 651.9247 445.49244 651.3029 446.25013 650.60659 446.94657 C 649.9101 447.643 649.15237 448.2648 648.33346 448.81199 C 647.5145 449.35917 646.6501 449.82124 645.7402 450.19816 C 644.83029 450.57505 643.89236 450.85957 642.92636 451.05174 C 641.9603 451.2439 640.9849 451.33998 640 451.34 C 639.0151 451.33998 638.0397 451.2439 637.07369 451.05174 C 636.10769 450.85957 635.1697 450.57505 634.2597 450.19816 C 633.34976 449.82124 632.4853 449.35917 631.6663 448.81199 C 630.8474 448.2648 630.0898 447.643 629.3934 446.94657 C 628.6969 446.25013 628.07516 445.49244 627.52798 444.6735 C 626.9808 443.85456 626.5187 442.9901 626.1418 442.0802 C 625.7649 441.17027 625.48037 440.2323 625.28829 439.2663 C 625.09609 438.30033 625 437.3249 625 436.34 C 625 435.35508 625.09609 434.3796 625.28829 433.4136 C 625.48037 432.4476 625.7649 431.50965 626.1418 430.5997 C 626.5187 429.68977 626.9807 428.82533 627.5279 428.00639 C 628.0751 427.18745 628.6969 426.42979 629.3934 425.73338 C 630.0898 425.03694 630.8475 424.4151 631.66647 423.8679 C 632.48538 423.3207 633.34976 422.85868 634.2597 422.48176 C 635.1697 422.10487 636.10769 421.82035 637.07369 421.6282 C 638.0397 421.43608 639.0151 421.34 640 421.34 C 640.9849 421.34 641.9603 421.43608 642.92636 421.6282 C 643.89236 421.82035 644.83029 422.10487 645.7402 422.48179 C 646.6501 422.8587 647.5145 423.32075 648.3335 423.86793 C 649.1524 424.41514 649.9101 425.03694 650.60659 425.73338 C 651.3029 426.42979 651.92477 427.18745 652.4719 428.00639 C 653.0191 428.82533 653.4812 429.68977 653.8581 430.5997 C 654.23507 431.50965 654.5196 432.4476 654.71176 433.41358 C 654.9039 434.3796 654.99996 435.35508 655 436.34 Z "/>
<text fill="#330066" xml:space="preserve" transform="matrix(.71899089 0 0 .71899089 0 0)" font-size="16" font-family="Helvetica" font-weight="bold"><tspan y="432" x="485.90626 496.57826 502.80226 511.69825 520.59426 529.49026 539.26626 545.49026 554.3862 558.8342 569.5062 578.4022 588.1782 597.0742 606.8502">Pressure Sensor</tspan></text>
<text fill="#330066" xml:space="preserve" transform="matrix(.71899089 0 0 .71899089 0 0)" font-size="16" font-family="Helvetica" font-weight="bold"><tspan y="451" x="504.59376 509.92176 520.59378 529.48977 539.26577 543.71377 549.93777 558.83377 564.16177 573.93777 580.16177 589.05776">(Expiratory)</tspan></text>
<path transform="matrix(.71899089,0,0,.71899089,.35949544,.35949544)" d="M 540.4 364 L 619.6 364 C 620.31607 364 621.0049 364.13703 621.66647 364.41105 C 622.328 364.68507 622.912 365.07527 623.41836 365.5816 C 623.9246 366.08793 624.3148 366.67189 624.5889 367.33348 C 624.863 367.99507 625 368.6839 625 369.4 L 625 394.6 C 625 395.31608 624.863 396.00489 624.5889 396.66648 C 624.3148 397.32804 623.9246 397.912 623.41836 398.41835 C 622.912 398.92466 622.328 399.31486 621.66647 399.5889 C 621.0049 399.8629 620.31607 399.99998 619.6 400 L 540.4 400 C 539.6839 399.99998 538.99508 399.8629 538.3335 399.58888 C 537.6719 399.31486 537.0879 398.92466 536.5816 398.41835 C 536.07528 397.912 535.68508 397.32804 535.41098 396.66645 C 535.13699 396.00489 534.99996 395.31608 535 394.6 L 535 369.4 C 534.99996 368.6839 535.13699 367.99507 535.41098 367.3335 C 535.68508 366.6719 536.07528 366.08793 536.5816 365.5816 C 537.0879 365.07527 537.6719 364.68507 538.33346 364.41105 C 538.995 364.13703 539.6839 364 540.4 364 Z " fill="#bbb0bf"/>
<path transform="matrix(.71899089,0,0,.71899089,.35949544,.35949544)" stroke-width="1" stroke-linecap="butt" stroke-miterlimit="4" stroke-linejoin="miter" fill="none" stroke="#9673a6" d="M 540.4 364 L 619.6 364 C 620.31607 364 621.0049 364.13703 621.66647 364.41105 C 622.328 364.68507 622.912 365.07527 623.41836 365.5816 C 623.9246 366.08793 624.3148 366.67189 624.5889 367.33348 C 624.863 367.99507 625 368.6839 625 369.4 L 625 394.6 C 625 395.31608 624.863 396.00489 624.5889 396.66648 C 624.3148 397.32804 623.9246 397.912 623.41836 398.41835 C 622.912 398.92466 622.328 399.31486 621.66647 399.5889 C 621.0049 399.8629 620.31607 399.99998 619.6 400 L 540.4 400 C 539.6839 399.99998 538.99508 399.8629 538.3335 399.58888 C 537.6719 399.31486 537.0879 398.92466 536.5816 398.41835 C 536.07528 397.912 535.68508 397.32804 535.41098 396.66645 C 535.13699 396.00489 534.99996 395.31608 535 394.6 L 535 369.4 C 534.99996 368.6839 535.13699 367.99507 535.41098 367.3335 C 535.68508 366.6719 536.07528 366.08793 536.5816 365.5816 C 537.0879 365.07527 537.6719 364.68507 538.33346 364.41105 C 538.995 364.13703 539.6839 364 540.4 364 Z "/>
<path transform="matrix(.71899089,0,0,.71899089,0,0)" d="M 574.5 382.25 C 574.5 383.2349 574.40396 384.21037 574.21176 385.17637 C 574.01956 386.14234 573.735 387.08027 573.3581 387.9902 C 572.98117 388.90016 572.5191 389.7646 571.9719 390.58354 C 571.42477 391.40248 570.803 392.16017 570.10659 392.8566 C 569.4101 393.55305 568.6524 394.17485 567.8335 394.72206 C 567.0145 395.2692 566.1501 395.73124 565.2402 396.10816 C 564.33029 396.48509 563.39236 396.7696 562.42636 396.96177 C 561.4604 397.15394 560.4849 397.25 559.5 397.25 C 558.5151 397.25 557.53958 397.15394 556.57357 396.96177 C 555.60757 396.7696 554.66958 396.48509 553.75967 396.10816 C 552.84976 395.73124 551.9853 395.2692 551.1664 394.72203 C 550.3475 394.17485 549.5898 393.55305 548.8934 392.8566 C 548.1969 392.16017 547.57516 391.40248 547.02798 390.58354 C 546.4808 389.7646 546.0187 388.90019 545.6418 387.99024 C 545.2649 387.0803 544.9804 386.14234 544.7882 385.17637 C 544.59609 384.21037 544.5 383.2349 544.5 382.25 C 544.5 381.26506 544.59609 380.28959 544.7882 379.3236 C 544.9804 378.35765 545.2649 377.41966 545.6418 376.5097 C 546.0187 375.59977 546.4807 374.73533 547.0279 373.91639 C 547.5751 373.09748 548.1969 372.3398 548.8934 371.64338 C 549.5898 370.94694 550.3474 370.3251 551.1663 369.77793 C 551.9853 369.23075 552.84976 368.7687 553.75967 368.39179 C 554.66958 368.0149 555.60757 367.73039 556.57357 367.5382 C 557.53958 367.34608 558.5151 367.25 559.5 367.25 C 560.4849 367.25 561.4604 367.34608 562.42636 367.5382 C 563.39236 367.73039 564.33029 368.0149 565.2402 368.39179 C 566.1501 368.7687 567.0145 369.23075 567.83358 369.77793 C 568.65249 370.3251 569.4101 370.94694 570.10659 371.64338 C 570.803 372.3398 571.42477 373.09748 571.9719 373.91639 C 572.5191 374.73533 572.98117 375.59977 573.3581 376.5097 C 573.735 377.41966 574.01956 378.35765 574.21176 379.3236 C 574.40396 380.28959 574.5 381.26506 574.5 382.25 Z " fill="#e1d5e7"/>
<path transform="matrix(.71899089,0,0,.71899089,0,0)" stroke-width="2" stroke-linecap="butt" stroke-miterlimit="4" stroke-linejoin="miter" fill="none" stroke="#9673a6" d="M 574.5 382.25 C 574.5 383.2349 574.40396 384.21037 574.21176 385.17637 C 574.01956 386.14234 573.735 387.08027 573.3581 387.9902 C 572.98117 388.90016 572.5191 389.7646 571.9719 390.58354 C 571.42477 391.40248 570.803 392.16017 570.10659 392.8566 C 569.4101 393.55305 568.6524 394.17485 567.8335 394.72206 C 567.0145 395.2692 566.1501 395.73124 565.2402 396.10816 C 564.33029 396.48509 563.39236 396.7696 562.42636 396.96177 C 561.4604 397.15394 560.4849 397.25 559.5 397.25 C 558.5151 397.25 557.53958 397.15394 556.57357 396.96177 C 555.60757 396.7696 554.66958 396.48509 553.75967 396.10816 C 552.84976 395.73124 551.9853 395.2692 551.1664 394.72203 C 550.3475 394.17485 549.5898 393.55305 548.8934 392.8566 C 548.1969 392.16017 547.57516 391.40248 547.02798 390.58354 C 546.4808 389.7646 546.0187 388.90019 545.6418 387.99024 C 545.2649 387.0803 544.9804 386.14234 544.7882 385.17637 C 544.59609 384.21037 544.5 383.2349 544.5 382.25 C 544.5 381.26506 544.59609 380.28959 544.7882 379.3236 C 544.9804 378.35765 545.2649 377.41966 545.6418 376.5097 C 546.0187 375.59977 546.4807 374.73533 547.0279 373.91639 C 547.5751 373.09748 548.1969 372.3398 548.8934 371.64338 C 549.5898 370.94694 550.3474 370.3251 551.1663 369.77793 C 551.9853 369.23075 552.84976 368.7687 553.75967 368.39179 C 554.66958 368.0149 555.60757 367.73039 556.57357 367.5382 C 557.53958 367.34608 558.5151 367.25 559.5 367.25 C 560.4849 367.25 561.4604 367.34608 562.42636 367.5382 C 563.39236 367.73039 564.33029 368.0149 565.2402 368.39179 C 566.1501 368.7687 567.0145 369.23075 567.83358 369.77793 C 568.65249 370.3251 569.4101 370.94694 570.10659 371.64338 C 570.803 372.3398 571.42477 373.09748 571.9719 373.91639 C 572.5191 374.73533 572.98117 375.59977 573.3581 376.5097 C 573.735 377.41966 574.01956 378.35765 574.21176 379.3236 C 574.40396 380.28959 574.5 381.26506 574.5 382.25 Z "/>
<path transform="matrix(.71899089,0,0,.71899089,0,0)" d="M 615 382.25 C 614.99996 383.2349 614.9039 384.21037 614.71176 385.17637 C 614.51956 386.14234 614.235 387.08027 613.8581 387.9902 C 613.4812 388.90016 613.0191 389.7646 612.4719 390.58354 C 611.92477 391.40248 611.3029 392.16017 610.6065 392.8566 C 609.91006 393.55305 609.1524 394.17485 608.3335 394.72206 C 607.5145 395.2692 606.6501 395.73124 605.7402 396.10816 C 604.83029 396.48509 603.89236 396.7696 602.92636 396.96177 C 601.9603 397.15394 600.9849 397.25 600 397.25 C 599.015 397.25 598.03958 397.15394 597.07357 396.96177 C 596.10757 396.7696 595.1696 396.48509 594.2597 396.10816 C 593.34976 395.73124 592.4853 395.2692 591.6664 394.72203 C 590.8475 394.17485 590.08987 393.55305 589.3934 392.8566 C 588.6969 392.16017 588.0751 391.40248 587.5279 390.58354 C 586.9807 389.7646 586.5186 388.90019 586.1417 387.99024 C 585.76486 387.0803 585.48037 386.14234 585.28817 385.17637 C 585.096 384.21037 584.99996 383.2349 585 382.25 C 584.99996 381.26506 585.096 380.28959 585.28817 379.3236 C 585.48037 378.35765 585.76486 377.41966 586.1417 376.5097 C 586.5186 375.59977 586.9807 374.73533 587.5279 373.91639 C 588.0751 373.09748 588.6969 372.3398 589.3934 371.64338 C 590.08987 370.94694 590.8475 370.3251 591.6664 369.77793 C 592.4853 369.23075 593.34976 368.7687 594.2597 368.39179 C 595.1696 368.0149 596.10757 367.73039 597.07357 367.5382 C 598.03958 367.34608 599.015 367.25 600 367.25 C 600.9849 367.25 601.9603 367.34608 602.92636 367.5382 C 603.89236 367.73039 604.83029 368.0149 605.7402 368.39179 C 606.6501 368.7687 607.5145 369.23075 608.33346 369.77793 C 609.15237 370.3251 609.91006 370.94694 610.6065 371.64338 C 611.3029 372.3398 611.92477 373.09748 612.4719 373.91639 C 613.0191 374.73533 613.4812 375.59977 613.8581 376.5097 C 614.235 377.41966 614.51956 378.35765 614.71176 379.3236 C 614.9039 380.28959 614.99996 381.26506 615 382.25 Z " fill="#e1d5e7"/>
<path transform="matrix(.71899089,0,0,.71899089,0,0)" stroke-width="2" stroke-linecap="butt" stroke-miterlimit="4" stroke-linejoin="miter" fill="none" stroke="#9673a6" d="M 615 382.25 C 614.99996 383.2349 614.9039 384.21037 614.71176 385.17637 C 614.51956 386.14234 614.235 387.08027 613.8581 387.9902 C 613.4812 388.90016 613.0191 389.7646 612.4719 390.58354 C 611.92477 391.40248 611.3029 392.16017 610.6065 392.8566 C 609.91006 393.55305 609.1524 394.17485 608.3335 394.72206 C 607.5145 395.2692 606.6501 395.73124 605.7402 396.10816 C 604.83029 396.48509 603.89236 396.7696 602.92636 396.96177 C 601.9603 397.15394 600.9849 397.25 600 397.25 C 599.015 397.25 598.03958 397.15394 597.07357 396.96177 C 596.10757 396.7696 595.1696 396.48509 594.2597 396.10816 C 593.34976 395.73124 592.4853 395.2692 591.6664 394.72203 C 590.8475 394.17485 590.08987 393.55305 589.3934 392.8566 C 588.6969 392.16017 588.0751 391.40248 587.5279 390.58354 C 586.9807 389.7646 586.5186 388.90019 586.1417 387.99024 C 585.76486 387.0803 585.48037 386.14234 585.28817 385.17637 C 585.096 384.21037 584.99996 383.2349 585 382.25 C 584.99996 381.26506 585.096 380.28959 585.28817 379.3236 C 585.48037 378.35765 585.76486 377.41966 586.1417 376.5097 C 586.5186 375.59977 586.9807 374.73533 587.5279 373.91639 C 588.0751 373.09748 588.6969 372.3398 589.3934 371.64338 C 590.08987 370.94694 590.8475 370.3251 591.6664 369.77793 C 592.4853 369.23075 593.34976 368.7687 594.2597 368.39179 C 595.1696 368.0149 596.10757 367.73039 597.07357 367.5382 C 598.03958 367.34608 599.015 367.25 600 367.25 C 600.9849 367.25 601.9603 367.34608 602.92636 367.5382 C 603.89236 367.73039 604.83029 368.0149 605.7402 368.39179 C 606.6501 368.7687 607.5145 369.23075 608.33346 369.77793 C 609.15237 370.3251 609.91006 370.94694 610.6065 371.64338 C 611.3029 372.3398 611.92477 373.09748 612.4719 373.91639 C 613.0191 374.73533 613.4812 375.59977 613.8581 376.5097 C 614.235 377.41966 614.51956 378.35765 614.71176 379.3236 C 614.9039 380.28959 614.99996 381.26506 615 382.25 Z "/>
<path transform="matrix(.71899089,0,0,.71899089,0,0)" d="M 557.5 367.25 L 557.5 363.25 L 561.5 363.25 L 561.5 367.25 L 557.5 367.25 Z M 557.5 359.25 L 557.5 355.25 L 561.5 355.25 L 561.5 359.25 L 557.5 359.25 Z M 557.5 351.25 L 557.5 347.25 L 561.5 347.25 L 561.5 351.25 L 557.5 351.25 Z M 557.5 343.25 L 557.5 339.25 L 561.5 339.25 L 561.5 343.25 L 557.5 343.25 Z M 557.5 335.25 L 557.5 331.25 L 561.5 331.25 L 561.5 335.25 L 557.5 335.25 Z M 557.5 327.25 L 557.5 323.25 L 561.5 323.25 L 561.5 327.25 L 557.5 327.25 Z M 557.5 319.25 L 557.5 315.25 L 561.5 315.25 L 561.5 319.25 L 557.5 319.25 Z M 557.5 311.25 L 557.5 307.25 L 561.5 307.25 L 561.5 311.25 L 557.5 311.25 Z M 557.5 303.25 L 557.5 299.25 L 561.5 299.25 L 561.5 303.25 L 557.5 303.25 Z M 557.5 295.25 L 557.5 291.25 L 561.5 291.25 L 561.5 295.25 L 557.5 295.25 Z M 557.5 287.25 L 557.5 283.25 L 561.5 283.25 L 561.5 287.25 L 557.5 287.25 Z M 557.5 279.25 L 557.5 275.25 L 561.5 275.25 L 561.5 279.25 L 557.5 279.25 Z M 557.5 271.25 L 557.5 267.25 L 561.5 267.25 L 561.5 271.25 L 557.5 271.25 Z M 557.5 263.25 L 557.5 259.25 L 561.5 259.25 L 561.5 263.25 L 557.5 263.25 Z M 557.5 255.25 L 557.5 251.25 L 561.5 251.25 L 561.5 255.25 L 557.5 255.25 Z M 557.5 247.25 L 557.5 243.25 L 561.5 243.25 L 561.5 247.25 L 557.5 247.25 Z M 557.5 239.25 L 557.5 235.25 L 561.5 235.25 L 561.5 239.25 L 557.5 239.25 Z M 557.5 231.25 L 557.5 228 L 562.25 228 L 562.25 232 L 559.5 232 L 559.5 230 L 561.5 230 L 561.5 231.25 L 557.5 231.25 Z M 566.25 228 L 570.25 228 L 570.25 232 L 566.25 232 L 566.25 228 Z M 574.25 228 L 578.25 228 L 578.25 232 L 574.25 232 L 574.25 228 Z M 582.25 228 L 586.25 228 L 586.25 232 L 582.25 232 L 582.25 228 Z M 590.25 228 L 594.25 228 L 594.25 232 L 590.25 232 L 590.25 228 Z M 598.25 228 L 602.25 228 L 602.25 232 L 598.25 232 L 598.25 228 Z M 606.25 228 L 610.25 228 L 610.25 232 L 606.25 232 L 606.25 228 Z M 614.25 228 L 618.25 228 L 618.25 232 L 614.25 232 L 614.25 228 Z M 622.25 228 L 626.25 228 L 626.25 232 L 622.25 232 L 622.25 228 Z M 630.25 228 L 634.25 228 L 634.25 232 L 630.25 232 L 630.25 228 Z M 638.25 228 L 642.25 228 L 642.25 232 L 638.25 232 L 638.25 228 Z M 646.25 228 L 650.25 228 L 650.25 232 L 646.25 232 L 646.25 228 Z M 654.25 228 L 658.25 228 L 658.25 232 L 654.25 232 L 654.25 228 Z M 662.25 228 L 666.25 228 L 666.25 232 L 662.25 232 L 662.25 228 Z M 670.25 228 L 674.25 228 L 674.25 232 L 670.25 232 L 670.25 228 Z M 678.25 228 L 682.25 228 L 682.25 232 L 678.25 232 L 678.25 228 Z M 686.25 228 L 690.25 228 L 690.25 232 L 686.25 232 L 686.25 228 Z M 694.25 228 L 698.25 228 L 698.25 232 L 694.25 232 L 694.25 228 Z M 702.25 228 L 706.25 228 L 706.25 232 L 702.25 232 L 702.25 228 Z M 710.25 228 L 714.25 228 L 714.25 232 L 710.25 232 L 710.25 228 Z M 718.25 228 L 722.25 228 L 722.25 232 L 718.25 232 L 718.25 228 Z M 726.25 228 L 730.25 228 L 730.25 232 L 726.25 232 L 726.25 228 Z M 734.25 228 L 738.25 228 L 738.25 232 L 734.25 232 L 734.25 228 Z M 742.25 228 L 746.25 228 L 746.25 232 L 742.25 232 L 742.25 228 Z M 750.25 228 L 754.25 228 L 754.25 232 L 750.25 232 L 750.25 228 Z M 758.25 228 L 762.25 228 L 762.25 232 L 758.25 232 L 758.25 228 Z M 766.25 228 L 770.25 228 L 770.25 232 L 766.25 232 L 766.25 228 Z M 774.25 228 L 778.25 228 L 778.25 232 L 774.25 232 L 774.25 228 Z M 782.25 228 L 787 228 L 787 231.25 L 783 231.25 L 783 230 L 785 230 L 785 232 L 782.25 232 L 782.25 228 Z M 787 235.25 L 787 239.25 L 783 239.25 L 783 235.25 L 787 235.25 Z M 787 243.25 L 787 247.25 L 783 247.25 L 783 243.25 L 787 243.25 Z M 787 251.25 L 787 255.25 L 783 255.25 L 783 251.25 L 787 251.25 Z M 787 259.25 L 787 263.25 L 783 263.25 L 783 259.25 L 787 259.25 Z M 787 267.25 L 787 271.25 L 783 271.25 L 783 267.25 L 787 267.25 Z M 787 275.25 L 787 279.25 L 783 279.25 L 783 275.25 L 787 275.25 Z M 787 283.25 L 787 287.25 L 783 287.25 L 783 283.25 L 787 283.25 Z M 786.25 288 L 790.25 288 L 790.25 292 L 786.25 292 L 786.25 288 Z M 794.25 288 L 795 288 L 795 292 L 794.25 292 L 794.25 288 Z " fill="#9933ff"/>
<path transform="matrix(.71899089,0,0,.71899089,0,0)" d="M 598 367.25 L 598 363.25 L 602 363.25 L 602 367.25 L 598 367.25 Z M 598 359.25 L 598 355.25 L 602 355.25 L 602 359.25 L 598 359.25 Z M 598 351.25 L 598 347.25 L 602 347.25 L 602 351.25 L 598 351.25 Z M 598 343.25 L 598 339.25 L 602 339.25 L 602 343.25 L 598 343.25 Z M 598 335.25 L 598 331.25 L 602 331.25 L 602 335.25 L 598 335.25 Z M 598 327.25 L 598 323.25 L 602 323.25 L 602 327.25 L 598 327.25 Z M 598 319.25 L 598 315.25 L 602 315.25 L 602 319.25 L 598 319.25 Z M 598 311.25 L 598 307.25 L 602 307.25 L 602 311.25 L 598 311.25 Z M 598 303.25 L 598 299.25 L 602 299.25 L 602 303.25 L 598 303.25 Z M 598 295.25 L 598 291.25 L 602 291.25 L 602 295.25 L 598 295.25 Z M 598 287.25 L 598 283.25 L 602 283.25 L 602 287.25 L 598 287.25 Z M 598 279.25 L 598 275.25 L 602 275.25 L 602 279.25 L 598 279.25 Z M 598 271.25 L 598 267.25 L 602 267.25 L 602 271.25 L 598 271.25 Z M 598 263.25 L 598 259.25 L 602 259.25 L 602 263.25 L 598 263.25 Z M 598 255.25 L 598 251.25 L 602 251.25 L 602 255.25 L 598 255.25 Z M 598 247.25 L 598 243.25 L 602 243.25 L 602 247.25 L 598 247.25 Z M 600.75 238 L 604.75 238 L 604.75 242 L 600.75 242 L 600.75 238 Z M 608.75 238 L 612.75 238 L 612.75 242 L 608.75 242 L 608.75 238 Z M 616.75 238 L 620.75 238 L 620.75 242 L 616.75 242 L 616.75 238 Z M 624.75 238 L 628.75 238 L 628.75 242 L 624.75 242 L 624.75 238 Z M 632.75 238 L 636.75 238 L 636.75 242 L 632.75 242 L 632.75 238 Z M 640.75 238 L 644.75 238 L 644.75 242 L 640.75 242 L 640.75 238 Z M 648.75 238 L 652.75 238 L 652.75 242 L 648.75 242 L 648.75 238 Z M 656.75 238 L 660.75 238 L 660.75 242 L 656.75 242 L 656.75 238 Z M 664.75 238 L 668.75 238 L 668.75 242 L 664.75 242 L 664.75 238 Z M 672.75 238 L 676.75 238 L 676.75 242 L 672.75 242 L 672.75 238 Z M 680.75 238 L 684.75 238 L 684.75 242 L 680.75 242 L 680.75 238 Z M 688.75 238 L 692.75 238 L 692.75 242 L 688.75 242 L 688.75 238 Z M 696.75 238 L 700.75 238 L 700.75 242 L 696.75 242 L 696.75 238 Z M 704.75 238 L 708.75 238 L 708.75 242 L 704.75 242 L 704.75 238 Z M 712.75 238 L 716.75 238 L 716.75 242 L 712.75 242 L 712.75 238 Z M 720.75 238 L 724.75 238 L 724.75 242 L 720.75 242 L 720.75 238 Z M 728.75 238 L 732.75 238 L 732.75 242 L 728.75 242 L 728.75 238 Z M 736.75 238 L 740.75 238 L 740.75 242 L 736.75 242 L 736.75 238 Z M 744.75 238 L 748.75 238 L 748.75 242 L 744.75 242 L 744.75 238 Z M 752.75 238 L 756.75 238 L 756.75 242 L 752.75 242 L 752.75 238 Z M 760.75 238 L 764.75 238 L 764.75 242 L 760.75 242 L 760.75 238 Z M 768.75 238 L 772.75 238 L 772.75 242 L 768.75 242 L 768.75 238 Z M 777 241.75 L 777 245.75 L 773 245.75 L 773 241.75 L 777 241.75 Z M 777 249.75 L 777 253.75 L 773 253.75 L 773 249.75 L 777 249.75 Z M 777 257.75 L 777 261.75 L 773 261.75 L 773 257.75 L 777 257.75 Z M 777 265.75 L 777 269.75 L 773 269.75 L 773 265.75 L 777 265.75 Z M 777 273.75 L 777 277.75 L 773 277.75 L 773 273.75 L 777 273.75 Z M 777 281.75 L 777 285.75 L 773 285.75 L 773 281.75 L 777 281.75 Z M 771.754 288.50654 L 770.01406 288.51 L 770.006 284.51 L 771.746 284.50654 L 771.754 288.50654 Z " fill="#9933ff"/>
<path transform="matrix(-.71899089,-.00000000000000008805099,.00000000000000008805099,-.71899089,1107.2603,445.77433)" d="M 735.01 286.51 L 785.01 286.51 L 805.01 310 L 785.01 333.5 L 735.01 333.5 L 755.01 310 L 735.01 286.51 Z " fill="#e1d5e7"/>
<path transform="matrix(-.71899089,-.00000000000000008805099,.00000000000000008805099,-.71899089,1107.2603,445.77433)" stroke-width="2" stroke-linecap="butt" stroke-miterlimit="10" stroke-linejoin="miter" fill="none" stroke="#9673a6" d="M 735.01 286.51 L 785.01 286.51 L 805.01 310 L 785.01 333.5 L 735.01 333.5 L 755.01 310 L 735.01 286.51 Z "/>
<path transform="matrix(.71899089,0,0,.71899089,0,0)" stroke-width="4" stroke-linecap="butt" stroke-miterlimit="10" stroke-linejoin="miter" fill="none" stroke="#000000" d="M 875 193.5 L 855 193.5 L 885 193.5 L 865 193.47 "/>
</g>
</g>
</svg>
