M48
; DRILL file {KiCad (5.1.6)-1} date 08/19/20 12:53:56
; FORMAT={-:-/ absolute / inch / decimal}
; #@! TF.CreationDate,2020-08-19T12:53:56-04:00
; #@! TF.GenerationSoftware,Kicad,Pcbnew,(5.1.6)-1
; #@! TF.FileFunction,Plated,1,2,PTH
FMAT,2
INCH
T1C0.0138
T2C0.0236
T3C0.0300
T4C0.0315
T5C0.0394
T6C0.1000
%
G90
G05
T1
X3.57Y-2.6625
X3.5725Y-2.7725
X3.67Y-2.7725
X4.8225Y-2.7225
X5.1225Y-2.6875
T2
X4.6725Y-3.2975
X4.6725Y-3.3762
X4.6725Y-3.045
X4.6725Y-3.1237
T3
X3.7875Y-2.8975
X3.7875Y-2.9975
X3.7875Y-3.0975
X3.7875Y-3.1975
X3.7875Y-3.2975
X3.7875Y-3.3975
X3.7875Y-3.4975
X3.7875Y-3.5975
X3.7875Y-3.6975
X3.7875Y-3.7975
X3.6625Y-4.16
X3.6625Y-4.26
X3.6625Y-4.36
X3.6625Y-4.46
X4.5825Y-4.16
X4.5825Y-4.26
X4.5825Y-4.36
X4.5825Y-4.46
X3.1975Y-3.365
X3.2975Y-3.365
X3.3975Y-3.365
X3.4975Y-3.365
T4
X4.8125Y-3.9125
X5.2125Y-3.9125
X4.86Y-3.445
X4.86Y-3.545
X4.86Y-3.645
X4.86Y-3.745
X5.16Y-3.445
X5.16Y-3.545
X5.16Y-3.645
X5.16Y-3.745
X4.8725Y-2.8925
X4.8725Y-2.9925
X4.8725Y-3.0925
X4.8725Y-3.1925
X5.1725Y-2.8925
X5.1725Y-2.9925
X5.1725Y-3.0925
X5.1725Y-3.1925
T5
X3.505Y-4.485
X5.545Y-2.8175
X5.545Y-2.9175
X5.545Y-3.0175
X5.545Y-3.1175
X3.18Y-4.1675
X4.5375Y-2.8475
X4.6375Y-2.8475
X3.18Y-3.22
X3.422Y-2.4823
X3.422Y-2.5823
X3.522Y-2.4823
X3.522Y-2.5823
X3.622Y-2.4823
X3.622Y-2.5823
X3.722Y-2.4823
X3.722Y-2.5823
X3.822Y-2.4823
X3.822Y-2.5823
X3.922Y-2.4823
X3.922Y-2.5823
X4.022Y-2.4823
X4.022Y-2.5823
X4.122Y-2.4823
X4.122Y-2.5823
X4.222Y-2.4823
X4.222Y-2.5823
X4.322Y-2.4823
X4.322Y-2.5823
X4.422Y-2.4823
X4.422Y-2.5823
X4.522Y-2.4823
X4.522Y-2.5823
X4.622Y-2.4823
X4.622Y-2.5823
X4.722Y-2.4823
X4.722Y-2.5823
X4.822Y-2.4823
X4.822Y-2.5823
X4.922Y-2.4823
X4.922Y-2.5823
X5.022Y-2.4823
X5.022Y-2.5823
X5.122Y-2.4823
X5.122Y-2.5823
X5.222Y-2.4823
X5.222Y-2.5823
X5.322Y-2.4823
X5.322Y-2.5823
X5.54Y-3.495
X5.54Y-3.595
X5.54Y-3.695
X4.45Y-4.495
T6
X4.2875Y-2.8975
X4.2875Y-3.7975
T0
M30
