G04 #@! TF.GenerationSoftware,KiCad,Pcbnew,(5.1.6)-1*
G04 #@! TF.CreationDate,2020-08-19T13:32:06-04:00*
G04 #@! TF.ProjectId,pressure-rev2,70726573-7375-4726-952d-726576322e6b,rev?*
G04 #@! TF.SameCoordinates,Original*
G04 #@! TF.FileFunction,Copper,L2,Bot*
G04 #@! TF.FilePolarity,Positive*
%FSLAX46Y46*%
G04 Gerber Fmt 4.6, Leading zero omitted, Abs format (unit mm)*
G04 Created by KiCad (PCBNEW (5.1.6)-1) date 2020-08-19 13:32:06*
%MOMM*%
%LPD*%
G01*
G04 APERTURE LIST*
G04 #@! TA.AperFunction,ComponentPad*
%ADD10C,1.524000*%
G04 #@! TD*
G04 #@! TA.AperFunction,ComponentPad*
%ADD11O,1.600000X1.600000*%
G04 #@! TD*
G04 #@! TA.AperFunction,ComponentPad*
%ADD12R,1.600000X1.600000*%
G04 #@! TD*
G04 #@! TA.AperFunction,ComponentPad*
%ADD13O,1.700000X1.700000*%
G04 #@! TD*
G04 #@! TA.AperFunction,ComponentPad*
%ADD14R,1.700000X1.700000*%
G04 #@! TD*
G04 #@! TA.AperFunction,WasherPad*
%ADD15C,3.000000*%
G04 #@! TD*
G04 #@! TA.AperFunction,ComponentPad*
%ADD16R,2.000000X2.000000*%
G04 #@! TD*
G04 #@! TA.AperFunction,ComponentPad*
%ADD17C,1.600000*%
G04 #@! TD*
G04 #@! TA.AperFunction,ComponentPad*
%ADD18C,1.200000*%
G04 #@! TD*
G04 #@! TA.AperFunction,ComponentPad*
%ADD19R,1.200000X1.200000*%
G04 #@! TD*
G04 #@! TA.AperFunction,ComponentPad*
%ADD20C,2.794000*%
G04 #@! TD*
G04 #@! TA.AperFunction,ViaPad*
%ADD21C,0.750000*%
G04 #@! TD*
G04 #@! TA.AperFunction,Conductor*
%ADD22C,0.250000*%
G04 #@! TD*
G04 #@! TA.AperFunction,Conductor*
%ADD23C,0.150000*%
G04 #@! TD*
G04 #@! TA.AperFunction,Conductor*
%ADD24C,0.254000*%
G04 #@! TD*
G04 APERTURE END LIST*
D10*
X88836500Y-85471000D03*
X86296500Y-85471000D03*
X83756500Y-85471000D03*
X81216500Y-85471000D03*
D11*
X123444000Y-95123000D03*
X131064000Y-87503000D03*
X123444000Y-92583000D03*
X131064000Y-90043000D03*
X123444000Y-90043000D03*
X131064000Y-92583000D03*
X123444000Y-87503000D03*
D12*
X131064000Y-95123000D03*
D13*
X135180000Y-63050000D03*
X135180000Y-65590000D03*
X132640000Y-63050000D03*
X132640000Y-65590000D03*
X130100000Y-63050000D03*
X130100000Y-65590000D03*
X127560000Y-63050000D03*
X127560000Y-65590000D03*
X125020000Y-63050000D03*
X125020000Y-65590000D03*
X122480000Y-63050000D03*
X122480000Y-65590000D03*
X119940000Y-63050000D03*
X119940000Y-65590000D03*
X117400000Y-63050000D03*
X117400000Y-65590000D03*
X114860000Y-63050000D03*
X114860000Y-65590000D03*
X112320000Y-63050000D03*
X112320000Y-65590000D03*
X109780000Y-63050000D03*
X109780000Y-65590000D03*
X107240000Y-63050000D03*
X107240000Y-65590000D03*
X104700000Y-63050000D03*
X104700000Y-65590000D03*
X102160000Y-63050000D03*
X102160000Y-65590000D03*
X99620000Y-63050000D03*
X99620000Y-65590000D03*
X97080000Y-63050000D03*
X97080000Y-65590000D03*
X94540000Y-63050000D03*
X94540000Y-65590000D03*
X92000000Y-63050000D03*
X92000000Y-65590000D03*
X89460000Y-63050000D03*
X89460000Y-65590000D03*
X86920000Y-63050000D03*
D14*
X86920000Y-65590000D03*
D15*
X82040000Y-64310000D03*
X140040000Y-64330000D03*
X82040000Y-113320000D03*
X140030000Y-113310000D03*
D13*
X115252500Y-72326500D03*
D14*
X117792500Y-72326500D03*
D16*
X113030000Y-114173000D03*
X89027000Y-113919000D03*
D11*
X122237500Y-99377500D03*
D17*
X132397500Y-99377500D03*
D13*
X140716000Y-88773000D03*
X140716000Y-91313000D03*
D14*
X140716000Y-93853000D03*
D16*
X80772000Y-105854500D03*
D11*
X131381500Y-73469500D03*
X123761500Y-81089500D03*
X131381500Y-76009500D03*
X123761500Y-78549500D03*
X131381500Y-78549500D03*
X123761500Y-76009500D03*
X131381500Y-81089500D03*
D12*
X123761500Y-73469500D03*
D18*
X118681500Y-79343000D03*
D19*
X118681500Y-77343000D03*
D18*
X118681500Y-85756500D03*
D19*
X118681500Y-83756500D03*
D10*
X96202500Y-73596500D03*
X96202500Y-76136500D03*
X96202500Y-78676500D03*
X96202500Y-81216500D03*
X96202500Y-83756500D03*
X96202500Y-86296500D03*
X96202500Y-88836500D03*
X96202500Y-91376500D03*
X96202500Y-93916500D03*
X96202500Y-96456500D03*
D20*
X108902500Y-73596500D03*
X108902500Y-96456500D03*
D10*
X93027500Y-113284000D03*
X93027500Y-110744000D03*
X93027500Y-108204000D03*
X93027500Y-105664000D03*
X116395500Y-113284000D03*
X116395500Y-110744000D03*
X116395500Y-108204000D03*
X116395500Y-105664000D03*
D14*
X140843000Y-71564500D03*
D13*
X140843000Y-74104500D03*
X140843000Y-76644500D03*
X140843000Y-79184500D03*
D16*
X80772000Y-81788000D03*
D21*
X90741500Y-70421500D03*
X93218000Y-70421500D03*
X122491500Y-69151500D03*
X130111500Y-68262500D03*
X90678000Y-67627500D03*
D22*
X122428000Y-65642000D02*
X122480000Y-65590000D01*
X122480000Y-65590000D02*
X122480000Y-69013000D01*
X122480000Y-69013000D02*
X122491500Y-69024500D01*
X127698500Y-88328500D02*
X127698500Y-77152500D01*
X123444000Y-92583000D02*
X127698500Y-88328500D01*
X127698500Y-77152500D02*
X131381500Y-73469500D01*
X93027500Y-89662000D02*
X88836500Y-85471000D01*
X93027500Y-105664000D02*
X93027500Y-89662000D01*
X140843000Y-74104500D02*
X135978902Y-74104500D01*
X130111500Y-68262500D02*
X131953000Y-70104000D01*
X135953500Y-74104500D02*
X135978902Y-74104500D01*
X130111500Y-68262500D02*
X135953500Y-74104500D01*
X96202500Y-78676500D02*
X94996000Y-78676500D01*
X92000000Y-75680500D02*
X92000000Y-65590000D01*
X94996000Y-78676500D02*
X92000000Y-75680500D01*
X139640919Y-76644500D02*
X140843000Y-76644500D01*
X136489382Y-76644500D02*
X139640919Y-76644500D01*
X131155382Y-71310500D02*
X131254500Y-71437500D01*
X131254500Y-71437500D02*
X136489382Y-76644500D01*
X129921000Y-70104000D02*
X131254500Y-71437500D01*
X106997500Y-70104000D02*
X129921000Y-70104000D01*
X96202500Y-78676500D02*
X98425000Y-78676500D01*
X98425000Y-78676500D02*
X106997500Y-70104000D01*
X87857500Y-67627500D02*
X86920000Y-66690000D01*
X86920000Y-66690000D02*
X86920000Y-65590000D01*
X90678000Y-67627500D02*
X87857500Y-67627500D01*
D23*
X116395500Y-110744000D02*
X99060000Y-93408500D01*
X99060000Y-91694000D02*
X96202500Y-88836500D01*
X99060000Y-93408500D02*
X99060000Y-91694000D01*
D22*
X93027500Y-110744000D02*
X96139000Y-107632500D01*
X96139000Y-107632500D02*
X96139000Y-101473000D01*
X96139000Y-101473000D02*
X94234000Y-99568000D01*
D23*
X94234000Y-93345000D02*
X96202500Y-91376500D01*
X94234000Y-99568000D02*
X94234000Y-93345000D01*
D22*
X101282500Y-86296500D02*
X96202500Y-86296500D01*
X115252500Y-72326500D02*
X101282500Y-86296500D01*
D24*
G36*
X138511442Y-61470270D02*
G01*
X137982907Y-61823425D01*
X137533425Y-62272907D01*
X137180270Y-62801442D01*
X136937012Y-63388719D01*
X136813000Y-64012168D01*
X136813000Y-64647832D01*
X136937012Y-65271281D01*
X137180270Y-65858558D01*
X137533425Y-66387093D01*
X137982907Y-66836575D01*
X138511442Y-67189730D01*
X139098719Y-67432988D01*
X139722168Y-67557000D01*
X140357832Y-67557000D01*
X140981281Y-67432988D01*
X141568558Y-67189730D01*
X142097093Y-66836575D01*
X142546575Y-66387093D01*
X142899730Y-65858558D01*
X142969357Y-65690464D01*
X142969351Y-111973665D01*
X142889730Y-111781442D01*
X142536575Y-111252907D01*
X142087093Y-110803425D01*
X141558558Y-110450270D01*
X140971281Y-110207012D01*
X140347832Y-110083000D01*
X139712168Y-110083000D01*
X139088719Y-110207012D01*
X138501442Y-110450270D01*
X137972907Y-110803425D01*
X137523425Y-111252907D01*
X137170270Y-111781442D01*
X136927012Y-112368719D01*
X136803000Y-112992168D01*
X136803000Y-113627832D01*
X136927012Y-114251281D01*
X137170270Y-114838558D01*
X137523425Y-115367093D01*
X137972907Y-115816575D01*
X138501442Y-116169730D01*
X138672564Y-116240611D01*
X83421578Y-116240611D01*
X83568558Y-116179730D01*
X84097093Y-115826575D01*
X84546575Y-115377093D01*
X84899730Y-114848558D01*
X85142988Y-114261281D01*
X85267000Y-113637832D01*
X85267000Y-113002168D01*
X85250457Y-112919000D01*
X87497451Y-112919000D01*
X87497451Y-114919000D01*
X87507626Y-115022310D01*
X87537761Y-115121650D01*
X87586696Y-115213202D01*
X87652552Y-115293448D01*
X87732798Y-115359304D01*
X87824350Y-115408239D01*
X87923690Y-115438374D01*
X88027000Y-115448549D01*
X90027000Y-115448549D01*
X90130310Y-115438374D01*
X90229650Y-115408239D01*
X90321202Y-115359304D01*
X90401448Y-115293448D01*
X90467304Y-115213202D01*
X90516239Y-115121650D01*
X90546374Y-115022310D01*
X90556549Y-114919000D01*
X90556549Y-112919000D01*
X90546374Y-112815690D01*
X90516239Y-112716350D01*
X90467304Y-112624798D01*
X90401448Y-112544552D01*
X90321202Y-112478696D01*
X90229650Y-112429761D01*
X90130310Y-112399626D01*
X90027000Y-112389451D01*
X88027000Y-112389451D01*
X87923690Y-112399626D01*
X87824350Y-112429761D01*
X87732798Y-112478696D01*
X87652552Y-112544552D01*
X87586696Y-112624798D01*
X87537761Y-112716350D01*
X87507626Y-112815690D01*
X87497451Y-112919000D01*
X85250457Y-112919000D01*
X85142988Y-112378719D01*
X84899730Y-111791442D01*
X84546575Y-111262907D01*
X84097093Y-110813425D01*
X83568558Y-110460270D01*
X82981281Y-110217012D01*
X82357832Y-110093000D01*
X81722168Y-110093000D01*
X81098719Y-110217012D01*
X80511442Y-110460270D01*
X79982907Y-110813425D01*
X79533425Y-111262907D01*
X79180270Y-111791442D01*
X79123356Y-111928845D01*
X79123356Y-108276017D01*
X91625590Y-108276017D01*
X91666578Y-108548133D01*
X91759864Y-108807023D01*
X91821844Y-108922980D01*
X92061935Y-108989960D01*
X92847895Y-108204000D01*
X92061935Y-107418040D01*
X91821844Y-107485020D01*
X91704744Y-107734048D01*
X91638477Y-108001135D01*
X91625590Y-108276017D01*
X79123356Y-108276017D01*
X79123356Y-104854500D01*
X79242451Y-104854500D01*
X79242451Y-106854500D01*
X79252626Y-106957810D01*
X79282761Y-107057150D01*
X79331696Y-107148702D01*
X79397552Y-107228948D01*
X79477798Y-107294804D01*
X79569350Y-107343739D01*
X79668690Y-107373874D01*
X79772000Y-107384049D01*
X81772000Y-107384049D01*
X81875310Y-107373874D01*
X81974650Y-107343739D01*
X82066202Y-107294804D01*
X82146448Y-107228948D01*
X82212304Y-107148702D01*
X82261239Y-107057150D01*
X82291374Y-106957810D01*
X82301549Y-106854500D01*
X82301549Y-104854500D01*
X82291374Y-104751190D01*
X82261239Y-104651850D01*
X82212304Y-104560298D01*
X82146448Y-104480052D01*
X82066202Y-104414196D01*
X81974650Y-104365261D01*
X81875310Y-104335126D01*
X81772000Y-104324951D01*
X79772000Y-104324951D01*
X79668690Y-104335126D01*
X79569350Y-104365261D01*
X79477798Y-104414196D01*
X79397552Y-104480052D01*
X79331696Y-104560298D01*
X79282761Y-104651850D01*
X79252626Y-104751190D01*
X79242451Y-104854500D01*
X79123356Y-104854500D01*
X79123356Y-85344045D01*
X79927500Y-85344045D01*
X79927500Y-85597955D01*
X79977035Y-85846987D01*
X80074203Y-86081570D01*
X80215268Y-86292690D01*
X80394810Y-86472232D01*
X80605930Y-86613297D01*
X80840513Y-86710465D01*
X81089545Y-86760000D01*
X81343455Y-86760000D01*
X81592487Y-86710465D01*
X81827070Y-86613297D01*
X82038190Y-86472232D01*
X82217732Y-86292690D01*
X82358797Y-86081570D01*
X82455965Y-85846987D01*
X82486500Y-85693476D01*
X82517035Y-85846987D01*
X82614203Y-86081570D01*
X82755268Y-86292690D01*
X82934810Y-86472232D01*
X83145930Y-86613297D01*
X83380513Y-86710465D01*
X83629545Y-86760000D01*
X83883455Y-86760000D01*
X84132487Y-86710465D01*
X84367070Y-86613297D01*
X84578190Y-86472232D01*
X84613857Y-86436565D01*
X85510540Y-86436565D01*
X85577520Y-86676656D01*
X85826548Y-86793756D01*
X86093635Y-86860023D01*
X86368517Y-86872910D01*
X86640633Y-86831922D01*
X86899523Y-86738636D01*
X87015480Y-86676656D01*
X87082460Y-86436565D01*
X86296500Y-85650605D01*
X85510540Y-86436565D01*
X84613857Y-86436565D01*
X84757732Y-86292690D01*
X84898797Y-86081570D01*
X84969809Y-85910132D01*
X85028864Y-86074023D01*
X85090844Y-86189980D01*
X85330935Y-86256960D01*
X86116895Y-85471000D01*
X86476105Y-85471000D01*
X87262065Y-86256960D01*
X87502156Y-86189980D01*
X87619256Y-85940952D01*
X87625512Y-85915737D01*
X87694203Y-86081570D01*
X87835268Y-86292690D01*
X88014810Y-86472232D01*
X88225930Y-86613297D01*
X88460513Y-86710465D01*
X88709545Y-86760000D01*
X88963455Y-86760000D01*
X89163619Y-86720185D01*
X92375501Y-89932068D01*
X92375500Y-104549385D01*
X92205810Y-104662768D01*
X92026268Y-104842310D01*
X91885203Y-105053430D01*
X91788035Y-105288013D01*
X91738500Y-105537045D01*
X91738500Y-105790955D01*
X91788035Y-106039987D01*
X91885203Y-106274570D01*
X92026268Y-106485690D01*
X92205810Y-106665232D01*
X92416930Y-106806297D01*
X92588368Y-106877309D01*
X92424477Y-106936364D01*
X92308520Y-106998344D01*
X92241540Y-107238435D01*
X93027500Y-108024395D01*
X93813460Y-107238435D01*
X93746480Y-106998344D01*
X93497452Y-106881244D01*
X93472237Y-106874988D01*
X93638070Y-106806297D01*
X93849190Y-106665232D01*
X94028732Y-106485690D01*
X94169797Y-106274570D01*
X94266965Y-106039987D01*
X94316500Y-105790955D01*
X94316500Y-105537045D01*
X94266965Y-105288013D01*
X94169797Y-105053430D01*
X94028732Y-104842310D01*
X93849190Y-104662768D01*
X93679500Y-104549385D01*
X93679500Y-99913723D01*
X93689260Y-99931983D01*
X93750324Y-100006390D01*
X95487001Y-101743068D01*
X95487000Y-107362432D01*
X94407929Y-108441504D01*
X94416523Y-108406865D01*
X94429410Y-108131983D01*
X94388422Y-107859867D01*
X94295136Y-107600977D01*
X94233156Y-107485020D01*
X93993065Y-107418040D01*
X93207105Y-108204000D01*
X93221248Y-108218143D01*
X93041643Y-108397748D01*
X93027500Y-108383605D01*
X92241540Y-109169565D01*
X92308520Y-109409656D01*
X92557548Y-109526756D01*
X92582763Y-109533012D01*
X92416930Y-109601703D01*
X92205810Y-109742768D01*
X92026268Y-109922310D01*
X91885203Y-110133430D01*
X91788035Y-110368013D01*
X91738500Y-110617045D01*
X91738500Y-110870955D01*
X91788035Y-111119987D01*
X91885203Y-111354570D01*
X92026268Y-111565690D01*
X92205810Y-111745232D01*
X92416930Y-111886297D01*
X92651513Y-111983465D01*
X92805024Y-112014000D01*
X92651513Y-112044535D01*
X92416930Y-112141703D01*
X92205810Y-112282768D01*
X92026268Y-112462310D01*
X91885203Y-112673430D01*
X91788035Y-112908013D01*
X91738500Y-113157045D01*
X91738500Y-113410955D01*
X91788035Y-113659987D01*
X91885203Y-113894570D01*
X92026268Y-114105690D01*
X92205810Y-114285232D01*
X92416930Y-114426297D01*
X92651513Y-114523465D01*
X92900545Y-114573000D01*
X93154455Y-114573000D01*
X93403487Y-114523465D01*
X93638070Y-114426297D01*
X93849190Y-114285232D01*
X94028732Y-114105690D01*
X94169797Y-113894570D01*
X94266965Y-113659987D01*
X94316500Y-113410955D01*
X94316500Y-113173000D01*
X111500451Y-113173000D01*
X111500451Y-115173000D01*
X111510626Y-115276310D01*
X111540761Y-115375650D01*
X111589696Y-115467202D01*
X111655552Y-115547448D01*
X111735798Y-115613304D01*
X111827350Y-115662239D01*
X111926690Y-115692374D01*
X112030000Y-115702549D01*
X114030000Y-115702549D01*
X114133310Y-115692374D01*
X114232650Y-115662239D01*
X114324202Y-115613304D01*
X114404448Y-115547448D01*
X114470304Y-115467202D01*
X114519239Y-115375650D01*
X114549374Y-115276310D01*
X114559549Y-115173000D01*
X114559549Y-113173000D01*
X114549374Y-113069690D01*
X114519239Y-112970350D01*
X114470304Y-112878798D01*
X114404448Y-112798552D01*
X114324202Y-112732696D01*
X114232650Y-112683761D01*
X114133310Y-112653626D01*
X114030000Y-112643451D01*
X112030000Y-112643451D01*
X111926690Y-112653626D01*
X111827350Y-112683761D01*
X111735798Y-112732696D01*
X111655552Y-112798552D01*
X111589696Y-112878798D01*
X111540761Y-112970350D01*
X111510626Y-113069690D01*
X111500451Y-113173000D01*
X94316500Y-113173000D01*
X94316500Y-113157045D01*
X94266965Y-112908013D01*
X94169797Y-112673430D01*
X94028732Y-112462310D01*
X93849190Y-112282768D01*
X93638070Y-112141703D01*
X93403487Y-112044535D01*
X93249976Y-112014000D01*
X93403487Y-111983465D01*
X93638070Y-111886297D01*
X93849190Y-111745232D01*
X94028732Y-111565690D01*
X94169797Y-111354570D01*
X94266965Y-111119987D01*
X94316500Y-110870955D01*
X94316500Y-110617045D01*
X94276685Y-110416881D01*
X96577393Y-108116175D01*
X96602264Y-108095764D01*
X96683741Y-107996484D01*
X96744283Y-107883217D01*
X96781565Y-107760314D01*
X96791000Y-107664522D01*
X96791000Y-107664515D01*
X96794153Y-107632501D01*
X96791000Y-107600486D01*
X96791000Y-101505022D01*
X96794154Y-101473000D01*
X96781565Y-101345185D01*
X96744283Y-101222284D01*
X96744283Y-101222283D01*
X96683741Y-101109016D01*
X96602264Y-101009736D01*
X96577387Y-100989320D01*
X94836000Y-99247934D01*
X94836000Y-93594355D01*
X95014790Y-93415565D01*
X94963035Y-93540513D01*
X94913500Y-93789545D01*
X94913500Y-94043455D01*
X94963035Y-94292487D01*
X95060203Y-94527070D01*
X95201268Y-94738190D01*
X95380810Y-94917732D01*
X95591930Y-95058797D01*
X95826513Y-95155965D01*
X95980024Y-95186500D01*
X95826513Y-95217035D01*
X95591930Y-95314203D01*
X95380810Y-95455268D01*
X95201268Y-95634810D01*
X95060203Y-95845930D01*
X94963035Y-96080513D01*
X94913500Y-96329545D01*
X94913500Y-96583455D01*
X94963035Y-96832487D01*
X95060203Y-97067070D01*
X95201268Y-97278190D01*
X95380810Y-97457732D01*
X95591930Y-97598797D01*
X95826513Y-97695965D01*
X96075545Y-97745500D01*
X96329455Y-97745500D01*
X96578487Y-97695965D01*
X96813070Y-97598797D01*
X97024190Y-97457732D01*
X97203732Y-97278190D01*
X97344797Y-97067070D01*
X97441965Y-96832487D01*
X97491500Y-96583455D01*
X97491500Y-96329545D01*
X97441965Y-96080513D01*
X97344797Y-95845930D01*
X97203732Y-95634810D01*
X97024190Y-95455268D01*
X96813070Y-95314203D01*
X96578487Y-95217035D01*
X96424976Y-95186500D01*
X96578487Y-95155965D01*
X96813070Y-95058797D01*
X97024190Y-94917732D01*
X97203732Y-94738190D01*
X97344797Y-94527070D01*
X97441965Y-94292487D01*
X97491500Y-94043455D01*
X97491500Y-93789545D01*
X97441965Y-93540513D01*
X97344797Y-93305930D01*
X97203732Y-93094810D01*
X97024190Y-92915268D01*
X96813070Y-92774203D01*
X96578487Y-92677035D01*
X96424976Y-92646500D01*
X96578487Y-92615965D01*
X96813070Y-92518797D01*
X97024190Y-92377732D01*
X97203732Y-92198190D01*
X97344797Y-91987070D01*
X97441965Y-91752487D01*
X97491500Y-91503455D01*
X97491500Y-91249545D01*
X97441965Y-91000513D01*
X97390210Y-90875566D01*
X98458001Y-91943358D01*
X98458000Y-93378943D01*
X98455089Y-93408500D01*
X98458000Y-93438056D01*
X98458000Y-93438065D01*
X98466711Y-93526511D01*
X98501134Y-93639989D01*
X98557034Y-93744570D01*
X98632263Y-93836237D01*
X98655234Y-93855089D01*
X115159585Y-110359442D01*
X115156035Y-110368013D01*
X115106500Y-110617045D01*
X115106500Y-110870955D01*
X115156035Y-111119987D01*
X115253203Y-111354570D01*
X115394268Y-111565690D01*
X115573810Y-111745232D01*
X115784930Y-111886297D01*
X116019513Y-111983465D01*
X116173024Y-112014000D01*
X116019513Y-112044535D01*
X115784930Y-112141703D01*
X115573810Y-112282768D01*
X115394268Y-112462310D01*
X115253203Y-112673430D01*
X115156035Y-112908013D01*
X115106500Y-113157045D01*
X115106500Y-113410955D01*
X115156035Y-113659987D01*
X115253203Y-113894570D01*
X115394268Y-114105690D01*
X115573810Y-114285232D01*
X115784930Y-114426297D01*
X116019513Y-114523465D01*
X116268545Y-114573000D01*
X116522455Y-114573000D01*
X116771487Y-114523465D01*
X117006070Y-114426297D01*
X117217190Y-114285232D01*
X117396732Y-114105690D01*
X117537797Y-113894570D01*
X117634965Y-113659987D01*
X117684500Y-113410955D01*
X117684500Y-113157045D01*
X117634965Y-112908013D01*
X117537797Y-112673430D01*
X117396732Y-112462310D01*
X117217190Y-112282768D01*
X117006070Y-112141703D01*
X116771487Y-112044535D01*
X116617976Y-112014000D01*
X116771487Y-111983465D01*
X117006070Y-111886297D01*
X117217190Y-111745232D01*
X117396732Y-111565690D01*
X117537797Y-111354570D01*
X117634965Y-111119987D01*
X117684500Y-110870955D01*
X117684500Y-110617045D01*
X117634965Y-110368013D01*
X117537797Y-110133430D01*
X117396732Y-109922310D01*
X117217190Y-109742768D01*
X117006070Y-109601703D01*
X116834632Y-109530691D01*
X116998523Y-109471636D01*
X117114480Y-109409656D01*
X117181460Y-109169565D01*
X116395500Y-108383605D01*
X116381358Y-108397748D01*
X116201753Y-108218143D01*
X116215895Y-108204000D01*
X116575105Y-108204000D01*
X117361065Y-108989960D01*
X117601156Y-108922980D01*
X117718256Y-108673952D01*
X117784523Y-108406865D01*
X117797410Y-108131983D01*
X117756422Y-107859867D01*
X117663136Y-107600977D01*
X117601156Y-107485020D01*
X117361065Y-107418040D01*
X116575105Y-108204000D01*
X116215895Y-108204000D01*
X115429935Y-107418040D01*
X115189844Y-107485020D01*
X115072744Y-107734048D01*
X115006477Y-108001135D01*
X114993590Y-108276017D01*
X115031668Y-108528811D01*
X112039902Y-105537045D01*
X115106500Y-105537045D01*
X115106500Y-105790955D01*
X115156035Y-106039987D01*
X115253203Y-106274570D01*
X115394268Y-106485690D01*
X115573810Y-106665232D01*
X115784930Y-106806297D01*
X115956368Y-106877309D01*
X115792477Y-106936364D01*
X115676520Y-106998344D01*
X115609540Y-107238435D01*
X116395500Y-108024395D01*
X117181460Y-107238435D01*
X117114480Y-106998344D01*
X116865452Y-106881244D01*
X116840237Y-106874988D01*
X117006070Y-106806297D01*
X117217190Y-106665232D01*
X117396732Y-106485690D01*
X117537797Y-106274570D01*
X117634965Y-106039987D01*
X117684500Y-105790955D01*
X117684500Y-105537045D01*
X117634965Y-105288013D01*
X117537797Y-105053430D01*
X117396732Y-104842310D01*
X117217190Y-104662768D01*
X117006070Y-104521703D01*
X116771487Y-104424535D01*
X116522455Y-104375000D01*
X116268545Y-104375000D01*
X116019513Y-104424535D01*
X115784930Y-104521703D01*
X115573810Y-104662768D01*
X115394268Y-104842310D01*
X115253203Y-105053430D01*
X115156035Y-105288013D01*
X115106500Y-105537045D01*
X112039902Y-105537045D01*
X105749659Y-99246802D01*
X120910500Y-99246802D01*
X120910500Y-99508198D01*
X120961496Y-99764572D01*
X121061528Y-100006070D01*
X121206752Y-100223413D01*
X121391587Y-100408248D01*
X121608930Y-100553472D01*
X121850428Y-100653504D01*
X122106802Y-100704500D01*
X122368198Y-100704500D01*
X122624572Y-100653504D01*
X122866070Y-100553472D01*
X123083413Y-100408248D01*
X123268248Y-100223413D01*
X123413472Y-100006070D01*
X123513504Y-99764572D01*
X123564500Y-99508198D01*
X123564500Y-99246802D01*
X131070500Y-99246802D01*
X131070500Y-99508198D01*
X131121496Y-99764572D01*
X131221528Y-100006070D01*
X131366752Y-100223413D01*
X131551587Y-100408248D01*
X131768930Y-100553472D01*
X132010428Y-100653504D01*
X132266802Y-100704500D01*
X132528198Y-100704500D01*
X132784572Y-100653504D01*
X133026070Y-100553472D01*
X133243413Y-100408248D01*
X133428248Y-100223413D01*
X133573472Y-100006070D01*
X133673504Y-99764572D01*
X133724500Y-99508198D01*
X133724500Y-99246802D01*
X133673504Y-98990428D01*
X133573472Y-98748930D01*
X133428248Y-98531587D01*
X133243413Y-98346752D01*
X133026070Y-98201528D01*
X132784572Y-98101496D01*
X132528198Y-98050500D01*
X132266802Y-98050500D01*
X132010428Y-98101496D01*
X131768930Y-98201528D01*
X131551587Y-98346752D01*
X131366752Y-98531587D01*
X131221528Y-98748930D01*
X131121496Y-98990428D01*
X131070500Y-99246802D01*
X123564500Y-99246802D01*
X123513504Y-98990428D01*
X123413472Y-98748930D01*
X123268248Y-98531587D01*
X123083413Y-98346752D01*
X122866070Y-98201528D01*
X122624572Y-98101496D01*
X122368198Y-98050500D01*
X122106802Y-98050500D01*
X121850428Y-98101496D01*
X121608930Y-98201528D01*
X121391587Y-98346752D01*
X121206752Y-98531587D01*
X121061528Y-98748930D01*
X120961496Y-98990428D01*
X120910500Y-99246802D01*
X105749659Y-99246802D01*
X102769859Y-96267003D01*
X106978500Y-96267003D01*
X106978500Y-96645997D01*
X107052439Y-97017710D01*
X107197474Y-97367856D01*
X107408032Y-97682978D01*
X107676022Y-97950968D01*
X107991144Y-98161526D01*
X108341290Y-98306561D01*
X108713003Y-98380500D01*
X109091997Y-98380500D01*
X109463710Y-98306561D01*
X109813856Y-98161526D01*
X110128978Y-97950968D01*
X110396968Y-97682978D01*
X110607526Y-97367856D01*
X110752561Y-97017710D01*
X110826500Y-96645997D01*
X110826500Y-96267003D01*
X110752561Y-95895290D01*
X110607526Y-95545144D01*
X110396968Y-95230022D01*
X110128978Y-94962032D01*
X109813856Y-94751474D01*
X109463710Y-94606439D01*
X109091997Y-94532500D01*
X108713003Y-94532500D01*
X108341290Y-94606439D01*
X107991144Y-94751474D01*
X107676022Y-94962032D01*
X107408032Y-95230022D01*
X107197474Y-95545144D01*
X107052439Y-95895290D01*
X106978500Y-96267003D01*
X102769859Y-96267003D01*
X99662000Y-93159145D01*
X99662000Y-91723556D01*
X99664911Y-91693999D01*
X99662000Y-91664443D01*
X99662000Y-91664434D01*
X99653289Y-91575988D01*
X99618866Y-91462510D01*
X99562966Y-91357929D01*
X99531021Y-91319004D01*
X99506584Y-91289227D01*
X99506580Y-91289223D01*
X99487737Y-91266263D01*
X99464777Y-91247420D01*
X97438414Y-89221059D01*
X97441965Y-89212487D01*
X97491500Y-88963455D01*
X97491500Y-88709545D01*
X97441965Y-88460513D01*
X97344797Y-88225930D01*
X97203732Y-88014810D01*
X97024190Y-87835268D01*
X96813070Y-87694203D01*
X96578487Y-87597035D01*
X96424976Y-87566500D01*
X96578487Y-87535965D01*
X96813070Y-87438797D01*
X97024190Y-87297732D01*
X97167961Y-87153961D01*
X122052096Y-87153961D01*
X122174085Y-87376000D01*
X123317000Y-87376000D01*
X123317000Y-86232376D01*
X123571000Y-86232376D01*
X123571000Y-87376000D01*
X124713915Y-87376000D01*
X124835904Y-87153961D01*
X124795246Y-87019913D01*
X124675037Y-86765580D01*
X124507519Y-86539586D01*
X124299131Y-86350615D01*
X124057881Y-86205930D01*
X123793040Y-86111091D01*
X123571000Y-86232376D01*
X123317000Y-86232376D01*
X123094960Y-86111091D01*
X122830119Y-86205930D01*
X122588869Y-86350615D01*
X122380481Y-86539586D01*
X122212963Y-86765580D01*
X122092754Y-87019913D01*
X122052096Y-87153961D01*
X97167961Y-87153961D01*
X97203732Y-87118190D01*
X97317115Y-86948500D01*
X101250478Y-86948500D01*
X101282500Y-86951654D01*
X101314522Y-86948500D01*
X101410314Y-86939065D01*
X101533217Y-86901783D01*
X101646484Y-86841241D01*
X101745764Y-86759764D01*
X101766185Y-86734881D01*
X101894802Y-86606264D01*
X118011341Y-86606264D01*
X118058648Y-86829848D01*
X118280016Y-86930737D01*
X118516813Y-86986500D01*
X118759938Y-86994995D01*
X119000049Y-86955895D01*
X119227918Y-86870702D01*
X119304352Y-86829848D01*
X119351659Y-86606264D01*
X118681500Y-85936105D01*
X118011341Y-86606264D01*
X101894802Y-86606264D01*
X102666128Y-85834938D01*
X117443005Y-85834938D01*
X117482105Y-86075049D01*
X117567298Y-86302918D01*
X117608152Y-86379352D01*
X117831736Y-86426659D01*
X118501895Y-85756500D01*
X118861105Y-85756500D01*
X119531264Y-86426659D01*
X119754848Y-86379352D01*
X119855737Y-86157984D01*
X119911500Y-85921187D01*
X119919995Y-85678062D01*
X119880895Y-85437951D01*
X119795702Y-85210082D01*
X119754848Y-85133648D01*
X119531264Y-85086341D01*
X118861105Y-85756500D01*
X118501895Y-85756500D01*
X117831736Y-85086341D01*
X117608152Y-85133648D01*
X117507263Y-85355016D01*
X117451500Y-85591813D01*
X117443005Y-85834938D01*
X102666128Y-85834938D01*
X105344566Y-83156500D01*
X117551951Y-83156500D01*
X117551951Y-84356500D01*
X117562126Y-84459810D01*
X117592261Y-84559150D01*
X117641196Y-84650702D01*
X117707052Y-84730948D01*
X117787298Y-84796804D01*
X117878850Y-84845739D01*
X117978190Y-84875874D01*
X118017061Y-84879702D01*
X118011341Y-84906736D01*
X118681500Y-85576895D01*
X119351659Y-84906736D01*
X119345939Y-84879702D01*
X119384810Y-84875874D01*
X119484150Y-84845739D01*
X119575702Y-84796804D01*
X119655948Y-84730948D01*
X119721804Y-84650702D01*
X119770739Y-84559150D01*
X119800874Y-84459810D01*
X119811049Y-84356500D01*
X119811049Y-83156500D01*
X119800874Y-83053190D01*
X119770739Y-82953850D01*
X119721804Y-82862298D01*
X119655948Y-82782052D01*
X119575702Y-82716196D01*
X119484150Y-82667261D01*
X119384810Y-82637126D01*
X119281500Y-82626951D01*
X118081500Y-82626951D01*
X117978190Y-82637126D01*
X117878850Y-82667261D01*
X117787298Y-82716196D01*
X117707052Y-82782052D01*
X117641196Y-82862298D01*
X117592261Y-82953850D01*
X117562126Y-83053190D01*
X117551951Y-83156500D01*
X105344566Y-83156500D01*
X111758066Y-76743000D01*
X117551951Y-76743000D01*
X117551951Y-77943000D01*
X117562126Y-78046310D01*
X117592261Y-78145650D01*
X117641196Y-78237202D01*
X117707052Y-78317448D01*
X117787298Y-78383304D01*
X117878850Y-78432239D01*
X117973179Y-78460854D01*
X117963079Y-78467602D01*
X117806102Y-78624579D01*
X117682766Y-78809165D01*
X117597810Y-79014266D01*
X117554500Y-79232000D01*
X117554500Y-79454000D01*
X117597810Y-79671734D01*
X117682766Y-79876835D01*
X117806102Y-80061421D01*
X117963079Y-80218398D01*
X118147665Y-80341734D01*
X118352766Y-80426690D01*
X118570500Y-80470000D01*
X118792500Y-80470000D01*
X119010234Y-80426690D01*
X119215335Y-80341734D01*
X119399921Y-80218398D01*
X119556898Y-80061421D01*
X119680234Y-79876835D01*
X119765190Y-79671734D01*
X119808500Y-79454000D01*
X119808500Y-79232000D01*
X119765190Y-79014266D01*
X119717255Y-78898539D01*
X122369596Y-78898539D01*
X122410254Y-79032587D01*
X122530463Y-79286920D01*
X122697981Y-79512914D01*
X122906369Y-79701885D01*
X123147619Y-79846570D01*
X123226439Y-79874795D01*
X123132930Y-79913528D01*
X122915587Y-80058752D01*
X122730752Y-80243587D01*
X122585528Y-80460930D01*
X122485496Y-80702428D01*
X122434500Y-80958802D01*
X122434500Y-81220198D01*
X122485496Y-81476572D01*
X122585528Y-81718070D01*
X122730752Y-81935413D01*
X122915587Y-82120248D01*
X123132930Y-82265472D01*
X123374428Y-82365504D01*
X123630802Y-82416500D01*
X123892198Y-82416500D01*
X124148572Y-82365504D01*
X124390070Y-82265472D01*
X124607413Y-82120248D01*
X124792248Y-81935413D01*
X124937472Y-81718070D01*
X125037504Y-81476572D01*
X125088500Y-81220198D01*
X125088500Y-80958802D01*
X125037504Y-80702428D01*
X124937472Y-80460930D01*
X124792248Y-80243587D01*
X124607413Y-80058752D01*
X124390070Y-79913528D01*
X124296561Y-79874795D01*
X124375381Y-79846570D01*
X124616631Y-79701885D01*
X124825019Y-79512914D01*
X124992537Y-79286920D01*
X125112746Y-79032587D01*
X125153404Y-78898539D01*
X125031415Y-78676500D01*
X123888500Y-78676500D01*
X123888500Y-78696500D01*
X123634500Y-78696500D01*
X123634500Y-78676500D01*
X122491585Y-78676500D01*
X122369596Y-78898539D01*
X119717255Y-78898539D01*
X119680234Y-78809165D01*
X119556898Y-78624579D01*
X119399921Y-78467602D01*
X119389821Y-78460854D01*
X119484150Y-78432239D01*
X119575702Y-78383304D01*
X119655948Y-78317448D01*
X119721804Y-78237202D01*
X119741442Y-78200461D01*
X122369596Y-78200461D01*
X122491585Y-78422500D01*
X123634500Y-78422500D01*
X123634500Y-78402500D01*
X123888500Y-78402500D01*
X123888500Y-78422500D01*
X125031415Y-78422500D01*
X125153404Y-78200461D01*
X125112746Y-78066413D01*
X124992537Y-77812080D01*
X124825019Y-77586086D01*
X124616631Y-77397115D01*
X124375381Y-77252430D01*
X124296561Y-77224205D01*
X124390070Y-77185472D01*
X124607413Y-77040248D01*
X124792248Y-76855413D01*
X124937472Y-76638070D01*
X125037504Y-76396572D01*
X125088500Y-76140198D01*
X125088500Y-75878802D01*
X125037504Y-75622428D01*
X124937472Y-75380930D01*
X124792248Y-75163587D01*
X124607413Y-74978752D01*
X124390070Y-74833528D01*
X124306831Y-74799049D01*
X124561500Y-74799049D01*
X124664810Y-74788874D01*
X124764150Y-74758739D01*
X124855702Y-74709804D01*
X124935948Y-74643948D01*
X125001804Y-74563702D01*
X125050739Y-74472150D01*
X125080874Y-74372810D01*
X125091049Y-74269500D01*
X125091049Y-72669500D01*
X125080874Y-72566190D01*
X125050739Y-72466850D01*
X125001804Y-72375298D01*
X124935948Y-72295052D01*
X124855702Y-72229196D01*
X124764150Y-72180261D01*
X124664810Y-72150126D01*
X124561500Y-72139951D01*
X122961500Y-72139951D01*
X122858190Y-72150126D01*
X122758850Y-72180261D01*
X122667298Y-72229196D01*
X122587052Y-72295052D01*
X122521196Y-72375298D01*
X122472261Y-72466850D01*
X122442126Y-72566190D01*
X122431951Y-72669500D01*
X122431951Y-74269500D01*
X122442126Y-74372810D01*
X122472261Y-74472150D01*
X122521196Y-74563702D01*
X122587052Y-74643948D01*
X122667298Y-74709804D01*
X122758850Y-74758739D01*
X122858190Y-74788874D01*
X122961500Y-74799049D01*
X123216169Y-74799049D01*
X123132930Y-74833528D01*
X122915587Y-74978752D01*
X122730752Y-75163587D01*
X122585528Y-75380930D01*
X122485496Y-75622428D01*
X122434500Y-75878802D01*
X122434500Y-76140198D01*
X122485496Y-76396572D01*
X122585528Y-76638070D01*
X122730752Y-76855413D01*
X122915587Y-77040248D01*
X123132930Y-77185472D01*
X123226439Y-77224205D01*
X123147619Y-77252430D01*
X122906369Y-77397115D01*
X122697981Y-77586086D01*
X122530463Y-77812080D01*
X122410254Y-78066413D01*
X122369596Y-78200461D01*
X119741442Y-78200461D01*
X119770739Y-78145650D01*
X119800874Y-78046310D01*
X119811049Y-77943000D01*
X119811049Y-76743000D01*
X119800874Y-76639690D01*
X119770739Y-76540350D01*
X119721804Y-76448798D01*
X119655948Y-76368552D01*
X119575702Y-76302696D01*
X119484150Y-76253761D01*
X119384810Y-76223626D01*
X119281500Y-76213451D01*
X118081500Y-76213451D01*
X117978190Y-76223626D01*
X117878850Y-76253761D01*
X117787298Y-76302696D01*
X117707052Y-76368552D01*
X117641196Y-76448798D01*
X117592261Y-76540350D01*
X117562126Y-76639690D01*
X117551951Y-76743000D01*
X111758066Y-76743000D01*
X114850589Y-73650478D01*
X114850844Y-73650583D01*
X115116877Y-73703500D01*
X115388123Y-73703500D01*
X115654156Y-73650583D01*
X115904754Y-73546782D01*
X116130287Y-73396086D01*
X116322086Y-73204287D01*
X116412951Y-73068298D01*
X116412951Y-73176500D01*
X116423126Y-73279810D01*
X116453261Y-73379150D01*
X116502196Y-73470702D01*
X116568052Y-73550948D01*
X116648298Y-73616804D01*
X116739850Y-73665739D01*
X116839190Y-73695874D01*
X116942500Y-73706049D01*
X118642500Y-73706049D01*
X118745810Y-73695874D01*
X118845150Y-73665739D01*
X118936702Y-73616804D01*
X119016948Y-73550948D01*
X119082804Y-73470702D01*
X119131739Y-73379150D01*
X119161874Y-73279810D01*
X119172049Y-73176500D01*
X119172049Y-71476500D01*
X119161874Y-71373190D01*
X119131739Y-71273850D01*
X119082804Y-71182298D01*
X119016948Y-71102052D01*
X118936702Y-71036196D01*
X118845150Y-70987261D01*
X118745810Y-70957126D01*
X118642500Y-70946951D01*
X116942500Y-70946951D01*
X116839190Y-70957126D01*
X116739850Y-70987261D01*
X116648298Y-71036196D01*
X116568052Y-71102052D01*
X116502196Y-71182298D01*
X116453261Y-71273850D01*
X116423126Y-71373190D01*
X116412951Y-71476500D01*
X116412951Y-71584702D01*
X116322086Y-71448713D01*
X116130287Y-71256914D01*
X115904754Y-71106218D01*
X115654156Y-71002417D01*
X115388123Y-70949500D01*
X115116877Y-70949500D01*
X114850844Y-71002417D01*
X114600246Y-71106218D01*
X114374713Y-71256914D01*
X114182914Y-71448713D01*
X114032218Y-71674246D01*
X113928417Y-71924844D01*
X113875500Y-72190877D01*
X113875500Y-72462123D01*
X113928417Y-72728156D01*
X113928522Y-72728411D01*
X101012434Y-85644500D01*
X97317115Y-85644500D01*
X97203732Y-85474810D01*
X97024190Y-85295268D01*
X96813070Y-85154203D01*
X96641632Y-85083191D01*
X96805523Y-85024136D01*
X96921480Y-84962156D01*
X96988460Y-84722065D01*
X96202500Y-83936105D01*
X95416540Y-84722065D01*
X95483520Y-84962156D01*
X95732548Y-85079256D01*
X95757763Y-85085512D01*
X95591930Y-85154203D01*
X95380810Y-85295268D01*
X95201268Y-85474810D01*
X95060203Y-85685930D01*
X94963035Y-85920513D01*
X94913500Y-86169545D01*
X94913500Y-86423455D01*
X94963035Y-86672487D01*
X95060203Y-86907070D01*
X95201268Y-87118190D01*
X95380810Y-87297732D01*
X95591930Y-87438797D01*
X95826513Y-87535965D01*
X95980024Y-87566500D01*
X95826513Y-87597035D01*
X95591930Y-87694203D01*
X95380810Y-87835268D01*
X95201268Y-88014810D01*
X95060203Y-88225930D01*
X94963035Y-88460513D01*
X94913500Y-88709545D01*
X94913500Y-88963455D01*
X94963035Y-89212487D01*
X95060203Y-89447070D01*
X95201268Y-89658190D01*
X95380810Y-89837732D01*
X95591930Y-89978797D01*
X95826513Y-90075965D01*
X95980024Y-90106500D01*
X95826513Y-90137035D01*
X95591930Y-90234203D01*
X95380810Y-90375268D01*
X95201268Y-90554810D01*
X95060203Y-90765930D01*
X94963035Y-91000513D01*
X94913500Y-91249545D01*
X94913500Y-91503455D01*
X94963035Y-91752487D01*
X94966585Y-91761058D01*
X93829229Y-92898416D01*
X93806264Y-92917263D01*
X93787417Y-92940228D01*
X93787416Y-92940229D01*
X93731035Y-93008929D01*
X93679500Y-93105343D01*
X93679500Y-89694021D01*
X93682654Y-89661999D01*
X93670065Y-89534185D01*
X93632783Y-89411283D01*
X93572241Y-89298016D01*
X93490764Y-89198736D01*
X93465887Y-89178320D01*
X90085685Y-85798119D01*
X90125500Y-85597955D01*
X90125500Y-85344045D01*
X90075965Y-85095013D01*
X89978797Y-84860430D01*
X89837732Y-84649310D01*
X89658190Y-84469768D01*
X89447070Y-84328703D01*
X89212487Y-84231535D01*
X88963455Y-84182000D01*
X88709545Y-84182000D01*
X88460513Y-84231535D01*
X88225930Y-84328703D01*
X88014810Y-84469768D01*
X87835268Y-84649310D01*
X87694203Y-84860430D01*
X87623191Y-85031868D01*
X87564136Y-84867977D01*
X87502156Y-84752020D01*
X87262065Y-84685040D01*
X86476105Y-85471000D01*
X86116895Y-85471000D01*
X85330935Y-84685040D01*
X85090844Y-84752020D01*
X84973744Y-85001048D01*
X84967488Y-85026263D01*
X84898797Y-84860430D01*
X84757732Y-84649310D01*
X84613857Y-84505435D01*
X85510540Y-84505435D01*
X86296500Y-85291395D01*
X87082460Y-84505435D01*
X87015480Y-84265344D01*
X86766452Y-84148244D01*
X86499365Y-84081977D01*
X86224483Y-84069090D01*
X85952367Y-84110078D01*
X85693477Y-84203364D01*
X85577520Y-84265344D01*
X85510540Y-84505435D01*
X84613857Y-84505435D01*
X84578190Y-84469768D01*
X84367070Y-84328703D01*
X84132487Y-84231535D01*
X83883455Y-84182000D01*
X83629545Y-84182000D01*
X83380513Y-84231535D01*
X83145930Y-84328703D01*
X82934810Y-84469768D01*
X82755268Y-84649310D01*
X82614203Y-84860430D01*
X82517035Y-85095013D01*
X82486500Y-85248524D01*
X82455965Y-85095013D01*
X82358797Y-84860430D01*
X82217732Y-84649310D01*
X82038190Y-84469768D01*
X81827070Y-84328703D01*
X81592487Y-84231535D01*
X81343455Y-84182000D01*
X81089545Y-84182000D01*
X80840513Y-84231535D01*
X80605930Y-84328703D01*
X80394810Y-84469768D01*
X80215268Y-84649310D01*
X80074203Y-84860430D01*
X79977035Y-85095013D01*
X79927500Y-85344045D01*
X79123356Y-85344045D01*
X79123356Y-83828517D01*
X94800590Y-83828517D01*
X94841578Y-84100633D01*
X94934864Y-84359523D01*
X94996844Y-84475480D01*
X95236935Y-84542460D01*
X96022895Y-83756500D01*
X96382105Y-83756500D01*
X97168065Y-84542460D01*
X97408156Y-84475480D01*
X97525256Y-84226452D01*
X97591523Y-83959365D01*
X97604410Y-83684483D01*
X97563422Y-83412367D01*
X97470136Y-83153477D01*
X97408156Y-83037520D01*
X97168065Y-82970540D01*
X96382105Y-83756500D01*
X96022895Y-83756500D01*
X95236935Y-82970540D01*
X94996844Y-83037520D01*
X94879744Y-83286548D01*
X94813477Y-83553635D01*
X94800590Y-83828517D01*
X79123356Y-83828517D01*
X79123356Y-80788000D01*
X79242451Y-80788000D01*
X79242451Y-82788000D01*
X79252626Y-82891310D01*
X79282761Y-82990650D01*
X79331696Y-83082202D01*
X79397552Y-83162448D01*
X79477798Y-83228304D01*
X79569350Y-83277239D01*
X79668690Y-83307374D01*
X79772000Y-83317549D01*
X81772000Y-83317549D01*
X81875310Y-83307374D01*
X81974650Y-83277239D01*
X82066202Y-83228304D01*
X82146448Y-83162448D01*
X82212304Y-83082202D01*
X82261239Y-82990650D01*
X82291374Y-82891310D01*
X82301549Y-82788000D01*
X82301549Y-80788000D01*
X82291374Y-80684690D01*
X82261239Y-80585350D01*
X82212304Y-80493798D01*
X82146448Y-80413552D01*
X82066202Y-80347696D01*
X81974650Y-80298761D01*
X81875310Y-80268626D01*
X81772000Y-80258451D01*
X79772000Y-80258451D01*
X79668690Y-80268626D01*
X79569350Y-80298761D01*
X79477798Y-80347696D01*
X79397552Y-80413552D01*
X79331696Y-80493798D01*
X79282761Y-80585350D01*
X79252626Y-80684690D01*
X79242451Y-80788000D01*
X79123356Y-80788000D01*
X79123356Y-65701155D01*
X79180270Y-65838558D01*
X79533425Y-66367093D01*
X79982907Y-66816575D01*
X80511442Y-67169730D01*
X81098719Y-67412988D01*
X81722168Y-67537000D01*
X82357832Y-67537000D01*
X82981281Y-67412988D01*
X83568558Y-67169730D01*
X84097093Y-66816575D01*
X84546575Y-66367093D01*
X84899730Y-65838558D01*
X85142988Y-65251281D01*
X85244688Y-64740000D01*
X85540451Y-64740000D01*
X85540451Y-66440000D01*
X85550626Y-66543310D01*
X85580761Y-66642650D01*
X85629696Y-66734202D01*
X85695552Y-66814448D01*
X85775798Y-66880304D01*
X85867350Y-66929239D01*
X85966690Y-66959374D01*
X86070000Y-66969549D01*
X86330128Y-66969549D01*
X86375259Y-67053983D01*
X86456736Y-67153264D01*
X86481618Y-67173685D01*
X87373820Y-68065887D01*
X87394236Y-68090764D01*
X87493516Y-68172241D01*
X87606783Y-68232783D01*
X87729685Y-68270065D01*
X87857499Y-68282654D01*
X87889521Y-68279500D01*
X90054380Y-68279500D01*
X90103009Y-68328129D01*
X90250743Y-68426842D01*
X90414896Y-68494836D01*
X90589161Y-68529500D01*
X90766839Y-68529500D01*
X90941104Y-68494836D01*
X91105257Y-68426842D01*
X91252991Y-68328129D01*
X91348001Y-68233119D01*
X91348000Y-75648478D01*
X91344846Y-75680500D01*
X91348000Y-75712521D01*
X91357435Y-75808313D01*
X91394717Y-75931216D01*
X91455259Y-76044483D01*
X91536736Y-76143764D01*
X91561619Y-76164185D01*
X94512320Y-79114887D01*
X94532736Y-79139764D01*
X94632016Y-79221241D01*
X94745283Y-79281783D01*
X94806735Y-79300424D01*
X94868185Y-79319065D01*
X94996000Y-79331654D01*
X95028022Y-79328500D01*
X95087885Y-79328500D01*
X95201268Y-79498190D01*
X95380810Y-79677732D01*
X95591930Y-79818797D01*
X95826513Y-79915965D01*
X95980024Y-79946500D01*
X95826513Y-79977035D01*
X95591930Y-80074203D01*
X95380810Y-80215268D01*
X95201268Y-80394810D01*
X95060203Y-80605930D01*
X94963035Y-80840513D01*
X94913500Y-81089545D01*
X94913500Y-81343455D01*
X94963035Y-81592487D01*
X95060203Y-81827070D01*
X95201268Y-82038190D01*
X95380810Y-82217732D01*
X95591930Y-82358797D01*
X95763368Y-82429809D01*
X95599477Y-82488864D01*
X95483520Y-82550844D01*
X95416540Y-82790935D01*
X96202500Y-83576895D01*
X96988460Y-82790935D01*
X96921480Y-82550844D01*
X96672452Y-82433744D01*
X96647237Y-82427488D01*
X96813070Y-82358797D01*
X97024190Y-82217732D01*
X97203732Y-82038190D01*
X97344797Y-81827070D01*
X97441965Y-81592487D01*
X97491500Y-81343455D01*
X97491500Y-81089545D01*
X97441965Y-80840513D01*
X97344797Y-80605930D01*
X97203732Y-80394810D01*
X97024190Y-80215268D01*
X96813070Y-80074203D01*
X96578487Y-79977035D01*
X96424976Y-79946500D01*
X96578487Y-79915965D01*
X96813070Y-79818797D01*
X97024190Y-79677732D01*
X97203732Y-79498190D01*
X97317115Y-79328500D01*
X98392978Y-79328500D01*
X98425000Y-79331654D01*
X98457022Y-79328500D01*
X98552814Y-79319065D01*
X98675717Y-79281783D01*
X98788984Y-79221241D01*
X98888264Y-79139764D01*
X98908685Y-79114881D01*
X104616563Y-73407003D01*
X106978500Y-73407003D01*
X106978500Y-73785997D01*
X107052439Y-74157710D01*
X107197474Y-74507856D01*
X107408032Y-74822978D01*
X107676022Y-75090968D01*
X107991144Y-75301526D01*
X108341290Y-75446561D01*
X108713003Y-75520500D01*
X109091997Y-75520500D01*
X109463710Y-75446561D01*
X109813856Y-75301526D01*
X110128978Y-75090968D01*
X110396968Y-74822978D01*
X110607526Y-74507856D01*
X110752561Y-74157710D01*
X110826500Y-73785997D01*
X110826500Y-73407003D01*
X110752561Y-73035290D01*
X110607526Y-72685144D01*
X110396968Y-72370022D01*
X110128978Y-72102032D01*
X109813856Y-71891474D01*
X109463710Y-71746439D01*
X109091997Y-71672500D01*
X108713003Y-71672500D01*
X108341290Y-71746439D01*
X107991144Y-71891474D01*
X107676022Y-72102032D01*
X107408032Y-72370022D01*
X107197474Y-72685144D01*
X107052439Y-73035290D01*
X106978500Y-73407003D01*
X104616563Y-73407003D01*
X107267567Y-70756000D01*
X129650934Y-70756000D01*
X130771444Y-71876511D01*
X130771996Y-71877180D01*
X130788445Y-71893542D01*
X130826587Y-71933601D01*
X130833889Y-71938743D01*
X131074078Y-72177653D01*
X130994428Y-72193496D01*
X130752930Y-72293528D01*
X130535587Y-72438752D01*
X130350752Y-72623587D01*
X130205528Y-72840930D01*
X130105496Y-73082428D01*
X130054500Y-73338802D01*
X130054500Y-73600198D01*
X130099999Y-73828935D01*
X127260114Y-76668820D01*
X127235237Y-76689236D01*
X127153760Y-76788516D01*
X127121399Y-76849059D01*
X127093217Y-76901784D01*
X127055935Y-77024686D01*
X127043346Y-77152500D01*
X127046501Y-77184532D01*
X127046500Y-88058433D01*
X124731213Y-90373721D01*
X124771000Y-90173698D01*
X124771000Y-89912302D01*
X124720004Y-89655928D01*
X124619972Y-89414430D01*
X124474748Y-89197087D01*
X124289913Y-89012252D01*
X124072570Y-88867028D01*
X123979061Y-88828295D01*
X124057881Y-88800070D01*
X124299131Y-88655385D01*
X124507519Y-88466414D01*
X124675037Y-88240420D01*
X124795246Y-87986087D01*
X124835904Y-87852039D01*
X124713915Y-87630000D01*
X123571000Y-87630000D01*
X123571000Y-87650000D01*
X123317000Y-87650000D01*
X123317000Y-87630000D01*
X122174085Y-87630000D01*
X122052096Y-87852039D01*
X122092754Y-87986087D01*
X122212963Y-88240420D01*
X122380481Y-88466414D01*
X122588869Y-88655385D01*
X122830119Y-88800070D01*
X122908939Y-88828295D01*
X122815430Y-88867028D01*
X122598087Y-89012252D01*
X122413252Y-89197087D01*
X122268028Y-89414430D01*
X122167996Y-89655928D01*
X122117000Y-89912302D01*
X122117000Y-90173698D01*
X122167996Y-90430072D01*
X122268028Y-90671570D01*
X122413252Y-90888913D01*
X122598087Y-91073748D01*
X122815430Y-91218972D01*
X123042433Y-91313000D01*
X122815430Y-91407028D01*
X122598087Y-91552252D01*
X122413252Y-91737087D01*
X122268028Y-91954430D01*
X122167996Y-92195928D01*
X122117000Y-92452302D01*
X122117000Y-92713698D01*
X122167996Y-92970072D01*
X122268028Y-93211570D01*
X122413252Y-93428913D01*
X122598087Y-93613748D01*
X122815430Y-93758972D01*
X123042433Y-93853000D01*
X122815430Y-93947028D01*
X122598087Y-94092252D01*
X122413252Y-94277087D01*
X122268028Y-94494430D01*
X122167996Y-94735928D01*
X122117000Y-94992302D01*
X122117000Y-95253698D01*
X122167996Y-95510072D01*
X122268028Y-95751570D01*
X122413252Y-95968913D01*
X122598087Y-96153748D01*
X122815430Y-96298972D01*
X123056928Y-96399004D01*
X123313302Y-96450000D01*
X123574698Y-96450000D01*
X123831072Y-96399004D01*
X124072570Y-96298972D01*
X124289913Y-96153748D01*
X124474748Y-95968913D01*
X124619972Y-95751570D01*
X124720004Y-95510072D01*
X124771000Y-95253698D01*
X124771000Y-94992302D01*
X124720004Y-94735928D01*
X124619972Y-94494430D01*
X124505427Y-94323000D01*
X129734451Y-94323000D01*
X129734451Y-95923000D01*
X129744626Y-96026310D01*
X129774761Y-96125650D01*
X129823696Y-96217202D01*
X129889552Y-96297448D01*
X129969798Y-96363304D01*
X130061350Y-96412239D01*
X130160690Y-96442374D01*
X130264000Y-96452549D01*
X131864000Y-96452549D01*
X131967310Y-96442374D01*
X132066650Y-96412239D01*
X132158202Y-96363304D01*
X132238448Y-96297448D01*
X132304304Y-96217202D01*
X132353239Y-96125650D01*
X132383374Y-96026310D01*
X132393549Y-95923000D01*
X132393549Y-94323000D01*
X132383374Y-94219690D01*
X132353239Y-94120350D01*
X132304304Y-94028798D01*
X132238448Y-93948552D01*
X132158202Y-93882696D01*
X132066650Y-93833761D01*
X131967310Y-93803626D01*
X131864000Y-93793451D01*
X131609331Y-93793451D01*
X131692570Y-93758972D01*
X131909913Y-93613748D01*
X132094748Y-93428913D01*
X132239972Y-93211570D01*
X132340004Y-92970072D01*
X132391000Y-92713698D01*
X132391000Y-92452302D01*
X132340004Y-92195928D01*
X132239972Y-91954430D01*
X132094748Y-91737087D01*
X132027551Y-91669890D01*
X139274524Y-91669890D01*
X139319175Y-91817099D01*
X139444359Y-92079920D01*
X139618412Y-92313269D01*
X139803002Y-92479656D01*
X139762690Y-92483626D01*
X139663350Y-92513761D01*
X139571798Y-92562696D01*
X139491552Y-92628552D01*
X139425696Y-92708798D01*
X139376761Y-92800350D01*
X139346626Y-92899690D01*
X139336451Y-93003000D01*
X139336451Y-94703000D01*
X139346626Y-94806310D01*
X139376761Y-94905650D01*
X139425696Y-94997202D01*
X139491552Y-95077448D01*
X139571798Y-95143304D01*
X139663350Y-95192239D01*
X139762690Y-95222374D01*
X139866000Y-95232549D01*
X141566000Y-95232549D01*
X141669310Y-95222374D01*
X141768650Y-95192239D01*
X141860202Y-95143304D01*
X141940448Y-95077448D01*
X142006304Y-94997202D01*
X142055239Y-94905650D01*
X142085374Y-94806310D01*
X142095549Y-94703000D01*
X142095549Y-93003000D01*
X142085374Y-92899690D01*
X142055239Y-92800350D01*
X142006304Y-92708798D01*
X141940448Y-92628552D01*
X141860202Y-92562696D01*
X141768650Y-92513761D01*
X141669310Y-92483626D01*
X141628998Y-92479656D01*
X141813588Y-92313269D01*
X141987641Y-92079920D01*
X142112825Y-91817099D01*
X142157476Y-91669890D01*
X142036155Y-91440000D01*
X140843000Y-91440000D01*
X140843000Y-91460000D01*
X140589000Y-91460000D01*
X140589000Y-91440000D01*
X139395845Y-91440000D01*
X139274524Y-91669890D01*
X132027551Y-91669890D01*
X131909913Y-91552252D01*
X131692570Y-91407028D01*
X131465567Y-91313000D01*
X131692570Y-91218972D01*
X131909913Y-91073748D01*
X132027551Y-90956110D01*
X139274524Y-90956110D01*
X139395845Y-91186000D01*
X140589000Y-91186000D01*
X140589000Y-91166000D01*
X140843000Y-91166000D01*
X140843000Y-91186000D01*
X142036155Y-91186000D01*
X142157476Y-90956110D01*
X142112825Y-90808901D01*
X141987641Y-90546080D01*
X141813588Y-90312731D01*
X141597355Y-90117822D01*
X141377692Y-89986975D01*
X141593787Y-89842586D01*
X141785586Y-89650787D01*
X141936282Y-89425254D01*
X142040083Y-89174656D01*
X142093000Y-88908623D01*
X142093000Y-88637377D01*
X142040083Y-88371344D01*
X141936282Y-88120746D01*
X141785586Y-87895213D01*
X141593787Y-87703414D01*
X141368254Y-87552718D01*
X141117656Y-87448917D01*
X140851623Y-87396000D01*
X140580377Y-87396000D01*
X140314344Y-87448917D01*
X140063746Y-87552718D01*
X139838213Y-87703414D01*
X139646414Y-87895213D01*
X139495718Y-88120746D01*
X139391917Y-88371344D01*
X139339000Y-88637377D01*
X139339000Y-88908623D01*
X139391917Y-89174656D01*
X139495718Y-89425254D01*
X139646414Y-89650787D01*
X139838213Y-89842586D01*
X140054308Y-89986975D01*
X139834645Y-90117822D01*
X139618412Y-90312731D01*
X139444359Y-90546080D01*
X139319175Y-90808901D01*
X139274524Y-90956110D01*
X132027551Y-90956110D01*
X132094748Y-90888913D01*
X132239972Y-90671570D01*
X132340004Y-90430072D01*
X132391000Y-90173698D01*
X132391000Y-89912302D01*
X132340004Y-89655928D01*
X132239972Y-89414430D01*
X132094748Y-89197087D01*
X131909913Y-89012252D01*
X131692570Y-88867028D01*
X131465567Y-88773000D01*
X131692570Y-88678972D01*
X131909913Y-88533748D01*
X132094748Y-88348913D01*
X132239972Y-88131570D01*
X132340004Y-87890072D01*
X132391000Y-87633698D01*
X132391000Y-87372302D01*
X132340004Y-87115928D01*
X132239972Y-86874430D01*
X132094748Y-86657087D01*
X131909913Y-86472252D01*
X131692570Y-86327028D01*
X131451072Y-86226996D01*
X131194698Y-86176000D01*
X130933302Y-86176000D01*
X130676928Y-86226996D01*
X130435430Y-86327028D01*
X130218087Y-86472252D01*
X130033252Y-86657087D01*
X129888028Y-86874430D01*
X129787996Y-87115928D01*
X129737000Y-87372302D01*
X129737000Y-87633698D01*
X129787996Y-87890072D01*
X129888028Y-88131570D01*
X130033252Y-88348913D01*
X130218087Y-88533748D01*
X130435430Y-88678972D01*
X130662433Y-88773000D01*
X130435430Y-88867028D01*
X130218087Y-89012252D01*
X130033252Y-89197087D01*
X129888028Y-89414430D01*
X129787996Y-89655928D01*
X129737000Y-89912302D01*
X129737000Y-90173698D01*
X129787996Y-90430072D01*
X129888028Y-90671570D01*
X130033252Y-90888913D01*
X130218087Y-91073748D01*
X130435430Y-91218972D01*
X130662433Y-91313000D01*
X130435430Y-91407028D01*
X130218087Y-91552252D01*
X130033252Y-91737087D01*
X129888028Y-91954430D01*
X129787996Y-92195928D01*
X129737000Y-92452302D01*
X129737000Y-92713698D01*
X129787996Y-92970072D01*
X129888028Y-93211570D01*
X130033252Y-93428913D01*
X130218087Y-93613748D01*
X130435430Y-93758972D01*
X130518669Y-93793451D01*
X130264000Y-93793451D01*
X130160690Y-93803626D01*
X130061350Y-93833761D01*
X129969798Y-93882696D01*
X129889552Y-93948552D01*
X129823696Y-94028798D01*
X129774761Y-94120350D01*
X129744626Y-94219690D01*
X129734451Y-94323000D01*
X124505427Y-94323000D01*
X124474748Y-94277087D01*
X124289913Y-94092252D01*
X124072570Y-93947028D01*
X123845567Y-93853000D01*
X124072570Y-93758972D01*
X124289913Y-93613748D01*
X124474748Y-93428913D01*
X124619972Y-93211570D01*
X124720004Y-92970072D01*
X124771000Y-92713698D01*
X124771000Y-92452302D01*
X124725501Y-92223565D01*
X128136888Y-88812179D01*
X128161764Y-88791764D01*
X128243241Y-88692484D01*
X128303783Y-88579217D01*
X128338001Y-88466414D01*
X128341065Y-88456315D01*
X128353654Y-88328500D01*
X128350500Y-88296478D01*
X128350500Y-77422566D01*
X130094287Y-75678780D01*
X130054500Y-75878802D01*
X130054500Y-76140198D01*
X130105496Y-76396572D01*
X130205528Y-76638070D01*
X130350752Y-76855413D01*
X130535587Y-77040248D01*
X130752930Y-77185472D01*
X130979933Y-77279500D01*
X130752930Y-77373528D01*
X130535587Y-77518752D01*
X130350752Y-77703587D01*
X130205528Y-77920930D01*
X130105496Y-78162428D01*
X130054500Y-78418802D01*
X130054500Y-78680198D01*
X130105496Y-78936572D01*
X130205528Y-79178070D01*
X130350752Y-79395413D01*
X130535587Y-79580248D01*
X130752930Y-79725472D01*
X130979933Y-79819500D01*
X130752930Y-79913528D01*
X130535587Y-80058752D01*
X130350752Y-80243587D01*
X130205528Y-80460930D01*
X130105496Y-80702428D01*
X130054500Y-80958802D01*
X130054500Y-81220198D01*
X130105496Y-81476572D01*
X130205528Y-81718070D01*
X130350752Y-81935413D01*
X130535587Y-82120248D01*
X130752930Y-82265472D01*
X130994428Y-82365504D01*
X131250802Y-82416500D01*
X131512198Y-82416500D01*
X131768572Y-82365504D01*
X132010070Y-82265472D01*
X132227413Y-82120248D01*
X132412248Y-81935413D01*
X132557472Y-81718070D01*
X132657504Y-81476572D01*
X132708500Y-81220198D01*
X132708500Y-80958802D01*
X132657504Y-80702428D01*
X132557472Y-80460930D01*
X132412248Y-80243587D01*
X132227413Y-80058752D01*
X132010070Y-79913528D01*
X131783067Y-79819500D01*
X132010070Y-79725472D01*
X132227413Y-79580248D01*
X132266271Y-79541390D01*
X139401524Y-79541390D01*
X139446175Y-79688599D01*
X139571359Y-79951420D01*
X139745412Y-80184769D01*
X139961645Y-80379678D01*
X140211748Y-80528657D01*
X140486109Y-80625981D01*
X140716000Y-80505314D01*
X140716000Y-79311500D01*
X140970000Y-79311500D01*
X140970000Y-80505314D01*
X141199891Y-80625981D01*
X141474252Y-80528657D01*
X141724355Y-80379678D01*
X141940588Y-80184769D01*
X142114641Y-79951420D01*
X142239825Y-79688599D01*
X142284476Y-79541390D01*
X142163155Y-79311500D01*
X140970000Y-79311500D01*
X140716000Y-79311500D01*
X139522845Y-79311500D01*
X139401524Y-79541390D01*
X132266271Y-79541390D01*
X132412248Y-79395413D01*
X132557472Y-79178070D01*
X132657504Y-78936572D01*
X132708500Y-78680198D01*
X132708500Y-78418802D01*
X132657504Y-78162428D01*
X132557472Y-77920930D01*
X132412248Y-77703587D01*
X132227413Y-77518752D01*
X132010070Y-77373528D01*
X131783067Y-77279500D01*
X132010070Y-77185472D01*
X132227413Y-77040248D01*
X132412248Y-76855413D01*
X132557472Y-76638070D01*
X132657504Y-76396572D01*
X132708500Y-76140198D01*
X132708500Y-75878802D01*
X132657504Y-75622428D01*
X132557472Y-75380930D01*
X132412248Y-75163587D01*
X132227413Y-74978752D01*
X132010070Y-74833528D01*
X131783067Y-74739500D01*
X132010070Y-74645472D01*
X132227413Y-74500248D01*
X132412248Y-74315413D01*
X132557472Y-74098070D01*
X132657504Y-73856572D01*
X132674762Y-73769812D01*
X136006256Y-77083562D01*
X136026118Y-77107764D01*
X136051668Y-77128733D01*
X136052284Y-77129345D01*
X136076269Y-77148922D01*
X136125398Y-77189241D01*
X136126177Y-77189657D01*
X136126854Y-77190210D01*
X136182536Y-77219782D01*
X136238665Y-77249783D01*
X136239509Y-77250039D01*
X136240283Y-77250450D01*
X136300914Y-77268666D01*
X136361568Y-77287065D01*
X136362441Y-77287151D01*
X136363283Y-77287404D01*
X136426248Y-77293436D01*
X136457360Y-77296500D01*
X136458237Y-77296500D01*
X136491131Y-77299651D01*
X136522273Y-77296500D01*
X139622613Y-77296500D01*
X139622718Y-77296754D01*
X139773414Y-77522287D01*
X139965213Y-77714086D01*
X140181308Y-77858475D01*
X139961645Y-77989322D01*
X139745412Y-78184231D01*
X139571359Y-78417580D01*
X139446175Y-78680401D01*
X139401524Y-78827610D01*
X139522845Y-79057500D01*
X140716000Y-79057500D01*
X140716000Y-79037500D01*
X140970000Y-79037500D01*
X140970000Y-79057500D01*
X142163155Y-79057500D01*
X142284476Y-78827610D01*
X142239825Y-78680401D01*
X142114641Y-78417580D01*
X141940588Y-78184231D01*
X141724355Y-77989322D01*
X141504692Y-77858475D01*
X141720787Y-77714086D01*
X141912586Y-77522287D01*
X142063282Y-77296754D01*
X142167083Y-77046156D01*
X142220000Y-76780123D01*
X142220000Y-76508877D01*
X142167083Y-76242844D01*
X142063282Y-75992246D01*
X141912586Y-75766713D01*
X141720787Y-75574914D01*
X141495254Y-75424218D01*
X141375224Y-75374500D01*
X141495254Y-75324782D01*
X141720787Y-75174086D01*
X141912586Y-74982287D01*
X142063282Y-74756754D01*
X142167083Y-74506156D01*
X142220000Y-74240123D01*
X142220000Y-73968877D01*
X142167083Y-73702844D01*
X142063282Y-73452246D01*
X141912586Y-73226713D01*
X141720787Y-73034914D01*
X141584798Y-72944049D01*
X141693000Y-72944049D01*
X141796310Y-72933874D01*
X141895650Y-72903739D01*
X141987202Y-72854804D01*
X142067448Y-72788948D01*
X142133304Y-72708702D01*
X142182239Y-72617150D01*
X142212374Y-72517810D01*
X142222549Y-72414500D01*
X142222549Y-70714500D01*
X142212374Y-70611190D01*
X142182239Y-70511850D01*
X142133304Y-70420298D01*
X142067448Y-70340052D01*
X141987202Y-70274196D01*
X141895650Y-70225261D01*
X141796310Y-70195126D01*
X141693000Y-70184951D01*
X139993000Y-70184951D01*
X139889690Y-70195126D01*
X139790350Y-70225261D01*
X139698798Y-70274196D01*
X139618552Y-70340052D01*
X139552696Y-70420298D01*
X139503761Y-70511850D01*
X139473626Y-70611190D01*
X139463451Y-70714500D01*
X139463451Y-72414500D01*
X139473626Y-72517810D01*
X139503761Y-72617150D01*
X139552696Y-72708702D01*
X139618552Y-72788948D01*
X139698798Y-72854804D01*
X139790350Y-72903739D01*
X139889690Y-72933874D01*
X139993000Y-72944049D01*
X140101202Y-72944049D01*
X139965213Y-73034914D01*
X139773414Y-73226713D01*
X139622718Y-73452246D01*
X139622613Y-73452500D01*
X136223567Y-73452500D01*
X132436679Y-69665613D01*
X132436676Y-69665609D01*
X131013500Y-68242434D01*
X131013500Y-68173661D01*
X130978836Y-67999396D01*
X130910842Y-67835243D01*
X130812129Y-67687509D01*
X130686491Y-67561871D01*
X130538757Y-67463158D01*
X130374604Y-67395164D01*
X130200339Y-67360500D01*
X130022661Y-67360500D01*
X129848396Y-67395164D01*
X129684243Y-67463158D01*
X129536509Y-67561871D01*
X129410871Y-67687509D01*
X129312158Y-67835243D01*
X129244164Y-67999396D01*
X129209500Y-68173661D01*
X129209500Y-68351339D01*
X129244164Y-68525604D01*
X129312158Y-68689757D01*
X129410871Y-68837491D01*
X129536509Y-68963129D01*
X129684243Y-69061842D01*
X129848396Y-69129836D01*
X130022661Y-69164500D01*
X130091434Y-69164500D01*
X131514609Y-70587676D01*
X131514613Y-70587679D01*
X135469820Y-74542887D01*
X135490236Y-74567764D01*
X135589516Y-74649241D01*
X135702783Y-74709783D01*
X135764235Y-74728424D01*
X135825685Y-74747065D01*
X135953500Y-74759654D01*
X135985522Y-74756500D01*
X139622613Y-74756500D01*
X139622718Y-74756754D01*
X139773414Y-74982287D01*
X139965213Y-75174086D01*
X140190746Y-75324782D01*
X140310776Y-75374500D01*
X140190746Y-75424218D01*
X139965213Y-75574914D01*
X139773414Y-75766713D01*
X139622718Y-75992246D01*
X139622613Y-75992500D01*
X136758430Y-75992500D01*
X131743312Y-71004094D01*
X131649669Y-70884110D01*
X131583295Y-70814399D01*
X131482443Y-70743376D01*
X130404685Y-69665619D01*
X130384264Y-69640736D01*
X130284984Y-69559259D01*
X130171717Y-69498717D01*
X130048814Y-69461435D01*
X129953022Y-69452000D01*
X129921000Y-69448846D01*
X129888978Y-69452000D01*
X123343346Y-69452000D01*
X123358836Y-69414604D01*
X123393500Y-69240339D01*
X123393500Y-69062661D01*
X123358836Y-68888396D01*
X123290842Y-68724243D01*
X123192129Y-68576509D01*
X123132000Y-68516380D01*
X123132000Y-66810387D01*
X123132254Y-66810282D01*
X123357787Y-66659586D01*
X123549586Y-66467787D01*
X123700282Y-66242254D01*
X123750000Y-66122224D01*
X123799718Y-66242254D01*
X123950414Y-66467787D01*
X124142213Y-66659586D01*
X124367746Y-66810282D01*
X124618344Y-66914083D01*
X124884377Y-66967000D01*
X125155623Y-66967000D01*
X125421656Y-66914083D01*
X125672254Y-66810282D01*
X125897787Y-66659586D01*
X126089586Y-66467787D01*
X126240282Y-66242254D01*
X126290000Y-66122224D01*
X126339718Y-66242254D01*
X126490414Y-66467787D01*
X126682213Y-66659586D01*
X126907746Y-66810282D01*
X127158344Y-66914083D01*
X127424377Y-66967000D01*
X127695623Y-66967000D01*
X127961656Y-66914083D01*
X128212254Y-66810282D01*
X128437787Y-66659586D01*
X128629586Y-66467787D01*
X128780282Y-66242254D01*
X128830000Y-66122224D01*
X128879718Y-66242254D01*
X129030414Y-66467787D01*
X129222213Y-66659586D01*
X129447746Y-66810282D01*
X129698344Y-66914083D01*
X129964377Y-66967000D01*
X130235623Y-66967000D01*
X130501656Y-66914083D01*
X130752254Y-66810282D01*
X130977787Y-66659586D01*
X131169586Y-66467787D01*
X131320282Y-66242254D01*
X131370000Y-66122224D01*
X131419718Y-66242254D01*
X131570414Y-66467787D01*
X131762213Y-66659586D01*
X131987746Y-66810282D01*
X132238344Y-66914083D01*
X132504377Y-66967000D01*
X132775623Y-66967000D01*
X133041656Y-66914083D01*
X133292254Y-66810282D01*
X133517787Y-66659586D01*
X133709586Y-66467787D01*
X133853975Y-66251692D01*
X133984822Y-66471355D01*
X134179731Y-66687588D01*
X134413080Y-66861641D01*
X134675901Y-66986825D01*
X134823110Y-67031476D01*
X135053000Y-66910155D01*
X135053000Y-65717000D01*
X135307000Y-65717000D01*
X135307000Y-66910155D01*
X135536890Y-67031476D01*
X135684099Y-66986825D01*
X135946920Y-66861641D01*
X136180269Y-66687588D01*
X136375178Y-66471355D01*
X136524157Y-66221252D01*
X136621481Y-65946891D01*
X136500814Y-65717000D01*
X135307000Y-65717000D01*
X135053000Y-65717000D01*
X135033000Y-65717000D01*
X135033000Y-65463000D01*
X135053000Y-65463000D01*
X135053000Y-65443000D01*
X135307000Y-65443000D01*
X135307000Y-65463000D01*
X136500814Y-65463000D01*
X136621481Y-65233109D01*
X136524157Y-64958748D01*
X136375178Y-64708645D01*
X136180269Y-64492412D01*
X135946920Y-64318359D01*
X135837968Y-64266464D01*
X136057787Y-64119586D01*
X136249586Y-63927787D01*
X136400282Y-63702254D01*
X136504083Y-63451656D01*
X136557000Y-63185623D01*
X136557000Y-62914377D01*
X136504083Y-62648344D01*
X136400282Y-62397746D01*
X136249586Y-62172213D01*
X136057787Y-61980414D01*
X135832254Y-61829718D01*
X135581656Y-61725917D01*
X135315623Y-61673000D01*
X135044377Y-61673000D01*
X134778344Y-61725917D01*
X134527746Y-61829718D01*
X134302213Y-61980414D01*
X134110414Y-62172213D01*
X133959718Y-62397746D01*
X133910000Y-62517776D01*
X133860282Y-62397746D01*
X133709586Y-62172213D01*
X133517787Y-61980414D01*
X133292254Y-61829718D01*
X133041656Y-61725917D01*
X132775623Y-61673000D01*
X132504377Y-61673000D01*
X132238344Y-61725917D01*
X131987746Y-61829718D01*
X131762213Y-61980414D01*
X131570414Y-62172213D01*
X131419718Y-62397746D01*
X131370000Y-62517776D01*
X131320282Y-62397746D01*
X131169586Y-62172213D01*
X130977787Y-61980414D01*
X130752254Y-61829718D01*
X130501656Y-61725917D01*
X130235623Y-61673000D01*
X129964377Y-61673000D01*
X129698344Y-61725917D01*
X129447746Y-61829718D01*
X129222213Y-61980414D01*
X129030414Y-62172213D01*
X128886025Y-62388308D01*
X128755178Y-62168645D01*
X128560269Y-61952412D01*
X128326920Y-61778359D01*
X128064099Y-61653175D01*
X127916890Y-61608524D01*
X127687000Y-61729845D01*
X127687000Y-62923000D01*
X127707000Y-62923000D01*
X127707000Y-63177000D01*
X127687000Y-63177000D01*
X127687000Y-63197000D01*
X127433000Y-63197000D01*
X127433000Y-63177000D01*
X127413000Y-63177000D01*
X127413000Y-62923000D01*
X127433000Y-62923000D01*
X127433000Y-61729845D01*
X127203110Y-61608524D01*
X127055901Y-61653175D01*
X126793080Y-61778359D01*
X126559731Y-61952412D01*
X126364822Y-62168645D01*
X126233975Y-62388308D01*
X126089586Y-62172213D01*
X125897787Y-61980414D01*
X125672254Y-61829718D01*
X125421656Y-61725917D01*
X125155623Y-61673000D01*
X124884377Y-61673000D01*
X124618344Y-61725917D01*
X124367746Y-61829718D01*
X124142213Y-61980414D01*
X123950414Y-62172213D01*
X123806025Y-62388308D01*
X123675178Y-62168645D01*
X123480269Y-61952412D01*
X123246920Y-61778359D01*
X122984099Y-61653175D01*
X122836890Y-61608524D01*
X122607000Y-61729845D01*
X122607000Y-62923000D01*
X122627000Y-62923000D01*
X122627000Y-63177000D01*
X122607000Y-63177000D01*
X122607000Y-63197000D01*
X122353000Y-63197000D01*
X122353000Y-63177000D01*
X122333000Y-63177000D01*
X122333000Y-62923000D01*
X122353000Y-62923000D01*
X122353000Y-61729845D01*
X122123110Y-61608524D01*
X121975901Y-61653175D01*
X121713080Y-61778359D01*
X121479731Y-61952412D01*
X121284822Y-62168645D01*
X121153975Y-62388308D01*
X121009586Y-62172213D01*
X120817787Y-61980414D01*
X120592254Y-61829718D01*
X120341656Y-61725917D01*
X120075623Y-61673000D01*
X119804377Y-61673000D01*
X119538344Y-61725917D01*
X119287746Y-61829718D01*
X119062213Y-61980414D01*
X118870414Y-62172213D01*
X118719718Y-62397746D01*
X118670000Y-62517776D01*
X118620282Y-62397746D01*
X118469586Y-62172213D01*
X118277787Y-61980414D01*
X118052254Y-61829718D01*
X117801656Y-61725917D01*
X117535623Y-61673000D01*
X117264377Y-61673000D01*
X116998344Y-61725917D01*
X116747746Y-61829718D01*
X116522213Y-61980414D01*
X116330414Y-62172213D01*
X116179718Y-62397746D01*
X116130000Y-62517776D01*
X116080282Y-62397746D01*
X115929586Y-62172213D01*
X115737787Y-61980414D01*
X115512254Y-61829718D01*
X115261656Y-61725917D01*
X114995623Y-61673000D01*
X114724377Y-61673000D01*
X114458344Y-61725917D01*
X114207746Y-61829718D01*
X113982213Y-61980414D01*
X113790414Y-62172213D01*
X113639718Y-62397746D01*
X113590000Y-62517776D01*
X113540282Y-62397746D01*
X113389586Y-62172213D01*
X113197787Y-61980414D01*
X112972254Y-61829718D01*
X112721656Y-61725917D01*
X112455623Y-61673000D01*
X112184377Y-61673000D01*
X111918344Y-61725917D01*
X111667746Y-61829718D01*
X111442213Y-61980414D01*
X111250414Y-62172213D01*
X111106025Y-62388308D01*
X110975178Y-62168645D01*
X110780269Y-61952412D01*
X110546920Y-61778359D01*
X110284099Y-61653175D01*
X110136890Y-61608524D01*
X109907000Y-61729845D01*
X109907000Y-62923000D01*
X109927000Y-62923000D01*
X109927000Y-63177000D01*
X109907000Y-63177000D01*
X109907000Y-63197000D01*
X109653000Y-63197000D01*
X109653000Y-63177000D01*
X109633000Y-63177000D01*
X109633000Y-62923000D01*
X109653000Y-62923000D01*
X109653000Y-61729845D01*
X109423110Y-61608524D01*
X109275901Y-61653175D01*
X109013080Y-61778359D01*
X108779731Y-61952412D01*
X108584822Y-62168645D01*
X108453975Y-62388308D01*
X108309586Y-62172213D01*
X108117787Y-61980414D01*
X107892254Y-61829718D01*
X107641656Y-61725917D01*
X107375623Y-61673000D01*
X107104377Y-61673000D01*
X106838344Y-61725917D01*
X106587746Y-61829718D01*
X106362213Y-61980414D01*
X106170414Y-62172213D01*
X106019718Y-62397746D01*
X105970000Y-62517776D01*
X105920282Y-62397746D01*
X105769586Y-62172213D01*
X105577787Y-61980414D01*
X105352254Y-61829718D01*
X105101656Y-61725917D01*
X104835623Y-61673000D01*
X104564377Y-61673000D01*
X104298344Y-61725917D01*
X104047746Y-61829718D01*
X103822213Y-61980414D01*
X103630414Y-62172213D01*
X103486025Y-62388308D01*
X103355178Y-62168645D01*
X103160269Y-61952412D01*
X102926920Y-61778359D01*
X102664099Y-61653175D01*
X102516890Y-61608524D01*
X102287000Y-61729845D01*
X102287000Y-62923000D01*
X102307000Y-62923000D01*
X102307000Y-63177000D01*
X102287000Y-63177000D01*
X102287000Y-63197000D01*
X102033000Y-63197000D01*
X102033000Y-63177000D01*
X102013000Y-63177000D01*
X102013000Y-62923000D01*
X102033000Y-62923000D01*
X102033000Y-61729845D01*
X101803110Y-61608524D01*
X101655901Y-61653175D01*
X101393080Y-61778359D01*
X101159731Y-61952412D01*
X100964822Y-62168645D01*
X100833975Y-62388308D01*
X100689586Y-62172213D01*
X100497787Y-61980414D01*
X100272254Y-61829718D01*
X100021656Y-61725917D01*
X99755623Y-61673000D01*
X99484377Y-61673000D01*
X99218344Y-61725917D01*
X98967746Y-61829718D01*
X98742213Y-61980414D01*
X98550414Y-62172213D01*
X98399718Y-62397746D01*
X98350000Y-62517776D01*
X98300282Y-62397746D01*
X98149586Y-62172213D01*
X97957787Y-61980414D01*
X97732254Y-61829718D01*
X97481656Y-61725917D01*
X97215623Y-61673000D01*
X96944377Y-61673000D01*
X96678344Y-61725917D01*
X96427746Y-61829718D01*
X96202213Y-61980414D01*
X96010414Y-62172213D01*
X95859718Y-62397746D01*
X95810000Y-62517776D01*
X95760282Y-62397746D01*
X95609586Y-62172213D01*
X95417787Y-61980414D01*
X95192254Y-61829718D01*
X94941656Y-61725917D01*
X94675623Y-61673000D01*
X94404377Y-61673000D01*
X94138344Y-61725917D01*
X93887746Y-61829718D01*
X93662213Y-61980414D01*
X93470414Y-62172213D01*
X93326025Y-62388308D01*
X93195178Y-62168645D01*
X93000269Y-61952412D01*
X92766920Y-61778359D01*
X92504099Y-61653175D01*
X92356890Y-61608524D01*
X92127000Y-61729845D01*
X92127000Y-62923000D01*
X92147000Y-62923000D01*
X92147000Y-63177000D01*
X92127000Y-63177000D01*
X92127000Y-63197000D01*
X91873000Y-63197000D01*
X91873000Y-63177000D01*
X91853000Y-63177000D01*
X91853000Y-62923000D01*
X91873000Y-62923000D01*
X91873000Y-61729845D01*
X91643110Y-61608524D01*
X91495901Y-61653175D01*
X91233080Y-61778359D01*
X90999731Y-61952412D01*
X90804822Y-62168645D01*
X90673975Y-62388308D01*
X90529586Y-62172213D01*
X90337787Y-61980414D01*
X90112254Y-61829718D01*
X89861656Y-61725917D01*
X89595623Y-61673000D01*
X89324377Y-61673000D01*
X89058344Y-61725917D01*
X88807746Y-61829718D01*
X88582213Y-61980414D01*
X88390414Y-62172213D01*
X88239718Y-62397746D01*
X88190000Y-62517776D01*
X88140282Y-62397746D01*
X87989586Y-62172213D01*
X87797787Y-61980414D01*
X87572254Y-61829718D01*
X87321656Y-61725917D01*
X87055623Y-61673000D01*
X86784377Y-61673000D01*
X86518344Y-61725917D01*
X86267746Y-61829718D01*
X86042213Y-61980414D01*
X85850414Y-62172213D01*
X85699718Y-62397746D01*
X85595917Y-62648344D01*
X85543000Y-62914377D01*
X85543000Y-63185623D01*
X85595917Y-63451656D01*
X85699718Y-63702254D01*
X85850414Y-63927787D01*
X86042213Y-64119586D01*
X86178202Y-64210451D01*
X86070000Y-64210451D01*
X85966690Y-64220626D01*
X85867350Y-64250761D01*
X85775798Y-64299696D01*
X85695552Y-64365552D01*
X85629696Y-64445798D01*
X85580761Y-64537350D01*
X85550626Y-64636690D01*
X85540451Y-64740000D01*
X85244688Y-64740000D01*
X85267000Y-64627832D01*
X85267000Y-63992168D01*
X85142988Y-63368719D01*
X84899730Y-62781442D01*
X84546575Y-62252907D01*
X84097093Y-61803425D01*
X83568558Y-61450270D01*
X83434185Y-61394611D01*
X138694099Y-61394611D01*
X138511442Y-61470270D01*
G37*
X138511442Y-61470270D02*
X137982907Y-61823425D01*
X137533425Y-62272907D01*
X137180270Y-62801442D01*
X136937012Y-63388719D01*
X136813000Y-64012168D01*
X136813000Y-64647832D01*
X136937012Y-65271281D01*
X137180270Y-65858558D01*
X137533425Y-66387093D01*
X137982907Y-66836575D01*
X138511442Y-67189730D01*
X139098719Y-67432988D01*
X139722168Y-67557000D01*
X140357832Y-67557000D01*
X140981281Y-67432988D01*
X141568558Y-67189730D01*
X142097093Y-66836575D01*
X142546575Y-66387093D01*
X142899730Y-65858558D01*
X142969357Y-65690464D01*
X142969351Y-111973665D01*
X142889730Y-111781442D01*
X142536575Y-111252907D01*
X142087093Y-110803425D01*
X141558558Y-110450270D01*
X140971281Y-110207012D01*
X140347832Y-110083000D01*
X139712168Y-110083000D01*
X139088719Y-110207012D01*
X138501442Y-110450270D01*
X137972907Y-110803425D01*
X137523425Y-111252907D01*
X137170270Y-111781442D01*
X136927012Y-112368719D01*
X136803000Y-112992168D01*
X136803000Y-113627832D01*
X136927012Y-114251281D01*
X137170270Y-114838558D01*
X137523425Y-115367093D01*
X137972907Y-115816575D01*
X138501442Y-116169730D01*
X138672564Y-116240611D01*
X83421578Y-116240611D01*
X83568558Y-116179730D01*
X84097093Y-115826575D01*
X84546575Y-115377093D01*
X84899730Y-114848558D01*
X85142988Y-114261281D01*
X85267000Y-113637832D01*
X85267000Y-113002168D01*
X85250457Y-112919000D01*
X87497451Y-112919000D01*
X87497451Y-114919000D01*
X87507626Y-115022310D01*
X87537761Y-115121650D01*
X87586696Y-115213202D01*
X87652552Y-115293448D01*
X87732798Y-115359304D01*
X87824350Y-115408239D01*
X87923690Y-115438374D01*
X88027000Y-115448549D01*
X90027000Y-115448549D01*
X90130310Y-115438374D01*
X90229650Y-115408239D01*
X90321202Y-115359304D01*
X90401448Y-115293448D01*
X90467304Y-115213202D01*
X90516239Y-115121650D01*
X90546374Y-115022310D01*
X90556549Y-114919000D01*
X90556549Y-112919000D01*
X90546374Y-112815690D01*
X90516239Y-112716350D01*
X90467304Y-112624798D01*
X90401448Y-112544552D01*
X90321202Y-112478696D01*
X90229650Y-112429761D01*
X90130310Y-112399626D01*
X90027000Y-112389451D01*
X88027000Y-112389451D01*
X87923690Y-112399626D01*
X87824350Y-112429761D01*
X87732798Y-112478696D01*
X87652552Y-112544552D01*
X87586696Y-112624798D01*
X87537761Y-112716350D01*
X87507626Y-112815690D01*
X87497451Y-112919000D01*
X85250457Y-112919000D01*
X85142988Y-112378719D01*
X84899730Y-111791442D01*
X84546575Y-111262907D01*
X84097093Y-110813425D01*
X83568558Y-110460270D01*
X82981281Y-110217012D01*
X82357832Y-110093000D01*
X81722168Y-110093000D01*
X81098719Y-110217012D01*
X80511442Y-110460270D01*
X79982907Y-110813425D01*
X79533425Y-111262907D01*
X79180270Y-111791442D01*
X79123356Y-111928845D01*
X79123356Y-108276017D01*
X91625590Y-108276017D01*
X91666578Y-108548133D01*
X91759864Y-108807023D01*
X91821844Y-108922980D01*
X92061935Y-108989960D01*
X92847895Y-108204000D01*
X92061935Y-107418040D01*
X91821844Y-107485020D01*
X91704744Y-107734048D01*
X91638477Y-108001135D01*
X91625590Y-108276017D01*
X79123356Y-108276017D01*
X79123356Y-104854500D01*
X79242451Y-104854500D01*
X79242451Y-106854500D01*
X79252626Y-106957810D01*
X79282761Y-107057150D01*
X79331696Y-107148702D01*
X79397552Y-107228948D01*
X79477798Y-107294804D01*
X79569350Y-107343739D01*
X79668690Y-107373874D01*
X79772000Y-107384049D01*
X81772000Y-107384049D01*
X81875310Y-107373874D01*
X81974650Y-107343739D01*
X82066202Y-107294804D01*
X82146448Y-107228948D01*
X82212304Y-107148702D01*
X82261239Y-107057150D01*
X82291374Y-106957810D01*
X82301549Y-106854500D01*
X82301549Y-104854500D01*
X82291374Y-104751190D01*
X82261239Y-104651850D01*
X82212304Y-104560298D01*
X82146448Y-104480052D01*
X82066202Y-104414196D01*
X81974650Y-104365261D01*
X81875310Y-104335126D01*
X81772000Y-104324951D01*
X79772000Y-104324951D01*
X79668690Y-104335126D01*
X79569350Y-104365261D01*
X79477798Y-104414196D01*
X79397552Y-104480052D01*
X79331696Y-104560298D01*
X79282761Y-104651850D01*
X79252626Y-104751190D01*
X79242451Y-104854500D01*
X79123356Y-104854500D01*
X79123356Y-85344045D01*
X79927500Y-85344045D01*
X79927500Y-85597955D01*
X79977035Y-85846987D01*
X80074203Y-86081570D01*
X80215268Y-86292690D01*
X80394810Y-86472232D01*
X80605930Y-86613297D01*
X80840513Y-86710465D01*
X81089545Y-86760000D01*
X81343455Y-86760000D01*
X81592487Y-86710465D01*
X81827070Y-86613297D01*
X82038190Y-86472232D01*
X82217732Y-86292690D01*
X82358797Y-86081570D01*
X82455965Y-85846987D01*
X82486500Y-85693476D01*
X82517035Y-85846987D01*
X82614203Y-86081570D01*
X82755268Y-86292690D01*
X82934810Y-86472232D01*
X83145930Y-86613297D01*
X83380513Y-86710465D01*
X83629545Y-86760000D01*
X83883455Y-86760000D01*
X84132487Y-86710465D01*
X84367070Y-86613297D01*
X84578190Y-86472232D01*
X84613857Y-86436565D01*
X85510540Y-86436565D01*
X85577520Y-86676656D01*
X85826548Y-86793756D01*
X86093635Y-86860023D01*
X86368517Y-86872910D01*
X86640633Y-86831922D01*
X86899523Y-86738636D01*
X87015480Y-86676656D01*
X87082460Y-86436565D01*
X86296500Y-85650605D01*
X85510540Y-86436565D01*
X84613857Y-86436565D01*
X84757732Y-86292690D01*
X84898797Y-86081570D01*
X84969809Y-85910132D01*
X85028864Y-86074023D01*
X85090844Y-86189980D01*
X85330935Y-86256960D01*
X86116895Y-85471000D01*
X86476105Y-85471000D01*
X87262065Y-86256960D01*
X87502156Y-86189980D01*
X87619256Y-85940952D01*
X87625512Y-85915737D01*
X87694203Y-86081570D01*
X87835268Y-86292690D01*
X88014810Y-86472232D01*
X88225930Y-86613297D01*
X88460513Y-86710465D01*
X88709545Y-86760000D01*
X88963455Y-86760000D01*
X89163619Y-86720185D01*
X92375501Y-89932068D01*
X92375500Y-104549385D01*
X92205810Y-104662768D01*
X92026268Y-104842310D01*
X91885203Y-105053430D01*
X91788035Y-105288013D01*
X91738500Y-105537045D01*
X91738500Y-105790955D01*
X91788035Y-106039987D01*
X91885203Y-106274570D01*
X92026268Y-106485690D01*
X92205810Y-106665232D01*
X92416930Y-106806297D01*
X92588368Y-106877309D01*
X92424477Y-106936364D01*
X92308520Y-106998344D01*
X92241540Y-107238435D01*
X93027500Y-108024395D01*
X93813460Y-107238435D01*
X93746480Y-106998344D01*
X93497452Y-106881244D01*
X93472237Y-106874988D01*
X93638070Y-106806297D01*
X93849190Y-106665232D01*
X94028732Y-106485690D01*
X94169797Y-106274570D01*
X94266965Y-106039987D01*
X94316500Y-105790955D01*
X94316500Y-105537045D01*
X94266965Y-105288013D01*
X94169797Y-105053430D01*
X94028732Y-104842310D01*
X93849190Y-104662768D01*
X93679500Y-104549385D01*
X93679500Y-99913723D01*
X93689260Y-99931983D01*
X93750324Y-100006390D01*
X95487001Y-101743068D01*
X95487000Y-107362432D01*
X94407929Y-108441504D01*
X94416523Y-108406865D01*
X94429410Y-108131983D01*
X94388422Y-107859867D01*
X94295136Y-107600977D01*
X94233156Y-107485020D01*
X93993065Y-107418040D01*
X93207105Y-108204000D01*
X93221248Y-108218143D01*
X93041643Y-108397748D01*
X93027500Y-108383605D01*
X92241540Y-109169565D01*
X92308520Y-109409656D01*
X92557548Y-109526756D01*
X92582763Y-109533012D01*
X92416930Y-109601703D01*
X92205810Y-109742768D01*
X92026268Y-109922310D01*
X91885203Y-110133430D01*
X91788035Y-110368013D01*
X91738500Y-110617045D01*
X91738500Y-110870955D01*
X91788035Y-111119987D01*
X91885203Y-111354570D01*
X92026268Y-111565690D01*
X92205810Y-111745232D01*
X92416930Y-111886297D01*
X92651513Y-111983465D01*
X92805024Y-112014000D01*
X92651513Y-112044535D01*
X92416930Y-112141703D01*
X92205810Y-112282768D01*
X92026268Y-112462310D01*
X91885203Y-112673430D01*
X91788035Y-112908013D01*
X91738500Y-113157045D01*
X91738500Y-113410955D01*
X91788035Y-113659987D01*
X91885203Y-113894570D01*
X92026268Y-114105690D01*
X92205810Y-114285232D01*
X92416930Y-114426297D01*
X92651513Y-114523465D01*
X92900545Y-114573000D01*
X93154455Y-114573000D01*
X93403487Y-114523465D01*
X93638070Y-114426297D01*
X93849190Y-114285232D01*
X94028732Y-114105690D01*
X94169797Y-113894570D01*
X94266965Y-113659987D01*
X94316500Y-113410955D01*
X94316500Y-113173000D01*
X111500451Y-113173000D01*
X111500451Y-115173000D01*
X111510626Y-115276310D01*
X111540761Y-115375650D01*
X111589696Y-115467202D01*
X111655552Y-115547448D01*
X111735798Y-115613304D01*
X111827350Y-115662239D01*
X111926690Y-115692374D01*
X112030000Y-115702549D01*
X114030000Y-115702549D01*
X114133310Y-115692374D01*
X114232650Y-115662239D01*
X114324202Y-115613304D01*
X114404448Y-115547448D01*
X114470304Y-115467202D01*
X114519239Y-115375650D01*
X114549374Y-115276310D01*
X114559549Y-115173000D01*
X114559549Y-113173000D01*
X114549374Y-113069690D01*
X114519239Y-112970350D01*
X114470304Y-112878798D01*
X114404448Y-112798552D01*
X114324202Y-112732696D01*
X114232650Y-112683761D01*
X114133310Y-112653626D01*
X114030000Y-112643451D01*
X112030000Y-112643451D01*
X111926690Y-112653626D01*
X111827350Y-112683761D01*
X111735798Y-112732696D01*
X111655552Y-112798552D01*
X111589696Y-112878798D01*
X111540761Y-112970350D01*
X111510626Y-113069690D01*
X111500451Y-113173000D01*
X94316500Y-113173000D01*
X94316500Y-113157045D01*
X94266965Y-112908013D01*
X94169797Y-112673430D01*
X94028732Y-112462310D01*
X93849190Y-112282768D01*
X93638070Y-112141703D01*
X93403487Y-112044535D01*
X93249976Y-112014000D01*
X93403487Y-111983465D01*
X93638070Y-111886297D01*
X93849190Y-111745232D01*
X94028732Y-111565690D01*
X94169797Y-111354570D01*
X94266965Y-111119987D01*
X94316500Y-110870955D01*
X94316500Y-110617045D01*
X94276685Y-110416881D01*
X96577393Y-108116175D01*
X96602264Y-108095764D01*
X96683741Y-107996484D01*
X96744283Y-107883217D01*
X96781565Y-107760314D01*
X96791000Y-107664522D01*
X96791000Y-107664515D01*
X96794153Y-107632501D01*
X96791000Y-107600486D01*
X96791000Y-101505022D01*
X96794154Y-101473000D01*
X96781565Y-101345185D01*
X96744283Y-101222284D01*
X96744283Y-101222283D01*
X96683741Y-101109016D01*
X96602264Y-101009736D01*
X96577387Y-100989320D01*
X94836000Y-99247934D01*
X94836000Y-93594355D01*
X95014790Y-93415565D01*
X94963035Y-93540513D01*
X94913500Y-93789545D01*
X94913500Y-94043455D01*
X94963035Y-94292487D01*
X95060203Y-94527070D01*
X95201268Y-94738190D01*
X95380810Y-94917732D01*
X95591930Y-95058797D01*
X95826513Y-95155965D01*
X95980024Y-95186500D01*
X95826513Y-95217035D01*
X95591930Y-95314203D01*
X95380810Y-95455268D01*
X95201268Y-95634810D01*
X95060203Y-95845930D01*
X94963035Y-96080513D01*
X94913500Y-96329545D01*
X94913500Y-96583455D01*
X94963035Y-96832487D01*
X95060203Y-97067070D01*
X95201268Y-97278190D01*
X95380810Y-97457732D01*
X95591930Y-97598797D01*
X95826513Y-97695965D01*
X96075545Y-97745500D01*
X96329455Y-97745500D01*
X96578487Y-97695965D01*
X96813070Y-97598797D01*
X97024190Y-97457732D01*
X97203732Y-97278190D01*
X97344797Y-97067070D01*
X97441965Y-96832487D01*
X97491500Y-96583455D01*
X97491500Y-96329545D01*
X97441965Y-96080513D01*
X97344797Y-95845930D01*
X97203732Y-95634810D01*
X97024190Y-95455268D01*
X96813070Y-95314203D01*
X96578487Y-95217035D01*
X96424976Y-95186500D01*
X96578487Y-95155965D01*
X96813070Y-95058797D01*
X97024190Y-94917732D01*
X97203732Y-94738190D01*
X97344797Y-94527070D01*
X97441965Y-94292487D01*
X97491500Y-94043455D01*
X97491500Y-93789545D01*
X97441965Y-93540513D01*
X97344797Y-93305930D01*
X97203732Y-93094810D01*
X97024190Y-92915268D01*
X96813070Y-92774203D01*
X96578487Y-92677035D01*
X96424976Y-92646500D01*
X96578487Y-92615965D01*
X96813070Y-92518797D01*
X97024190Y-92377732D01*
X97203732Y-92198190D01*
X97344797Y-91987070D01*
X97441965Y-91752487D01*
X97491500Y-91503455D01*
X97491500Y-91249545D01*
X97441965Y-91000513D01*
X97390210Y-90875566D01*
X98458001Y-91943358D01*
X98458000Y-93378943D01*
X98455089Y-93408500D01*
X98458000Y-93438056D01*
X98458000Y-93438065D01*
X98466711Y-93526511D01*
X98501134Y-93639989D01*
X98557034Y-93744570D01*
X98632263Y-93836237D01*
X98655234Y-93855089D01*
X115159585Y-110359442D01*
X115156035Y-110368013D01*
X115106500Y-110617045D01*
X115106500Y-110870955D01*
X115156035Y-111119987D01*
X115253203Y-111354570D01*
X115394268Y-111565690D01*
X115573810Y-111745232D01*
X115784930Y-111886297D01*
X116019513Y-111983465D01*
X116173024Y-112014000D01*
X116019513Y-112044535D01*
X115784930Y-112141703D01*
X115573810Y-112282768D01*
X115394268Y-112462310D01*
X115253203Y-112673430D01*
X115156035Y-112908013D01*
X115106500Y-113157045D01*
X115106500Y-113410955D01*
X115156035Y-113659987D01*
X115253203Y-113894570D01*
X115394268Y-114105690D01*
X115573810Y-114285232D01*
X115784930Y-114426297D01*
X116019513Y-114523465D01*
X116268545Y-114573000D01*
X116522455Y-114573000D01*
X116771487Y-114523465D01*
X117006070Y-114426297D01*
X117217190Y-114285232D01*
X117396732Y-114105690D01*
X117537797Y-113894570D01*
X117634965Y-113659987D01*
X117684500Y-113410955D01*
X117684500Y-113157045D01*
X117634965Y-112908013D01*
X117537797Y-112673430D01*
X117396732Y-112462310D01*
X117217190Y-112282768D01*
X117006070Y-112141703D01*
X116771487Y-112044535D01*
X116617976Y-112014000D01*
X116771487Y-111983465D01*
X117006070Y-111886297D01*
X117217190Y-111745232D01*
X117396732Y-111565690D01*
X117537797Y-111354570D01*
X117634965Y-111119987D01*
X117684500Y-110870955D01*
X117684500Y-110617045D01*
X117634965Y-110368013D01*
X117537797Y-110133430D01*
X117396732Y-109922310D01*
X117217190Y-109742768D01*
X117006070Y-109601703D01*
X116834632Y-109530691D01*
X116998523Y-109471636D01*
X117114480Y-109409656D01*
X117181460Y-109169565D01*
X116395500Y-108383605D01*
X116381358Y-108397748D01*
X116201753Y-108218143D01*
X116215895Y-108204000D01*
X116575105Y-108204000D01*
X117361065Y-108989960D01*
X117601156Y-108922980D01*
X117718256Y-108673952D01*
X117784523Y-108406865D01*
X117797410Y-108131983D01*
X117756422Y-107859867D01*
X117663136Y-107600977D01*
X117601156Y-107485020D01*
X117361065Y-107418040D01*
X116575105Y-108204000D01*
X116215895Y-108204000D01*
X115429935Y-107418040D01*
X115189844Y-107485020D01*
X115072744Y-107734048D01*
X115006477Y-108001135D01*
X114993590Y-108276017D01*
X115031668Y-108528811D01*
X112039902Y-105537045D01*
X115106500Y-105537045D01*
X115106500Y-105790955D01*
X115156035Y-106039987D01*
X115253203Y-106274570D01*
X115394268Y-106485690D01*
X115573810Y-106665232D01*
X115784930Y-106806297D01*
X115956368Y-106877309D01*
X115792477Y-106936364D01*
X115676520Y-106998344D01*
X115609540Y-107238435D01*
X116395500Y-108024395D01*
X117181460Y-107238435D01*
X117114480Y-106998344D01*
X116865452Y-106881244D01*
X116840237Y-106874988D01*
X117006070Y-106806297D01*
X117217190Y-106665232D01*
X117396732Y-106485690D01*
X117537797Y-106274570D01*
X117634965Y-106039987D01*
X117684500Y-105790955D01*
X117684500Y-105537045D01*
X117634965Y-105288013D01*
X117537797Y-105053430D01*
X117396732Y-104842310D01*
X117217190Y-104662768D01*
X117006070Y-104521703D01*
X116771487Y-104424535D01*
X116522455Y-104375000D01*
X116268545Y-104375000D01*
X116019513Y-104424535D01*
X115784930Y-104521703D01*
X115573810Y-104662768D01*
X115394268Y-104842310D01*
X115253203Y-105053430D01*
X115156035Y-105288013D01*
X115106500Y-105537045D01*
X112039902Y-105537045D01*
X105749659Y-99246802D01*
X120910500Y-99246802D01*
X120910500Y-99508198D01*
X120961496Y-99764572D01*
X121061528Y-100006070D01*
X121206752Y-100223413D01*
X121391587Y-100408248D01*
X121608930Y-100553472D01*
X121850428Y-100653504D01*
X122106802Y-100704500D01*
X122368198Y-100704500D01*
X122624572Y-100653504D01*
X122866070Y-100553472D01*
X123083413Y-100408248D01*
X123268248Y-100223413D01*
X123413472Y-100006070D01*
X123513504Y-99764572D01*
X123564500Y-99508198D01*
X123564500Y-99246802D01*
X131070500Y-99246802D01*
X131070500Y-99508198D01*
X131121496Y-99764572D01*
X131221528Y-100006070D01*
X131366752Y-100223413D01*
X131551587Y-100408248D01*
X131768930Y-100553472D01*
X132010428Y-100653504D01*
X132266802Y-100704500D01*
X132528198Y-100704500D01*
X132784572Y-100653504D01*
X133026070Y-100553472D01*
X133243413Y-100408248D01*
X133428248Y-100223413D01*
X133573472Y-100006070D01*
X133673504Y-99764572D01*
X133724500Y-99508198D01*
X133724500Y-99246802D01*
X133673504Y-98990428D01*
X133573472Y-98748930D01*
X133428248Y-98531587D01*
X133243413Y-98346752D01*
X133026070Y-98201528D01*
X132784572Y-98101496D01*
X132528198Y-98050500D01*
X132266802Y-98050500D01*
X132010428Y-98101496D01*
X131768930Y-98201528D01*
X131551587Y-98346752D01*
X131366752Y-98531587D01*
X131221528Y-98748930D01*
X131121496Y-98990428D01*
X131070500Y-99246802D01*
X123564500Y-99246802D01*
X123513504Y-98990428D01*
X123413472Y-98748930D01*
X123268248Y-98531587D01*
X123083413Y-98346752D01*
X122866070Y-98201528D01*
X122624572Y-98101496D01*
X122368198Y-98050500D01*
X122106802Y-98050500D01*
X121850428Y-98101496D01*
X121608930Y-98201528D01*
X121391587Y-98346752D01*
X121206752Y-98531587D01*
X121061528Y-98748930D01*
X120961496Y-98990428D01*
X120910500Y-99246802D01*
X105749659Y-99246802D01*
X102769859Y-96267003D01*
X106978500Y-96267003D01*
X106978500Y-96645997D01*
X107052439Y-97017710D01*
X107197474Y-97367856D01*
X107408032Y-97682978D01*
X107676022Y-97950968D01*
X107991144Y-98161526D01*
X108341290Y-98306561D01*
X108713003Y-98380500D01*
X109091997Y-98380500D01*
X109463710Y-98306561D01*
X109813856Y-98161526D01*
X110128978Y-97950968D01*
X110396968Y-97682978D01*
X110607526Y-97367856D01*
X110752561Y-97017710D01*
X110826500Y-96645997D01*
X110826500Y-96267003D01*
X110752561Y-95895290D01*
X110607526Y-95545144D01*
X110396968Y-95230022D01*
X110128978Y-94962032D01*
X109813856Y-94751474D01*
X109463710Y-94606439D01*
X109091997Y-94532500D01*
X108713003Y-94532500D01*
X108341290Y-94606439D01*
X107991144Y-94751474D01*
X107676022Y-94962032D01*
X107408032Y-95230022D01*
X107197474Y-95545144D01*
X107052439Y-95895290D01*
X106978500Y-96267003D01*
X102769859Y-96267003D01*
X99662000Y-93159145D01*
X99662000Y-91723556D01*
X99664911Y-91693999D01*
X99662000Y-91664443D01*
X99662000Y-91664434D01*
X99653289Y-91575988D01*
X99618866Y-91462510D01*
X99562966Y-91357929D01*
X99531021Y-91319004D01*
X99506584Y-91289227D01*
X99506580Y-91289223D01*
X99487737Y-91266263D01*
X99464777Y-91247420D01*
X97438414Y-89221059D01*
X97441965Y-89212487D01*
X97491500Y-88963455D01*
X97491500Y-88709545D01*
X97441965Y-88460513D01*
X97344797Y-88225930D01*
X97203732Y-88014810D01*
X97024190Y-87835268D01*
X96813070Y-87694203D01*
X96578487Y-87597035D01*
X96424976Y-87566500D01*
X96578487Y-87535965D01*
X96813070Y-87438797D01*
X97024190Y-87297732D01*
X97167961Y-87153961D01*
X122052096Y-87153961D01*
X122174085Y-87376000D01*
X123317000Y-87376000D01*
X123317000Y-86232376D01*
X123571000Y-86232376D01*
X123571000Y-87376000D01*
X124713915Y-87376000D01*
X124835904Y-87153961D01*
X124795246Y-87019913D01*
X124675037Y-86765580D01*
X124507519Y-86539586D01*
X124299131Y-86350615D01*
X124057881Y-86205930D01*
X123793040Y-86111091D01*
X123571000Y-86232376D01*
X123317000Y-86232376D01*
X123094960Y-86111091D01*
X122830119Y-86205930D01*
X122588869Y-86350615D01*
X122380481Y-86539586D01*
X122212963Y-86765580D01*
X122092754Y-87019913D01*
X122052096Y-87153961D01*
X97167961Y-87153961D01*
X97203732Y-87118190D01*
X97317115Y-86948500D01*
X101250478Y-86948500D01*
X101282500Y-86951654D01*
X101314522Y-86948500D01*
X101410314Y-86939065D01*
X101533217Y-86901783D01*
X101646484Y-86841241D01*
X101745764Y-86759764D01*
X101766185Y-86734881D01*
X101894802Y-86606264D01*
X118011341Y-86606264D01*
X118058648Y-86829848D01*
X118280016Y-86930737D01*
X118516813Y-86986500D01*
X118759938Y-86994995D01*
X119000049Y-86955895D01*
X119227918Y-86870702D01*
X119304352Y-86829848D01*
X119351659Y-86606264D01*
X118681500Y-85936105D01*
X118011341Y-86606264D01*
X101894802Y-86606264D01*
X102666128Y-85834938D01*
X117443005Y-85834938D01*
X117482105Y-86075049D01*
X117567298Y-86302918D01*
X117608152Y-86379352D01*
X117831736Y-86426659D01*
X118501895Y-85756500D01*
X118861105Y-85756500D01*
X119531264Y-86426659D01*
X119754848Y-86379352D01*
X119855737Y-86157984D01*
X119911500Y-85921187D01*
X119919995Y-85678062D01*
X119880895Y-85437951D01*
X119795702Y-85210082D01*
X119754848Y-85133648D01*
X119531264Y-85086341D01*
X118861105Y-85756500D01*
X118501895Y-85756500D01*
X117831736Y-85086341D01*
X117608152Y-85133648D01*
X117507263Y-85355016D01*
X117451500Y-85591813D01*
X117443005Y-85834938D01*
X102666128Y-85834938D01*
X105344566Y-83156500D01*
X117551951Y-83156500D01*
X117551951Y-84356500D01*
X117562126Y-84459810D01*
X117592261Y-84559150D01*
X117641196Y-84650702D01*
X117707052Y-84730948D01*
X117787298Y-84796804D01*
X117878850Y-84845739D01*
X117978190Y-84875874D01*
X118017061Y-84879702D01*
X118011341Y-84906736D01*
X118681500Y-85576895D01*
X119351659Y-84906736D01*
X119345939Y-84879702D01*
X119384810Y-84875874D01*
X119484150Y-84845739D01*
X119575702Y-84796804D01*
X119655948Y-84730948D01*
X119721804Y-84650702D01*
X119770739Y-84559150D01*
X119800874Y-84459810D01*
X119811049Y-84356500D01*
X119811049Y-83156500D01*
X119800874Y-83053190D01*
X119770739Y-82953850D01*
X119721804Y-82862298D01*
X119655948Y-82782052D01*
X119575702Y-82716196D01*
X119484150Y-82667261D01*
X119384810Y-82637126D01*
X119281500Y-82626951D01*
X118081500Y-82626951D01*
X117978190Y-82637126D01*
X117878850Y-82667261D01*
X117787298Y-82716196D01*
X117707052Y-82782052D01*
X117641196Y-82862298D01*
X117592261Y-82953850D01*
X117562126Y-83053190D01*
X117551951Y-83156500D01*
X105344566Y-83156500D01*
X111758066Y-76743000D01*
X117551951Y-76743000D01*
X117551951Y-77943000D01*
X117562126Y-78046310D01*
X117592261Y-78145650D01*
X117641196Y-78237202D01*
X117707052Y-78317448D01*
X117787298Y-78383304D01*
X117878850Y-78432239D01*
X117973179Y-78460854D01*
X117963079Y-78467602D01*
X117806102Y-78624579D01*
X117682766Y-78809165D01*
X117597810Y-79014266D01*
X117554500Y-79232000D01*
X117554500Y-79454000D01*
X117597810Y-79671734D01*
X117682766Y-79876835D01*
X117806102Y-80061421D01*
X117963079Y-80218398D01*
X118147665Y-80341734D01*
X118352766Y-80426690D01*
X118570500Y-80470000D01*
X118792500Y-80470000D01*
X119010234Y-80426690D01*
X119215335Y-80341734D01*
X119399921Y-80218398D01*
X119556898Y-80061421D01*
X119680234Y-79876835D01*
X119765190Y-79671734D01*
X119808500Y-79454000D01*
X119808500Y-79232000D01*
X119765190Y-79014266D01*
X119717255Y-78898539D01*
X122369596Y-78898539D01*
X122410254Y-79032587D01*
X122530463Y-79286920D01*
X122697981Y-79512914D01*
X122906369Y-79701885D01*
X123147619Y-79846570D01*
X123226439Y-79874795D01*
X123132930Y-79913528D01*
X122915587Y-80058752D01*
X122730752Y-80243587D01*
X122585528Y-80460930D01*
X122485496Y-80702428D01*
X122434500Y-80958802D01*
X122434500Y-81220198D01*
X122485496Y-81476572D01*
X122585528Y-81718070D01*
X122730752Y-81935413D01*
X122915587Y-82120248D01*
X123132930Y-82265472D01*
X123374428Y-82365504D01*
X123630802Y-82416500D01*
X123892198Y-82416500D01*
X124148572Y-82365504D01*
X124390070Y-82265472D01*
X124607413Y-82120248D01*
X124792248Y-81935413D01*
X124937472Y-81718070D01*
X125037504Y-81476572D01*
X125088500Y-81220198D01*
X125088500Y-80958802D01*
X125037504Y-80702428D01*
X124937472Y-80460930D01*
X124792248Y-80243587D01*
X124607413Y-80058752D01*
X124390070Y-79913528D01*
X124296561Y-79874795D01*
X124375381Y-79846570D01*
X124616631Y-79701885D01*
X124825019Y-79512914D01*
X124992537Y-79286920D01*
X125112746Y-79032587D01*
X125153404Y-78898539D01*
X125031415Y-78676500D01*
X123888500Y-78676500D01*
X123888500Y-78696500D01*
X123634500Y-78696500D01*
X123634500Y-78676500D01*
X122491585Y-78676500D01*
X122369596Y-78898539D01*
X119717255Y-78898539D01*
X119680234Y-78809165D01*
X119556898Y-78624579D01*
X119399921Y-78467602D01*
X119389821Y-78460854D01*
X119484150Y-78432239D01*
X119575702Y-78383304D01*
X119655948Y-78317448D01*
X119721804Y-78237202D01*
X119741442Y-78200461D01*
X122369596Y-78200461D01*
X122491585Y-78422500D01*
X123634500Y-78422500D01*
X123634500Y-78402500D01*
X123888500Y-78402500D01*
X123888500Y-78422500D01*
X125031415Y-78422500D01*
X125153404Y-78200461D01*
X125112746Y-78066413D01*
X124992537Y-77812080D01*
X124825019Y-77586086D01*
X124616631Y-77397115D01*
X124375381Y-77252430D01*
X124296561Y-77224205D01*
X124390070Y-77185472D01*
X124607413Y-77040248D01*
X124792248Y-76855413D01*
X124937472Y-76638070D01*
X125037504Y-76396572D01*
X125088500Y-76140198D01*
X125088500Y-75878802D01*
X125037504Y-75622428D01*
X124937472Y-75380930D01*
X124792248Y-75163587D01*
X124607413Y-74978752D01*
X124390070Y-74833528D01*
X124306831Y-74799049D01*
X124561500Y-74799049D01*
X124664810Y-74788874D01*
X124764150Y-74758739D01*
X124855702Y-74709804D01*
X124935948Y-74643948D01*
X125001804Y-74563702D01*
X125050739Y-74472150D01*
X125080874Y-74372810D01*
X125091049Y-74269500D01*
X125091049Y-72669500D01*
X125080874Y-72566190D01*
X125050739Y-72466850D01*
X125001804Y-72375298D01*
X124935948Y-72295052D01*
X124855702Y-72229196D01*
X124764150Y-72180261D01*
X124664810Y-72150126D01*
X124561500Y-72139951D01*
X122961500Y-72139951D01*
X122858190Y-72150126D01*
X122758850Y-72180261D01*
X122667298Y-72229196D01*
X122587052Y-72295052D01*
X122521196Y-72375298D01*
X122472261Y-72466850D01*
X122442126Y-72566190D01*
X122431951Y-72669500D01*
X122431951Y-74269500D01*
X122442126Y-74372810D01*
X122472261Y-74472150D01*
X122521196Y-74563702D01*
X122587052Y-74643948D01*
X122667298Y-74709804D01*
X122758850Y-74758739D01*
X122858190Y-74788874D01*
X122961500Y-74799049D01*
X123216169Y-74799049D01*
X123132930Y-74833528D01*
X122915587Y-74978752D01*
X122730752Y-75163587D01*
X122585528Y-75380930D01*
X122485496Y-75622428D01*
X122434500Y-75878802D01*
X122434500Y-76140198D01*
X122485496Y-76396572D01*
X122585528Y-76638070D01*
X122730752Y-76855413D01*
X122915587Y-77040248D01*
X123132930Y-77185472D01*
X123226439Y-77224205D01*
X123147619Y-77252430D01*
X122906369Y-77397115D01*
X122697981Y-77586086D01*
X122530463Y-77812080D01*
X122410254Y-78066413D01*
X122369596Y-78200461D01*
X119741442Y-78200461D01*
X119770739Y-78145650D01*
X119800874Y-78046310D01*
X119811049Y-77943000D01*
X119811049Y-76743000D01*
X119800874Y-76639690D01*
X119770739Y-76540350D01*
X119721804Y-76448798D01*
X119655948Y-76368552D01*
X119575702Y-76302696D01*
X119484150Y-76253761D01*
X119384810Y-76223626D01*
X119281500Y-76213451D01*
X118081500Y-76213451D01*
X117978190Y-76223626D01*
X117878850Y-76253761D01*
X117787298Y-76302696D01*
X117707052Y-76368552D01*
X117641196Y-76448798D01*
X117592261Y-76540350D01*
X117562126Y-76639690D01*
X117551951Y-76743000D01*
X111758066Y-76743000D01*
X114850589Y-73650478D01*
X114850844Y-73650583D01*
X115116877Y-73703500D01*
X115388123Y-73703500D01*
X115654156Y-73650583D01*
X115904754Y-73546782D01*
X116130287Y-73396086D01*
X116322086Y-73204287D01*
X116412951Y-73068298D01*
X116412951Y-73176500D01*
X116423126Y-73279810D01*
X116453261Y-73379150D01*
X116502196Y-73470702D01*
X116568052Y-73550948D01*
X116648298Y-73616804D01*
X116739850Y-73665739D01*
X116839190Y-73695874D01*
X116942500Y-73706049D01*
X118642500Y-73706049D01*
X118745810Y-73695874D01*
X118845150Y-73665739D01*
X118936702Y-73616804D01*
X119016948Y-73550948D01*
X119082804Y-73470702D01*
X119131739Y-73379150D01*
X119161874Y-73279810D01*
X119172049Y-73176500D01*
X119172049Y-71476500D01*
X119161874Y-71373190D01*
X119131739Y-71273850D01*
X119082804Y-71182298D01*
X119016948Y-71102052D01*
X118936702Y-71036196D01*
X118845150Y-70987261D01*
X118745810Y-70957126D01*
X118642500Y-70946951D01*
X116942500Y-70946951D01*
X116839190Y-70957126D01*
X116739850Y-70987261D01*
X116648298Y-71036196D01*
X116568052Y-71102052D01*
X116502196Y-71182298D01*
X116453261Y-71273850D01*
X116423126Y-71373190D01*
X116412951Y-71476500D01*
X116412951Y-71584702D01*
X116322086Y-71448713D01*
X116130287Y-71256914D01*
X115904754Y-71106218D01*
X115654156Y-71002417D01*
X115388123Y-70949500D01*
X115116877Y-70949500D01*
X114850844Y-71002417D01*
X114600246Y-71106218D01*
X114374713Y-71256914D01*
X114182914Y-71448713D01*
X114032218Y-71674246D01*
X113928417Y-71924844D01*
X113875500Y-72190877D01*
X113875500Y-72462123D01*
X113928417Y-72728156D01*
X113928522Y-72728411D01*
X101012434Y-85644500D01*
X97317115Y-85644500D01*
X97203732Y-85474810D01*
X97024190Y-85295268D01*
X96813070Y-85154203D01*
X96641632Y-85083191D01*
X96805523Y-85024136D01*
X96921480Y-84962156D01*
X96988460Y-84722065D01*
X96202500Y-83936105D01*
X95416540Y-84722065D01*
X95483520Y-84962156D01*
X95732548Y-85079256D01*
X95757763Y-85085512D01*
X95591930Y-85154203D01*
X95380810Y-85295268D01*
X95201268Y-85474810D01*
X95060203Y-85685930D01*
X94963035Y-85920513D01*
X94913500Y-86169545D01*
X94913500Y-86423455D01*
X94963035Y-86672487D01*
X95060203Y-86907070D01*
X95201268Y-87118190D01*
X95380810Y-87297732D01*
X95591930Y-87438797D01*
X95826513Y-87535965D01*
X95980024Y-87566500D01*
X95826513Y-87597035D01*
X95591930Y-87694203D01*
X95380810Y-87835268D01*
X95201268Y-88014810D01*
X95060203Y-88225930D01*
X94963035Y-88460513D01*
X94913500Y-88709545D01*
X94913500Y-88963455D01*
X94963035Y-89212487D01*
X95060203Y-89447070D01*
X95201268Y-89658190D01*
X95380810Y-89837732D01*
X95591930Y-89978797D01*
X95826513Y-90075965D01*
X95980024Y-90106500D01*
X95826513Y-90137035D01*
X95591930Y-90234203D01*
X95380810Y-90375268D01*
X95201268Y-90554810D01*
X95060203Y-90765930D01*
X94963035Y-91000513D01*
X94913500Y-91249545D01*
X94913500Y-91503455D01*
X94963035Y-91752487D01*
X94966585Y-91761058D01*
X93829229Y-92898416D01*
X93806264Y-92917263D01*
X93787417Y-92940228D01*
X93787416Y-92940229D01*
X93731035Y-93008929D01*
X93679500Y-93105343D01*
X93679500Y-89694021D01*
X93682654Y-89661999D01*
X93670065Y-89534185D01*
X93632783Y-89411283D01*
X93572241Y-89298016D01*
X93490764Y-89198736D01*
X93465887Y-89178320D01*
X90085685Y-85798119D01*
X90125500Y-85597955D01*
X90125500Y-85344045D01*
X90075965Y-85095013D01*
X89978797Y-84860430D01*
X89837732Y-84649310D01*
X89658190Y-84469768D01*
X89447070Y-84328703D01*
X89212487Y-84231535D01*
X88963455Y-84182000D01*
X88709545Y-84182000D01*
X88460513Y-84231535D01*
X88225930Y-84328703D01*
X88014810Y-84469768D01*
X87835268Y-84649310D01*
X87694203Y-84860430D01*
X87623191Y-85031868D01*
X87564136Y-84867977D01*
X87502156Y-84752020D01*
X87262065Y-84685040D01*
X86476105Y-85471000D01*
X86116895Y-85471000D01*
X85330935Y-84685040D01*
X85090844Y-84752020D01*
X84973744Y-85001048D01*
X84967488Y-85026263D01*
X84898797Y-84860430D01*
X84757732Y-84649310D01*
X84613857Y-84505435D01*
X85510540Y-84505435D01*
X86296500Y-85291395D01*
X87082460Y-84505435D01*
X87015480Y-84265344D01*
X86766452Y-84148244D01*
X86499365Y-84081977D01*
X86224483Y-84069090D01*
X85952367Y-84110078D01*
X85693477Y-84203364D01*
X85577520Y-84265344D01*
X85510540Y-84505435D01*
X84613857Y-84505435D01*
X84578190Y-84469768D01*
X84367070Y-84328703D01*
X84132487Y-84231535D01*
X83883455Y-84182000D01*
X83629545Y-84182000D01*
X83380513Y-84231535D01*
X83145930Y-84328703D01*
X82934810Y-84469768D01*
X82755268Y-84649310D01*
X82614203Y-84860430D01*
X82517035Y-85095013D01*
X82486500Y-85248524D01*
X82455965Y-85095013D01*
X82358797Y-84860430D01*
X82217732Y-84649310D01*
X82038190Y-84469768D01*
X81827070Y-84328703D01*
X81592487Y-84231535D01*
X81343455Y-84182000D01*
X81089545Y-84182000D01*
X80840513Y-84231535D01*
X80605930Y-84328703D01*
X80394810Y-84469768D01*
X80215268Y-84649310D01*
X80074203Y-84860430D01*
X79977035Y-85095013D01*
X79927500Y-85344045D01*
X79123356Y-85344045D01*
X79123356Y-83828517D01*
X94800590Y-83828517D01*
X94841578Y-84100633D01*
X94934864Y-84359523D01*
X94996844Y-84475480D01*
X95236935Y-84542460D01*
X96022895Y-83756500D01*
X96382105Y-83756500D01*
X97168065Y-84542460D01*
X97408156Y-84475480D01*
X97525256Y-84226452D01*
X97591523Y-83959365D01*
X97604410Y-83684483D01*
X97563422Y-83412367D01*
X97470136Y-83153477D01*
X97408156Y-83037520D01*
X97168065Y-82970540D01*
X96382105Y-83756500D01*
X96022895Y-83756500D01*
X95236935Y-82970540D01*
X94996844Y-83037520D01*
X94879744Y-83286548D01*
X94813477Y-83553635D01*
X94800590Y-83828517D01*
X79123356Y-83828517D01*
X79123356Y-80788000D01*
X79242451Y-80788000D01*
X79242451Y-82788000D01*
X79252626Y-82891310D01*
X79282761Y-82990650D01*
X79331696Y-83082202D01*
X79397552Y-83162448D01*
X79477798Y-83228304D01*
X79569350Y-83277239D01*
X79668690Y-83307374D01*
X79772000Y-83317549D01*
X81772000Y-83317549D01*
X81875310Y-83307374D01*
X81974650Y-83277239D01*
X82066202Y-83228304D01*
X82146448Y-83162448D01*
X82212304Y-83082202D01*
X82261239Y-82990650D01*
X82291374Y-82891310D01*
X82301549Y-82788000D01*
X82301549Y-80788000D01*
X82291374Y-80684690D01*
X82261239Y-80585350D01*
X82212304Y-80493798D01*
X82146448Y-80413552D01*
X82066202Y-80347696D01*
X81974650Y-80298761D01*
X81875310Y-80268626D01*
X81772000Y-80258451D01*
X79772000Y-80258451D01*
X79668690Y-80268626D01*
X79569350Y-80298761D01*
X79477798Y-80347696D01*
X79397552Y-80413552D01*
X79331696Y-80493798D01*
X79282761Y-80585350D01*
X79252626Y-80684690D01*
X79242451Y-80788000D01*
X79123356Y-80788000D01*
X79123356Y-65701155D01*
X79180270Y-65838558D01*
X79533425Y-66367093D01*
X79982907Y-66816575D01*
X80511442Y-67169730D01*
X81098719Y-67412988D01*
X81722168Y-67537000D01*
X82357832Y-67537000D01*
X82981281Y-67412988D01*
X83568558Y-67169730D01*
X84097093Y-66816575D01*
X84546575Y-66367093D01*
X84899730Y-65838558D01*
X85142988Y-65251281D01*
X85244688Y-64740000D01*
X85540451Y-64740000D01*
X85540451Y-66440000D01*
X85550626Y-66543310D01*
X85580761Y-66642650D01*
X85629696Y-66734202D01*
X85695552Y-66814448D01*
X85775798Y-66880304D01*
X85867350Y-66929239D01*
X85966690Y-66959374D01*
X86070000Y-66969549D01*
X86330128Y-66969549D01*
X86375259Y-67053983D01*
X86456736Y-67153264D01*
X86481618Y-67173685D01*
X87373820Y-68065887D01*
X87394236Y-68090764D01*
X87493516Y-68172241D01*
X87606783Y-68232783D01*
X87729685Y-68270065D01*
X87857499Y-68282654D01*
X87889521Y-68279500D01*
X90054380Y-68279500D01*
X90103009Y-68328129D01*
X90250743Y-68426842D01*
X90414896Y-68494836D01*
X90589161Y-68529500D01*
X90766839Y-68529500D01*
X90941104Y-68494836D01*
X91105257Y-68426842D01*
X91252991Y-68328129D01*
X91348001Y-68233119D01*
X91348000Y-75648478D01*
X91344846Y-75680500D01*
X91348000Y-75712521D01*
X91357435Y-75808313D01*
X91394717Y-75931216D01*
X91455259Y-76044483D01*
X91536736Y-76143764D01*
X91561619Y-76164185D01*
X94512320Y-79114887D01*
X94532736Y-79139764D01*
X94632016Y-79221241D01*
X94745283Y-79281783D01*
X94806735Y-79300424D01*
X94868185Y-79319065D01*
X94996000Y-79331654D01*
X95028022Y-79328500D01*
X95087885Y-79328500D01*
X95201268Y-79498190D01*
X95380810Y-79677732D01*
X95591930Y-79818797D01*
X95826513Y-79915965D01*
X95980024Y-79946500D01*
X95826513Y-79977035D01*
X95591930Y-80074203D01*
X95380810Y-80215268D01*
X95201268Y-80394810D01*
X95060203Y-80605930D01*
X94963035Y-80840513D01*
X94913500Y-81089545D01*
X94913500Y-81343455D01*
X94963035Y-81592487D01*
X95060203Y-81827070D01*
X95201268Y-82038190D01*
X95380810Y-82217732D01*
X95591930Y-82358797D01*
X95763368Y-82429809D01*
X95599477Y-82488864D01*
X95483520Y-82550844D01*
X95416540Y-82790935D01*
X96202500Y-83576895D01*
X96988460Y-82790935D01*
X96921480Y-82550844D01*
X96672452Y-82433744D01*
X96647237Y-82427488D01*
X96813070Y-82358797D01*
X97024190Y-82217732D01*
X97203732Y-82038190D01*
X97344797Y-81827070D01*
X97441965Y-81592487D01*
X97491500Y-81343455D01*
X97491500Y-81089545D01*
X97441965Y-80840513D01*
X97344797Y-80605930D01*
X97203732Y-80394810D01*
X97024190Y-80215268D01*
X96813070Y-80074203D01*
X96578487Y-79977035D01*
X96424976Y-79946500D01*
X96578487Y-79915965D01*
X96813070Y-79818797D01*
X97024190Y-79677732D01*
X97203732Y-79498190D01*
X97317115Y-79328500D01*
X98392978Y-79328500D01*
X98425000Y-79331654D01*
X98457022Y-79328500D01*
X98552814Y-79319065D01*
X98675717Y-79281783D01*
X98788984Y-79221241D01*
X98888264Y-79139764D01*
X98908685Y-79114881D01*
X104616563Y-73407003D01*
X106978500Y-73407003D01*
X106978500Y-73785997D01*
X107052439Y-74157710D01*
X107197474Y-74507856D01*
X107408032Y-74822978D01*
X107676022Y-75090968D01*
X107991144Y-75301526D01*
X108341290Y-75446561D01*
X108713003Y-75520500D01*
X109091997Y-75520500D01*
X109463710Y-75446561D01*
X109813856Y-75301526D01*
X110128978Y-75090968D01*
X110396968Y-74822978D01*
X110607526Y-74507856D01*
X110752561Y-74157710D01*
X110826500Y-73785997D01*
X110826500Y-73407003D01*
X110752561Y-73035290D01*
X110607526Y-72685144D01*
X110396968Y-72370022D01*
X110128978Y-72102032D01*
X109813856Y-71891474D01*
X109463710Y-71746439D01*
X109091997Y-71672500D01*
X108713003Y-71672500D01*
X108341290Y-71746439D01*
X107991144Y-71891474D01*
X107676022Y-72102032D01*
X107408032Y-72370022D01*
X107197474Y-72685144D01*
X107052439Y-73035290D01*
X106978500Y-73407003D01*
X104616563Y-73407003D01*
X107267567Y-70756000D01*
X129650934Y-70756000D01*
X130771444Y-71876511D01*
X130771996Y-71877180D01*
X130788445Y-71893542D01*
X130826587Y-71933601D01*
X130833889Y-71938743D01*
X131074078Y-72177653D01*
X130994428Y-72193496D01*
X130752930Y-72293528D01*
X130535587Y-72438752D01*
X130350752Y-72623587D01*
X130205528Y-72840930D01*
X130105496Y-73082428D01*
X130054500Y-73338802D01*
X130054500Y-73600198D01*
X130099999Y-73828935D01*
X127260114Y-76668820D01*
X127235237Y-76689236D01*
X127153760Y-76788516D01*
X127121399Y-76849059D01*
X127093217Y-76901784D01*
X127055935Y-77024686D01*
X127043346Y-77152500D01*
X127046501Y-77184532D01*
X127046500Y-88058433D01*
X124731213Y-90373721D01*
X124771000Y-90173698D01*
X124771000Y-89912302D01*
X124720004Y-89655928D01*
X124619972Y-89414430D01*
X124474748Y-89197087D01*
X124289913Y-89012252D01*
X124072570Y-88867028D01*
X123979061Y-88828295D01*
X124057881Y-88800070D01*
X124299131Y-88655385D01*
X124507519Y-88466414D01*
X124675037Y-88240420D01*
X124795246Y-87986087D01*
X124835904Y-87852039D01*
X124713915Y-87630000D01*
X123571000Y-87630000D01*
X123571000Y-87650000D01*
X123317000Y-87650000D01*
X123317000Y-87630000D01*
X122174085Y-87630000D01*
X122052096Y-87852039D01*
X122092754Y-87986087D01*
X122212963Y-88240420D01*
X122380481Y-88466414D01*
X122588869Y-88655385D01*
X122830119Y-88800070D01*
X122908939Y-88828295D01*
X122815430Y-88867028D01*
X122598087Y-89012252D01*
X122413252Y-89197087D01*
X122268028Y-89414430D01*
X122167996Y-89655928D01*
X122117000Y-89912302D01*
X122117000Y-90173698D01*
X122167996Y-90430072D01*
X122268028Y-90671570D01*
X122413252Y-90888913D01*
X122598087Y-91073748D01*
X122815430Y-91218972D01*
X123042433Y-91313000D01*
X122815430Y-91407028D01*
X122598087Y-91552252D01*
X122413252Y-91737087D01*
X122268028Y-91954430D01*
X122167996Y-92195928D01*
X122117000Y-92452302D01*
X122117000Y-92713698D01*
X122167996Y-92970072D01*
X122268028Y-93211570D01*
X122413252Y-93428913D01*
X122598087Y-93613748D01*
X122815430Y-93758972D01*
X123042433Y-93853000D01*
X122815430Y-93947028D01*
X122598087Y-94092252D01*
X122413252Y-94277087D01*
X122268028Y-94494430D01*
X122167996Y-94735928D01*
X122117000Y-94992302D01*
X122117000Y-95253698D01*
X122167996Y-95510072D01*
X122268028Y-95751570D01*
X122413252Y-95968913D01*
X122598087Y-96153748D01*
X122815430Y-96298972D01*
X123056928Y-96399004D01*
X123313302Y-96450000D01*
X123574698Y-96450000D01*
X123831072Y-96399004D01*
X124072570Y-96298972D01*
X124289913Y-96153748D01*
X124474748Y-95968913D01*
X124619972Y-95751570D01*
X124720004Y-95510072D01*
X124771000Y-95253698D01*
X124771000Y-94992302D01*
X124720004Y-94735928D01*
X124619972Y-94494430D01*
X124505427Y-94323000D01*
X129734451Y-94323000D01*
X129734451Y-95923000D01*
X129744626Y-96026310D01*
X129774761Y-96125650D01*
X129823696Y-96217202D01*
X129889552Y-96297448D01*
X129969798Y-96363304D01*
X130061350Y-96412239D01*
X130160690Y-96442374D01*
X130264000Y-96452549D01*
X131864000Y-96452549D01*
X131967310Y-96442374D01*
X132066650Y-96412239D01*
X132158202Y-96363304D01*
X132238448Y-96297448D01*
X132304304Y-96217202D01*
X132353239Y-96125650D01*
X132383374Y-96026310D01*
X132393549Y-95923000D01*
X132393549Y-94323000D01*
X132383374Y-94219690D01*
X132353239Y-94120350D01*
X132304304Y-94028798D01*
X132238448Y-93948552D01*
X132158202Y-93882696D01*
X132066650Y-93833761D01*
X131967310Y-93803626D01*
X131864000Y-93793451D01*
X131609331Y-93793451D01*
X131692570Y-93758972D01*
X131909913Y-93613748D01*
X132094748Y-93428913D01*
X132239972Y-93211570D01*
X132340004Y-92970072D01*
X132391000Y-92713698D01*
X132391000Y-92452302D01*
X132340004Y-92195928D01*
X132239972Y-91954430D01*
X132094748Y-91737087D01*
X132027551Y-91669890D01*
X139274524Y-91669890D01*
X139319175Y-91817099D01*
X139444359Y-92079920D01*
X139618412Y-92313269D01*
X139803002Y-92479656D01*
X139762690Y-92483626D01*
X139663350Y-92513761D01*
X139571798Y-92562696D01*
X139491552Y-92628552D01*
X139425696Y-92708798D01*
X139376761Y-92800350D01*
X139346626Y-92899690D01*
X139336451Y-93003000D01*
X139336451Y-94703000D01*
X139346626Y-94806310D01*
X139376761Y-94905650D01*
X139425696Y-94997202D01*
X139491552Y-95077448D01*
X139571798Y-95143304D01*
X139663350Y-95192239D01*
X139762690Y-95222374D01*
X139866000Y-95232549D01*
X141566000Y-95232549D01*
X141669310Y-95222374D01*
X141768650Y-95192239D01*
X141860202Y-95143304D01*
X141940448Y-95077448D01*
X142006304Y-94997202D01*
X142055239Y-94905650D01*
X142085374Y-94806310D01*
X142095549Y-94703000D01*
X142095549Y-93003000D01*
X142085374Y-92899690D01*
X142055239Y-92800350D01*
X142006304Y-92708798D01*
X141940448Y-92628552D01*
X141860202Y-92562696D01*
X141768650Y-92513761D01*
X141669310Y-92483626D01*
X141628998Y-92479656D01*
X141813588Y-92313269D01*
X141987641Y-92079920D01*
X142112825Y-91817099D01*
X142157476Y-91669890D01*
X142036155Y-91440000D01*
X140843000Y-91440000D01*
X140843000Y-91460000D01*
X140589000Y-91460000D01*
X140589000Y-91440000D01*
X139395845Y-91440000D01*
X139274524Y-91669890D01*
X132027551Y-91669890D01*
X131909913Y-91552252D01*
X131692570Y-91407028D01*
X131465567Y-91313000D01*
X131692570Y-91218972D01*
X131909913Y-91073748D01*
X132027551Y-90956110D01*
X139274524Y-90956110D01*
X139395845Y-91186000D01*
X140589000Y-91186000D01*
X140589000Y-91166000D01*
X140843000Y-91166000D01*
X140843000Y-91186000D01*
X142036155Y-91186000D01*
X142157476Y-90956110D01*
X142112825Y-90808901D01*
X141987641Y-90546080D01*
X141813588Y-90312731D01*
X141597355Y-90117822D01*
X141377692Y-89986975D01*
X141593787Y-89842586D01*
X141785586Y-89650787D01*
X141936282Y-89425254D01*
X142040083Y-89174656D01*
X142093000Y-88908623D01*
X142093000Y-88637377D01*
X142040083Y-88371344D01*
X141936282Y-88120746D01*
X141785586Y-87895213D01*
X141593787Y-87703414D01*
X141368254Y-87552718D01*
X141117656Y-87448917D01*
X140851623Y-87396000D01*
X140580377Y-87396000D01*
X140314344Y-87448917D01*
X140063746Y-87552718D01*
X139838213Y-87703414D01*
X139646414Y-87895213D01*
X139495718Y-88120746D01*
X139391917Y-88371344D01*
X139339000Y-88637377D01*
X139339000Y-88908623D01*
X139391917Y-89174656D01*
X139495718Y-89425254D01*
X139646414Y-89650787D01*
X139838213Y-89842586D01*
X140054308Y-89986975D01*
X139834645Y-90117822D01*
X139618412Y-90312731D01*
X139444359Y-90546080D01*
X139319175Y-90808901D01*
X139274524Y-90956110D01*
X132027551Y-90956110D01*
X132094748Y-90888913D01*
X132239972Y-90671570D01*
X132340004Y-90430072D01*
X132391000Y-90173698D01*
X132391000Y-89912302D01*
X132340004Y-89655928D01*
X132239972Y-89414430D01*
X132094748Y-89197087D01*
X131909913Y-89012252D01*
X131692570Y-88867028D01*
X131465567Y-88773000D01*
X131692570Y-88678972D01*
X131909913Y-88533748D01*
X132094748Y-88348913D01*
X132239972Y-88131570D01*
X132340004Y-87890072D01*
X132391000Y-87633698D01*
X132391000Y-87372302D01*
X132340004Y-87115928D01*
X132239972Y-86874430D01*
X132094748Y-86657087D01*
X131909913Y-86472252D01*
X131692570Y-86327028D01*
X131451072Y-86226996D01*
X131194698Y-86176000D01*
X130933302Y-86176000D01*
X130676928Y-86226996D01*
X130435430Y-86327028D01*
X130218087Y-86472252D01*
X130033252Y-86657087D01*
X129888028Y-86874430D01*
X129787996Y-87115928D01*
X129737000Y-87372302D01*
X129737000Y-87633698D01*
X129787996Y-87890072D01*
X129888028Y-88131570D01*
X130033252Y-88348913D01*
X130218087Y-88533748D01*
X130435430Y-88678972D01*
X130662433Y-88773000D01*
X130435430Y-88867028D01*
X130218087Y-89012252D01*
X130033252Y-89197087D01*
X129888028Y-89414430D01*
X129787996Y-89655928D01*
X129737000Y-89912302D01*
X129737000Y-90173698D01*
X129787996Y-90430072D01*
X129888028Y-90671570D01*
X130033252Y-90888913D01*
X130218087Y-91073748D01*
X130435430Y-91218972D01*
X130662433Y-91313000D01*
X130435430Y-91407028D01*
X130218087Y-91552252D01*
X130033252Y-91737087D01*
X129888028Y-91954430D01*
X129787996Y-92195928D01*
X129737000Y-92452302D01*
X129737000Y-92713698D01*
X129787996Y-92970072D01*
X129888028Y-93211570D01*
X130033252Y-93428913D01*
X130218087Y-93613748D01*
X130435430Y-93758972D01*
X130518669Y-93793451D01*
X130264000Y-93793451D01*
X130160690Y-93803626D01*
X130061350Y-93833761D01*
X129969798Y-93882696D01*
X129889552Y-93948552D01*
X129823696Y-94028798D01*
X129774761Y-94120350D01*
X129744626Y-94219690D01*
X129734451Y-94323000D01*
X124505427Y-94323000D01*
X124474748Y-94277087D01*
X124289913Y-94092252D01*
X124072570Y-93947028D01*
X123845567Y-93853000D01*
X124072570Y-93758972D01*
X124289913Y-93613748D01*
X124474748Y-93428913D01*
X124619972Y-93211570D01*
X124720004Y-92970072D01*
X124771000Y-92713698D01*
X124771000Y-92452302D01*
X124725501Y-92223565D01*
X128136888Y-88812179D01*
X128161764Y-88791764D01*
X128243241Y-88692484D01*
X128303783Y-88579217D01*
X128338001Y-88466414D01*
X128341065Y-88456315D01*
X128353654Y-88328500D01*
X128350500Y-88296478D01*
X128350500Y-77422566D01*
X130094287Y-75678780D01*
X130054500Y-75878802D01*
X130054500Y-76140198D01*
X130105496Y-76396572D01*
X130205528Y-76638070D01*
X130350752Y-76855413D01*
X130535587Y-77040248D01*
X130752930Y-77185472D01*
X130979933Y-77279500D01*
X130752930Y-77373528D01*
X130535587Y-77518752D01*
X130350752Y-77703587D01*
X130205528Y-77920930D01*
X130105496Y-78162428D01*
X130054500Y-78418802D01*
X130054500Y-78680198D01*
X130105496Y-78936572D01*
X130205528Y-79178070D01*
X130350752Y-79395413D01*
X130535587Y-79580248D01*
X130752930Y-79725472D01*
X130979933Y-79819500D01*
X130752930Y-79913528D01*
X130535587Y-80058752D01*
X130350752Y-80243587D01*
X130205528Y-80460930D01*
X130105496Y-80702428D01*
X130054500Y-80958802D01*
X130054500Y-81220198D01*
X130105496Y-81476572D01*
X130205528Y-81718070D01*
X130350752Y-81935413D01*
X130535587Y-82120248D01*
X130752930Y-82265472D01*
X130994428Y-82365504D01*
X131250802Y-82416500D01*
X131512198Y-82416500D01*
X131768572Y-82365504D01*
X132010070Y-82265472D01*
X132227413Y-82120248D01*
X132412248Y-81935413D01*
X132557472Y-81718070D01*
X132657504Y-81476572D01*
X132708500Y-81220198D01*
X132708500Y-80958802D01*
X132657504Y-80702428D01*
X132557472Y-80460930D01*
X132412248Y-80243587D01*
X132227413Y-80058752D01*
X132010070Y-79913528D01*
X131783067Y-79819500D01*
X132010070Y-79725472D01*
X132227413Y-79580248D01*
X132266271Y-79541390D01*
X139401524Y-79541390D01*
X139446175Y-79688599D01*
X139571359Y-79951420D01*
X139745412Y-80184769D01*
X139961645Y-80379678D01*
X140211748Y-80528657D01*
X140486109Y-80625981D01*
X140716000Y-80505314D01*
X140716000Y-79311500D01*
X140970000Y-79311500D01*
X140970000Y-80505314D01*
X141199891Y-80625981D01*
X141474252Y-80528657D01*
X141724355Y-80379678D01*
X141940588Y-80184769D01*
X142114641Y-79951420D01*
X142239825Y-79688599D01*
X142284476Y-79541390D01*
X142163155Y-79311500D01*
X140970000Y-79311500D01*
X140716000Y-79311500D01*
X139522845Y-79311500D01*
X139401524Y-79541390D01*
X132266271Y-79541390D01*
X132412248Y-79395413D01*
X132557472Y-79178070D01*
X132657504Y-78936572D01*
X132708500Y-78680198D01*
X132708500Y-78418802D01*
X132657504Y-78162428D01*
X132557472Y-77920930D01*
X132412248Y-77703587D01*
X132227413Y-77518752D01*
X132010070Y-77373528D01*
X131783067Y-77279500D01*
X132010070Y-77185472D01*
X132227413Y-77040248D01*
X132412248Y-76855413D01*
X132557472Y-76638070D01*
X132657504Y-76396572D01*
X132708500Y-76140198D01*
X132708500Y-75878802D01*
X132657504Y-75622428D01*
X132557472Y-75380930D01*
X132412248Y-75163587D01*
X132227413Y-74978752D01*
X132010070Y-74833528D01*
X131783067Y-74739500D01*
X132010070Y-74645472D01*
X132227413Y-74500248D01*
X132412248Y-74315413D01*
X132557472Y-74098070D01*
X132657504Y-73856572D01*
X132674762Y-73769812D01*
X136006256Y-77083562D01*
X136026118Y-77107764D01*
X136051668Y-77128733D01*
X136052284Y-77129345D01*
X136076269Y-77148922D01*
X136125398Y-77189241D01*
X136126177Y-77189657D01*
X136126854Y-77190210D01*
X136182536Y-77219782D01*
X136238665Y-77249783D01*
X136239509Y-77250039D01*
X136240283Y-77250450D01*
X136300914Y-77268666D01*
X136361568Y-77287065D01*
X136362441Y-77287151D01*
X136363283Y-77287404D01*
X136426248Y-77293436D01*
X136457360Y-77296500D01*
X136458237Y-77296500D01*
X136491131Y-77299651D01*
X136522273Y-77296500D01*
X139622613Y-77296500D01*
X139622718Y-77296754D01*
X139773414Y-77522287D01*
X139965213Y-77714086D01*
X140181308Y-77858475D01*
X139961645Y-77989322D01*
X139745412Y-78184231D01*
X139571359Y-78417580D01*
X139446175Y-78680401D01*
X139401524Y-78827610D01*
X139522845Y-79057500D01*
X140716000Y-79057500D01*
X140716000Y-79037500D01*
X140970000Y-79037500D01*
X140970000Y-79057500D01*
X142163155Y-79057500D01*
X142284476Y-78827610D01*
X142239825Y-78680401D01*
X142114641Y-78417580D01*
X141940588Y-78184231D01*
X141724355Y-77989322D01*
X141504692Y-77858475D01*
X141720787Y-77714086D01*
X141912586Y-77522287D01*
X142063282Y-77296754D01*
X142167083Y-77046156D01*
X142220000Y-76780123D01*
X142220000Y-76508877D01*
X142167083Y-76242844D01*
X142063282Y-75992246D01*
X141912586Y-75766713D01*
X141720787Y-75574914D01*
X141495254Y-75424218D01*
X141375224Y-75374500D01*
X141495254Y-75324782D01*
X141720787Y-75174086D01*
X141912586Y-74982287D01*
X142063282Y-74756754D01*
X142167083Y-74506156D01*
X142220000Y-74240123D01*
X142220000Y-73968877D01*
X142167083Y-73702844D01*
X142063282Y-73452246D01*
X141912586Y-73226713D01*
X141720787Y-73034914D01*
X141584798Y-72944049D01*
X141693000Y-72944049D01*
X141796310Y-72933874D01*
X141895650Y-72903739D01*
X141987202Y-72854804D01*
X142067448Y-72788948D01*
X142133304Y-72708702D01*
X142182239Y-72617150D01*
X142212374Y-72517810D01*
X142222549Y-72414500D01*
X142222549Y-70714500D01*
X142212374Y-70611190D01*
X142182239Y-70511850D01*
X142133304Y-70420298D01*
X142067448Y-70340052D01*
X141987202Y-70274196D01*
X141895650Y-70225261D01*
X141796310Y-70195126D01*
X141693000Y-70184951D01*
X139993000Y-70184951D01*
X139889690Y-70195126D01*
X139790350Y-70225261D01*
X139698798Y-70274196D01*
X139618552Y-70340052D01*
X139552696Y-70420298D01*
X139503761Y-70511850D01*
X139473626Y-70611190D01*
X139463451Y-70714500D01*
X139463451Y-72414500D01*
X139473626Y-72517810D01*
X139503761Y-72617150D01*
X139552696Y-72708702D01*
X139618552Y-72788948D01*
X139698798Y-72854804D01*
X139790350Y-72903739D01*
X139889690Y-72933874D01*
X139993000Y-72944049D01*
X140101202Y-72944049D01*
X139965213Y-73034914D01*
X139773414Y-73226713D01*
X139622718Y-73452246D01*
X139622613Y-73452500D01*
X136223567Y-73452500D01*
X132436679Y-69665613D01*
X132436676Y-69665609D01*
X131013500Y-68242434D01*
X131013500Y-68173661D01*
X130978836Y-67999396D01*
X130910842Y-67835243D01*
X130812129Y-67687509D01*
X130686491Y-67561871D01*
X130538757Y-67463158D01*
X130374604Y-67395164D01*
X130200339Y-67360500D01*
X130022661Y-67360500D01*
X129848396Y-67395164D01*
X129684243Y-67463158D01*
X129536509Y-67561871D01*
X129410871Y-67687509D01*
X129312158Y-67835243D01*
X129244164Y-67999396D01*
X129209500Y-68173661D01*
X129209500Y-68351339D01*
X129244164Y-68525604D01*
X129312158Y-68689757D01*
X129410871Y-68837491D01*
X129536509Y-68963129D01*
X129684243Y-69061842D01*
X129848396Y-69129836D01*
X130022661Y-69164500D01*
X130091434Y-69164500D01*
X131514609Y-70587676D01*
X131514613Y-70587679D01*
X135469820Y-74542887D01*
X135490236Y-74567764D01*
X135589516Y-74649241D01*
X135702783Y-74709783D01*
X135764235Y-74728424D01*
X135825685Y-74747065D01*
X135953500Y-74759654D01*
X135985522Y-74756500D01*
X139622613Y-74756500D01*
X139622718Y-74756754D01*
X139773414Y-74982287D01*
X139965213Y-75174086D01*
X140190746Y-75324782D01*
X140310776Y-75374500D01*
X140190746Y-75424218D01*
X139965213Y-75574914D01*
X139773414Y-75766713D01*
X139622718Y-75992246D01*
X139622613Y-75992500D01*
X136758430Y-75992500D01*
X131743312Y-71004094D01*
X131649669Y-70884110D01*
X131583295Y-70814399D01*
X131482443Y-70743376D01*
X130404685Y-69665619D01*
X130384264Y-69640736D01*
X130284984Y-69559259D01*
X130171717Y-69498717D01*
X130048814Y-69461435D01*
X129953022Y-69452000D01*
X129921000Y-69448846D01*
X129888978Y-69452000D01*
X123343346Y-69452000D01*
X123358836Y-69414604D01*
X123393500Y-69240339D01*
X123393500Y-69062661D01*
X123358836Y-68888396D01*
X123290842Y-68724243D01*
X123192129Y-68576509D01*
X123132000Y-68516380D01*
X123132000Y-66810387D01*
X123132254Y-66810282D01*
X123357787Y-66659586D01*
X123549586Y-66467787D01*
X123700282Y-66242254D01*
X123750000Y-66122224D01*
X123799718Y-66242254D01*
X123950414Y-66467787D01*
X124142213Y-66659586D01*
X124367746Y-66810282D01*
X124618344Y-66914083D01*
X124884377Y-66967000D01*
X125155623Y-66967000D01*
X125421656Y-66914083D01*
X125672254Y-66810282D01*
X125897787Y-66659586D01*
X126089586Y-66467787D01*
X126240282Y-66242254D01*
X126290000Y-66122224D01*
X126339718Y-66242254D01*
X126490414Y-66467787D01*
X126682213Y-66659586D01*
X126907746Y-66810282D01*
X127158344Y-66914083D01*
X127424377Y-66967000D01*
X127695623Y-66967000D01*
X127961656Y-66914083D01*
X128212254Y-66810282D01*
X128437787Y-66659586D01*
X128629586Y-66467787D01*
X128780282Y-66242254D01*
X128830000Y-66122224D01*
X128879718Y-66242254D01*
X129030414Y-66467787D01*
X129222213Y-66659586D01*
X129447746Y-66810282D01*
X129698344Y-66914083D01*
X129964377Y-66967000D01*
X130235623Y-66967000D01*
X130501656Y-66914083D01*
X130752254Y-66810282D01*
X130977787Y-66659586D01*
X131169586Y-66467787D01*
X131320282Y-66242254D01*
X131370000Y-66122224D01*
X131419718Y-66242254D01*
X131570414Y-66467787D01*
X131762213Y-66659586D01*
X131987746Y-66810282D01*
X132238344Y-66914083D01*
X132504377Y-66967000D01*
X132775623Y-66967000D01*
X133041656Y-66914083D01*
X133292254Y-66810282D01*
X133517787Y-66659586D01*
X133709586Y-66467787D01*
X133853975Y-66251692D01*
X133984822Y-66471355D01*
X134179731Y-66687588D01*
X134413080Y-66861641D01*
X134675901Y-66986825D01*
X134823110Y-67031476D01*
X135053000Y-66910155D01*
X135053000Y-65717000D01*
X135307000Y-65717000D01*
X135307000Y-66910155D01*
X135536890Y-67031476D01*
X135684099Y-66986825D01*
X135946920Y-66861641D01*
X136180269Y-66687588D01*
X136375178Y-66471355D01*
X136524157Y-66221252D01*
X136621481Y-65946891D01*
X136500814Y-65717000D01*
X135307000Y-65717000D01*
X135053000Y-65717000D01*
X135033000Y-65717000D01*
X135033000Y-65463000D01*
X135053000Y-65463000D01*
X135053000Y-65443000D01*
X135307000Y-65443000D01*
X135307000Y-65463000D01*
X136500814Y-65463000D01*
X136621481Y-65233109D01*
X136524157Y-64958748D01*
X136375178Y-64708645D01*
X136180269Y-64492412D01*
X135946920Y-64318359D01*
X135837968Y-64266464D01*
X136057787Y-64119586D01*
X136249586Y-63927787D01*
X136400282Y-63702254D01*
X136504083Y-63451656D01*
X136557000Y-63185623D01*
X136557000Y-62914377D01*
X136504083Y-62648344D01*
X136400282Y-62397746D01*
X136249586Y-62172213D01*
X136057787Y-61980414D01*
X135832254Y-61829718D01*
X135581656Y-61725917D01*
X135315623Y-61673000D01*
X135044377Y-61673000D01*
X134778344Y-61725917D01*
X134527746Y-61829718D01*
X134302213Y-61980414D01*
X134110414Y-62172213D01*
X133959718Y-62397746D01*
X133910000Y-62517776D01*
X133860282Y-62397746D01*
X133709586Y-62172213D01*
X133517787Y-61980414D01*
X133292254Y-61829718D01*
X133041656Y-61725917D01*
X132775623Y-61673000D01*
X132504377Y-61673000D01*
X132238344Y-61725917D01*
X131987746Y-61829718D01*
X131762213Y-61980414D01*
X131570414Y-62172213D01*
X131419718Y-62397746D01*
X131370000Y-62517776D01*
X131320282Y-62397746D01*
X131169586Y-62172213D01*
X130977787Y-61980414D01*
X130752254Y-61829718D01*
X130501656Y-61725917D01*
X130235623Y-61673000D01*
X129964377Y-61673000D01*
X129698344Y-61725917D01*
X129447746Y-61829718D01*
X129222213Y-61980414D01*
X129030414Y-62172213D01*
X128886025Y-62388308D01*
X128755178Y-62168645D01*
X128560269Y-61952412D01*
X128326920Y-61778359D01*
X128064099Y-61653175D01*
X127916890Y-61608524D01*
X127687000Y-61729845D01*
X127687000Y-62923000D01*
X127707000Y-62923000D01*
X127707000Y-63177000D01*
X127687000Y-63177000D01*
X127687000Y-63197000D01*
X127433000Y-63197000D01*
X127433000Y-63177000D01*
X127413000Y-63177000D01*
X127413000Y-62923000D01*
X127433000Y-62923000D01*
X127433000Y-61729845D01*
X127203110Y-61608524D01*
X127055901Y-61653175D01*
X126793080Y-61778359D01*
X126559731Y-61952412D01*
X126364822Y-62168645D01*
X126233975Y-62388308D01*
X126089586Y-62172213D01*
X125897787Y-61980414D01*
X125672254Y-61829718D01*
X125421656Y-61725917D01*
X125155623Y-61673000D01*
X124884377Y-61673000D01*
X124618344Y-61725917D01*
X124367746Y-61829718D01*
X124142213Y-61980414D01*
X123950414Y-62172213D01*
X123806025Y-62388308D01*
X123675178Y-62168645D01*
X123480269Y-61952412D01*
X123246920Y-61778359D01*
X122984099Y-61653175D01*
X122836890Y-61608524D01*
X122607000Y-61729845D01*
X122607000Y-62923000D01*
X122627000Y-62923000D01*
X122627000Y-63177000D01*
X122607000Y-63177000D01*
X122607000Y-63197000D01*
X122353000Y-63197000D01*
X122353000Y-63177000D01*
X122333000Y-63177000D01*
X122333000Y-62923000D01*
X122353000Y-62923000D01*
X122353000Y-61729845D01*
X122123110Y-61608524D01*
X121975901Y-61653175D01*
X121713080Y-61778359D01*
X121479731Y-61952412D01*
X121284822Y-62168645D01*
X121153975Y-62388308D01*
X121009586Y-62172213D01*
X120817787Y-61980414D01*
X120592254Y-61829718D01*
X120341656Y-61725917D01*
X120075623Y-61673000D01*
X119804377Y-61673000D01*
X119538344Y-61725917D01*
X119287746Y-61829718D01*
X119062213Y-61980414D01*
X118870414Y-62172213D01*
X118719718Y-62397746D01*
X118670000Y-62517776D01*
X118620282Y-62397746D01*
X118469586Y-62172213D01*
X118277787Y-61980414D01*
X118052254Y-61829718D01*
X117801656Y-61725917D01*
X117535623Y-61673000D01*
X117264377Y-61673000D01*
X116998344Y-61725917D01*
X116747746Y-61829718D01*
X116522213Y-61980414D01*
X116330414Y-62172213D01*
X116179718Y-62397746D01*
X116130000Y-62517776D01*
X116080282Y-62397746D01*
X115929586Y-62172213D01*
X115737787Y-61980414D01*
X115512254Y-61829718D01*
X115261656Y-61725917D01*
X114995623Y-61673000D01*
X114724377Y-61673000D01*
X114458344Y-61725917D01*
X114207746Y-61829718D01*
X113982213Y-61980414D01*
X113790414Y-62172213D01*
X113639718Y-62397746D01*
X113590000Y-62517776D01*
X113540282Y-62397746D01*
X113389586Y-62172213D01*
X113197787Y-61980414D01*
X112972254Y-61829718D01*
X112721656Y-61725917D01*
X112455623Y-61673000D01*
X112184377Y-61673000D01*
X111918344Y-61725917D01*
X111667746Y-61829718D01*
X111442213Y-61980414D01*
X111250414Y-62172213D01*
X111106025Y-62388308D01*
X110975178Y-62168645D01*
X110780269Y-61952412D01*
X110546920Y-61778359D01*
X110284099Y-61653175D01*
X110136890Y-61608524D01*
X109907000Y-61729845D01*
X109907000Y-62923000D01*
X109927000Y-62923000D01*
X109927000Y-63177000D01*
X109907000Y-63177000D01*
X109907000Y-63197000D01*
X109653000Y-63197000D01*
X109653000Y-63177000D01*
X109633000Y-63177000D01*
X109633000Y-62923000D01*
X109653000Y-62923000D01*
X109653000Y-61729845D01*
X109423110Y-61608524D01*
X109275901Y-61653175D01*
X109013080Y-61778359D01*
X108779731Y-61952412D01*
X108584822Y-62168645D01*
X108453975Y-62388308D01*
X108309586Y-62172213D01*
X108117787Y-61980414D01*
X107892254Y-61829718D01*
X107641656Y-61725917D01*
X107375623Y-61673000D01*
X107104377Y-61673000D01*
X106838344Y-61725917D01*
X106587746Y-61829718D01*
X106362213Y-61980414D01*
X106170414Y-62172213D01*
X106019718Y-62397746D01*
X105970000Y-62517776D01*
X105920282Y-62397746D01*
X105769586Y-62172213D01*
X105577787Y-61980414D01*
X105352254Y-61829718D01*
X105101656Y-61725917D01*
X104835623Y-61673000D01*
X104564377Y-61673000D01*
X104298344Y-61725917D01*
X104047746Y-61829718D01*
X103822213Y-61980414D01*
X103630414Y-62172213D01*
X103486025Y-62388308D01*
X103355178Y-62168645D01*
X103160269Y-61952412D01*
X102926920Y-61778359D01*
X102664099Y-61653175D01*
X102516890Y-61608524D01*
X102287000Y-61729845D01*
X102287000Y-62923000D01*
X102307000Y-62923000D01*
X102307000Y-63177000D01*
X102287000Y-63177000D01*
X102287000Y-63197000D01*
X102033000Y-63197000D01*
X102033000Y-63177000D01*
X102013000Y-63177000D01*
X102013000Y-62923000D01*
X102033000Y-62923000D01*
X102033000Y-61729845D01*
X101803110Y-61608524D01*
X101655901Y-61653175D01*
X101393080Y-61778359D01*
X101159731Y-61952412D01*
X100964822Y-62168645D01*
X100833975Y-62388308D01*
X100689586Y-62172213D01*
X100497787Y-61980414D01*
X100272254Y-61829718D01*
X100021656Y-61725917D01*
X99755623Y-61673000D01*
X99484377Y-61673000D01*
X99218344Y-61725917D01*
X98967746Y-61829718D01*
X98742213Y-61980414D01*
X98550414Y-62172213D01*
X98399718Y-62397746D01*
X98350000Y-62517776D01*
X98300282Y-62397746D01*
X98149586Y-62172213D01*
X97957787Y-61980414D01*
X97732254Y-61829718D01*
X97481656Y-61725917D01*
X97215623Y-61673000D01*
X96944377Y-61673000D01*
X96678344Y-61725917D01*
X96427746Y-61829718D01*
X96202213Y-61980414D01*
X96010414Y-62172213D01*
X95859718Y-62397746D01*
X95810000Y-62517776D01*
X95760282Y-62397746D01*
X95609586Y-62172213D01*
X95417787Y-61980414D01*
X95192254Y-61829718D01*
X94941656Y-61725917D01*
X94675623Y-61673000D01*
X94404377Y-61673000D01*
X94138344Y-61725917D01*
X93887746Y-61829718D01*
X93662213Y-61980414D01*
X93470414Y-62172213D01*
X93326025Y-62388308D01*
X93195178Y-62168645D01*
X93000269Y-61952412D01*
X92766920Y-61778359D01*
X92504099Y-61653175D01*
X92356890Y-61608524D01*
X92127000Y-61729845D01*
X92127000Y-62923000D01*
X92147000Y-62923000D01*
X92147000Y-63177000D01*
X92127000Y-63177000D01*
X92127000Y-63197000D01*
X91873000Y-63197000D01*
X91873000Y-63177000D01*
X91853000Y-63177000D01*
X91853000Y-62923000D01*
X91873000Y-62923000D01*
X91873000Y-61729845D01*
X91643110Y-61608524D01*
X91495901Y-61653175D01*
X91233080Y-61778359D01*
X90999731Y-61952412D01*
X90804822Y-62168645D01*
X90673975Y-62388308D01*
X90529586Y-62172213D01*
X90337787Y-61980414D01*
X90112254Y-61829718D01*
X89861656Y-61725917D01*
X89595623Y-61673000D01*
X89324377Y-61673000D01*
X89058344Y-61725917D01*
X88807746Y-61829718D01*
X88582213Y-61980414D01*
X88390414Y-62172213D01*
X88239718Y-62397746D01*
X88190000Y-62517776D01*
X88140282Y-62397746D01*
X87989586Y-62172213D01*
X87797787Y-61980414D01*
X87572254Y-61829718D01*
X87321656Y-61725917D01*
X87055623Y-61673000D01*
X86784377Y-61673000D01*
X86518344Y-61725917D01*
X86267746Y-61829718D01*
X86042213Y-61980414D01*
X85850414Y-62172213D01*
X85699718Y-62397746D01*
X85595917Y-62648344D01*
X85543000Y-62914377D01*
X85543000Y-63185623D01*
X85595917Y-63451656D01*
X85699718Y-63702254D01*
X85850414Y-63927787D01*
X86042213Y-64119586D01*
X86178202Y-64210451D01*
X86070000Y-64210451D01*
X85966690Y-64220626D01*
X85867350Y-64250761D01*
X85775798Y-64299696D01*
X85695552Y-64365552D01*
X85629696Y-64445798D01*
X85580761Y-64537350D01*
X85550626Y-64636690D01*
X85540451Y-64740000D01*
X85244688Y-64740000D01*
X85267000Y-64627832D01*
X85267000Y-63992168D01*
X85142988Y-63368719D01*
X84899730Y-62781442D01*
X84546575Y-62252907D01*
X84097093Y-61803425D01*
X83568558Y-61450270D01*
X83434185Y-61394611D01*
X138694099Y-61394611D01*
X138511442Y-61470270D01*
G36*
X97207000Y-65463000D02*
G01*
X97227000Y-65463000D01*
X97227000Y-65717000D01*
X97207000Y-65717000D01*
X97207000Y-66910155D01*
X97436890Y-67031476D01*
X97584099Y-66986825D01*
X97846920Y-66861641D01*
X98080269Y-66687588D01*
X98275178Y-66471355D01*
X98406025Y-66251692D01*
X98550414Y-66467787D01*
X98742213Y-66659586D01*
X98967746Y-66810282D01*
X99218344Y-66914083D01*
X99484377Y-66967000D01*
X99755623Y-66967000D01*
X100021656Y-66914083D01*
X100272254Y-66810282D01*
X100497787Y-66659586D01*
X100689586Y-66467787D01*
X100840282Y-66242254D01*
X100890000Y-66122224D01*
X100939718Y-66242254D01*
X101090414Y-66467787D01*
X101282213Y-66659586D01*
X101507746Y-66810282D01*
X101758344Y-66914083D01*
X102024377Y-66967000D01*
X102295623Y-66967000D01*
X102561656Y-66914083D01*
X102812254Y-66810282D01*
X103037787Y-66659586D01*
X103229586Y-66467787D01*
X103380282Y-66242254D01*
X103430000Y-66122224D01*
X103479718Y-66242254D01*
X103630414Y-66467787D01*
X103822213Y-66659586D01*
X104047746Y-66810282D01*
X104298344Y-66914083D01*
X104564377Y-66967000D01*
X104835623Y-66967000D01*
X105101656Y-66914083D01*
X105352254Y-66810282D01*
X105577787Y-66659586D01*
X105769586Y-66467787D01*
X105920282Y-66242254D01*
X105970000Y-66122224D01*
X106019718Y-66242254D01*
X106170414Y-66467787D01*
X106362213Y-66659586D01*
X106587746Y-66810282D01*
X106838344Y-66914083D01*
X107104377Y-66967000D01*
X107375623Y-66967000D01*
X107641656Y-66914083D01*
X107892254Y-66810282D01*
X108117787Y-66659586D01*
X108309586Y-66467787D01*
X108460282Y-66242254D01*
X108510000Y-66122224D01*
X108559718Y-66242254D01*
X108710414Y-66467787D01*
X108902213Y-66659586D01*
X109127746Y-66810282D01*
X109378344Y-66914083D01*
X109644377Y-66967000D01*
X109915623Y-66967000D01*
X110181656Y-66914083D01*
X110432254Y-66810282D01*
X110657787Y-66659586D01*
X110849586Y-66467787D01*
X111000282Y-66242254D01*
X111050000Y-66122224D01*
X111099718Y-66242254D01*
X111250414Y-66467787D01*
X111442213Y-66659586D01*
X111667746Y-66810282D01*
X111918344Y-66914083D01*
X112184377Y-66967000D01*
X112455623Y-66967000D01*
X112721656Y-66914083D01*
X112972254Y-66810282D01*
X113197787Y-66659586D01*
X113389586Y-66467787D01*
X113540282Y-66242254D01*
X113590000Y-66122224D01*
X113639718Y-66242254D01*
X113790414Y-66467787D01*
X113982213Y-66659586D01*
X114207746Y-66810282D01*
X114458344Y-66914083D01*
X114724377Y-66967000D01*
X114995623Y-66967000D01*
X115261656Y-66914083D01*
X115512254Y-66810282D01*
X115737787Y-66659586D01*
X115929586Y-66467787D01*
X116073975Y-66251692D01*
X116204822Y-66471355D01*
X116399731Y-66687588D01*
X116633080Y-66861641D01*
X116895901Y-66986825D01*
X117043110Y-67031476D01*
X117273000Y-66910155D01*
X117273000Y-65717000D01*
X117253000Y-65717000D01*
X117253000Y-65463000D01*
X117273000Y-65463000D01*
X117273000Y-65443000D01*
X117527000Y-65443000D01*
X117527000Y-65463000D01*
X117547000Y-65463000D01*
X117547000Y-65717000D01*
X117527000Y-65717000D01*
X117527000Y-66910155D01*
X117756890Y-67031476D01*
X117904099Y-66986825D01*
X118166920Y-66861641D01*
X118400269Y-66687588D01*
X118595178Y-66471355D01*
X118726025Y-66251692D01*
X118870414Y-66467787D01*
X119062213Y-66659586D01*
X119287746Y-66810282D01*
X119538344Y-66914083D01*
X119804377Y-66967000D01*
X120075623Y-66967000D01*
X120341656Y-66914083D01*
X120592254Y-66810282D01*
X120817787Y-66659586D01*
X121009586Y-66467787D01*
X121160282Y-66242254D01*
X121210000Y-66122224D01*
X121259718Y-66242254D01*
X121410414Y-66467787D01*
X121602213Y-66659586D01*
X121827746Y-66810282D01*
X121828000Y-66810387D01*
X121828001Y-68539379D01*
X121790871Y-68576509D01*
X121692158Y-68724243D01*
X121624164Y-68888396D01*
X121589500Y-69062661D01*
X121589500Y-69240339D01*
X121624164Y-69414604D01*
X121639654Y-69452000D01*
X107029522Y-69452000D01*
X106997500Y-69448846D01*
X106869685Y-69461435D01*
X106820801Y-69476264D01*
X106746783Y-69498717D01*
X106633516Y-69559259D01*
X106534236Y-69640736D01*
X106513820Y-69665613D01*
X98154934Y-78024500D01*
X97317115Y-78024500D01*
X97203732Y-77854810D01*
X97024190Y-77675268D01*
X96813070Y-77534203D01*
X96641632Y-77463191D01*
X96805523Y-77404136D01*
X96921480Y-77342156D01*
X96988460Y-77102065D01*
X96202500Y-76316105D01*
X95416540Y-77102065D01*
X95483520Y-77342156D01*
X95732548Y-77459256D01*
X95757763Y-77465512D01*
X95591930Y-77534203D01*
X95380810Y-77675268D01*
X95201268Y-77854810D01*
X95159255Y-77917688D01*
X93450084Y-76208517D01*
X94800590Y-76208517D01*
X94841578Y-76480633D01*
X94934864Y-76739523D01*
X94996844Y-76855480D01*
X95236935Y-76922460D01*
X96022895Y-76136500D01*
X96382105Y-76136500D01*
X97168065Y-76922460D01*
X97408156Y-76855480D01*
X97525256Y-76606452D01*
X97591523Y-76339365D01*
X97604410Y-76064483D01*
X97563422Y-75792367D01*
X97470136Y-75533477D01*
X97408156Y-75417520D01*
X97168065Y-75350540D01*
X96382105Y-76136500D01*
X96022895Y-76136500D01*
X95236935Y-75350540D01*
X94996844Y-75417520D01*
X94879744Y-75666548D01*
X94813477Y-75933635D01*
X94800590Y-76208517D01*
X93450084Y-76208517D01*
X92652000Y-75410434D01*
X92652000Y-73469545D01*
X94913500Y-73469545D01*
X94913500Y-73723455D01*
X94963035Y-73972487D01*
X95060203Y-74207070D01*
X95201268Y-74418190D01*
X95380810Y-74597732D01*
X95591930Y-74738797D01*
X95763368Y-74809809D01*
X95599477Y-74868864D01*
X95483520Y-74930844D01*
X95416540Y-75170935D01*
X96202500Y-75956895D01*
X96988460Y-75170935D01*
X96921480Y-74930844D01*
X96672452Y-74813744D01*
X96647237Y-74807488D01*
X96813070Y-74738797D01*
X97024190Y-74597732D01*
X97203732Y-74418190D01*
X97344797Y-74207070D01*
X97441965Y-73972487D01*
X97491500Y-73723455D01*
X97491500Y-73469545D01*
X97441965Y-73220513D01*
X97344797Y-72985930D01*
X97203732Y-72774810D01*
X97024190Y-72595268D01*
X96813070Y-72454203D01*
X96578487Y-72357035D01*
X96329455Y-72307500D01*
X96075545Y-72307500D01*
X95826513Y-72357035D01*
X95591930Y-72454203D01*
X95380810Y-72595268D01*
X95201268Y-72774810D01*
X95060203Y-72985930D01*
X94963035Y-73220513D01*
X94913500Y-73469545D01*
X92652000Y-73469545D01*
X92652000Y-66810387D01*
X92652254Y-66810282D01*
X92877787Y-66659586D01*
X93069586Y-66467787D01*
X93220282Y-66242254D01*
X93270000Y-66122224D01*
X93319718Y-66242254D01*
X93470414Y-66467787D01*
X93662213Y-66659586D01*
X93887746Y-66810282D01*
X94138344Y-66914083D01*
X94404377Y-66967000D01*
X94675623Y-66967000D01*
X94941656Y-66914083D01*
X95192254Y-66810282D01*
X95417787Y-66659586D01*
X95609586Y-66467787D01*
X95753975Y-66251692D01*
X95884822Y-66471355D01*
X96079731Y-66687588D01*
X96313080Y-66861641D01*
X96575901Y-66986825D01*
X96723110Y-67031476D01*
X96953000Y-66910155D01*
X96953000Y-65717000D01*
X96933000Y-65717000D01*
X96933000Y-65463000D01*
X96953000Y-65463000D01*
X96953000Y-65443000D01*
X97207000Y-65443000D01*
X97207000Y-65463000D01*
G37*
X97207000Y-65463000D02*
X97227000Y-65463000D01*
X97227000Y-65717000D01*
X97207000Y-65717000D01*
X97207000Y-66910155D01*
X97436890Y-67031476D01*
X97584099Y-66986825D01*
X97846920Y-66861641D01*
X98080269Y-66687588D01*
X98275178Y-66471355D01*
X98406025Y-66251692D01*
X98550414Y-66467787D01*
X98742213Y-66659586D01*
X98967746Y-66810282D01*
X99218344Y-66914083D01*
X99484377Y-66967000D01*
X99755623Y-66967000D01*
X100021656Y-66914083D01*
X100272254Y-66810282D01*
X100497787Y-66659586D01*
X100689586Y-66467787D01*
X100840282Y-66242254D01*
X100890000Y-66122224D01*
X100939718Y-66242254D01*
X101090414Y-66467787D01*
X101282213Y-66659586D01*
X101507746Y-66810282D01*
X101758344Y-66914083D01*
X102024377Y-66967000D01*
X102295623Y-66967000D01*
X102561656Y-66914083D01*
X102812254Y-66810282D01*
X103037787Y-66659586D01*
X103229586Y-66467787D01*
X103380282Y-66242254D01*
X103430000Y-66122224D01*
X103479718Y-66242254D01*
X103630414Y-66467787D01*
X103822213Y-66659586D01*
X104047746Y-66810282D01*
X104298344Y-66914083D01*
X104564377Y-66967000D01*
X104835623Y-66967000D01*
X105101656Y-66914083D01*
X105352254Y-66810282D01*
X105577787Y-66659586D01*
X105769586Y-66467787D01*
X105920282Y-66242254D01*
X105970000Y-66122224D01*
X106019718Y-66242254D01*
X106170414Y-66467787D01*
X106362213Y-66659586D01*
X106587746Y-66810282D01*
X106838344Y-66914083D01*
X107104377Y-66967000D01*
X107375623Y-66967000D01*
X107641656Y-66914083D01*
X107892254Y-66810282D01*
X108117787Y-66659586D01*
X108309586Y-66467787D01*
X108460282Y-66242254D01*
X108510000Y-66122224D01*
X108559718Y-66242254D01*
X108710414Y-66467787D01*
X108902213Y-66659586D01*
X109127746Y-66810282D01*
X109378344Y-66914083D01*
X109644377Y-66967000D01*
X109915623Y-66967000D01*
X110181656Y-66914083D01*
X110432254Y-66810282D01*
X110657787Y-66659586D01*
X110849586Y-66467787D01*
X111000282Y-66242254D01*
X111050000Y-66122224D01*
X111099718Y-66242254D01*
X111250414Y-66467787D01*
X111442213Y-66659586D01*
X111667746Y-66810282D01*
X111918344Y-66914083D01*
X112184377Y-66967000D01*
X112455623Y-66967000D01*
X112721656Y-66914083D01*
X112972254Y-66810282D01*
X113197787Y-66659586D01*
X113389586Y-66467787D01*
X113540282Y-66242254D01*
X113590000Y-66122224D01*
X113639718Y-66242254D01*
X113790414Y-66467787D01*
X113982213Y-66659586D01*
X114207746Y-66810282D01*
X114458344Y-66914083D01*
X114724377Y-66967000D01*
X114995623Y-66967000D01*
X115261656Y-66914083D01*
X115512254Y-66810282D01*
X115737787Y-66659586D01*
X115929586Y-66467787D01*
X116073975Y-66251692D01*
X116204822Y-66471355D01*
X116399731Y-66687588D01*
X116633080Y-66861641D01*
X116895901Y-66986825D01*
X117043110Y-67031476D01*
X117273000Y-66910155D01*
X117273000Y-65717000D01*
X117253000Y-65717000D01*
X117253000Y-65463000D01*
X117273000Y-65463000D01*
X117273000Y-65443000D01*
X117527000Y-65443000D01*
X117527000Y-65463000D01*
X117547000Y-65463000D01*
X117547000Y-65717000D01*
X117527000Y-65717000D01*
X117527000Y-66910155D01*
X117756890Y-67031476D01*
X117904099Y-66986825D01*
X118166920Y-66861641D01*
X118400269Y-66687588D01*
X118595178Y-66471355D01*
X118726025Y-66251692D01*
X118870414Y-66467787D01*
X119062213Y-66659586D01*
X119287746Y-66810282D01*
X119538344Y-66914083D01*
X119804377Y-66967000D01*
X120075623Y-66967000D01*
X120341656Y-66914083D01*
X120592254Y-66810282D01*
X120817787Y-66659586D01*
X121009586Y-66467787D01*
X121160282Y-66242254D01*
X121210000Y-66122224D01*
X121259718Y-66242254D01*
X121410414Y-66467787D01*
X121602213Y-66659586D01*
X121827746Y-66810282D01*
X121828000Y-66810387D01*
X121828001Y-68539379D01*
X121790871Y-68576509D01*
X121692158Y-68724243D01*
X121624164Y-68888396D01*
X121589500Y-69062661D01*
X121589500Y-69240339D01*
X121624164Y-69414604D01*
X121639654Y-69452000D01*
X107029522Y-69452000D01*
X106997500Y-69448846D01*
X106869685Y-69461435D01*
X106820801Y-69476264D01*
X106746783Y-69498717D01*
X106633516Y-69559259D01*
X106534236Y-69640736D01*
X106513820Y-69665613D01*
X98154934Y-78024500D01*
X97317115Y-78024500D01*
X97203732Y-77854810D01*
X97024190Y-77675268D01*
X96813070Y-77534203D01*
X96641632Y-77463191D01*
X96805523Y-77404136D01*
X96921480Y-77342156D01*
X96988460Y-77102065D01*
X96202500Y-76316105D01*
X95416540Y-77102065D01*
X95483520Y-77342156D01*
X95732548Y-77459256D01*
X95757763Y-77465512D01*
X95591930Y-77534203D01*
X95380810Y-77675268D01*
X95201268Y-77854810D01*
X95159255Y-77917688D01*
X93450084Y-76208517D01*
X94800590Y-76208517D01*
X94841578Y-76480633D01*
X94934864Y-76739523D01*
X94996844Y-76855480D01*
X95236935Y-76922460D01*
X96022895Y-76136500D01*
X96382105Y-76136500D01*
X97168065Y-76922460D01*
X97408156Y-76855480D01*
X97525256Y-76606452D01*
X97591523Y-76339365D01*
X97604410Y-76064483D01*
X97563422Y-75792367D01*
X97470136Y-75533477D01*
X97408156Y-75417520D01*
X97168065Y-75350540D01*
X96382105Y-76136500D01*
X96022895Y-76136500D01*
X95236935Y-75350540D01*
X94996844Y-75417520D01*
X94879744Y-75666548D01*
X94813477Y-75933635D01*
X94800590Y-76208517D01*
X93450084Y-76208517D01*
X92652000Y-75410434D01*
X92652000Y-73469545D01*
X94913500Y-73469545D01*
X94913500Y-73723455D01*
X94963035Y-73972487D01*
X95060203Y-74207070D01*
X95201268Y-74418190D01*
X95380810Y-74597732D01*
X95591930Y-74738797D01*
X95763368Y-74809809D01*
X95599477Y-74868864D01*
X95483520Y-74930844D01*
X95416540Y-75170935D01*
X96202500Y-75956895D01*
X96988460Y-75170935D01*
X96921480Y-74930844D01*
X96672452Y-74813744D01*
X96647237Y-74807488D01*
X96813070Y-74738797D01*
X97024190Y-74597732D01*
X97203732Y-74418190D01*
X97344797Y-74207070D01*
X97441965Y-73972487D01*
X97491500Y-73723455D01*
X97491500Y-73469545D01*
X97441965Y-73220513D01*
X97344797Y-72985930D01*
X97203732Y-72774810D01*
X97024190Y-72595268D01*
X96813070Y-72454203D01*
X96578487Y-72357035D01*
X96329455Y-72307500D01*
X96075545Y-72307500D01*
X95826513Y-72357035D01*
X95591930Y-72454203D01*
X95380810Y-72595268D01*
X95201268Y-72774810D01*
X95060203Y-72985930D01*
X94963035Y-73220513D01*
X94913500Y-73469545D01*
X92652000Y-73469545D01*
X92652000Y-66810387D01*
X92652254Y-66810282D01*
X92877787Y-66659586D01*
X93069586Y-66467787D01*
X93220282Y-66242254D01*
X93270000Y-66122224D01*
X93319718Y-66242254D01*
X93470414Y-66467787D01*
X93662213Y-66659586D01*
X93887746Y-66810282D01*
X94138344Y-66914083D01*
X94404377Y-66967000D01*
X94675623Y-66967000D01*
X94941656Y-66914083D01*
X95192254Y-66810282D01*
X95417787Y-66659586D01*
X95609586Y-66467787D01*
X95753975Y-66251692D01*
X95884822Y-66471355D01*
X96079731Y-66687588D01*
X96313080Y-66861641D01*
X96575901Y-66986825D01*
X96723110Y-67031476D01*
X96953000Y-66910155D01*
X96953000Y-65717000D01*
X96933000Y-65717000D01*
X96933000Y-65463000D01*
X96953000Y-65463000D01*
X96953000Y-65443000D01*
X97207000Y-65443000D01*
X97207000Y-65463000D01*
M02*
