G04 #@! TF.GenerationSoftware,KiCad,Pcbnew,(5.1.6)-1*
G04 #@! TF.CreationDate,2020-08-19T13:32:06-04:00*
G04 #@! TF.ProjectId,pressure-rev2,70726573-7375-4726-952d-726576322e6b,rev?*
G04 #@! TF.SameCoordinates,Original*
G04 #@! TF.FileFunction,Legend,Top*
G04 #@! TF.FilePolarity,Positive*
%FSLAX46Y46*%
G04 Gerber Fmt 4.6, Leading zero omitted, Abs format (unit mm)*
G04 Created by KiCad (PCBNEW (5.1.6)-1) date 2020-08-19 13:32:06*
%MOMM*%
%LPD*%
G01*
G04 APERTURE LIST*
%ADD10C,0.200000*%
%ADD11C,0.300000*%
%ADD12C,0.120000*%
%ADD13C,0.150000*%
G04 APERTURE END LIST*
D10*
X79899738Y-72324380D02*
X79899738Y-71324380D01*
X80280690Y-71324380D01*
X80375928Y-71372000D01*
X80423547Y-71419619D01*
X80471166Y-71514857D01*
X80471166Y-71657714D01*
X80423547Y-71752952D01*
X80375928Y-71800571D01*
X80280690Y-71848190D01*
X79899738Y-71848190D01*
X81280690Y-72276761D02*
X81185452Y-72324380D01*
X80994976Y-72324380D01*
X80899738Y-72276761D01*
X80852119Y-72181523D01*
X80852119Y-71800571D01*
X80899738Y-71705333D01*
X80994976Y-71657714D01*
X81185452Y-71657714D01*
X81280690Y-71705333D01*
X81328309Y-71800571D01*
X81328309Y-71895809D01*
X80852119Y-71991047D01*
X81899738Y-72324380D02*
X81804500Y-72276761D01*
X81756880Y-72229142D01*
X81709261Y-72133904D01*
X81709261Y-71848190D01*
X81756880Y-71752952D01*
X81804500Y-71705333D01*
X81899738Y-71657714D01*
X82042595Y-71657714D01*
X82137833Y-71705333D01*
X82185452Y-71752952D01*
X82233071Y-71848190D01*
X82233071Y-72133904D01*
X82185452Y-72229142D01*
X82137833Y-72276761D01*
X82042595Y-72324380D01*
X81899738Y-72324380D01*
X82661642Y-71657714D02*
X82661642Y-72657714D01*
X82661642Y-71705333D02*
X82756880Y-71657714D01*
X82947357Y-71657714D01*
X83042595Y-71705333D01*
X83090214Y-71752952D01*
X83137833Y-71848190D01*
X83137833Y-72133904D01*
X83090214Y-72229142D01*
X83042595Y-72276761D01*
X82947357Y-72324380D01*
X82756880Y-72324380D01*
X82661642Y-72276761D01*
X83709261Y-72324380D02*
X83614023Y-72276761D01*
X83566404Y-72181523D01*
X83566404Y-71324380D01*
X84471166Y-72276761D02*
X84375928Y-72324380D01*
X84185452Y-72324380D01*
X84090214Y-72276761D01*
X84042595Y-72181523D01*
X84042595Y-71800571D01*
X84090214Y-71705333D01*
X84185452Y-71657714D01*
X84375928Y-71657714D01*
X84471166Y-71705333D01*
X84518785Y-71800571D01*
X84518785Y-71895809D01*
X84042595Y-71991047D01*
X84994976Y-71324380D02*
X84899738Y-71514857D01*
X85375928Y-72276761D02*
X85471166Y-72324380D01*
X85661642Y-72324380D01*
X85756880Y-72276761D01*
X85804500Y-72181523D01*
X85804500Y-72133904D01*
X85756880Y-72038666D01*
X85661642Y-71991047D01*
X85518785Y-71991047D01*
X85423547Y-71943428D01*
X85375928Y-71848190D01*
X85375928Y-71800571D01*
X85423547Y-71705333D01*
X85518785Y-71657714D01*
X85661642Y-71657714D01*
X85756880Y-71705333D01*
X86852119Y-71324380D02*
X87185452Y-72324380D01*
X87518785Y-71324380D01*
X88233071Y-72276761D02*
X88137833Y-72324380D01*
X87947357Y-72324380D01*
X87852119Y-72276761D01*
X87804500Y-72181523D01*
X87804500Y-71800571D01*
X87852119Y-71705333D01*
X87947357Y-71657714D01*
X88137833Y-71657714D01*
X88233071Y-71705333D01*
X88280690Y-71800571D01*
X88280690Y-71895809D01*
X87804500Y-71991047D01*
X88709261Y-71657714D02*
X88709261Y-72324380D01*
X88709261Y-71752952D02*
X88756880Y-71705333D01*
X88852119Y-71657714D01*
X88994976Y-71657714D01*
X89090214Y-71705333D01*
X89137833Y-71800571D01*
X89137833Y-72324380D01*
X89471166Y-71657714D02*
X89852119Y-71657714D01*
X89614023Y-71324380D02*
X89614023Y-72181523D01*
X89661642Y-72276761D01*
X89756880Y-72324380D01*
X89852119Y-72324380D01*
X90185452Y-72324380D02*
X90185452Y-71657714D01*
X90185452Y-71324380D02*
X90137833Y-71372000D01*
X90185452Y-71419619D01*
X90233071Y-71372000D01*
X90185452Y-71324380D01*
X90185452Y-71419619D01*
X90804499Y-72324380D02*
X90709261Y-72276761D01*
X90661642Y-72181523D01*
X90661642Y-71324380D01*
X91614023Y-72324380D02*
X91614023Y-71800571D01*
X91566404Y-71705333D01*
X91471166Y-71657714D01*
X91280690Y-71657714D01*
X91185452Y-71705333D01*
X91614023Y-72276761D02*
X91518785Y-72324380D01*
X91280690Y-72324380D01*
X91185452Y-72276761D01*
X91137833Y-72181523D01*
X91137833Y-72086285D01*
X91185452Y-71991047D01*
X91280690Y-71943428D01*
X91518785Y-71943428D01*
X91614023Y-71895809D01*
X91947357Y-71657714D02*
X92328309Y-71657714D01*
X92090214Y-71324380D02*
X92090214Y-72181523D01*
X92137833Y-72276761D01*
X92233071Y-72324380D01*
X92328309Y-72324380D01*
X92804499Y-72324380D02*
X92709261Y-72276761D01*
X92661642Y-72229142D01*
X92614023Y-72133904D01*
X92614023Y-71848190D01*
X92661642Y-71752952D01*
X92709261Y-71705333D01*
X92804499Y-71657714D01*
X92947357Y-71657714D01*
X93042595Y-71705333D01*
X93090214Y-71752952D01*
X93137833Y-71848190D01*
X93137833Y-72133904D01*
X93090214Y-72229142D01*
X93042595Y-72276761D01*
X92947357Y-72324380D01*
X92804499Y-72324380D01*
X93566404Y-72324380D02*
X93566404Y-71657714D01*
X93566404Y-71848190D02*
X93614023Y-71752952D01*
X93661642Y-71705333D01*
X93756880Y-71657714D01*
X93852119Y-71657714D01*
X84399738Y-74024380D02*
X84399738Y-73024380D01*
X84780690Y-73024380D01*
X84875928Y-73072000D01*
X84923547Y-73119619D01*
X84971166Y-73214857D01*
X84971166Y-73357714D01*
X84923547Y-73452952D01*
X84875928Y-73500571D01*
X84780690Y-73548190D01*
X84399738Y-73548190D01*
X85399738Y-74024380D02*
X85399738Y-73357714D01*
X85399738Y-73548190D02*
X85447357Y-73452952D01*
X85494976Y-73405333D01*
X85590214Y-73357714D01*
X85685452Y-73357714D01*
X86161642Y-74024380D02*
X86066404Y-73976761D01*
X86018785Y-73929142D01*
X85971166Y-73833904D01*
X85971166Y-73548190D01*
X86018785Y-73452952D01*
X86066404Y-73405333D01*
X86161642Y-73357714D01*
X86304500Y-73357714D01*
X86399738Y-73405333D01*
X86447357Y-73452952D01*
X86494976Y-73548190D01*
X86494976Y-73833904D01*
X86447357Y-73929142D01*
X86399738Y-73976761D01*
X86304500Y-74024380D01*
X86161642Y-74024380D01*
X86923547Y-73357714D02*
X86923547Y-74214857D01*
X86875928Y-74310095D01*
X86780690Y-74357714D01*
X86733071Y-74357714D01*
X86923547Y-73024380D02*
X86875928Y-73072000D01*
X86923547Y-73119619D01*
X86971166Y-73072000D01*
X86923547Y-73024380D01*
X86923547Y-73119619D01*
X87780690Y-73976761D02*
X87685452Y-74024380D01*
X87494976Y-74024380D01*
X87399738Y-73976761D01*
X87352119Y-73881523D01*
X87352119Y-73500571D01*
X87399738Y-73405333D01*
X87494976Y-73357714D01*
X87685452Y-73357714D01*
X87780690Y-73405333D01*
X87828309Y-73500571D01*
X87828309Y-73595809D01*
X87352119Y-73691047D01*
X88685452Y-73976761D02*
X88590214Y-74024380D01*
X88399738Y-74024380D01*
X88304500Y-73976761D01*
X88256880Y-73929142D01*
X88209261Y-73833904D01*
X88209261Y-73548190D01*
X88256880Y-73452952D01*
X88304500Y-73405333D01*
X88399738Y-73357714D01*
X88590214Y-73357714D01*
X88685452Y-73405333D01*
X88971166Y-73357714D02*
X89352119Y-73357714D01*
X89114023Y-73024380D02*
X89114023Y-73881523D01*
X89161642Y-73976761D01*
X89256880Y-74024380D01*
X89352119Y-74024380D01*
X81923547Y-75676761D02*
X82066404Y-75724380D01*
X82304500Y-75724380D01*
X82399738Y-75676761D01*
X82447357Y-75629142D01*
X82494976Y-75533904D01*
X82494976Y-75438666D01*
X82447357Y-75343428D01*
X82399738Y-75295809D01*
X82304500Y-75248190D01*
X82114023Y-75200571D01*
X82018785Y-75152952D01*
X81971166Y-75105333D01*
X81923547Y-75010095D01*
X81923547Y-74914857D01*
X81971166Y-74819619D01*
X82018785Y-74772000D01*
X82114023Y-74724380D01*
X82352119Y-74724380D01*
X82494976Y-74772000D01*
X83304500Y-75676761D02*
X83209261Y-75724380D01*
X83018785Y-75724380D01*
X82923547Y-75676761D01*
X82875928Y-75581523D01*
X82875928Y-75200571D01*
X82923547Y-75105333D01*
X83018785Y-75057714D01*
X83209261Y-75057714D01*
X83304500Y-75105333D01*
X83352119Y-75200571D01*
X83352119Y-75295809D01*
X82875928Y-75391047D01*
X83780690Y-75057714D02*
X83780690Y-75724380D01*
X83780690Y-75152952D02*
X83828309Y-75105333D01*
X83923547Y-75057714D01*
X84066404Y-75057714D01*
X84161642Y-75105333D01*
X84209261Y-75200571D01*
X84209261Y-75724380D01*
X84637833Y-75676761D02*
X84733071Y-75724380D01*
X84923547Y-75724380D01*
X85018785Y-75676761D01*
X85066404Y-75581523D01*
X85066404Y-75533904D01*
X85018785Y-75438666D01*
X84923547Y-75391047D01*
X84780690Y-75391047D01*
X84685452Y-75343428D01*
X84637833Y-75248190D01*
X84637833Y-75200571D01*
X84685452Y-75105333D01*
X84780690Y-75057714D01*
X84923547Y-75057714D01*
X85018785Y-75105333D01*
X85637833Y-75724380D02*
X85542595Y-75676761D01*
X85494976Y-75629142D01*
X85447357Y-75533904D01*
X85447357Y-75248190D01*
X85494976Y-75152952D01*
X85542595Y-75105333D01*
X85637833Y-75057714D01*
X85780690Y-75057714D01*
X85875928Y-75105333D01*
X85923547Y-75152952D01*
X85971166Y-75248190D01*
X85971166Y-75533904D01*
X85923547Y-75629142D01*
X85875928Y-75676761D01*
X85780690Y-75724380D01*
X85637833Y-75724380D01*
X86399738Y-75724380D02*
X86399738Y-75057714D01*
X86399738Y-75248190D02*
X86447357Y-75152952D01*
X86494976Y-75105333D01*
X86590214Y-75057714D01*
X86685452Y-75057714D01*
X88114023Y-75200571D02*
X88256880Y-75248190D01*
X88304500Y-75295809D01*
X88352119Y-75391047D01*
X88352119Y-75533904D01*
X88304500Y-75629142D01*
X88256880Y-75676761D01*
X88161642Y-75724380D01*
X87780690Y-75724380D01*
X87780690Y-74724380D01*
X88114023Y-74724380D01*
X88209261Y-74772000D01*
X88256880Y-74819619D01*
X88304500Y-74914857D01*
X88304500Y-75010095D01*
X88256880Y-75105333D01*
X88209261Y-75152952D01*
X88114023Y-75200571D01*
X87780690Y-75200571D01*
X88923547Y-75724380D02*
X88828309Y-75676761D01*
X88780690Y-75629142D01*
X88733071Y-75533904D01*
X88733071Y-75248190D01*
X88780690Y-75152952D01*
X88828309Y-75105333D01*
X88923547Y-75057714D01*
X89066404Y-75057714D01*
X89161642Y-75105333D01*
X89209261Y-75152952D01*
X89256880Y-75248190D01*
X89256880Y-75533904D01*
X89209261Y-75629142D01*
X89161642Y-75676761D01*
X89066404Y-75724380D01*
X88923547Y-75724380D01*
X90114023Y-75724380D02*
X90114023Y-75200571D01*
X90066404Y-75105333D01*
X89971166Y-75057714D01*
X89780690Y-75057714D01*
X89685452Y-75105333D01*
X90114023Y-75676761D02*
X90018785Y-75724380D01*
X89780690Y-75724380D01*
X89685452Y-75676761D01*
X89637833Y-75581523D01*
X89637833Y-75486285D01*
X89685452Y-75391047D01*
X89780690Y-75343428D01*
X90018785Y-75343428D01*
X90114023Y-75295809D01*
X90590214Y-75724380D02*
X90590214Y-75057714D01*
X90590214Y-75248190D02*
X90637833Y-75152952D01*
X90685452Y-75105333D01*
X90780690Y-75057714D01*
X90875928Y-75057714D01*
X91637833Y-75724380D02*
X91637833Y-74724380D01*
X91637833Y-75676761D02*
X91542595Y-75724380D01*
X91352119Y-75724380D01*
X91256880Y-75676761D01*
X91209261Y-75629142D01*
X91161642Y-75533904D01*
X91161642Y-75248190D01*
X91209261Y-75152952D01*
X91256880Y-75105333D01*
X91352119Y-75057714D01*
X91542595Y-75057714D01*
X91637833Y-75105333D01*
X85828309Y-77424380D02*
X85494976Y-76948190D01*
X85256880Y-77424380D02*
X85256880Y-76424380D01*
X85637833Y-76424380D01*
X85733071Y-76472000D01*
X85780690Y-76519619D01*
X85828309Y-76614857D01*
X85828309Y-76757714D01*
X85780690Y-76852952D01*
X85733071Y-76900571D01*
X85637833Y-76948190D01*
X85256880Y-76948190D01*
X86637833Y-77376761D02*
X86542595Y-77424380D01*
X86352119Y-77424380D01*
X86256880Y-77376761D01*
X86209261Y-77281523D01*
X86209261Y-76900571D01*
X86256880Y-76805333D01*
X86352119Y-76757714D01*
X86542595Y-76757714D01*
X86637833Y-76805333D01*
X86685452Y-76900571D01*
X86685452Y-76995809D01*
X86209261Y-77091047D01*
X87018785Y-76757714D02*
X87256880Y-77424380D01*
X87494976Y-76757714D01*
X87828309Y-76519619D02*
X87875928Y-76472000D01*
X87971166Y-76424380D01*
X88209261Y-76424380D01*
X88304500Y-76472000D01*
X88352119Y-76519619D01*
X88399738Y-76614857D01*
X88399738Y-76710095D01*
X88352119Y-76852952D01*
X87780690Y-77424380D01*
X88399738Y-77424380D01*
D11*
X139795357Y-97349571D02*
X140081071Y-97349571D01*
X140223928Y-97421000D01*
X140366785Y-97563857D01*
X140438214Y-97849571D01*
X140438214Y-98349571D01*
X140366785Y-98635285D01*
X140223928Y-98778142D01*
X140081071Y-98849571D01*
X139795357Y-98849571D01*
X139652500Y-98778142D01*
X139509642Y-98635285D01*
X139438214Y-98349571D01*
X139438214Y-97849571D01*
X139509642Y-97563857D01*
X139652500Y-97421000D01*
X139795357Y-97349571D01*
X141009642Y-97492428D02*
X141081071Y-97421000D01*
X141223928Y-97349571D01*
X141581071Y-97349571D01*
X141723928Y-97421000D01*
X141795357Y-97492428D01*
X141866785Y-97635285D01*
X141866785Y-97778142D01*
X141795357Y-97992428D01*
X140938214Y-98849571D01*
X141866785Y-98849571D01*
D10*
X115125690Y-69699166D02*
X115601880Y-69699166D01*
X115030452Y-69984880D02*
X115363785Y-68984880D01*
X115697119Y-69984880D01*
X116506642Y-69984880D02*
X116030452Y-69984880D01*
X116030452Y-68984880D01*
X117411404Y-69984880D02*
X117078071Y-69508690D01*
X116839976Y-69984880D02*
X116839976Y-68984880D01*
X117220928Y-68984880D01*
X117316166Y-69032500D01*
X117363785Y-69080119D01*
X117411404Y-69175357D01*
X117411404Y-69318214D01*
X117363785Y-69413452D01*
X117316166Y-69461071D01*
X117220928Y-69508690D01*
X116839976Y-69508690D01*
X117697119Y-68984880D02*
X118268547Y-68984880D01*
X117982833Y-69984880D02*
X117982833Y-68984880D01*
X137160095Y-78684500D02*
X137064857Y-78636880D01*
X136922000Y-78636880D01*
X136779142Y-78684500D01*
X136683904Y-78779738D01*
X136636285Y-78874976D01*
X136588666Y-79065452D01*
X136588666Y-79208309D01*
X136636285Y-79398785D01*
X136683904Y-79494023D01*
X136779142Y-79589261D01*
X136922000Y-79636880D01*
X137017238Y-79636880D01*
X137160095Y-79589261D01*
X137207714Y-79541642D01*
X137207714Y-79208309D01*
X137017238Y-79208309D01*
X137636285Y-79636880D02*
X137636285Y-78636880D01*
X138207714Y-79636880D01*
X138207714Y-78636880D01*
X138683904Y-79636880D02*
X138683904Y-78636880D01*
X138922000Y-78636880D01*
X139064857Y-78684500D01*
X139160095Y-78779738D01*
X139207714Y-78874976D01*
X139255333Y-79065452D01*
X139255333Y-79208309D01*
X139207714Y-79398785D01*
X139160095Y-79494023D01*
X139064857Y-79589261D01*
X138922000Y-79636880D01*
X138683904Y-79636880D01*
X136731523Y-77049261D02*
X136874380Y-77096880D01*
X137112476Y-77096880D01*
X137207714Y-77049261D01*
X137255333Y-77001642D01*
X137302952Y-76906404D01*
X137302952Y-76811166D01*
X137255333Y-76715928D01*
X137207714Y-76668309D01*
X137112476Y-76620690D01*
X136922000Y-76573071D01*
X136826761Y-76525452D01*
X136779142Y-76477833D01*
X136731523Y-76382595D01*
X136731523Y-76287357D01*
X136779142Y-76192119D01*
X136826761Y-76144500D01*
X136922000Y-76096880D01*
X137160095Y-76096880D01*
X137302952Y-76144500D01*
X138302952Y-77001642D02*
X138255333Y-77049261D01*
X138112476Y-77096880D01*
X138017238Y-77096880D01*
X137874380Y-77049261D01*
X137779142Y-76954023D01*
X137731523Y-76858785D01*
X137683904Y-76668309D01*
X137683904Y-76525452D01*
X137731523Y-76334976D01*
X137779142Y-76239738D01*
X137874380Y-76144500D01*
X138017238Y-76096880D01*
X138112476Y-76096880D01*
X138255333Y-76144500D01*
X138302952Y-76192119D01*
X139207714Y-77096880D02*
X138731523Y-77096880D01*
X138731523Y-76096880D01*
X136707714Y-74509261D02*
X136850571Y-74556880D01*
X137088666Y-74556880D01*
X137183904Y-74509261D01*
X137231523Y-74461642D01*
X137279142Y-74366404D01*
X137279142Y-74271166D01*
X137231523Y-74175928D01*
X137183904Y-74128309D01*
X137088666Y-74080690D01*
X136898190Y-74033071D01*
X136802952Y-73985452D01*
X136755333Y-73937833D01*
X136707714Y-73842595D01*
X136707714Y-73747357D01*
X136755333Y-73652119D01*
X136802952Y-73604500D01*
X136898190Y-73556880D01*
X137136285Y-73556880D01*
X137279142Y-73604500D01*
X137707714Y-74556880D02*
X137707714Y-73556880D01*
X137945809Y-73556880D01*
X138088666Y-73604500D01*
X138183904Y-73699738D01*
X138231523Y-73794976D01*
X138279142Y-73985452D01*
X138279142Y-74128309D01*
X138231523Y-74318785D01*
X138183904Y-74414023D01*
X138088666Y-74509261D01*
X137945809Y-74556880D01*
X137707714Y-74556880D01*
X138660095Y-74271166D02*
X139136285Y-74271166D01*
X138564857Y-74556880D02*
X138898190Y-73556880D01*
X139231523Y-74556880D01*
X137731523Y-71016880D02*
X137255333Y-71016880D01*
X137207714Y-71493071D01*
X137255333Y-71445452D01*
X137350571Y-71397833D01*
X137588666Y-71397833D01*
X137683904Y-71445452D01*
X137731523Y-71493071D01*
X137779142Y-71588309D01*
X137779142Y-71826404D01*
X137731523Y-71921642D01*
X137683904Y-71969261D01*
X137588666Y-72016880D01*
X137350571Y-72016880D01*
X137255333Y-71969261D01*
X137207714Y-71921642D01*
X138064857Y-71016880D02*
X138398190Y-72016880D01*
X138731523Y-71016880D01*
D11*
X132374285Y-84998642D02*
X132588571Y-85070071D01*
X132945714Y-85070071D01*
X133088571Y-84998642D01*
X133160000Y-84927214D01*
X133231428Y-84784357D01*
X133231428Y-84641500D01*
X133160000Y-84498642D01*
X133088571Y-84427214D01*
X132945714Y-84355785D01*
X132660000Y-84284357D01*
X132517142Y-84212928D01*
X132445714Y-84141500D01*
X132374285Y-83998642D01*
X132374285Y-83855785D01*
X132445714Y-83712928D01*
X132517142Y-83641500D01*
X132660000Y-83570071D01*
X133017142Y-83570071D01*
X133231428Y-83641500D01*
X134374285Y-84284357D02*
X133874285Y-84284357D01*
X133874285Y-85070071D02*
X133874285Y-83570071D01*
X134588571Y-83570071D01*
X135160000Y-85070071D02*
X135160000Y-83570071D01*
X135660000Y-84641500D01*
X136160000Y-83570071D01*
X136160000Y-85070071D01*
X136731428Y-83570071D02*
X137660000Y-83570071D01*
X137160000Y-84141500D01*
X137374285Y-84141500D01*
X137517142Y-84212928D01*
X137588571Y-84284357D01*
X137660000Y-84427214D01*
X137660000Y-84784357D01*
X137588571Y-84927214D01*
X137517142Y-84998642D01*
X137374285Y-85070071D01*
X136945714Y-85070071D01*
X136802857Y-84998642D01*
X136731428Y-84927214D01*
X138160000Y-83570071D02*
X139088571Y-83570071D01*
X138588571Y-84141500D01*
X138802857Y-84141500D01*
X138945714Y-84212928D01*
X139017142Y-84284357D01*
X139088571Y-84427214D01*
X139088571Y-84784357D01*
X139017142Y-84927214D01*
X138945714Y-84998642D01*
X138802857Y-85070071D01*
X138374285Y-85070071D01*
X138231428Y-84998642D01*
X138160000Y-84927214D01*
X140017142Y-83570071D02*
X140160000Y-83570071D01*
X140302857Y-83641500D01*
X140374285Y-83712928D01*
X140445714Y-83855785D01*
X140517142Y-84141500D01*
X140517142Y-84498642D01*
X140445714Y-84784357D01*
X140374285Y-84927214D01*
X140302857Y-84998642D01*
X140160000Y-85070071D01*
X140017142Y-85070071D01*
X139874285Y-84998642D01*
X139802857Y-84927214D01*
X139731428Y-84784357D01*
X139660000Y-84498642D01*
X139660000Y-84141500D01*
X139731428Y-83855785D01*
X139802857Y-83712928D01*
X139874285Y-83641500D01*
X140017142Y-83570071D01*
X141445714Y-83570071D02*
X141588571Y-83570071D01*
X141731428Y-83641500D01*
X141802857Y-83712928D01*
X141874285Y-83855785D01*
X141945714Y-84141500D01*
X141945714Y-84498642D01*
X141874285Y-84784357D01*
X141802857Y-84927214D01*
X141731428Y-84998642D01*
X141588571Y-85070071D01*
X141445714Y-85070071D01*
X141302857Y-84998642D01*
X141231428Y-84927214D01*
X141160000Y-84784357D01*
X141088571Y-84498642D01*
X141088571Y-84141500D01*
X141160000Y-83855785D01*
X141231428Y-83712928D01*
X141302857Y-83641500D01*
X141445714Y-83570071D01*
D12*
X78676500Y-98298000D02*
X78676500Y-87376000D01*
X78676500Y-103124000D02*
X78676500Y-100330000D01*
X77660500Y-91186000D02*
X78676500Y-91186000D01*
X77660500Y-93218000D02*
X77660500Y-91186000D01*
X78676500Y-93218000D02*
X77660500Y-93218000D01*
X77660500Y-98298000D02*
X79184500Y-98298000D01*
X77660500Y-100330000D02*
X77660500Y-98298000D01*
X79184500Y-100330000D02*
X77660500Y-100330000D01*
X90868500Y-101600000D02*
X90868500Y-88900000D01*
X79184500Y-101600000D02*
X90868500Y-101600000D01*
X79184500Y-88900000D02*
X79184500Y-101600000D01*
X90868500Y-88900000D02*
X79184500Y-88900000D01*
X91376500Y-103124000D02*
X91376500Y-87376000D01*
X78676500Y-103124000D02*
X91376500Y-103124000D01*
X91376500Y-87376000D02*
X78676500Y-87376000D01*
X128254000Y-96453000D02*
X129904000Y-96453000D01*
X129904000Y-96453000D02*
X129904000Y-86173000D01*
X129904000Y-86173000D02*
X124604000Y-86173000D01*
X124604000Y-86173000D02*
X124604000Y-96453000D01*
X124604000Y-96453000D02*
X126254000Y-96453000D01*
X126254000Y-96453000D02*
G75*
G02*
X128254000Y-96453000I1000000J0D01*
G01*
X119122500Y-70996500D02*
X113922500Y-70996500D01*
X119122500Y-71056500D02*
X119122500Y-70996500D01*
X113922500Y-73656500D02*
X113922500Y-70996500D01*
X119122500Y-71056500D02*
X116522500Y-71056500D01*
X116522500Y-71056500D02*
X116522500Y-73656500D01*
X116522500Y-73656500D02*
X113922500Y-73656500D01*
X119122500Y-72326500D02*
X119122500Y-73656500D01*
X119122500Y-73656500D02*
X117792500Y-73656500D01*
X111830000Y-112973000D02*
X114230000Y-112973000D01*
X114230000Y-112973000D02*
X114230000Y-115373000D01*
X114230000Y-115373000D02*
X111830000Y-115373000D01*
X111830000Y-115373000D02*
X111830000Y-112973000D01*
X87827000Y-112719000D02*
X90227000Y-112719000D01*
X90227000Y-112719000D02*
X90227000Y-115119000D01*
X90227000Y-115119000D02*
X87827000Y-115119000D01*
X87827000Y-115119000D02*
X87827000Y-112719000D01*
X130587500Y-100747500D02*
X130587500Y-98007500D01*
X130587500Y-98007500D02*
X124047500Y-98007500D01*
X124047500Y-98007500D02*
X124047500Y-100747500D01*
X124047500Y-100747500D02*
X130587500Y-100747500D01*
X131357500Y-99377500D02*
X130587500Y-99377500D01*
X123277500Y-99377500D02*
X124047500Y-99377500D01*
X142046000Y-87443000D02*
X139386000Y-87443000D01*
X142046000Y-92583000D02*
X142046000Y-87443000D01*
X139386000Y-92583000D02*
X139386000Y-87443000D01*
X142046000Y-92583000D02*
X139386000Y-92583000D01*
X142046000Y-93853000D02*
X142046000Y-95183000D01*
X142046000Y-95183000D02*
X140716000Y-95183000D01*
X79572000Y-104654500D02*
X81972000Y-104654500D01*
X81972000Y-104654500D02*
X81972000Y-107054500D01*
X81972000Y-107054500D02*
X79572000Y-107054500D01*
X79572000Y-107054500D02*
X79572000Y-104654500D01*
X126571500Y-72139500D02*
X124921500Y-72139500D01*
X124921500Y-72139500D02*
X124921500Y-82419500D01*
X124921500Y-82419500D02*
X130221500Y-82419500D01*
X130221500Y-82419500D02*
X130221500Y-72139500D01*
X130221500Y-72139500D02*
X128571500Y-72139500D01*
X128571500Y-72139500D02*
G75*
G02*
X126571500Y-72139500I-1000000J0D01*
G01*
X120801500Y-78343000D02*
G75*
G03*
X120801500Y-78343000I-2120000J0D01*
G01*
X120761500Y-78343000D02*
X116601500Y-78343000D01*
X120761500Y-78383000D02*
X116601500Y-78383000D01*
X120760500Y-78423000D02*
X116602500Y-78423000D01*
X120758500Y-78463000D02*
X116604500Y-78463000D01*
X120755500Y-78503000D02*
X116607500Y-78503000D01*
X120752500Y-78543000D02*
X119521500Y-78543000D01*
X117841500Y-78543000D02*
X116610500Y-78543000D01*
X120748500Y-78583000D02*
X119521500Y-78583000D01*
X117841500Y-78583000D02*
X116614500Y-78583000D01*
X120743500Y-78623000D02*
X119521500Y-78623000D01*
X117841500Y-78623000D02*
X116619500Y-78623000D01*
X120737500Y-78663000D02*
X119521500Y-78663000D01*
X117841500Y-78663000D02*
X116625500Y-78663000D01*
X120731500Y-78703000D02*
X119521500Y-78703000D01*
X117841500Y-78703000D02*
X116631500Y-78703000D01*
X120723500Y-78743000D02*
X119521500Y-78743000D01*
X117841500Y-78743000D02*
X116639500Y-78743000D01*
X120715500Y-78783000D02*
X119521500Y-78783000D01*
X117841500Y-78783000D02*
X116647500Y-78783000D01*
X120706500Y-78823000D02*
X119521500Y-78823000D01*
X117841500Y-78823000D02*
X116656500Y-78823000D01*
X120697500Y-78863000D02*
X119521500Y-78863000D01*
X117841500Y-78863000D02*
X116665500Y-78863000D01*
X120686500Y-78903000D02*
X119521500Y-78903000D01*
X117841500Y-78903000D02*
X116676500Y-78903000D01*
X120675500Y-78943000D02*
X119521500Y-78943000D01*
X117841500Y-78943000D02*
X116687500Y-78943000D01*
X120663500Y-78983000D02*
X119521500Y-78983000D01*
X117841500Y-78983000D02*
X116699500Y-78983000D01*
X120649500Y-79023000D02*
X119521500Y-79023000D01*
X117841500Y-79023000D02*
X116713500Y-79023000D01*
X120635500Y-79064000D02*
X119521500Y-79064000D01*
X117841500Y-79064000D02*
X116727500Y-79064000D01*
X120621500Y-79104000D02*
X119521500Y-79104000D01*
X117841500Y-79104000D02*
X116741500Y-79104000D01*
X120605500Y-79144000D02*
X119521500Y-79144000D01*
X117841500Y-79144000D02*
X116757500Y-79144000D01*
X120588500Y-79184000D02*
X119521500Y-79184000D01*
X117841500Y-79184000D02*
X116774500Y-79184000D01*
X120570500Y-79224000D02*
X119521500Y-79224000D01*
X117841500Y-79224000D02*
X116792500Y-79224000D01*
X120551500Y-79264000D02*
X119521500Y-79264000D01*
X117841500Y-79264000D02*
X116811500Y-79264000D01*
X120532500Y-79304000D02*
X119521500Y-79304000D01*
X117841500Y-79304000D02*
X116830500Y-79304000D01*
X120511500Y-79344000D02*
X119521500Y-79344000D01*
X117841500Y-79344000D02*
X116851500Y-79344000D01*
X120489500Y-79384000D02*
X119521500Y-79384000D01*
X117841500Y-79384000D02*
X116873500Y-79384000D01*
X120466500Y-79424000D02*
X119521500Y-79424000D01*
X117841500Y-79424000D02*
X116896500Y-79424000D01*
X120441500Y-79464000D02*
X119521500Y-79464000D01*
X117841500Y-79464000D02*
X116921500Y-79464000D01*
X120416500Y-79504000D02*
X119521500Y-79504000D01*
X117841500Y-79504000D02*
X116946500Y-79504000D01*
X120389500Y-79544000D02*
X119521500Y-79544000D01*
X117841500Y-79544000D02*
X116973500Y-79544000D01*
X120361500Y-79584000D02*
X119521500Y-79584000D01*
X117841500Y-79584000D02*
X117001500Y-79584000D01*
X120331500Y-79624000D02*
X119521500Y-79624000D01*
X117841500Y-79624000D02*
X117031500Y-79624000D01*
X120300500Y-79664000D02*
X119521500Y-79664000D01*
X117841500Y-79664000D02*
X117062500Y-79664000D01*
X120268500Y-79704000D02*
X119521500Y-79704000D01*
X117841500Y-79704000D02*
X117094500Y-79704000D01*
X120233500Y-79744000D02*
X119521500Y-79744000D01*
X117841500Y-79744000D02*
X117129500Y-79744000D01*
X120197500Y-79784000D02*
X119521500Y-79784000D01*
X117841500Y-79784000D02*
X117165500Y-79784000D01*
X120159500Y-79824000D02*
X119521500Y-79824000D01*
X117841500Y-79824000D02*
X117203500Y-79824000D01*
X120119500Y-79864000D02*
X119521500Y-79864000D01*
X117841500Y-79864000D02*
X117243500Y-79864000D01*
X120077500Y-79904000D02*
X119521500Y-79904000D01*
X117841500Y-79904000D02*
X117285500Y-79904000D01*
X120032500Y-79944000D02*
X119521500Y-79944000D01*
X117841500Y-79944000D02*
X117330500Y-79944000D01*
X119985500Y-79984000D02*
X119521500Y-79984000D01*
X117841500Y-79984000D02*
X117377500Y-79984000D01*
X119935500Y-80024000D02*
X119521500Y-80024000D01*
X117841500Y-80024000D02*
X117427500Y-80024000D01*
X119881500Y-80064000D02*
X119521500Y-80064000D01*
X117841500Y-80064000D02*
X117481500Y-80064000D01*
X119823500Y-80104000D02*
X119521500Y-80104000D01*
X117841500Y-80104000D02*
X117539500Y-80104000D01*
X119761500Y-80144000D02*
X119521500Y-80144000D01*
X117841500Y-80144000D02*
X117601500Y-80144000D01*
X119694500Y-80184000D02*
X117668500Y-80184000D01*
X119621500Y-80224000D02*
X117741500Y-80224000D01*
X119540500Y-80264000D02*
X117822500Y-80264000D01*
X119449500Y-80304000D02*
X117913500Y-80304000D01*
X119345500Y-80344000D02*
X118017500Y-80344000D01*
X119218500Y-80384000D02*
X118144500Y-80384000D01*
X119051500Y-80424000D02*
X118311500Y-80424000D01*
X119876500Y-76073199D02*
X119876500Y-76473199D01*
X120076500Y-76273199D02*
X119676500Y-76273199D01*
X120801500Y-84756500D02*
G75*
G03*
X120801500Y-84756500I-2120000J0D01*
G01*
X120761500Y-84756500D02*
X116601500Y-84756500D01*
X120761500Y-84796500D02*
X116601500Y-84796500D01*
X120760500Y-84836500D02*
X116602500Y-84836500D01*
X120758500Y-84876500D02*
X116604500Y-84876500D01*
X120755500Y-84916500D02*
X116607500Y-84916500D01*
X120752500Y-84956500D02*
X119521500Y-84956500D01*
X117841500Y-84956500D02*
X116610500Y-84956500D01*
X120748500Y-84996500D02*
X119521500Y-84996500D01*
X117841500Y-84996500D02*
X116614500Y-84996500D01*
X120743500Y-85036500D02*
X119521500Y-85036500D01*
X117841500Y-85036500D02*
X116619500Y-85036500D01*
X120737500Y-85076500D02*
X119521500Y-85076500D01*
X117841500Y-85076500D02*
X116625500Y-85076500D01*
X120731500Y-85116500D02*
X119521500Y-85116500D01*
X117841500Y-85116500D02*
X116631500Y-85116500D01*
X120723500Y-85156500D02*
X119521500Y-85156500D01*
X117841500Y-85156500D02*
X116639500Y-85156500D01*
X120715500Y-85196500D02*
X119521500Y-85196500D01*
X117841500Y-85196500D02*
X116647500Y-85196500D01*
X120706500Y-85236500D02*
X119521500Y-85236500D01*
X117841500Y-85236500D02*
X116656500Y-85236500D01*
X120697500Y-85276500D02*
X119521500Y-85276500D01*
X117841500Y-85276500D02*
X116665500Y-85276500D01*
X120686500Y-85316500D02*
X119521500Y-85316500D01*
X117841500Y-85316500D02*
X116676500Y-85316500D01*
X120675500Y-85356500D02*
X119521500Y-85356500D01*
X117841500Y-85356500D02*
X116687500Y-85356500D01*
X120663500Y-85396500D02*
X119521500Y-85396500D01*
X117841500Y-85396500D02*
X116699500Y-85396500D01*
X120649500Y-85436500D02*
X119521500Y-85436500D01*
X117841500Y-85436500D02*
X116713500Y-85436500D01*
X120635500Y-85477500D02*
X119521500Y-85477500D01*
X117841500Y-85477500D02*
X116727500Y-85477500D01*
X120621500Y-85517500D02*
X119521500Y-85517500D01*
X117841500Y-85517500D02*
X116741500Y-85517500D01*
X120605500Y-85557500D02*
X119521500Y-85557500D01*
X117841500Y-85557500D02*
X116757500Y-85557500D01*
X120588500Y-85597500D02*
X119521500Y-85597500D01*
X117841500Y-85597500D02*
X116774500Y-85597500D01*
X120570500Y-85637500D02*
X119521500Y-85637500D01*
X117841500Y-85637500D02*
X116792500Y-85637500D01*
X120551500Y-85677500D02*
X119521500Y-85677500D01*
X117841500Y-85677500D02*
X116811500Y-85677500D01*
X120532500Y-85717500D02*
X119521500Y-85717500D01*
X117841500Y-85717500D02*
X116830500Y-85717500D01*
X120511500Y-85757500D02*
X119521500Y-85757500D01*
X117841500Y-85757500D02*
X116851500Y-85757500D01*
X120489500Y-85797500D02*
X119521500Y-85797500D01*
X117841500Y-85797500D02*
X116873500Y-85797500D01*
X120466500Y-85837500D02*
X119521500Y-85837500D01*
X117841500Y-85837500D02*
X116896500Y-85837500D01*
X120441500Y-85877500D02*
X119521500Y-85877500D01*
X117841500Y-85877500D02*
X116921500Y-85877500D01*
X120416500Y-85917500D02*
X119521500Y-85917500D01*
X117841500Y-85917500D02*
X116946500Y-85917500D01*
X120389500Y-85957500D02*
X119521500Y-85957500D01*
X117841500Y-85957500D02*
X116973500Y-85957500D01*
X120361500Y-85997500D02*
X119521500Y-85997500D01*
X117841500Y-85997500D02*
X117001500Y-85997500D01*
X120331500Y-86037500D02*
X119521500Y-86037500D01*
X117841500Y-86037500D02*
X117031500Y-86037500D01*
X120300500Y-86077500D02*
X119521500Y-86077500D01*
X117841500Y-86077500D02*
X117062500Y-86077500D01*
X120268500Y-86117500D02*
X119521500Y-86117500D01*
X117841500Y-86117500D02*
X117094500Y-86117500D01*
X120233500Y-86157500D02*
X119521500Y-86157500D01*
X117841500Y-86157500D02*
X117129500Y-86157500D01*
X120197500Y-86197500D02*
X119521500Y-86197500D01*
X117841500Y-86197500D02*
X117165500Y-86197500D01*
X120159500Y-86237500D02*
X119521500Y-86237500D01*
X117841500Y-86237500D02*
X117203500Y-86237500D01*
X120119500Y-86277500D02*
X119521500Y-86277500D01*
X117841500Y-86277500D02*
X117243500Y-86277500D01*
X120077500Y-86317500D02*
X119521500Y-86317500D01*
X117841500Y-86317500D02*
X117285500Y-86317500D01*
X120032500Y-86357500D02*
X119521500Y-86357500D01*
X117841500Y-86357500D02*
X117330500Y-86357500D01*
X119985500Y-86397500D02*
X119521500Y-86397500D01*
X117841500Y-86397500D02*
X117377500Y-86397500D01*
X119935500Y-86437500D02*
X119521500Y-86437500D01*
X117841500Y-86437500D02*
X117427500Y-86437500D01*
X119881500Y-86477500D02*
X119521500Y-86477500D01*
X117841500Y-86477500D02*
X117481500Y-86477500D01*
X119823500Y-86517500D02*
X119521500Y-86517500D01*
X117841500Y-86517500D02*
X117539500Y-86517500D01*
X119761500Y-86557500D02*
X119521500Y-86557500D01*
X117841500Y-86557500D02*
X117601500Y-86557500D01*
X119694500Y-86597500D02*
X117668500Y-86597500D01*
X119621500Y-86637500D02*
X117741500Y-86637500D01*
X119540500Y-86677500D02*
X117822500Y-86677500D01*
X119449500Y-86717500D02*
X117913500Y-86717500D01*
X119345500Y-86757500D02*
X118017500Y-86757500D01*
X119218500Y-86797500D02*
X118144500Y-86797500D01*
X119051500Y-86837500D02*
X118311500Y-86837500D01*
X119876500Y-82486699D02*
X119876500Y-82886699D01*
X120076500Y-82686699D02*
X119676500Y-82686699D01*
X94297500Y-71056500D02*
X96202500Y-71056500D01*
X94297500Y-98996500D02*
X94297500Y-71056500D01*
X110807500Y-98996500D02*
X94297500Y-98996500D01*
X110807500Y-71056500D02*
X110807500Y-98996500D01*
X96202500Y-71056500D02*
X110807500Y-71056500D01*
X94932500Y-103124000D02*
X94932500Y-115824000D01*
X110680500Y-115824000D02*
X110680500Y-103124000D01*
X110680500Y-103124000D02*
X94932500Y-103124000D01*
X96456500Y-103632000D02*
X96456500Y-115316000D01*
X96456500Y-115316000D02*
X109156500Y-115316000D01*
X109156500Y-115316000D02*
X109156500Y-103632000D01*
X109156500Y-103632000D02*
X96456500Y-103632000D01*
X107886500Y-115316000D02*
X107886500Y-116840000D01*
X107886500Y-116840000D02*
X105854500Y-116840000D01*
X105854500Y-116840000D02*
X105854500Y-115316000D01*
X100774500Y-115824000D02*
X100774500Y-116840000D01*
X100774500Y-116840000D02*
X98742500Y-116840000D01*
X98742500Y-116840000D02*
X98742500Y-115824000D01*
X110680500Y-115824000D02*
X107886500Y-115824000D01*
X105854500Y-115824000D02*
X94932500Y-115824000D01*
X118300500Y-103124000D02*
X118300500Y-115824000D01*
X134048500Y-115824000D02*
X134048500Y-103124000D01*
X134048500Y-103124000D02*
X118300500Y-103124000D01*
X119824500Y-103632000D02*
X119824500Y-115316000D01*
X119824500Y-115316000D02*
X132524500Y-115316000D01*
X132524500Y-115316000D02*
X132524500Y-103632000D01*
X132524500Y-103632000D02*
X119824500Y-103632000D01*
X131254500Y-115316000D02*
X131254500Y-116840000D01*
X131254500Y-116840000D02*
X129222500Y-116840000D01*
X129222500Y-116840000D02*
X129222500Y-115316000D01*
X124142500Y-115824000D02*
X124142500Y-116840000D01*
X124142500Y-116840000D02*
X122110500Y-116840000D01*
X122110500Y-116840000D02*
X122110500Y-115824000D01*
X134048500Y-115824000D02*
X131254500Y-115824000D01*
X129222500Y-115824000D02*
X118300500Y-115824000D01*
X139513000Y-70234500D02*
X140843000Y-70234500D01*
X139513000Y-71564500D02*
X139513000Y-70234500D01*
X139513000Y-72834500D02*
X142173000Y-72834500D01*
X142173000Y-72834500D02*
X142173000Y-80514500D01*
X139513000Y-72834500D02*
X139513000Y-80514500D01*
X139513000Y-80514500D02*
X142173000Y-80514500D01*
X79572000Y-82988000D02*
X79572000Y-80588000D01*
X81972000Y-82988000D02*
X79572000Y-82988000D01*
X81972000Y-80588000D02*
X81972000Y-82988000D01*
X79572000Y-80588000D02*
X81972000Y-80588000D01*
D13*
X83883595Y-103592380D02*
X83883595Y-104401904D01*
X83931214Y-104497142D01*
X83978833Y-104544761D01*
X84074071Y-104592380D01*
X84264547Y-104592380D01*
X84359785Y-104544761D01*
X84407404Y-104497142D01*
X84455023Y-104401904D01*
X84455023Y-103592380D01*
X85359785Y-103592380D02*
X85169309Y-103592380D01*
X85074071Y-103640000D01*
X85026452Y-103687619D01*
X84931214Y-103830476D01*
X84883595Y-104020952D01*
X84883595Y-104401904D01*
X84931214Y-104497142D01*
X84978833Y-104544761D01*
X85074071Y-104592380D01*
X85264547Y-104592380D01*
X85359785Y-104544761D01*
X85407404Y-104497142D01*
X85455023Y-104401904D01*
X85455023Y-104163809D01*
X85407404Y-104068571D01*
X85359785Y-104020952D01*
X85264547Y-103973333D01*
X85074071Y-103973333D01*
X84978833Y-104020952D01*
X84931214Y-104068571D01*
X84883595Y-104163809D01*
X77930404Y-92368666D02*
X78406595Y-92368666D01*
X77835166Y-92654380D02*
X78168500Y-91654380D01*
X78501833Y-92654380D01*
X78239928Y-99242571D02*
X78382785Y-99290190D01*
X78430404Y-99337809D01*
X78478023Y-99433047D01*
X78478023Y-99575904D01*
X78430404Y-99671142D01*
X78382785Y-99718761D01*
X78287547Y-99766380D01*
X77906595Y-99766380D01*
X77906595Y-98766380D01*
X78239928Y-98766380D01*
X78335166Y-98814000D01*
X78382785Y-98861619D01*
X78430404Y-98956857D01*
X78430404Y-99052095D01*
X78382785Y-99147333D01*
X78335166Y-99194952D01*
X78239928Y-99242571D01*
X77906595Y-99242571D01*
X122428095Y-84415380D02*
X122428095Y-85224904D01*
X122475714Y-85320142D01*
X122523333Y-85367761D01*
X122618571Y-85415380D01*
X122809047Y-85415380D01*
X122904285Y-85367761D01*
X122951904Y-85320142D01*
X122999523Y-85224904D01*
X122999523Y-84415380D01*
X123428095Y-84510619D02*
X123475714Y-84463000D01*
X123570952Y-84415380D01*
X123809047Y-84415380D01*
X123904285Y-84463000D01*
X123951904Y-84510619D01*
X123999523Y-84605857D01*
X123999523Y-84701095D01*
X123951904Y-84843952D01*
X123380476Y-85415380D01*
X123999523Y-85415380D01*
X81338095Y-64852380D02*
X81338095Y-63852380D01*
X81338095Y-64328571D02*
X81909523Y-64328571D01*
X81909523Y-64852380D02*
X81909523Y-63852380D01*
X82909523Y-64852380D02*
X82338095Y-64852380D01*
X82623809Y-64852380D02*
X82623809Y-63852380D01*
X82528571Y-63995238D01*
X82433333Y-64090476D01*
X82338095Y-64138095D01*
X139338095Y-64872380D02*
X139338095Y-63872380D01*
X139338095Y-64348571D02*
X139909523Y-64348571D01*
X139909523Y-64872380D02*
X139909523Y-63872380D01*
X140290476Y-63872380D02*
X140909523Y-63872380D01*
X140576190Y-64253333D01*
X140719047Y-64253333D01*
X140814285Y-64300952D01*
X140861904Y-64348571D01*
X140909523Y-64443809D01*
X140909523Y-64681904D01*
X140861904Y-64777142D01*
X140814285Y-64824761D01*
X140719047Y-64872380D01*
X140433333Y-64872380D01*
X140338095Y-64824761D01*
X140290476Y-64777142D01*
X81338095Y-113862380D02*
X81338095Y-112862380D01*
X81338095Y-113338571D02*
X81909523Y-113338571D01*
X81909523Y-113862380D02*
X81909523Y-112862380D01*
X82338095Y-112957619D02*
X82385714Y-112910000D01*
X82480952Y-112862380D01*
X82719047Y-112862380D01*
X82814285Y-112910000D01*
X82861904Y-112957619D01*
X82909523Y-113052857D01*
X82909523Y-113148095D01*
X82861904Y-113290952D01*
X82290476Y-113862380D01*
X82909523Y-113862380D01*
X139328095Y-113852380D02*
X139328095Y-112852380D01*
X139328095Y-113328571D02*
X139899523Y-113328571D01*
X139899523Y-113852380D02*
X139899523Y-112852380D01*
X140804285Y-113185714D02*
X140804285Y-113852380D01*
X140566190Y-112804761D02*
X140328095Y-113519047D01*
X140947142Y-113519047D01*
X116189166Y-74108880D02*
X116189166Y-74823166D01*
X116141547Y-74966023D01*
X116046309Y-75061261D01*
X115903452Y-75108880D01*
X115808214Y-75108880D01*
X116570119Y-74108880D02*
X117189166Y-74108880D01*
X116855833Y-74489833D01*
X116998690Y-74489833D01*
X117093928Y-74537452D01*
X117141547Y-74585071D01*
X117189166Y-74680309D01*
X117189166Y-74918404D01*
X117141547Y-75013642D01*
X117093928Y-75061261D01*
X116998690Y-75108880D01*
X116712976Y-75108880D01*
X116617738Y-75061261D01*
X116570119Y-75013642D01*
X111768095Y-111627380D02*
X112339523Y-111627380D01*
X112053809Y-112627380D02*
X112053809Y-111627380D01*
X112672857Y-112627380D02*
X112672857Y-111627380D01*
X113053809Y-111627380D01*
X113149047Y-111675000D01*
X113196666Y-111722619D01*
X113244285Y-111817857D01*
X113244285Y-111960714D01*
X113196666Y-112055952D01*
X113149047Y-112103571D01*
X113053809Y-112151190D01*
X112672857Y-112151190D01*
X114196666Y-112627380D02*
X113625238Y-112627380D01*
X113910952Y-112627380D02*
X113910952Y-111627380D01*
X113815714Y-111770238D01*
X113720476Y-111865476D01*
X113625238Y-111913095D01*
X87765095Y-111373380D02*
X88336523Y-111373380D01*
X88050809Y-112373380D02*
X88050809Y-111373380D01*
X88669857Y-112373380D02*
X88669857Y-111373380D01*
X89050809Y-111373380D01*
X89146047Y-111421000D01*
X89193666Y-111468619D01*
X89241285Y-111563857D01*
X89241285Y-111706714D01*
X89193666Y-111801952D01*
X89146047Y-111849571D01*
X89050809Y-111897190D01*
X88669857Y-111897190D01*
X89622238Y-111468619D02*
X89669857Y-111421000D01*
X89765095Y-111373380D01*
X90003190Y-111373380D01*
X90098428Y-111421000D01*
X90146047Y-111468619D01*
X90193666Y-111563857D01*
X90193666Y-111659095D01*
X90146047Y-111801952D01*
X89574619Y-112373380D01*
X90193666Y-112373380D01*
X127150833Y-102199880D02*
X126817500Y-101723690D01*
X126579404Y-102199880D02*
X126579404Y-101199880D01*
X126960357Y-101199880D01*
X127055595Y-101247500D01*
X127103214Y-101295119D01*
X127150833Y-101390357D01*
X127150833Y-101533214D01*
X127103214Y-101628452D01*
X127055595Y-101676071D01*
X126960357Y-101723690D01*
X126579404Y-101723690D01*
X128103214Y-102199880D02*
X127531785Y-102199880D01*
X127817500Y-102199880D02*
X127817500Y-101199880D01*
X127722261Y-101342738D01*
X127627023Y-101437976D01*
X127531785Y-101485595D01*
X140382666Y-95635380D02*
X140382666Y-96349666D01*
X140335047Y-96492523D01*
X140239809Y-96587761D01*
X140096952Y-96635380D01*
X140001714Y-96635380D01*
X141287428Y-95968714D02*
X141287428Y-96635380D01*
X141049333Y-95587761D02*
X140811238Y-96302047D01*
X141430285Y-96302047D01*
X79510095Y-103308880D02*
X80081523Y-103308880D01*
X79795809Y-104308880D02*
X79795809Y-103308880D01*
X80414857Y-104308880D02*
X80414857Y-103308880D01*
X80795809Y-103308880D01*
X80891047Y-103356500D01*
X80938666Y-103404119D01*
X80986285Y-103499357D01*
X80986285Y-103642214D01*
X80938666Y-103737452D01*
X80891047Y-103785071D01*
X80795809Y-103832690D01*
X80414857Y-103832690D01*
X81319619Y-103308880D02*
X81938666Y-103308880D01*
X81605333Y-103689833D01*
X81748190Y-103689833D01*
X81843428Y-103737452D01*
X81891047Y-103785071D01*
X81938666Y-103880309D01*
X81938666Y-104118404D01*
X81891047Y-104213642D01*
X81843428Y-104261261D01*
X81748190Y-104308880D01*
X81462476Y-104308880D01*
X81367238Y-104261261D01*
X81319619Y-104213642D01*
X126809595Y-70591880D02*
X126809595Y-71401404D01*
X126857214Y-71496642D01*
X126904833Y-71544261D01*
X127000071Y-71591880D01*
X127190547Y-71591880D01*
X127285785Y-71544261D01*
X127333404Y-71496642D01*
X127381023Y-71401404D01*
X127381023Y-70591880D01*
X128381023Y-71591880D02*
X127809595Y-71591880D01*
X128095309Y-71591880D02*
X128095309Y-70591880D01*
X128000071Y-70734738D01*
X127904833Y-70829976D01*
X127809595Y-70877595D01*
X122288642Y-78509666D02*
X122336261Y-78557285D01*
X122383880Y-78700142D01*
X122383880Y-78795380D01*
X122336261Y-78938238D01*
X122241023Y-79033476D01*
X122145785Y-79081095D01*
X121955309Y-79128714D01*
X121812452Y-79128714D01*
X121621976Y-79081095D01*
X121526738Y-79033476D01*
X121431500Y-78938238D01*
X121383880Y-78795380D01*
X121383880Y-78700142D01*
X121431500Y-78557285D01*
X121479119Y-78509666D01*
X122383880Y-77557285D02*
X122383880Y-78128714D01*
X122383880Y-77843000D02*
X121383880Y-77843000D01*
X121526738Y-77938238D01*
X121621976Y-78033476D01*
X121669595Y-78128714D01*
X122288642Y-84923166D02*
X122336261Y-84970785D01*
X122383880Y-85113642D01*
X122383880Y-85208880D01*
X122336261Y-85351738D01*
X122241023Y-85446976D01*
X122145785Y-85494595D01*
X121955309Y-85542214D01*
X121812452Y-85542214D01*
X121621976Y-85494595D01*
X121526738Y-85446976D01*
X121431500Y-85351738D01*
X121383880Y-85208880D01*
X121383880Y-85113642D01*
X121431500Y-84970785D01*
X121479119Y-84923166D01*
X121479119Y-84542214D02*
X121431500Y-84494595D01*
X121383880Y-84399357D01*
X121383880Y-84161261D01*
X121431500Y-84066023D01*
X121479119Y-84018404D01*
X121574357Y-83970785D01*
X121669595Y-83970785D01*
X121812452Y-84018404D01*
X122383880Y-84589833D01*
X122383880Y-83970785D01*
X102171595Y-99591880D02*
X102171595Y-100401404D01*
X102219214Y-100496642D01*
X102266833Y-100544261D01*
X102362071Y-100591880D01*
X102552547Y-100591880D01*
X102647785Y-100544261D01*
X102695404Y-100496642D01*
X102743023Y-100401404D01*
X102743023Y-99591880D01*
X103647785Y-99925214D02*
X103647785Y-100591880D01*
X103409690Y-99544261D02*
X103171595Y-100258547D01*
X103790642Y-100258547D01*
X111148880Y-110616904D02*
X111958404Y-110616904D01*
X112053642Y-110569285D01*
X112101261Y-110521666D01*
X112148880Y-110426428D01*
X112148880Y-110235952D01*
X112101261Y-110140714D01*
X112053642Y-110093095D01*
X111958404Y-110045476D01*
X111148880Y-110045476D01*
X111148880Y-109093095D02*
X111148880Y-109569285D01*
X111625071Y-109616904D01*
X111577452Y-109569285D01*
X111529833Y-109474047D01*
X111529833Y-109235952D01*
X111577452Y-109140714D01*
X111625071Y-109093095D01*
X111720309Y-109045476D01*
X111958404Y-109045476D01*
X112053642Y-109093095D01*
X112101261Y-109140714D01*
X112148880Y-109235952D01*
X112148880Y-109474047D01*
X112101261Y-109569285D01*
X112053642Y-109616904D01*
X106799071Y-116260571D02*
X106846690Y-116117714D01*
X106894309Y-116070095D01*
X106989547Y-116022476D01*
X107132404Y-116022476D01*
X107227642Y-116070095D01*
X107275261Y-116117714D01*
X107322880Y-116212952D01*
X107322880Y-116593904D01*
X106322880Y-116593904D01*
X106322880Y-116260571D01*
X106370500Y-116165333D01*
X106418119Y-116117714D01*
X106513357Y-116070095D01*
X106608595Y-116070095D01*
X106703833Y-116117714D01*
X106751452Y-116165333D01*
X106799071Y-116260571D01*
X106799071Y-116593904D01*
X99925166Y-116570095D02*
X99925166Y-116093904D01*
X100210880Y-116665333D02*
X99210880Y-116332000D01*
X100210880Y-115998666D01*
X134516880Y-110616904D02*
X135326404Y-110616904D01*
X135421642Y-110569285D01*
X135469261Y-110521666D01*
X135516880Y-110426428D01*
X135516880Y-110235952D01*
X135469261Y-110140714D01*
X135421642Y-110093095D01*
X135326404Y-110045476D01*
X134516880Y-110045476D01*
X134516880Y-109664523D02*
X134516880Y-109045476D01*
X134897833Y-109378809D01*
X134897833Y-109235952D01*
X134945452Y-109140714D01*
X134993071Y-109093095D01*
X135088309Y-109045476D01*
X135326404Y-109045476D01*
X135421642Y-109093095D01*
X135469261Y-109140714D01*
X135516880Y-109235952D01*
X135516880Y-109521666D01*
X135469261Y-109616904D01*
X135421642Y-109664523D01*
X130167071Y-116260571D02*
X130214690Y-116117714D01*
X130262309Y-116070095D01*
X130357547Y-116022476D01*
X130500404Y-116022476D01*
X130595642Y-116070095D01*
X130643261Y-116117714D01*
X130690880Y-116212952D01*
X130690880Y-116593904D01*
X129690880Y-116593904D01*
X129690880Y-116260571D01*
X129738500Y-116165333D01*
X129786119Y-116117714D01*
X129881357Y-116070095D01*
X129976595Y-116070095D01*
X130071833Y-116117714D01*
X130119452Y-116165333D01*
X130167071Y-116260571D01*
X130167071Y-116593904D01*
X123293166Y-116570095D02*
X123293166Y-116093904D01*
X123578880Y-116665333D02*
X122578880Y-116332000D01*
X123578880Y-115998666D01*
X140509666Y-68686880D02*
X140509666Y-69401166D01*
X140462047Y-69544023D01*
X140366809Y-69639261D01*
X140223952Y-69686880D01*
X140128714Y-69686880D01*
X140938238Y-68782119D02*
X140985857Y-68734500D01*
X141081095Y-68686880D01*
X141319190Y-68686880D01*
X141414428Y-68734500D01*
X141462047Y-68782119D01*
X141509666Y-68877357D01*
X141509666Y-68972595D01*
X141462047Y-69115452D01*
X140890619Y-69686880D01*
X141509666Y-69686880D01*
X79510095Y-79242380D02*
X80081523Y-79242380D01*
X79795809Y-80242380D02*
X79795809Y-79242380D01*
X80414857Y-80242380D02*
X80414857Y-79242380D01*
X80795809Y-79242380D01*
X80891047Y-79290000D01*
X80938666Y-79337619D01*
X80986285Y-79432857D01*
X80986285Y-79575714D01*
X80938666Y-79670952D01*
X80891047Y-79718571D01*
X80795809Y-79766190D01*
X80414857Y-79766190D01*
X81843428Y-79575714D02*
X81843428Y-80242380D01*
X81605333Y-79194761D02*
X81367238Y-79909047D01*
X81986285Y-79909047D01*
M02*
