G04 #@! TF.GenerationSoftware,KiCad,Pcbnew,(5.1.6)-1*
G04 #@! TF.CreationDate,2020-08-19T12:55:17-04:00*
G04 #@! TF.ProjectId,actuators-rev2,61637475-6174-46f7-9273-2d726576322e,rev?*
G04 #@! TF.SameCoordinates,Original*
G04 #@! TF.FileFunction,Soldermask,Bot*
G04 #@! TF.FilePolarity,Negative*
%FSLAX46Y46*%
G04 Gerber Fmt 4.6, Leading zero omitted, Abs format (unit mm)*
G04 Created by KiCad (PCBNEW (5.1.6)-1) date 2020-08-19 12:55:17*
%MOMM*%
%LPD*%
G01*
G04 APERTURE LIST*
%ADD10R,1.800000X1.800000*%
%ADD11O,1.800000X1.800000*%
%ADD12R,1.900000X1.900000*%
%ADD13O,1.900000X1.900000*%
%ADD14C,3.200000*%
%ADD15O,2.180000X4.160000*%
%ADD16R,2.180000X4.160000*%
%ADD17R,2.200000X2.200000*%
%ADD18C,2.200000*%
%ADD19R,4.160000X2.180000*%
%ADD20O,4.160000X2.180000*%
%ADD21C,1.800000*%
G04 APERTURE END LIST*
D10*
X110490000Y-82550000D03*
D11*
X92710000Y-90170000D03*
X107950000Y-82550000D03*
X95250000Y-90170000D03*
X105410000Y-82550000D03*
X97790000Y-90170000D03*
X102870000Y-82550000D03*
X100330000Y-90170000D03*
X100330000Y-82550000D03*
X102870000Y-90170000D03*
X97790000Y-82550000D03*
X105410000Y-90170000D03*
X95250000Y-82550000D03*
X107950000Y-90170000D03*
X92710000Y-82550000D03*
X110490000Y-90170000D03*
D12*
X86920000Y-65590000D03*
D13*
X86920000Y-63050000D03*
X89460000Y-65590000D03*
X89460000Y-63050000D03*
X92000000Y-65590000D03*
X92000000Y-63050000D03*
X94540000Y-65590000D03*
X94540000Y-63050000D03*
X97080000Y-65590000D03*
X97080000Y-63050000D03*
X99620000Y-65590000D03*
X99620000Y-63050000D03*
X102160000Y-65590000D03*
X102160000Y-63050000D03*
X104700000Y-65590000D03*
X104700000Y-63050000D03*
X107240000Y-65590000D03*
X107240000Y-63050000D03*
X109780000Y-65590000D03*
X109780000Y-63050000D03*
X112320000Y-65590000D03*
X112320000Y-63050000D03*
X114860000Y-65590000D03*
X114860000Y-63050000D03*
X117400000Y-65590000D03*
X117400000Y-63050000D03*
X119940000Y-65590000D03*
X119940000Y-63050000D03*
X122480000Y-65590000D03*
X122480000Y-63050000D03*
X125020000Y-65590000D03*
X125020000Y-63050000D03*
X127560000Y-65590000D03*
X127560000Y-63050000D03*
X130100000Y-65590000D03*
X130100000Y-63050000D03*
X132640000Y-65590000D03*
X132640000Y-63050000D03*
X135180000Y-65590000D03*
X135180000Y-63050000D03*
D14*
X82040000Y-64310000D03*
X140040000Y-64330000D03*
X82040000Y-113320000D03*
X140030000Y-113310000D03*
D15*
X104220000Y-110490000D03*
D16*
X109220000Y-110490000D03*
X95250000Y-110490000D03*
D15*
X90250000Y-110490000D03*
D17*
X132040000Y-91430000D03*
D18*
X126940000Y-91430000D03*
X139740000Y-71130000D03*
X129540000Y-71130000D03*
X119340000Y-71130000D03*
X119340000Y-91430000D03*
D12*
X87630000Y-71120000D03*
D13*
X90170000Y-71120000D03*
D19*
X137160000Y-99060000D03*
D20*
X137160000Y-104060000D03*
D10*
X90170000Y-75882500D03*
D21*
X90170000Y-77882500D03*
X113411000Y-99073276D03*
D10*
X113411000Y-96573276D03*
X119335499Y-96573276D03*
D21*
X119335499Y-99073276D03*
M02*
