M48
; DRILL file {KiCad (5.1.6)-1} date 08/19/20 12:55:20
; FORMAT={-:-/ absolute / inch / decimal}
; #@! TF.CreationDate,2020-08-19T12:55:20-04:00
; #@! TF.GenerationSoftware,Kicad,Pcbnew,(5.1.6)-1
; #@! TF.FileFunction,Plated,1,4,PTH
FMAT,2
INCH
T1C0.0079
T2C0.0315
T3C0.0394
T4C0.0512
T5C0.0520
%
G90
G05
T1
X3.95Y-3.05
T2
X3.65Y-3.25
X3.65Y-3.55
X3.75Y-3.25
X3.75Y-3.55
X3.85Y-3.25
X3.85Y-3.55
X3.95Y-3.25
X3.95Y-3.55
X4.05Y-3.25
X4.05Y-3.55
X4.15Y-3.25
X4.15Y-3.55
X4.25Y-3.25
X4.25Y-3.55
X4.35Y-3.25
X4.35Y-3.55
X4.6982Y-3.8021
X4.6982Y-3.9005
X4.465Y-3.8021
X4.465Y-3.9005
X3.55Y-2.9875
X3.55Y-3.0662
T3
X3.422Y-2.4823
X3.422Y-2.5823
X3.522Y-2.4823
X3.522Y-2.5823
X3.622Y-2.4823
X3.622Y-2.5823
X3.722Y-2.4823
X3.722Y-2.5823
X3.822Y-2.4823
X3.822Y-2.5823
X3.922Y-2.4823
X3.922Y-2.5823
X4.022Y-2.4823
X4.022Y-2.5823
X4.122Y-2.4823
X4.122Y-2.5823
X4.222Y-2.4823
X4.222Y-2.5823
X4.322Y-2.4823
X4.322Y-2.5823
X4.422Y-2.4823
X4.422Y-2.5823
X4.522Y-2.4823
X4.522Y-2.5823
X4.622Y-2.4823
X4.622Y-2.5823
X4.722Y-2.4823
X4.722Y-2.5823
X4.822Y-2.4823
X4.822Y-2.5823
X4.922Y-2.4823
X4.922Y-2.5823
X5.022Y-2.4823
X5.022Y-2.5823
X5.122Y-2.4823
X5.122Y-2.5823
X5.222Y-2.4823
X5.222Y-2.5823
X5.322Y-2.4823
X5.322Y-2.5823
X3.45Y-2.8
X3.55Y-2.8
T4
X4.6984Y-2.8004
X4.6984Y-3.5996
X4.9976Y-3.5996
X5.1Y-2.8004
X5.1984Y-3.5996
X5.5016Y-2.8004
T5
X3.5531Y-4.35
X3.75Y-4.35
X5.4Y-3.9
X5.4Y-4.0969
X4.1031Y-4.35
X4.3Y-4.35
T0
M30
