G04 #@! TF.GenerationSoftware,KiCad,Pcbnew,(5.1.6)-1*
G04 #@! TF.CreationDate,2020-08-19T12:55:17-04:00*
G04 #@! TF.ProjectId,actuators-rev2,61637475-6174-46f7-9273-2d726576322e,rev?*
G04 #@! TF.SameCoordinates,Original*
G04 #@! TF.FileFunction,Legend,Top*
G04 #@! TF.FilePolarity,Positive*
%FSLAX46Y46*%
G04 Gerber Fmt 4.6, Leading zero omitted, Abs format (unit mm)*
G04 Created by KiCad (PCBNEW (5.1.6)-1) date 2020-08-19 12:55:17*
%MOMM*%
%LPD*%
G01*
G04 APERTURE LIST*
%ADD10C,0.200000*%
%ADD11C,0.090000*%
%ADD12C,0.300000*%
%ADD13C,0.120000*%
%ADD14C,0.400000*%
%ADD15C,0.127000*%
%ADD16C,0.150000*%
%ADD17C,0.015000*%
G04 APERTURE END LIST*
D10*
X104870476Y-97369380D02*
X104870476Y-98083666D01*
X104822857Y-98226523D01*
X104727619Y-98321761D01*
X104584761Y-98369380D01*
X104489523Y-98369380D01*
X105870476Y-98369380D02*
X105299047Y-98369380D01*
X105584761Y-98369380D02*
X105584761Y-97369380D01*
X105489523Y-97512238D01*
X105394285Y-97607476D01*
X105299047Y-97655095D01*
X106299047Y-97988428D02*
X107060952Y-97988428D01*
X106680000Y-98369380D02*
X106680000Y-97607476D01*
X107822857Y-97369380D02*
X107822857Y-98083666D01*
X107775238Y-98226523D01*
X107680000Y-98321761D01*
X107537142Y-98369380D01*
X107441904Y-98369380D01*
X108251428Y-97464619D02*
X108299047Y-97417000D01*
X108394285Y-97369380D01*
X108632380Y-97369380D01*
X108727619Y-97417000D01*
X108775238Y-97464619D01*
X108822857Y-97559857D01*
X108822857Y-97655095D01*
X108775238Y-97797952D01*
X108203809Y-98369380D01*
X108822857Y-98369380D01*
X97123476Y-97305880D02*
X97123476Y-98020166D01*
X97075857Y-98163023D01*
X96980619Y-98258261D01*
X96837761Y-98305880D01*
X96742523Y-98305880D01*
X97552047Y-97401119D02*
X97599666Y-97353500D01*
X97694904Y-97305880D01*
X97933000Y-97305880D01*
X98028238Y-97353500D01*
X98075857Y-97401119D01*
X98123476Y-97496357D01*
X98123476Y-97591595D01*
X98075857Y-97734452D01*
X97504428Y-98305880D01*
X98123476Y-98305880D01*
X98552047Y-97924928D02*
X99313952Y-97924928D01*
X98933000Y-98305880D02*
X98933000Y-97543976D01*
X100075857Y-97305880D02*
X100075857Y-98020166D01*
X100028238Y-98163023D01*
X99933000Y-98258261D01*
X99790142Y-98305880D01*
X99694904Y-98305880D01*
X100456809Y-97305880D02*
X101075857Y-97305880D01*
X100742523Y-97686833D01*
X100885380Y-97686833D01*
X100980619Y-97734452D01*
X101028238Y-97782071D01*
X101075857Y-97877309D01*
X101075857Y-98115404D01*
X101028238Y-98210642D01*
X100980619Y-98258261D01*
X100885380Y-98305880D01*
X100599666Y-98305880D01*
X100504428Y-98258261D01*
X100456809Y-98210642D01*
X84677738Y-68714928D02*
X85439642Y-68714928D01*
X85058690Y-69095880D02*
X85058690Y-68333976D01*
X86392023Y-68095880D02*
X85915833Y-68095880D01*
X85868214Y-68572071D01*
X85915833Y-68524452D01*
X86011071Y-68476833D01*
X86249166Y-68476833D01*
X86344404Y-68524452D01*
X86392023Y-68572071D01*
X86439642Y-68667309D01*
X86439642Y-68905404D01*
X86392023Y-69000642D01*
X86344404Y-69048261D01*
X86249166Y-69095880D01*
X86011071Y-69095880D01*
X85915833Y-69048261D01*
X85868214Y-69000642D01*
X87487261Y-68095880D02*
X87820595Y-69095880D01*
X88153928Y-68095880D01*
X89106309Y-68429214D02*
X89487261Y-68429214D01*
X89249166Y-68095880D02*
X89249166Y-68953023D01*
X89296785Y-69048261D01*
X89392023Y-69095880D01*
X89487261Y-69095880D01*
X89963452Y-69095880D02*
X89868214Y-69048261D01*
X89820595Y-69000642D01*
X89772976Y-68905404D01*
X89772976Y-68619690D01*
X89820595Y-68524452D01*
X89868214Y-68476833D01*
X89963452Y-68429214D01*
X90106309Y-68429214D01*
X90201547Y-68476833D01*
X90249166Y-68524452D01*
X90296785Y-68619690D01*
X90296785Y-68905404D01*
X90249166Y-69000642D01*
X90201547Y-69048261D01*
X90106309Y-69095880D01*
X89963452Y-69095880D01*
X91487261Y-69095880D02*
X91487261Y-68095880D01*
X91868214Y-68095880D01*
X91963452Y-68143500D01*
X92011071Y-68191119D01*
X92058690Y-68286357D01*
X92058690Y-68429214D01*
X92011071Y-68524452D01*
X91963452Y-68572071D01*
X91868214Y-68619690D01*
X91487261Y-68619690D01*
X92487261Y-69095880D02*
X92487261Y-68429214D01*
X92487261Y-68095880D02*
X92439642Y-68143500D01*
X92487261Y-68191119D01*
X92534880Y-68143500D01*
X92487261Y-68095880D01*
X92487261Y-68191119D01*
D11*
X115776928Y-100955880D02*
X115967404Y-100955880D01*
X116062642Y-101003500D01*
X116157880Y-101098738D01*
X116205500Y-101289214D01*
X116205500Y-101622547D01*
X116157880Y-101813023D01*
X116062642Y-101908261D01*
X115967404Y-101955880D01*
X115776928Y-101955880D01*
X115681690Y-101908261D01*
X115586452Y-101813023D01*
X115538833Y-101622547D01*
X115538833Y-101289214D01*
X115586452Y-101098738D01*
X115681690Y-101003500D01*
X115776928Y-100955880D01*
X116634071Y-101289214D02*
X116634071Y-101955880D01*
X116634071Y-101384452D02*
X116681690Y-101336833D01*
X116776928Y-101289214D01*
X116919785Y-101289214D01*
X117015023Y-101336833D01*
X117062642Y-101432071D01*
X117062642Y-101955880D01*
X118253119Y-100908261D02*
X117395976Y-102193976D01*
X118729309Y-101955880D02*
X118634071Y-101908261D01*
X118586452Y-101860642D01*
X118538833Y-101765404D01*
X118538833Y-101479690D01*
X118586452Y-101384452D01*
X118634071Y-101336833D01*
X118729309Y-101289214D01*
X118872166Y-101289214D01*
X118967404Y-101336833D01*
X119015023Y-101384452D01*
X119062642Y-101479690D01*
X119062642Y-101765404D01*
X119015023Y-101860642D01*
X118967404Y-101908261D01*
X118872166Y-101955880D01*
X118729309Y-101955880D01*
X119348357Y-101289214D02*
X119729309Y-101289214D01*
X119491214Y-101955880D02*
X119491214Y-101098738D01*
X119538833Y-101003500D01*
X119634071Y-100955880D01*
X119729309Y-100955880D01*
X119919785Y-101289214D02*
X120300738Y-101289214D01*
X120062642Y-101955880D02*
X120062642Y-101098738D01*
X120110261Y-101003500D01*
X120205500Y-100955880D01*
X120300738Y-100955880D01*
X121253119Y-100955880D02*
X121586452Y-101955880D01*
X121919785Y-100955880D01*
X122681690Y-101955880D02*
X122681690Y-101432071D01*
X122634071Y-101336833D01*
X122538833Y-101289214D01*
X122348357Y-101289214D01*
X122253119Y-101336833D01*
X122681690Y-101908261D02*
X122586452Y-101955880D01*
X122348357Y-101955880D01*
X122253119Y-101908261D01*
X122205500Y-101813023D01*
X122205500Y-101717785D01*
X122253119Y-101622547D01*
X122348357Y-101574928D01*
X122586452Y-101574928D01*
X122681690Y-101527309D01*
X123300738Y-101955880D02*
X123205500Y-101908261D01*
X123157880Y-101813023D01*
X123157880Y-100955880D01*
X123586452Y-101289214D02*
X123824547Y-101955880D01*
X124062642Y-101289214D01*
X124824547Y-101908261D02*
X124729309Y-101955880D01*
X124538833Y-101955880D01*
X124443595Y-101908261D01*
X124395976Y-101813023D01*
X124395976Y-101432071D01*
X124443595Y-101336833D01*
X124538833Y-101289214D01*
X124729309Y-101289214D01*
X124824547Y-101336833D01*
X124872166Y-101432071D01*
X124872166Y-101527309D01*
X124395976Y-101622547D01*
X117157880Y-103926833D02*
X117110261Y-103879214D01*
X117015023Y-103736357D01*
X116967404Y-103641119D01*
X116919785Y-103498261D01*
X116872166Y-103260166D01*
X116872166Y-103069690D01*
X116919785Y-102831595D01*
X116967404Y-102688738D01*
X117015023Y-102593500D01*
X117110261Y-102450642D01*
X117157880Y-102403023D01*
X117872166Y-103022071D02*
X118015023Y-103069690D01*
X118062642Y-103117309D01*
X118110261Y-103212547D01*
X118110261Y-103355404D01*
X118062642Y-103450642D01*
X118015023Y-103498261D01*
X117919785Y-103545880D01*
X117538833Y-103545880D01*
X117538833Y-102545880D01*
X117872166Y-102545880D01*
X117967404Y-102593500D01*
X118015023Y-102641119D01*
X118062642Y-102736357D01*
X118062642Y-102831595D01*
X118015023Y-102926833D01*
X117967404Y-102974452D01*
X117872166Y-103022071D01*
X117538833Y-103022071D01*
X119110261Y-103450642D02*
X119062642Y-103498261D01*
X118919785Y-103545880D01*
X118824547Y-103545880D01*
X118681690Y-103498261D01*
X118586452Y-103403023D01*
X118538833Y-103307785D01*
X118491214Y-103117309D01*
X118491214Y-102974452D01*
X118538833Y-102783976D01*
X118586452Y-102688738D01*
X118681690Y-102593500D01*
X118824547Y-102545880D01*
X118919785Y-102545880D01*
X119062642Y-102593500D01*
X119110261Y-102641119D01*
X119538833Y-103545880D02*
X119538833Y-102545880D01*
X119872166Y-103260166D01*
X120205500Y-102545880D01*
X120205500Y-103545880D01*
X121395976Y-102641119D02*
X121443595Y-102593500D01*
X121538833Y-102545880D01*
X121776928Y-102545880D01*
X121872166Y-102593500D01*
X121919785Y-102641119D01*
X121967404Y-102736357D01*
X121967404Y-102831595D01*
X121919785Y-102974452D01*
X121348357Y-103545880D01*
X121967404Y-103545880D01*
X122300738Y-102545880D02*
X122967404Y-102545880D01*
X122538833Y-103545880D01*
X123253119Y-103926833D02*
X123300738Y-103879214D01*
X123395976Y-103736357D01*
X123443595Y-103641119D01*
X123491214Y-103498261D01*
X123538833Y-103260166D01*
X123538833Y-103069690D01*
X123491214Y-102831595D01*
X123443595Y-102688738D01*
X123395976Y-102593500D01*
X123300738Y-102450642D01*
X123253119Y-102403023D01*
X102060928Y-100955880D02*
X102251404Y-100955880D01*
X102346642Y-101003500D01*
X102441880Y-101098738D01*
X102489500Y-101289214D01*
X102489500Y-101622547D01*
X102441880Y-101813023D01*
X102346642Y-101908261D01*
X102251404Y-101955880D01*
X102060928Y-101955880D01*
X101965690Y-101908261D01*
X101870452Y-101813023D01*
X101822833Y-101622547D01*
X101822833Y-101289214D01*
X101870452Y-101098738D01*
X101965690Y-101003500D01*
X102060928Y-100955880D01*
X102918071Y-101289214D02*
X102918071Y-101955880D01*
X102918071Y-101384452D02*
X102965690Y-101336833D01*
X103060928Y-101289214D01*
X103203785Y-101289214D01*
X103299023Y-101336833D01*
X103346642Y-101432071D01*
X103346642Y-101955880D01*
X104537119Y-100908261D02*
X103679976Y-102193976D01*
X105013309Y-101955880D02*
X104918071Y-101908261D01*
X104870452Y-101860642D01*
X104822833Y-101765404D01*
X104822833Y-101479690D01*
X104870452Y-101384452D01*
X104918071Y-101336833D01*
X105013309Y-101289214D01*
X105156166Y-101289214D01*
X105251404Y-101336833D01*
X105299023Y-101384452D01*
X105346642Y-101479690D01*
X105346642Y-101765404D01*
X105299023Y-101860642D01*
X105251404Y-101908261D01*
X105156166Y-101955880D01*
X105013309Y-101955880D01*
X105632357Y-101289214D02*
X106013309Y-101289214D01*
X105775214Y-101955880D02*
X105775214Y-101098738D01*
X105822833Y-101003500D01*
X105918071Y-100955880D01*
X106013309Y-100955880D01*
X106203785Y-101289214D02*
X106584738Y-101289214D01*
X106346642Y-101955880D02*
X106346642Y-101098738D01*
X106394261Y-101003500D01*
X106489500Y-100955880D01*
X106584738Y-100955880D01*
X107537119Y-100955880D02*
X107870452Y-101955880D01*
X108203785Y-100955880D01*
X108965690Y-101955880D02*
X108965690Y-101432071D01*
X108918071Y-101336833D01*
X108822833Y-101289214D01*
X108632357Y-101289214D01*
X108537119Y-101336833D01*
X108965690Y-101908261D02*
X108870452Y-101955880D01*
X108632357Y-101955880D01*
X108537119Y-101908261D01*
X108489500Y-101813023D01*
X108489500Y-101717785D01*
X108537119Y-101622547D01*
X108632357Y-101574928D01*
X108870452Y-101574928D01*
X108965690Y-101527309D01*
X109584738Y-101955880D02*
X109489500Y-101908261D01*
X109441880Y-101813023D01*
X109441880Y-100955880D01*
X109870452Y-101289214D02*
X110108547Y-101955880D01*
X110346642Y-101289214D01*
X111108547Y-101908261D02*
X111013309Y-101955880D01*
X110822833Y-101955880D01*
X110727595Y-101908261D01*
X110679976Y-101813023D01*
X110679976Y-101432071D01*
X110727595Y-101336833D01*
X110822833Y-101289214D01*
X111013309Y-101289214D01*
X111108547Y-101336833D01*
X111156166Y-101432071D01*
X111156166Y-101527309D01*
X110679976Y-101622547D01*
X103441880Y-103926833D02*
X103394261Y-103879214D01*
X103299023Y-103736357D01*
X103251404Y-103641119D01*
X103203785Y-103498261D01*
X103156166Y-103260166D01*
X103156166Y-103069690D01*
X103203785Y-102831595D01*
X103251404Y-102688738D01*
X103299023Y-102593500D01*
X103394261Y-102450642D01*
X103441880Y-102403023D01*
X104156166Y-103022071D02*
X104299023Y-103069690D01*
X104346642Y-103117309D01*
X104394261Y-103212547D01*
X104394261Y-103355404D01*
X104346642Y-103450642D01*
X104299023Y-103498261D01*
X104203785Y-103545880D01*
X103822833Y-103545880D01*
X103822833Y-102545880D01*
X104156166Y-102545880D01*
X104251404Y-102593500D01*
X104299023Y-102641119D01*
X104346642Y-102736357D01*
X104346642Y-102831595D01*
X104299023Y-102926833D01*
X104251404Y-102974452D01*
X104156166Y-103022071D01*
X103822833Y-103022071D01*
X105394261Y-103450642D02*
X105346642Y-103498261D01*
X105203785Y-103545880D01*
X105108547Y-103545880D01*
X104965690Y-103498261D01*
X104870452Y-103403023D01*
X104822833Y-103307785D01*
X104775214Y-103117309D01*
X104775214Y-102974452D01*
X104822833Y-102783976D01*
X104870452Y-102688738D01*
X104965690Y-102593500D01*
X105108547Y-102545880D01*
X105203785Y-102545880D01*
X105346642Y-102593500D01*
X105394261Y-102641119D01*
X105822833Y-103545880D02*
X105822833Y-102545880D01*
X106156166Y-103260166D01*
X106489500Y-102545880D01*
X106489500Y-103545880D01*
X108251404Y-103545880D02*
X107679976Y-103545880D01*
X107965690Y-103545880D02*
X107965690Y-102545880D01*
X107870452Y-102688738D01*
X107775214Y-102783976D01*
X107679976Y-102831595D01*
X108584738Y-102545880D02*
X109251404Y-102545880D01*
X108822833Y-103545880D01*
X109537119Y-103926833D02*
X109584738Y-103879214D01*
X109679976Y-103736357D01*
X109727595Y-103641119D01*
X109775214Y-103498261D01*
X109822833Y-103260166D01*
X109822833Y-103069690D01*
X109775214Y-102831595D01*
X109727595Y-102688738D01*
X109679976Y-102593500D01*
X109584738Y-102450642D01*
X109537119Y-102403023D01*
X88709976Y-101955880D02*
X88709976Y-100955880D01*
X89090928Y-100955880D01*
X89186166Y-101003500D01*
X89233785Y-101051119D01*
X89281404Y-101146357D01*
X89281404Y-101289214D01*
X89233785Y-101384452D01*
X89186166Y-101432071D01*
X89090928Y-101479690D01*
X88709976Y-101479690D01*
X89709976Y-101955880D02*
X89709976Y-101289214D01*
X89709976Y-101479690D02*
X89757595Y-101384452D01*
X89805214Y-101336833D01*
X89900452Y-101289214D01*
X89995690Y-101289214D01*
X90471880Y-101955880D02*
X90376642Y-101908261D01*
X90329023Y-101860642D01*
X90281404Y-101765404D01*
X90281404Y-101479690D01*
X90329023Y-101384452D01*
X90376642Y-101336833D01*
X90471880Y-101289214D01*
X90614738Y-101289214D01*
X90709976Y-101336833D01*
X90757595Y-101384452D01*
X90805214Y-101479690D01*
X90805214Y-101765404D01*
X90757595Y-101860642D01*
X90709976Y-101908261D01*
X90614738Y-101955880D01*
X90471880Y-101955880D01*
X91233785Y-101289214D02*
X91233785Y-102289214D01*
X91233785Y-101336833D02*
X91329023Y-101289214D01*
X91519500Y-101289214D01*
X91614738Y-101336833D01*
X91662357Y-101384452D01*
X91709976Y-101479690D01*
X91709976Y-101765404D01*
X91662357Y-101860642D01*
X91614738Y-101908261D01*
X91519500Y-101955880D01*
X91329023Y-101955880D01*
X91233785Y-101908261D01*
X92757595Y-100955880D02*
X93090928Y-101955880D01*
X93424261Y-100955880D01*
X94186166Y-101955880D02*
X94186166Y-101432071D01*
X94138547Y-101336833D01*
X94043309Y-101289214D01*
X93852833Y-101289214D01*
X93757595Y-101336833D01*
X94186166Y-101908261D02*
X94090928Y-101955880D01*
X93852833Y-101955880D01*
X93757595Y-101908261D01*
X93709976Y-101813023D01*
X93709976Y-101717785D01*
X93757595Y-101622547D01*
X93852833Y-101574928D01*
X94090928Y-101574928D01*
X94186166Y-101527309D01*
X94805214Y-101955880D02*
X94709976Y-101908261D01*
X94662357Y-101813023D01*
X94662357Y-100955880D01*
X95090928Y-101289214D02*
X95329023Y-101955880D01*
X95567119Y-101289214D01*
X96329023Y-101908261D02*
X96233785Y-101955880D01*
X96043309Y-101955880D01*
X95948071Y-101908261D01*
X95900452Y-101813023D01*
X95900452Y-101432071D01*
X95948071Y-101336833D01*
X96043309Y-101289214D01*
X96233785Y-101289214D01*
X96329023Y-101336833D01*
X96376642Y-101432071D01*
X96376642Y-101527309D01*
X95900452Y-101622547D01*
X89471880Y-103926833D02*
X89424261Y-103879214D01*
X89329023Y-103736357D01*
X89281404Y-103641119D01*
X89233785Y-103498261D01*
X89186166Y-103260166D01*
X89186166Y-103069690D01*
X89233785Y-102831595D01*
X89281404Y-102688738D01*
X89329023Y-102593500D01*
X89424261Y-102450642D01*
X89471880Y-102403023D01*
X90186166Y-103022071D02*
X90329023Y-103069690D01*
X90376642Y-103117309D01*
X90424261Y-103212547D01*
X90424261Y-103355404D01*
X90376642Y-103450642D01*
X90329023Y-103498261D01*
X90233785Y-103545880D01*
X89852833Y-103545880D01*
X89852833Y-102545880D01*
X90186166Y-102545880D01*
X90281404Y-102593500D01*
X90329023Y-102641119D01*
X90376642Y-102736357D01*
X90376642Y-102831595D01*
X90329023Y-102926833D01*
X90281404Y-102974452D01*
X90186166Y-103022071D01*
X89852833Y-103022071D01*
X91424261Y-103450642D02*
X91376642Y-103498261D01*
X91233785Y-103545880D01*
X91138547Y-103545880D01*
X90995690Y-103498261D01*
X90900452Y-103403023D01*
X90852833Y-103307785D01*
X90805214Y-103117309D01*
X90805214Y-102974452D01*
X90852833Y-102783976D01*
X90900452Y-102688738D01*
X90995690Y-102593500D01*
X91138547Y-102545880D01*
X91233785Y-102545880D01*
X91376642Y-102593500D01*
X91424261Y-102641119D01*
X91852833Y-103545880D02*
X91852833Y-102545880D01*
X92186166Y-103260166D01*
X92519500Y-102545880D01*
X92519500Y-103545880D01*
X94281404Y-103545880D02*
X93709976Y-103545880D01*
X93995690Y-103545880D02*
X93995690Y-102545880D01*
X93900452Y-102688738D01*
X93805214Y-102783976D01*
X93709976Y-102831595D01*
X94662357Y-102641119D02*
X94709976Y-102593500D01*
X94805214Y-102545880D01*
X95043309Y-102545880D01*
X95138547Y-102593500D01*
X95186166Y-102641119D01*
X95233785Y-102736357D01*
X95233785Y-102831595D01*
X95186166Y-102974452D01*
X94614738Y-103545880D01*
X95233785Y-103545880D01*
X95567119Y-103926833D02*
X95614738Y-103879214D01*
X95709976Y-103736357D01*
X95757595Y-103641119D01*
X95805214Y-103498261D01*
X95852833Y-103260166D01*
X95852833Y-103069690D01*
X95805214Y-102831595D01*
X95757595Y-102688738D01*
X95709976Y-102593500D01*
X95614738Y-102450642D01*
X95567119Y-102403023D01*
D12*
X80512071Y-94280857D02*
X80512071Y-93423714D01*
X82012071Y-93852285D02*
X80512071Y-93852285D01*
X82012071Y-92923714D02*
X81012071Y-92923714D01*
X80512071Y-92923714D02*
X80583500Y-92995142D01*
X80654928Y-92923714D01*
X80583500Y-92852285D01*
X80512071Y-92923714D01*
X80654928Y-92923714D01*
X81012071Y-91566571D02*
X82226357Y-91566571D01*
X82369214Y-91638000D01*
X82440642Y-91709428D01*
X82512071Y-91852285D01*
X82512071Y-92066571D01*
X82440642Y-92209428D01*
X81940642Y-91566571D02*
X82012071Y-91709428D01*
X82012071Y-91995142D01*
X81940642Y-92138000D01*
X81869214Y-92209428D01*
X81726357Y-92280857D01*
X81297785Y-92280857D01*
X81154928Y-92209428D01*
X81083500Y-92138000D01*
X81012071Y-91995142D01*
X81012071Y-91709428D01*
X81083500Y-91566571D01*
X81940642Y-90280857D02*
X82012071Y-90423714D01*
X82012071Y-90709428D01*
X81940642Y-90852285D01*
X81797785Y-90923714D01*
X81226357Y-90923714D01*
X81083500Y-90852285D01*
X81012071Y-90709428D01*
X81012071Y-90423714D01*
X81083500Y-90280857D01*
X81226357Y-90209428D01*
X81369214Y-90209428D01*
X81512071Y-90923714D01*
X82012071Y-89566571D02*
X81012071Y-89566571D01*
X81297785Y-89566571D02*
X81154928Y-89495142D01*
X81083500Y-89423714D01*
X81012071Y-89280857D01*
X81012071Y-89138000D01*
X80512071Y-87709428D02*
X82012071Y-87209428D01*
X80512071Y-86709428D01*
X81940642Y-85638000D02*
X82012071Y-85780857D01*
X82012071Y-86066571D01*
X81940642Y-86209428D01*
X81797785Y-86280857D01*
X81226357Y-86280857D01*
X81083500Y-86209428D01*
X81012071Y-86066571D01*
X81012071Y-85780857D01*
X81083500Y-85638000D01*
X81226357Y-85566571D01*
X81369214Y-85566571D01*
X81512071Y-86280857D01*
X81012071Y-84923714D02*
X82012071Y-84923714D01*
X81154928Y-84923714D02*
X81083500Y-84852285D01*
X81012071Y-84709428D01*
X81012071Y-84495142D01*
X81083500Y-84352285D01*
X81226357Y-84280857D01*
X82012071Y-84280857D01*
X81012071Y-83780857D02*
X81012071Y-83209428D01*
X80512071Y-83566571D02*
X81797785Y-83566571D01*
X81940642Y-83495142D01*
X82012071Y-83352285D01*
X82012071Y-83209428D01*
X81940642Y-82780857D02*
X82012071Y-82638000D01*
X82012071Y-82352285D01*
X81940642Y-82209428D01*
X81797785Y-82138000D01*
X81726357Y-82138000D01*
X81583500Y-82209428D01*
X81512071Y-82352285D01*
X81512071Y-82566571D01*
X81440642Y-82709428D01*
X81297785Y-82780857D01*
X81226357Y-82780857D01*
X81083500Y-82709428D01*
X81012071Y-82566571D01*
X81012071Y-82352285D01*
X81083500Y-82209428D01*
X84133500Y-96316571D02*
X84133500Y-95602285D01*
X84562071Y-96459428D02*
X83062071Y-95959428D01*
X84562071Y-95459428D01*
X84490642Y-94316571D02*
X84562071Y-94459428D01*
X84562071Y-94745142D01*
X84490642Y-94888000D01*
X84419214Y-94959428D01*
X84276357Y-95030857D01*
X83847785Y-95030857D01*
X83704928Y-94959428D01*
X83633500Y-94888000D01*
X83562071Y-94745142D01*
X83562071Y-94459428D01*
X83633500Y-94316571D01*
X83562071Y-93888000D02*
X83562071Y-93316571D01*
X83062071Y-93673714D02*
X84347785Y-93673714D01*
X84490642Y-93602285D01*
X84562071Y-93459428D01*
X84562071Y-93316571D01*
X83562071Y-92173714D02*
X84562071Y-92173714D01*
X83562071Y-92816571D02*
X84347785Y-92816571D01*
X84490642Y-92745142D01*
X84562071Y-92602285D01*
X84562071Y-92388000D01*
X84490642Y-92245142D01*
X84419214Y-92173714D01*
X84562071Y-90816571D02*
X83776357Y-90816571D01*
X83633500Y-90888000D01*
X83562071Y-91030857D01*
X83562071Y-91316571D01*
X83633500Y-91459428D01*
X84490642Y-90816571D02*
X84562071Y-90959428D01*
X84562071Y-91316571D01*
X84490642Y-91459428D01*
X84347785Y-91530857D01*
X84204928Y-91530857D01*
X84062071Y-91459428D01*
X83990642Y-91316571D01*
X83990642Y-90959428D01*
X83919214Y-90816571D01*
X83562071Y-90316571D02*
X83562071Y-89745142D01*
X83062071Y-90102285D02*
X84347785Y-90102285D01*
X84490642Y-90030857D01*
X84562071Y-89888000D01*
X84562071Y-89745142D01*
X84562071Y-89030857D02*
X84490642Y-89173714D01*
X84419214Y-89245142D01*
X84276357Y-89316571D01*
X83847785Y-89316571D01*
X83704928Y-89245142D01*
X83633500Y-89173714D01*
X83562071Y-89030857D01*
X83562071Y-88816571D01*
X83633500Y-88673714D01*
X83704928Y-88602285D01*
X83847785Y-88530857D01*
X84276357Y-88530857D01*
X84419214Y-88602285D01*
X84490642Y-88673714D01*
X84562071Y-88816571D01*
X84562071Y-89030857D01*
X84562071Y-87888000D02*
X83562071Y-87888000D01*
X83847785Y-87888000D02*
X83704928Y-87816571D01*
X83633500Y-87745142D01*
X83562071Y-87602285D01*
X83562071Y-87459428D01*
X83776357Y-85316571D02*
X83847785Y-85102285D01*
X83919214Y-85030857D01*
X84062071Y-84959428D01*
X84276357Y-84959428D01*
X84419214Y-85030857D01*
X84490642Y-85102285D01*
X84562071Y-85245142D01*
X84562071Y-85816571D01*
X83062071Y-85816571D01*
X83062071Y-85316571D01*
X83133500Y-85173714D01*
X83204928Y-85102285D01*
X83347785Y-85030857D01*
X83490642Y-85030857D01*
X83633500Y-85102285D01*
X83704928Y-85173714D01*
X83776357Y-85316571D01*
X83776357Y-85816571D01*
X84562071Y-84102285D02*
X84490642Y-84245142D01*
X84419214Y-84316571D01*
X84276357Y-84388000D01*
X83847785Y-84388000D01*
X83704928Y-84316571D01*
X83633500Y-84245142D01*
X83562071Y-84102285D01*
X83562071Y-83888000D01*
X83633500Y-83745142D01*
X83704928Y-83673714D01*
X83847785Y-83602285D01*
X84276357Y-83602285D01*
X84419214Y-83673714D01*
X84490642Y-83745142D01*
X84562071Y-83888000D01*
X84562071Y-84102285D01*
X84562071Y-82316571D02*
X83776357Y-82316571D01*
X83633500Y-82388000D01*
X83562071Y-82530857D01*
X83562071Y-82816571D01*
X83633500Y-82959428D01*
X84490642Y-82316571D02*
X84562071Y-82459428D01*
X84562071Y-82816571D01*
X84490642Y-82959428D01*
X84347785Y-83030857D01*
X84204928Y-83030857D01*
X84062071Y-82959428D01*
X83990642Y-82816571D01*
X83990642Y-82459428D01*
X83919214Y-82316571D01*
X84562071Y-81602285D02*
X83562071Y-81602285D01*
X83847785Y-81602285D02*
X83704928Y-81530857D01*
X83633500Y-81459428D01*
X83562071Y-81316571D01*
X83562071Y-81173714D01*
X84562071Y-80030857D02*
X83062071Y-80030857D01*
X84490642Y-80030857D02*
X84562071Y-80173714D01*
X84562071Y-80459428D01*
X84490642Y-80602285D01*
X84419214Y-80673714D01*
X84276357Y-80745142D01*
X83847785Y-80745142D01*
X83704928Y-80673714D01*
X83633500Y-80602285D01*
X83562071Y-80459428D01*
X83562071Y-80173714D01*
X83633500Y-80030857D01*
X87112071Y-91245142D02*
X86397785Y-91745142D01*
X87112071Y-92102285D02*
X85612071Y-92102285D01*
X85612071Y-91530857D01*
X85683500Y-91388000D01*
X85754928Y-91316571D01*
X85897785Y-91245142D01*
X86112071Y-91245142D01*
X86254928Y-91316571D01*
X86326357Y-91388000D01*
X86397785Y-91530857D01*
X86397785Y-92102285D01*
X87040642Y-90030857D02*
X87112071Y-90173714D01*
X87112071Y-90459428D01*
X87040642Y-90602285D01*
X86897785Y-90673714D01*
X86326357Y-90673714D01*
X86183500Y-90602285D01*
X86112071Y-90459428D01*
X86112071Y-90173714D01*
X86183500Y-90030857D01*
X86326357Y-89959428D01*
X86469214Y-89959428D01*
X86612071Y-90673714D01*
X86112071Y-89459428D02*
X87112071Y-89102285D01*
X86112071Y-88745142D01*
X87112071Y-86245142D02*
X87112071Y-87102285D01*
X87112071Y-86673714D02*
X85612071Y-86673714D01*
X85826357Y-86816571D01*
X85969214Y-86959428D01*
X86040642Y-87102285D01*
X86969214Y-85602285D02*
X87040642Y-85530857D01*
X87112071Y-85602285D01*
X87040642Y-85673714D01*
X86969214Y-85602285D01*
X87112071Y-85602285D01*
X85612071Y-84602285D02*
X85612071Y-84459428D01*
X85683500Y-84316571D01*
X85754928Y-84245142D01*
X85897785Y-84173714D01*
X86183500Y-84102285D01*
X86540642Y-84102285D01*
X86826357Y-84173714D01*
X86969214Y-84245142D01*
X87040642Y-84316571D01*
X87112071Y-84459428D01*
X87112071Y-84602285D01*
X87040642Y-84745142D01*
X86969214Y-84816571D01*
X86826357Y-84888000D01*
X86540642Y-84959428D01*
X86183500Y-84959428D01*
X85897785Y-84888000D01*
X85754928Y-84816571D01*
X85683500Y-84745142D01*
X85612071Y-84602285D01*
X128790000Y-105282857D02*
X128718571Y-105425714D01*
X128718571Y-105640000D01*
X128790000Y-105854285D01*
X128932857Y-105997142D01*
X129075714Y-106068571D01*
X129361428Y-106140000D01*
X129575714Y-106140000D01*
X129861428Y-106068571D01*
X130004285Y-105997142D01*
X130147142Y-105854285D01*
X130218571Y-105640000D01*
X130218571Y-105497142D01*
X130147142Y-105282857D01*
X130075714Y-105211428D01*
X129575714Y-105211428D01*
X129575714Y-105497142D01*
X130218571Y-104568571D02*
X128718571Y-104568571D01*
X130218571Y-103711428D01*
X128718571Y-103711428D01*
X130218571Y-102997142D02*
X128718571Y-102997142D01*
X128718571Y-102640000D01*
X128790000Y-102425714D01*
X128932857Y-102282857D01*
X129075714Y-102211428D01*
X129361428Y-102140000D01*
X129575714Y-102140000D01*
X129861428Y-102211428D01*
X130004285Y-102282857D01*
X130147142Y-102425714D01*
X130218571Y-102640000D01*
X130218571Y-102997142D01*
X129647142Y-101702857D02*
X129647142Y-100560000D01*
X130218571Y-101131428D02*
X129075714Y-101131428D01*
X128861428Y-99917142D02*
X128790000Y-99845714D01*
X128718571Y-99702857D01*
X128718571Y-99345714D01*
X128790000Y-99202857D01*
X128861428Y-99131428D01*
X129004285Y-99060000D01*
X129147142Y-99060000D01*
X129361428Y-99131428D01*
X130218571Y-99988571D01*
X130218571Y-99060000D01*
X129218571Y-97774285D02*
X130218571Y-97774285D01*
X128647142Y-98131428D02*
X129718571Y-98488571D01*
X129718571Y-97560000D01*
X128718571Y-97202857D02*
X130218571Y-96702857D01*
X128718571Y-96202857D01*
D13*
X111820000Y-89010000D02*
X111820000Y-87360000D01*
X91380000Y-89010000D02*
X111820000Y-89010000D01*
X91380000Y-83710000D02*
X91380000Y-89010000D01*
X111820000Y-83710000D02*
X91380000Y-83710000D01*
X111820000Y-85360000D02*
X111820000Y-83710000D01*
X111820000Y-87360000D02*
G75*
G02*
X111820000Y-85360000I0J1000000D01*
G01*
X111870000Y-116790000D02*
X111870000Y-104190000D01*
X111870000Y-104190000D02*
X101520000Y-104190000D01*
X101520000Y-104190000D02*
X101520000Y-105140000D01*
X101520000Y-105140000D02*
X101020000Y-104890000D01*
X101020000Y-104890000D02*
X101020000Y-106790000D01*
X101020000Y-106790000D02*
X101020000Y-106840000D01*
X101020000Y-106840000D02*
X101520000Y-106590000D01*
X101520000Y-106590000D02*
X101520000Y-111990000D01*
X101520000Y-111990000D02*
X101020000Y-111690000D01*
X101020000Y-111690000D02*
X101020000Y-116790000D01*
X101020000Y-116790000D02*
X111870000Y-116790000D01*
X87050000Y-116790000D02*
X97900000Y-116790000D01*
X87050000Y-111690000D02*
X87050000Y-116790000D01*
X87550000Y-111990000D02*
X87050000Y-111690000D01*
X87550000Y-106590000D02*
X87550000Y-111990000D01*
X87050000Y-106840000D02*
X87550000Y-106590000D01*
X87050000Y-106790000D02*
X87050000Y-106840000D01*
X87050000Y-104890000D02*
X87050000Y-106790000D01*
X87550000Y-105140000D02*
X87050000Y-104890000D01*
X87550000Y-104190000D02*
X87550000Y-105140000D01*
X97900000Y-104190000D02*
X87550000Y-104190000D01*
X97900000Y-116790000D02*
X97900000Y-104190000D01*
D14*
X132280000Y-95250000D02*
G75*
G03*
X132280000Y-95250000I-200000J0D01*
G01*
D15*
X142240000Y-68580000D02*
X142240000Y-93980000D01*
X116840000Y-68580000D02*
X142240000Y-68580000D01*
X116840000Y-93980000D02*
X116840000Y-68580000D01*
X142240000Y-93980000D02*
X116840000Y-93980000D01*
D13*
X86300000Y-72450000D02*
X86300000Y-71120000D01*
X87630000Y-72450000D02*
X86300000Y-72450000D01*
X88900000Y-72450000D02*
X88900000Y-69790000D01*
X88900000Y-69790000D02*
X91500000Y-69790000D01*
X88900000Y-72450000D02*
X91500000Y-72450000D01*
X91500000Y-72450000D02*
X91500000Y-69790000D01*
X143460000Y-107260000D02*
X143460000Y-96410000D01*
X138360000Y-107260000D02*
X143460000Y-107260000D01*
X138660000Y-106760000D02*
X138360000Y-107260000D01*
X133260000Y-106760000D02*
X138660000Y-106760000D01*
X133510000Y-107260000D02*
X133260000Y-106760000D01*
X133460000Y-107260000D02*
X133510000Y-107260000D01*
X131560000Y-107260000D02*
X133460000Y-107260000D01*
X131810000Y-106760000D02*
X131560000Y-107260000D01*
X130860000Y-106760000D02*
X131810000Y-106760000D01*
X130860000Y-96410000D02*
X130860000Y-106760000D01*
X143460000Y-96410000D02*
X130860000Y-96410000D01*
X91895000Y-74327725D02*
X91395000Y-74327725D01*
X91645000Y-74077725D02*
X91645000Y-74577725D01*
X90454000Y-79483500D02*
X89886000Y-79483500D01*
X90688000Y-79443500D02*
X89652000Y-79443500D01*
X90847000Y-79403500D02*
X89493000Y-79403500D01*
X90975000Y-79363500D02*
X89365000Y-79363500D01*
X91085000Y-79323500D02*
X89255000Y-79323500D01*
X91181000Y-79283500D02*
X89159000Y-79283500D01*
X91268000Y-79243500D02*
X89072000Y-79243500D01*
X91348000Y-79203500D02*
X88992000Y-79203500D01*
X91421000Y-79163500D02*
X88919000Y-79163500D01*
X91489000Y-79123500D02*
X88851000Y-79123500D01*
X91553000Y-79083500D02*
X88787000Y-79083500D01*
X91613000Y-79043500D02*
X88727000Y-79043500D01*
X91670000Y-79003500D02*
X88670000Y-79003500D01*
X91724000Y-78963500D02*
X88616000Y-78963500D01*
X91775000Y-78923500D02*
X88565000Y-78923500D01*
X89130000Y-78883500D02*
X88517000Y-78883500D01*
X91823000Y-78883500D02*
X91210000Y-78883500D01*
X89130000Y-78843500D02*
X88471000Y-78843500D01*
X91869000Y-78843500D02*
X91210000Y-78843500D01*
X89130000Y-78803500D02*
X88427000Y-78803500D01*
X91913000Y-78803500D02*
X91210000Y-78803500D01*
X89130000Y-78763500D02*
X88385000Y-78763500D01*
X91955000Y-78763500D02*
X91210000Y-78763500D01*
X89130000Y-78723500D02*
X88344000Y-78723500D01*
X91996000Y-78723500D02*
X91210000Y-78723500D01*
X89130000Y-78683500D02*
X88306000Y-78683500D01*
X92034000Y-78683500D02*
X91210000Y-78683500D01*
X89130000Y-78643500D02*
X88269000Y-78643500D01*
X92071000Y-78643500D02*
X91210000Y-78643500D01*
X89130000Y-78603500D02*
X88233000Y-78603500D01*
X92107000Y-78603500D02*
X91210000Y-78603500D01*
X89130000Y-78563500D02*
X88199000Y-78563500D01*
X92141000Y-78563500D02*
X91210000Y-78563500D01*
X89130000Y-78523500D02*
X88166000Y-78523500D01*
X92174000Y-78523500D02*
X91210000Y-78523500D01*
X89130000Y-78483500D02*
X88135000Y-78483500D01*
X92205000Y-78483500D02*
X91210000Y-78483500D01*
X89130000Y-78443500D02*
X88105000Y-78443500D01*
X92235000Y-78443500D02*
X91210000Y-78443500D01*
X89130000Y-78403500D02*
X88075000Y-78403500D01*
X92265000Y-78403500D02*
X91210000Y-78403500D01*
X89130000Y-78363500D02*
X88048000Y-78363500D01*
X92292000Y-78363500D02*
X91210000Y-78363500D01*
X89130000Y-78323500D02*
X88021000Y-78323500D01*
X92319000Y-78323500D02*
X91210000Y-78323500D01*
X89130000Y-78283500D02*
X87995000Y-78283500D01*
X92345000Y-78283500D02*
X91210000Y-78283500D01*
X89130000Y-78243500D02*
X87970000Y-78243500D01*
X92370000Y-78243500D02*
X91210000Y-78243500D01*
X89130000Y-78203500D02*
X87946000Y-78203500D01*
X92394000Y-78203500D02*
X91210000Y-78203500D01*
X89130000Y-78163500D02*
X87923000Y-78163500D01*
X92417000Y-78163500D02*
X91210000Y-78163500D01*
X89130000Y-78123500D02*
X87902000Y-78123500D01*
X92438000Y-78123500D02*
X91210000Y-78123500D01*
X89130000Y-78083500D02*
X87880000Y-78083500D01*
X92460000Y-78083500D02*
X91210000Y-78083500D01*
X89130000Y-78043500D02*
X87860000Y-78043500D01*
X92480000Y-78043500D02*
X91210000Y-78043500D01*
X89130000Y-78003500D02*
X87841000Y-78003500D01*
X92499000Y-78003500D02*
X91210000Y-78003500D01*
X89130000Y-77963500D02*
X87822000Y-77963500D01*
X92518000Y-77963500D02*
X91210000Y-77963500D01*
X89130000Y-77923500D02*
X87805000Y-77923500D01*
X92535000Y-77923500D02*
X91210000Y-77923500D01*
X89130000Y-77883500D02*
X87788000Y-77883500D01*
X92552000Y-77883500D02*
X91210000Y-77883500D01*
X89130000Y-77843500D02*
X87772000Y-77843500D01*
X92568000Y-77843500D02*
X91210000Y-77843500D01*
X89130000Y-77803500D02*
X87756000Y-77803500D01*
X92584000Y-77803500D02*
X91210000Y-77803500D01*
X89130000Y-77763500D02*
X87742000Y-77763500D01*
X92598000Y-77763500D02*
X91210000Y-77763500D01*
X89130000Y-77723500D02*
X87728000Y-77723500D01*
X92612000Y-77723500D02*
X91210000Y-77723500D01*
X89130000Y-77683500D02*
X87715000Y-77683500D01*
X92625000Y-77683500D02*
X91210000Y-77683500D01*
X89130000Y-77643500D02*
X87702000Y-77643500D01*
X92638000Y-77643500D02*
X91210000Y-77643500D01*
X89130000Y-77603500D02*
X87690000Y-77603500D01*
X92650000Y-77603500D02*
X91210000Y-77603500D01*
X89130000Y-77562500D02*
X87679000Y-77562500D01*
X92661000Y-77562500D02*
X91210000Y-77562500D01*
X89130000Y-77522500D02*
X87669000Y-77522500D01*
X92671000Y-77522500D02*
X91210000Y-77522500D01*
X89130000Y-77482500D02*
X87659000Y-77482500D01*
X92681000Y-77482500D02*
X91210000Y-77482500D01*
X89130000Y-77442500D02*
X87650000Y-77442500D01*
X92690000Y-77442500D02*
X91210000Y-77442500D01*
X89130000Y-77402500D02*
X87642000Y-77402500D01*
X92698000Y-77402500D02*
X91210000Y-77402500D01*
X89130000Y-77362500D02*
X87634000Y-77362500D01*
X92706000Y-77362500D02*
X91210000Y-77362500D01*
X89130000Y-77322500D02*
X87627000Y-77322500D01*
X92713000Y-77322500D02*
X91210000Y-77322500D01*
X89130000Y-77282500D02*
X87620000Y-77282500D01*
X92720000Y-77282500D02*
X91210000Y-77282500D01*
X89130000Y-77242500D02*
X87614000Y-77242500D01*
X92726000Y-77242500D02*
X91210000Y-77242500D01*
X89130000Y-77202500D02*
X87609000Y-77202500D01*
X92731000Y-77202500D02*
X91210000Y-77202500D01*
X89130000Y-77162500D02*
X87605000Y-77162500D01*
X92735000Y-77162500D02*
X91210000Y-77162500D01*
X89130000Y-77122500D02*
X87601000Y-77122500D01*
X92739000Y-77122500D02*
X91210000Y-77122500D01*
X89130000Y-77082500D02*
X87597000Y-77082500D01*
X92743000Y-77082500D02*
X91210000Y-77082500D01*
X89130000Y-77042500D02*
X87594000Y-77042500D01*
X92746000Y-77042500D02*
X91210000Y-77042500D01*
X89130000Y-77002500D02*
X87592000Y-77002500D01*
X92748000Y-77002500D02*
X91210000Y-77002500D01*
X89130000Y-76962500D02*
X87591000Y-76962500D01*
X92749000Y-76962500D02*
X91210000Y-76962500D01*
X92750000Y-76922500D02*
X91210000Y-76922500D01*
X89130000Y-76922500D02*
X87590000Y-76922500D01*
X92750000Y-76882500D02*
X91210000Y-76882500D01*
X89130000Y-76882500D02*
X87590000Y-76882500D01*
X92790000Y-76882500D02*
G75*
G03*
X92790000Y-76882500I-2620000J0D01*
G01*
X116031000Y-97823276D02*
G75*
G03*
X116031000Y-97823276I-2620000J0D01*
G01*
X115991000Y-97823276D02*
X110831000Y-97823276D01*
X115991000Y-97863276D02*
X110831000Y-97863276D01*
X115990000Y-97903276D02*
X110832000Y-97903276D01*
X115989000Y-97943276D02*
X110833000Y-97943276D01*
X115987000Y-97983276D02*
X110835000Y-97983276D01*
X115984000Y-98023276D02*
X110838000Y-98023276D01*
X115980000Y-98063276D02*
X114451000Y-98063276D01*
X112371000Y-98063276D02*
X110842000Y-98063276D01*
X115976000Y-98103276D02*
X114451000Y-98103276D01*
X112371000Y-98103276D02*
X110846000Y-98103276D01*
X115972000Y-98143276D02*
X114451000Y-98143276D01*
X112371000Y-98143276D02*
X110850000Y-98143276D01*
X115967000Y-98183276D02*
X114451000Y-98183276D01*
X112371000Y-98183276D02*
X110855000Y-98183276D01*
X115961000Y-98223276D02*
X114451000Y-98223276D01*
X112371000Y-98223276D02*
X110861000Y-98223276D01*
X115954000Y-98263276D02*
X114451000Y-98263276D01*
X112371000Y-98263276D02*
X110868000Y-98263276D01*
X115947000Y-98303276D02*
X114451000Y-98303276D01*
X112371000Y-98303276D02*
X110875000Y-98303276D01*
X115939000Y-98343276D02*
X114451000Y-98343276D01*
X112371000Y-98343276D02*
X110883000Y-98343276D01*
X115931000Y-98383276D02*
X114451000Y-98383276D01*
X112371000Y-98383276D02*
X110891000Y-98383276D01*
X115922000Y-98423276D02*
X114451000Y-98423276D01*
X112371000Y-98423276D02*
X110900000Y-98423276D01*
X115912000Y-98463276D02*
X114451000Y-98463276D01*
X112371000Y-98463276D02*
X110910000Y-98463276D01*
X115902000Y-98503276D02*
X114451000Y-98503276D01*
X112371000Y-98503276D02*
X110920000Y-98503276D01*
X115891000Y-98544276D02*
X114451000Y-98544276D01*
X112371000Y-98544276D02*
X110931000Y-98544276D01*
X115879000Y-98584276D02*
X114451000Y-98584276D01*
X112371000Y-98584276D02*
X110943000Y-98584276D01*
X115866000Y-98624276D02*
X114451000Y-98624276D01*
X112371000Y-98624276D02*
X110956000Y-98624276D01*
X115853000Y-98664276D02*
X114451000Y-98664276D01*
X112371000Y-98664276D02*
X110969000Y-98664276D01*
X115839000Y-98704276D02*
X114451000Y-98704276D01*
X112371000Y-98704276D02*
X110983000Y-98704276D01*
X115825000Y-98744276D02*
X114451000Y-98744276D01*
X112371000Y-98744276D02*
X110997000Y-98744276D01*
X115809000Y-98784276D02*
X114451000Y-98784276D01*
X112371000Y-98784276D02*
X111013000Y-98784276D01*
X115793000Y-98824276D02*
X114451000Y-98824276D01*
X112371000Y-98824276D02*
X111029000Y-98824276D01*
X115776000Y-98864276D02*
X114451000Y-98864276D01*
X112371000Y-98864276D02*
X111046000Y-98864276D01*
X115759000Y-98904276D02*
X114451000Y-98904276D01*
X112371000Y-98904276D02*
X111063000Y-98904276D01*
X115740000Y-98944276D02*
X114451000Y-98944276D01*
X112371000Y-98944276D02*
X111082000Y-98944276D01*
X115721000Y-98984276D02*
X114451000Y-98984276D01*
X112371000Y-98984276D02*
X111101000Y-98984276D01*
X115701000Y-99024276D02*
X114451000Y-99024276D01*
X112371000Y-99024276D02*
X111121000Y-99024276D01*
X115679000Y-99064276D02*
X114451000Y-99064276D01*
X112371000Y-99064276D02*
X111143000Y-99064276D01*
X115658000Y-99104276D02*
X114451000Y-99104276D01*
X112371000Y-99104276D02*
X111164000Y-99104276D01*
X115635000Y-99144276D02*
X114451000Y-99144276D01*
X112371000Y-99144276D02*
X111187000Y-99144276D01*
X115611000Y-99184276D02*
X114451000Y-99184276D01*
X112371000Y-99184276D02*
X111211000Y-99184276D01*
X115586000Y-99224276D02*
X114451000Y-99224276D01*
X112371000Y-99224276D02*
X111236000Y-99224276D01*
X115560000Y-99264276D02*
X114451000Y-99264276D01*
X112371000Y-99264276D02*
X111262000Y-99264276D01*
X115533000Y-99304276D02*
X114451000Y-99304276D01*
X112371000Y-99304276D02*
X111289000Y-99304276D01*
X115506000Y-99344276D02*
X114451000Y-99344276D01*
X112371000Y-99344276D02*
X111316000Y-99344276D01*
X115476000Y-99384276D02*
X114451000Y-99384276D01*
X112371000Y-99384276D02*
X111346000Y-99384276D01*
X115446000Y-99424276D02*
X114451000Y-99424276D01*
X112371000Y-99424276D02*
X111376000Y-99424276D01*
X115415000Y-99464276D02*
X114451000Y-99464276D01*
X112371000Y-99464276D02*
X111407000Y-99464276D01*
X115382000Y-99504276D02*
X114451000Y-99504276D01*
X112371000Y-99504276D02*
X111440000Y-99504276D01*
X115348000Y-99544276D02*
X114451000Y-99544276D01*
X112371000Y-99544276D02*
X111474000Y-99544276D01*
X115312000Y-99584276D02*
X114451000Y-99584276D01*
X112371000Y-99584276D02*
X111510000Y-99584276D01*
X115275000Y-99624276D02*
X114451000Y-99624276D01*
X112371000Y-99624276D02*
X111547000Y-99624276D01*
X115237000Y-99664276D02*
X114451000Y-99664276D01*
X112371000Y-99664276D02*
X111585000Y-99664276D01*
X115196000Y-99704276D02*
X114451000Y-99704276D01*
X112371000Y-99704276D02*
X111626000Y-99704276D01*
X115154000Y-99744276D02*
X114451000Y-99744276D01*
X112371000Y-99744276D02*
X111668000Y-99744276D01*
X115110000Y-99784276D02*
X114451000Y-99784276D01*
X112371000Y-99784276D02*
X111712000Y-99784276D01*
X115064000Y-99824276D02*
X114451000Y-99824276D01*
X112371000Y-99824276D02*
X111758000Y-99824276D01*
X115016000Y-99864276D02*
X114451000Y-99864276D01*
X112371000Y-99864276D02*
X111806000Y-99864276D01*
X114965000Y-99904276D02*
X114451000Y-99904276D01*
X112371000Y-99904276D02*
X111857000Y-99904276D01*
X114911000Y-99944276D02*
X114451000Y-99944276D01*
X112371000Y-99944276D02*
X111911000Y-99944276D01*
X114854000Y-99984276D02*
X114451000Y-99984276D01*
X112371000Y-99984276D02*
X111968000Y-99984276D01*
X114794000Y-100024276D02*
X114451000Y-100024276D01*
X112371000Y-100024276D02*
X112028000Y-100024276D01*
X114730000Y-100064276D02*
X114451000Y-100064276D01*
X112371000Y-100064276D02*
X112092000Y-100064276D01*
X114662000Y-100104276D02*
X114451000Y-100104276D01*
X112371000Y-100104276D02*
X112160000Y-100104276D01*
X114589000Y-100144276D02*
X112233000Y-100144276D01*
X114509000Y-100184276D02*
X112313000Y-100184276D01*
X114422000Y-100224276D02*
X112400000Y-100224276D01*
X114326000Y-100264276D02*
X112496000Y-100264276D01*
X114216000Y-100304276D02*
X112606000Y-100304276D01*
X114088000Y-100344276D02*
X112734000Y-100344276D01*
X113929000Y-100384276D02*
X112893000Y-100384276D01*
X113695000Y-100424276D02*
X113127000Y-100424276D01*
X114886000Y-95018501D02*
X114886000Y-95518501D01*
X115136000Y-95268501D02*
X114636000Y-95268501D01*
X121060499Y-95268501D02*
X120560499Y-95268501D01*
X120810499Y-95018501D02*
X120810499Y-95518501D01*
X119619499Y-100424276D02*
X119051499Y-100424276D01*
X119853499Y-100384276D02*
X118817499Y-100384276D01*
X120012499Y-100344276D02*
X118658499Y-100344276D01*
X120140499Y-100304276D02*
X118530499Y-100304276D01*
X120250499Y-100264276D02*
X118420499Y-100264276D01*
X120346499Y-100224276D02*
X118324499Y-100224276D01*
X120433499Y-100184276D02*
X118237499Y-100184276D01*
X120513499Y-100144276D02*
X118157499Y-100144276D01*
X118295499Y-100104276D02*
X118084499Y-100104276D01*
X120586499Y-100104276D02*
X120375499Y-100104276D01*
X118295499Y-100064276D02*
X118016499Y-100064276D01*
X120654499Y-100064276D02*
X120375499Y-100064276D01*
X118295499Y-100024276D02*
X117952499Y-100024276D01*
X120718499Y-100024276D02*
X120375499Y-100024276D01*
X118295499Y-99984276D02*
X117892499Y-99984276D01*
X120778499Y-99984276D02*
X120375499Y-99984276D01*
X118295499Y-99944276D02*
X117835499Y-99944276D01*
X120835499Y-99944276D02*
X120375499Y-99944276D01*
X118295499Y-99904276D02*
X117781499Y-99904276D01*
X120889499Y-99904276D02*
X120375499Y-99904276D01*
X118295499Y-99864276D02*
X117730499Y-99864276D01*
X120940499Y-99864276D02*
X120375499Y-99864276D01*
X118295499Y-99824276D02*
X117682499Y-99824276D01*
X120988499Y-99824276D02*
X120375499Y-99824276D01*
X118295499Y-99784276D02*
X117636499Y-99784276D01*
X121034499Y-99784276D02*
X120375499Y-99784276D01*
X118295499Y-99744276D02*
X117592499Y-99744276D01*
X121078499Y-99744276D02*
X120375499Y-99744276D01*
X118295499Y-99704276D02*
X117550499Y-99704276D01*
X121120499Y-99704276D02*
X120375499Y-99704276D01*
X118295499Y-99664276D02*
X117509499Y-99664276D01*
X121161499Y-99664276D02*
X120375499Y-99664276D01*
X118295499Y-99624276D02*
X117471499Y-99624276D01*
X121199499Y-99624276D02*
X120375499Y-99624276D01*
X118295499Y-99584276D02*
X117434499Y-99584276D01*
X121236499Y-99584276D02*
X120375499Y-99584276D01*
X118295499Y-99544276D02*
X117398499Y-99544276D01*
X121272499Y-99544276D02*
X120375499Y-99544276D01*
X118295499Y-99504276D02*
X117364499Y-99504276D01*
X121306499Y-99504276D02*
X120375499Y-99504276D01*
X118295499Y-99464276D02*
X117331499Y-99464276D01*
X121339499Y-99464276D02*
X120375499Y-99464276D01*
X118295499Y-99424276D02*
X117300499Y-99424276D01*
X121370499Y-99424276D02*
X120375499Y-99424276D01*
X118295499Y-99384276D02*
X117270499Y-99384276D01*
X121400499Y-99384276D02*
X120375499Y-99384276D01*
X118295499Y-99344276D02*
X117240499Y-99344276D01*
X121430499Y-99344276D02*
X120375499Y-99344276D01*
X118295499Y-99304276D02*
X117213499Y-99304276D01*
X121457499Y-99304276D02*
X120375499Y-99304276D01*
X118295499Y-99264276D02*
X117186499Y-99264276D01*
X121484499Y-99264276D02*
X120375499Y-99264276D01*
X118295499Y-99224276D02*
X117160499Y-99224276D01*
X121510499Y-99224276D02*
X120375499Y-99224276D01*
X118295499Y-99184276D02*
X117135499Y-99184276D01*
X121535499Y-99184276D02*
X120375499Y-99184276D01*
X118295499Y-99144276D02*
X117111499Y-99144276D01*
X121559499Y-99144276D02*
X120375499Y-99144276D01*
X118295499Y-99104276D02*
X117088499Y-99104276D01*
X121582499Y-99104276D02*
X120375499Y-99104276D01*
X118295499Y-99064276D02*
X117067499Y-99064276D01*
X121603499Y-99064276D02*
X120375499Y-99064276D01*
X118295499Y-99024276D02*
X117045499Y-99024276D01*
X121625499Y-99024276D02*
X120375499Y-99024276D01*
X118295499Y-98984276D02*
X117025499Y-98984276D01*
X121645499Y-98984276D02*
X120375499Y-98984276D01*
X118295499Y-98944276D02*
X117006499Y-98944276D01*
X121664499Y-98944276D02*
X120375499Y-98944276D01*
X118295499Y-98904276D02*
X116987499Y-98904276D01*
X121683499Y-98904276D02*
X120375499Y-98904276D01*
X118295499Y-98864276D02*
X116970499Y-98864276D01*
X121700499Y-98864276D02*
X120375499Y-98864276D01*
X118295499Y-98824276D02*
X116953499Y-98824276D01*
X121717499Y-98824276D02*
X120375499Y-98824276D01*
X118295499Y-98784276D02*
X116937499Y-98784276D01*
X121733499Y-98784276D02*
X120375499Y-98784276D01*
X118295499Y-98744276D02*
X116921499Y-98744276D01*
X121749499Y-98744276D02*
X120375499Y-98744276D01*
X118295499Y-98704276D02*
X116907499Y-98704276D01*
X121763499Y-98704276D02*
X120375499Y-98704276D01*
X118295499Y-98664276D02*
X116893499Y-98664276D01*
X121777499Y-98664276D02*
X120375499Y-98664276D01*
X118295499Y-98624276D02*
X116880499Y-98624276D01*
X121790499Y-98624276D02*
X120375499Y-98624276D01*
X118295499Y-98584276D02*
X116867499Y-98584276D01*
X121803499Y-98584276D02*
X120375499Y-98584276D01*
X118295499Y-98544276D02*
X116855499Y-98544276D01*
X121815499Y-98544276D02*
X120375499Y-98544276D01*
X118295499Y-98503276D02*
X116844499Y-98503276D01*
X121826499Y-98503276D02*
X120375499Y-98503276D01*
X118295499Y-98463276D02*
X116834499Y-98463276D01*
X121836499Y-98463276D02*
X120375499Y-98463276D01*
X118295499Y-98423276D02*
X116824499Y-98423276D01*
X121846499Y-98423276D02*
X120375499Y-98423276D01*
X118295499Y-98383276D02*
X116815499Y-98383276D01*
X121855499Y-98383276D02*
X120375499Y-98383276D01*
X118295499Y-98343276D02*
X116807499Y-98343276D01*
X121863499Y-98343276D02*
X120375499Y-98343276D01*
X118295499Y-98303276D02*
X116799499Y-98303276D01*
X121871499Y-98303276D02*
X120375499Y-98303276D01*
X118295499Y-98263276D02*
X116792499Y-98263276D01*
X121878499Y-98263276D02*
X120375499Y-98263276D01*
X118295499Y-98223276D02*
X116785499Y-98223276D01*
X121885499Y-98223276D02*
X120375499Y-98223276D01*
X118295499Y-98183276D02*
X116779499Y-98183276D01*
X121891499Y-98183276D02*
X120375499Y-98183276D01*
X118295499Y-98143276D02*
X116774499Y-98143276D01*
X121896499Y-98143276D02*
X120375499Y-98143276D01*
X118295499Y-98103276D02*
X116770499Y-98103276D01*
X121900499Y-98103276D02*
X120375499Y-98103276D01*
X118295499Y-98063276D02*
X116766499Y-98063276D01*
X121904499Y-98063276D02*
X120375499Y-98063276D01*
X121908499Y-98023276D02*
X116762499Y-98023276D01*
X121911499Y-97983276D02*
X116759499Y-97983276D01*
X121913499Y-97943276D02*
X116757499Y-97943276D01*
X121914499Y-97903276D02*
X116756499Y-97903276D01*
X121915499Y-97863276D02*
X116755499Y-97863276D01*
X121915499Y-97823276D02*
X116755499Y-97823276D01*
X121955499Y-97823276D02*
G75*
G03*
X121955499Y-97823276I-2620000J0D01*
G01*
D16*
X112272380Y-87121904D02*
X113081904Y-87121904D01*
X113177142Y-87074285D01*
X113224761Y-87026666D01*
X113272380Y-86931428D01*
X113272380Y-86740952D01*
X113224761Y-86645714D01*
X113177142Y-86598095D01*
X113081904Y-86550476D01*
X112272380Y-86550476D01*
X113272380Y-85550476D02*
X113272380Y-86121904D01*
X113272380Y-85836190D02*
X112272380Y-85836190D01*
X112415238Y-85931428D01*
X112510476Y-86026666D01*
X112558095Y-86121904D01*
X81338095Y-64852380D02*
X81338095Y-63852380D01*
X81338095Y-64328571D02*
X81909523Y-64328571D01*
X81909523Y-64852380D02*
X81909523Y-63852380D01*
X82909523Y-64852380D02*
X82338095Y-64852380D01*
X82623809Y-64852380D02*
X82623809Y-63852380D01*
X82528571Y-63995238D01*
X82433333Y-64090476D01*
X82338095Y-64138095D01*
X139338095Y-64872380D02*
X139338095Y-63872380D01*
X139338095Y-64348571D02*
X139909523Y-64348571D01*
X139909523Y-64872380D02*
X139909523Y-63872380D01*
X140338095Y-63967619D02*
X140385714Y-63920000D01*
X140480952Y-63872380D01*
X140719047Y-63872380D01*
X140814285Y-63920000D01*
X140861904Y-63967619D01*
X140909523Y-64062857D01*
X140909523Y-64158095D01*
X140861904Y-64300952D01*
X140290476Y-64872380D01*
X140909523Y-64872380D01*
X81338095Y-113862380D02*
X81338095Y-112862380D01*
X81338095Y-113338571D02*
X81909523Y-113338571D01*
X81909523Y-113862380D02*
X81909523Y-112862380D01*
X82290476Y-112862380D02*
X82909523Y-112862380D01*
X82576190Y-113243333D01*
X82719047Y-113243333D01*
X82814285Y-113290952D01*
X82861904Y-113338571D01*
X82909523Y-113433809D01*
X82909523Y-113671904D01*
X82861904Y-113767142D01*
X82814285Y-113814761D01*
X82719047Y-113862380D01*
X82433333Y-113862380D01*
X82338095Y-113814761D01*
X82290476Y-113767142D01*
X139328095Y-113852380D02*
X139328095Y-112852380D01*
X139328095Y-113328571D02*
X139899523Y-113328571D01*
X139899523Y-113852380D02*
X139899523Y-112852380D01*
X140804285Y-113185714D02*
X140804285Y-113852380D01*
X140566190Y-112804761D02*
X140328095Y-113519047D01*
X140947142Y-113519047D01*
X112950666Y-113752380D02*
X112950666Y-114466666D01*
X112903047Y-114609523D01*
X112807809Y-114704761D01*
X112664952Y-114752380D01*
X112569714Y-114752380D01*
X113379238Y-113847619D02*
X113426857Y-113800000D01*
X113522095Y-113752380D01*
X113760190Y-113752380D01*
X113855428Y-113800000D01*
X113903047Y-113847619D01*
X113950666Y-113942857D01*
X113950666Y-114038095D01*
X113903047Y-114180952D01*
X113331619Y-114752380D01*
X113950666Y-114752380D01*
X98853666Y-113752380D02*
X98853666Y-114466666D01*
X98806047Y-114609523D01*
X98710809Y-114704761D01*
X98567952Y-114752380D01*
X98472714Y-114752380D01*
X99234619Y-113752380D02*
X99853666Y-113752380D01*
X99520333Y-114133333D01*
X99663190Y-114133333D01*
X99758428Y-114180952D01*
X99806047Y-114228571D01*
X99853666Y-114323809D01*
X99853666Y-114561904D01*
X99806047Y-114657142D01*
X99758428Y-114704761D01*
X99663190Y-114752380D01*
X99377476Y-114752380D01*
X99282238Y-114704761D01*
X99234619Y-114657142D01*
D17*
X138621152Y-94693955D02*
X138621152Y-95505091D01*
X138668866Y-95600519D01*
X138716580Y-95648233D01*
X138812008Y-95695947D01*
X139002863Y-95695947D01*
X139098291Y-95648233D01*
X139146005Y-95600519D01*
X139193719Y-95505091D01*
X139193719Y-94693955D01*
X139623144Y-94789382D02*
X139670858Y-94741669D01*
X139766286Y-94693955D01*
X140004855Y-94693955D01*
X140100283Y-94741669D01*
X140147997Y-94789382D01*
X140195711Y-94884810D01*
X140195711Y-94980238D01*
X140147997Y-95123380D01*
X139575430Y-95695947D01*
X140195711Y-95695947D01*
D16*
X84752380Y-71453333D02*
X85466666Y-71453333D01*
X85609523Y-71500952D01*
X85704761Y-71596190D01*
X85752380Y-71739047D01*
X85752380Y-71834285D01*
X84752380Y-70548571D02*
X84752380Y-70739047D01*
X84800000Y-70834285D01*
X84847619Y-70881904D01*
X84990476Y-70977142D01*
X85180952Y-71024761D01*
X85561904Y-71024761D01*
X85657142Y-70977142D01*
X85704761Y-70929523D01*
X85752380Y-70834285D01*
X85752380Y-70643809D01*
X85704761Y-70548571D01*
X85657142Y-70500952D01*
X85561904Y-70453333D01*
X85323809Y-70453333D01*
X85228571Y-70500952D01*
X85180952Y-70548571D01*
X85133333Y-70643809D01*
X85133333Y-70834285D01*
X85180952Y-70929523D01*
X85228571Y-70977142D01*
X85323809Y-71024761D01*
X143602380Y-97473333D02*
X144316666Y-97473333D01*
X144459523Y-97520952D01*
X144554761Y-97616190D01*
X144602380Y-97759047D01*
X144602380Y-97854285D01*
X143602380Y-97092380D02*
X143602380Y-96425714D01*
X144602380Y-96854285D01*
X94277142Y-77049166D02*
X94324761Y-77096785D01*
X94372380Y-77239642D01*
X94372380Y-77334880D01*
X94324761Y-77477738D01*
X94229523Y-77572976D01*
X94134285Y-77620595D01*
X93943809Y-77668214D01*
X93800952Y-77668214D01*
X93610476Y-77620595D01*
X93515238Y-77572976D01*
X93420000Y-77477738D01*
X93372380Y-77334880D01*
X93372380Y-77239642D01*
X93420000Y-77096785D01*
X93467619Y-77049166D01*
X94372380Y-76096785D02*
X94372380Y-76668214D01*
X94372380Y-76382500D02*
X93372380Y-76382500D01*
X93515238Y-76477738D01*
X93610476Y-76572976D01*
X93658095Y-76668214D01*
X117518142Y-97989942D02*
X117565761Y-98037561D01*
X117613380Y-98180418D01*
X117613380Y-98275656D01*
X117565761Y-98418514D01*
X117470523Y-98513752D01*
X117375285Y-98561371D01*
X117184809Y-98608990D01*
X117041952Y-98608990D01*
X116851476Y-98561371D01*
X116756238Y-98513752D01*
X116661000Y-98418514D01*
X116613380Y-98275656D01*
X116613380Y-98180418D01*
X116661000Y-98037561D01*
X116708619Y-97989942D01*
X116708619Y-97608990D02*
X116661000Y-97561371D01*
X116613380Y-97466133D01*
X116613380Y-97228037D01*
X116661000Y-97132799D01*
X116708619Y-97085180D01*
X116803857Y-97037561D01*
X116899095Y-97037561D01*
X117041952Y-97085180D01*
X117613380Y-97656609D01*
X117613380Y-97037561D01*
X123442641Y-97989942D02*
X123490260Y-98037561D01*
X123537879Y-98180418D01*
X123537879Y-98275656D01*
X123490260Y-98418514D01*
X123395022Y-98513752D01*
X123299784Y-98561371D01*
X123109308Y-98608990D01*
X122966451Y-98608990D01*
X122775975Y-98561371D01*
X122680737Y-98513752D01*
X122585499Y-98418514D01*
X122537879Y-98275656D01*
X122537879Y-98180418D01*
X122585499Y-98037561D01*
X122633118Y-97989942D01*
X122537879Y-97656609D02*
X122537879Y-97037561D01*
X122918832Y-97370895D01*
X122918832Y-97228037D01*
X122966451Y-97132799D01*
X123014070Y-97085180D01*
X123109308Y-97037561D01*
X123347403Y-97037561D01*
X123442641Y-97085180D01*
X123490260Y-97132799D01*
X123537879Y-97228037D01*
X123537879Y-97513752D01*
X123490260Y-97608990D01*
X123442641Y-97656609D01*
M02*
