G04 #@! TF.GenerationSoftware,KiCad,Pcbnew,(5.1.6)-1*
G04 #@! TF.CreationDate,2020-08-19T12:55:17-04:00*
G04 #@! TF.ProjectId,actuators-rev2,61637475-6174-46f7-9273-2d726576322e,rev?*
G04 #@! TF.SameCoordinates,Original*
G04 #@! TF.FileFunction,Copper,L1,Top*
G04 #@! TF.FilePolarity,Positive*
%FSLAX46Y46*%
G04 Gerber Fmt 4.6, Leading zero omitted, Abs format (unit mm)*
G04 Created by KiCad (PCBNEW (5.1.6)-1) date 2020-08-19 12:55:17*
%MOMM*%
%LPD*%
G01*
G04 APERTURE LIST*
G04 #@! TA.AperFunction,ComponentPad*
%ADD10R,1.600000X1.600000*%
G04 #@! TD*
G04 #@! TA.AperFunction,ComponentPad*
%ADD11O,1.600000X1.600000*%
G04 #@! TD*
G04 #@! TA.AperFunction,ComponentPad*
%ADD12R,1.700000X1.700000*%
G04 #@! TD*
G04 #@! TA.AperFunction,ComponentPad*
%ADD13O,1.700000X1.700000*%
G04 #@! TD*
G04 #@! TA.AperFunction,WasherPad*
%ADD14C,3.000000*%
G04 #@! TD*
G04 #@! TA.AperFunction,ComponentPad*
%ADD15O,1.980000X3.960000*%
G04 #@! TD*
G04 #@! TA.AperFunction,ComponentPad*
%ADD16R,1.980000X3.960000*%
G04 #@! TD*
G04 #@! TA.AperFunction,ComponentPad*
%ADD17R,2.000000X2.000000*%
G04 #@! TD*
G04 #@! TA.AperFunction,ComponentPad*
%ADD18C,2.000000*%
G04 #@! TD*
G04 #@! TA.AperFunction,ComponentPad*
%ADD19R,3.960000X1.980000*%
G04 #@! TD*
G04 #@! TA.AperFunction,ComponentPad*
%ADD20O,3.960000X1.980000*%
G04 #@! TD*
G04 #@! TA.AperFunction,ComponentPad*
%ADD21C,1.600000*%
G04 #@! TD*
G04 #@! TA.AperFunction,ViaPad*
%ADD22C,0.400000*%
G04 #@! TD*
G04 #@! TA.AperFunction,Conductor*
%ADD23C,0.600000*%
G04 #@! TD*
G04 #@! TA.AperFunction,Conductor*
%ADD24C,1.000000*%
G04 #@! TD*
G04 #@! TA.AperFunction,Conductor*
%ADD25C,0.400000*%
G04 #@! TD*
G04 #@! TA.AperFunction,Conductor*
%ADD26C,0.200000*%
G04 #@! TD*
G04 #@! TA.AperFunction,Conductor*
%ADD27C,0.500000*%
G04 #@! TD*
G04 APERTURE END LIST*
D10*
X110490000Y-82550000D03*
D11*
X92710000Y-90170000D03*
X107950000Y-82550000D03*
X95250000Y-90170000D03*
X105410000Y-82550000D03*
X97790000Y-90170000D03*
X102870000Y-82550000D03*
X100330000Y-90170000D03*
X100330000Y-82550000D03*
X102870000Y-90170000D03*
X97790000Y-82550000D03*
X105410000Y-90170000D03*
X95250000Y-82550000D03*
X107950000Y-90170000D03*
X92710000Y-82550000D03*
X110490000Y-90170000D03*
D12*
X86920000Y-65590000D03*
D13*
X86920000Y-63050000D03*
X89460000Y-65590000D03*
X89460000Y-63050000D03*
X92000000Y-65590000D03*
X92000000Y-63050000D03*
X94540000Y-65590000D03*
X94540000Y-63050000D03*
X97080000Y-65590000D03*
X97080000Y-63050000D03*
X99620000Y-65590000D03*
X99620000Y-63050000D03*
X102160000Y-65590000D03*
X102160000Y-63050000D03*
X104700000Y-65590000D03*
X104700000Y-63050000D03*
X107240000Y-65590000D03*
X107240000Y-63050000D03*
X109780000Y-65590000D03*
X109780000Y-63050000D03*
X112320000Y-65590000D03*
X112320000Y-63050000D03*
X114860000Y-65590000D03*
X114860000Y-63050000D03*
X117400000Y-65590000D03*
X117400000Y-63050000D03*
X119940000Y-65590000D03*
X119940000Y-63050000D03*
X122480000Y-65590000D03*
X122480000Y-63050000D03*
X125020000Y-65590000D03*
X125020000Y-63050000D03*
X127560000Y-65590000D03*
X127560000Y-63050000D03*
X130100000Y-65590000D03*
X130100000Y-63050000D03*
X132640000Y-65590000D03*
X132640000Y-63050000D03*
X135180000Y-65590000D03*
X135180000Y-63050000D03*
D14*
X82040000Y-64310000D03*
X140040000Y-64330000D03*
X82040000Y-113320000D03*
X140030000Y-113310000D03*
D15*
X104220000Y-110490000D03*
D16*
X109220000Y-110490000D03*
X95250000Y-110490000D03*
D15*
X90250000Y-110490000D03*
D17*
X132040000Y-91430000D03*
D18*
X126940000Y-91430000D03*
X139740000Y-71130000D03*
X129540000Y-71130000D03*
X119340000Y-71130000D03*
X119340000Y-91430000D03*
D12*
X87630000Y-71120000D03*
D13*
X90170000Y-71120000D03*
D19*
X137160000Y-99060000D03*
D20*
X137160000Y-104060000D03*
D10*
X90170000Y-75882500D03*
D21*
X90170000Y-77882500D03*
X113411000Y-99073276D03*
D10*
X113411000Y-96573276D03*
X119335499Y-96573276D03*
D21*
X119335499Y-99073276D03*
D22*
X100330000Y-77470000D03*
D23*
X116600000Y-110490000D02*
X112790000Y-114300000D01*
X112790000Y-114300000D02*
X105450000Y-114300000D01*
X98820000Y-114300000D02*
X91480000Y-114300000D01*
X98820000Y-114300000D02*
X104140000Y-114300000D01*
X104140000Y-114300000D02*
X105450000Y-114300000D01*
D24*
X134040000Y-91430000D02*
X132040000Y-91430000D01*
X137160000Y-94550000D02*
X134040000Y-91430000D01*
X137160000Y-99060000D02*
X137160000Y-94550000D01*
X137160000Y-99060000D02*
X126640000Y-99060000D01*
X91080000Y-114300000D02*
X91480000Y-114300000D01*
X90250000Y-113470000D02*
X91080000Y-114300000D01*
X90250000Y-110490000D02*
X90250000Y-113470000D01*
X104220000Y-114220000D02*
X104220000Y-110490000D01*
X104140000Y-114300000D02*
X104220000Y-114220000D01*
X90250000Y-92630000D02*
X92710000Y-90170000D01*
X90250000Y-110490000D02*
X90250000Y-92630000D01*
X126640000Y-98730000D02*
X119340000Y-91430000D01*
X126640000Y-99060000D02*
X126640000Y-98730000D01*
X113411000Y-96573276D02*
X119335499Y-96573276D01*
X119335499Y-91434501D02*
X119340000Y-91430000D01*
X119335499Y-96573276D02*
X119335499Y-91434501D01*
X126640000Y-99060000D02*
X126640000Y-100050000D01*
X112390000Y-114300000D02*
X91480000Y-114300000D01*
X126640000Y-100050000D02*
X112390000Y-114300000D01*
D25*
X86070001Y-63899999D02*
X86920000Y-63050000D01*
X85340001Y-64629999D02*
X86070001Y-63899999D01*
X85340001Y-70080001D02*
X85340001Y-64629999D01*
X86380000Y-71120000D02*
X85340001Y-70080001D01*
X87630000Y-71120000D02*
X86380000Y-71120000D01*
X86920000Y-63050000D02*
X89460000Y-63050000D01*
D26*
X102870000Y-81418630D02*
X100330000Y-78878630D01*
X102870000Y-82550000D02*
X102870000Y-81418630D01*
X100330000Y-78878630D02*
X100330000Y-77470000D01*
X100330000Y-77470000D02*
X100330000Y-77470000D01*
D23*
X116586000Y-74930000D02*
X112776000Y-71120000D01*
X139740000Y-71130000D02*
X135940000Y-74930000D01*
X135940000Y-74930000D02*
X116586000Y-74930000D01*
X112522000Y-71120000D02*
X90170000Y-71120000D01*
D25*
X112522000Y-71120000D02*
X112776000Y-71120000D01*
D23*
X90170000Y-71120000D02*
X90170000Y-75882500D01*
X110490000Y-90170000D02*
X107950000Y-90170000D01*
X102870000Y-90170000D02*
X105410000Y-90170000D01*
X105410000Y-90170000D02*
X105410000Y-95250000D01*
X105410000Y-95250000D02*
X105410000Y-101600000D01*
X109220000Y-105410000D02*
X109220000Y-110490000D01*
X105410000Y-101600000D02*
X109220000Y-105410000D01*
D27*
X107950000Y-90170000D02*
X105410000Y-90170000D01*
D23*
X95250000Y-97790000D02*
X97790000Y-95250000D01*
X95250000Y-110490000D02*
X95250000Y-97790000D01*
X97790000Y-95250000D02*
X97790000Y-90170000D01*
X95250000Y-90170000D02*
X100330000Y-90170000D01*
M02*
